<?xml version="1.0" standalone="no"?>
<!DOCTYPE svg PUBLIC "-//W3C//DTD SVG 1.1//EN" "http://www.w3.org/Graphics/SVG/1.1/DTD/svg11.dtd" >
<svg>
<metadata>
Created by FontForge 20090914 at Fri Nov 20 12:26:49 2015
 By www-data
Copyright (c) 2005 Parachute&#194;&#168;, www.parachute.gr.  All rights reserved.
</metadata>
<defs>
<font id="PFSquareSansPro-MediumItalic" horiz-adv-x="1818" >
  <font-face 
    font-family="PF Square Sans Pro Medium"
    font-weight="500"
    font-style="italic"
    font-stretch="normal"
    units-per-em="1000"
    panose-1="2 0 5 0 0 0 0 9 0 4"
    ascent="750"
    descent="-250"
    x-height="489.999"
    cap-height="664"
    bbox="-153.569 -294.768 1760 913.002"
    underline-thickness="50"
    underline-position="-50"
    slope="-12"
    unicode-range="U+0020-U+FB05"
  />
<missing-glyph horiz-adv-x="449" 
d="M0 700h449v-700h-449v700zM343 70l-119 216l-118 -216h237zM343 630h-238l119 -215zM70 142l114 208l-114 209v-417zM379 142v417l-115 -209z" />
    <glyph glyph-name="fj" unicode="fj" horiz-adv-x="551" 
d="M428 -74c-16 -82.667 -68.9951 -123.998 -158.995 -123.998c-17.333 0 -35.833 1.66699 -55.5 5s-36.834 8.33301 -51.501 15c-9.33301 3.33301 -11.666 11.666 -6.99902 24.999l13 42c2.66699 7.33301 5.83398 11.666 9.50098 12.999s9.83398 1.66602 18.501 0.999023
c4 -0.666992 8.83301 -1.16699 14.5 -1.5l17.5 -1c6 -0.333008 11.667 -0.666016 17 -0.999023s9.66602 -0.5 12.999 -0.5c19.333 0 34.166 4 44.499 12s17.833 23 22.5 45l86 446h-168l-75 -383c-2 -12.667 -9.33301 -19 -22 -19h-70c-13.333 -0 -19 6.33301 -17 19
c1.33301 4.66699 3.66602 16 6.99902 34s7.5 39.333 12.5 64l16 80l16 83l14 72.5c4.33301 21.667 7.83301 38.167 10.5 49.5h-46c-12.667 0 -17.667 6.66699 -15 20l9 48c1.33301 6.66699 3.66602 11.667 6.99902 15s8.66602 5 15.999 5h46l11 59
c10.667 53.333 33 94.666 67 123.999s85 44 153 44c10 0 21.5 -0.333008 34.5 -1s26.167 -2 39.5 -4s26.333 -4.5 39 -7.5s24 -6.83301 34 -11.5c7.33301 -3.33301 11.166 -7.33301 11.499 -12s-0.833984 -10 -3.50098 -16l-15 -40
c-2.66699 -7.33301 -6.16699 -11.5 -10.5 -12.5s-11.166 -0.833008 -20.499 0.5c-19.333 2 -39 3.83301 -59 5.5s-37.333 2.5 -52 2.5c-33.333 0 -58.833 -7.16699 -76.5 -21.5s-29.834 -36.833 -36.501 -67.5l-8 -42h259c6.66699 0 11.167 -1.16699 13.5 -3.5
s2.83301 -7.16602 1.5 -14.499z" />
    <glyph glyph-name="ffj" unicode="ffj" horiz-adv-x="801" 
d="M677 -74c-8.66699 -42.667 -25.0059 -74.0039 -49.0059 -94.0039s-59.667 -30 -107 -30c-17.333 0 -36.5 1.66699 -57.5 5s-38.5 8.33301 -52.5 15c-4 1.33301 -7 4 -9 8s-1.66699 9.66699 1 17l13 42c3.33301 7.33301 6.33301 11.833 9 13.5
s9.33398 1.83398 20.001 0.500977c8.66699 -1.33301 19 -2.33301 31 -3s22.333 -1 31 -1c19.333 0 34.333 4.5 45 13.5s18 23.5 22 43.5l86 446h-170c-6.66699 -32 -12.167 -59.333 -16.5 -82l-11.5 -60.5l-9.5 -49.5l-9.5 -49.5c-3.33301 -17.667 -7.33301 -37.667 -12 -60
s-10 -49.5 -16 -81.5c-1.33301 -6 -3.33301 -10.667 -6 -14s-7.66699 -5 -15 -5h-70c-8 0 -13.167 1.66699 -15.5 5s-2.83301 8 -1.5 14l75 383h-168l-76 -384c-1.33301 -6 -3.33301 -10.667 -6 -14s-7.66699 -5 -15 -5h-70c-8 0 -13.167 1.66699 -15.5 5
s-2.83301 8 -1.5 14l77 384h-47c-8.66699 0 -13.667 1.83301 -15 5.5s-1.33301 8.16699 0 13.5l9 49c2 13.333 9.66699 20 23 20h46l11 55c5.33301 26.667 13.333 50.334 24 71.001s24.667 38.334 42 53.001s38.333 25.667 63 33s53.667 11 87 11
c23.333 0 47 -1.66699 71 -5s45.333 -8.33301 64 -15c8.66699 7.33301 19.334 13.5 32.001 18.5s26.334 9 41.001 12s29.5 5.16699 44.5 6.5s29.167 2 42.5 2c20.667 -0.666992 43.834 -2.66699 69.501 -6s47.5 -9.33301 65.5 -18c7.33301 -2.66699 11 -6.66699 11 -12
s-1 -10.666 -3 -15.999l-15 -40c-3.33301 -8.66699 -7.66602 -12.834 -12.999 -12.501s-11.333 0.5 -18 0.5c-19.333 2 -39.166 3.83301 -59.499 5.5s-37.5 2.5 -51.5 2.5c-30.667 0 -55.5 -6.16699 -74.5 -18.5s-31.167 -33.833 -36.5 -64.5l-13 -63h260
c6.66699 0 11.167 -1.16699 13.5 -3.5s2.83301 -7.16602 1.5 -14.499zM343.994 617.996c-28.667 0 -51.6689 -6.16602 -69.002 -18.499s-28.666 -32.833 -33.999 -61.5l-9 -48h167l13 66c3.33301 19.333 9 37.666 17 54.999c-18.667 2.66699 -34.667 4.5 -48 5.5
s-25.666 1.5 -36.999 1.5z" />
    <glyph glyph-name="ff" unicode="ff" horiz-adv-x="648" 
d="M649 733c6.66699 0 15.1709 -0.332031 25.5039 -0.999023s21.166 -1.83398 32.499 -3.50098s22.833 -4 34.5 -7s22.167 -6.5 31.5 -10.5c6.66699 -2.66699 10 -6.66699 10 -12s-1 -10.666 -3 -15.999l-15 -40c-2.66699 -7.33301 -6.83398 -11.5 -12.501 -12.5
s-11.834 -0.833008 -18.501 0.5c-19.333 2.66699 -36.5 4.5 -51.5 5.5s-25.833 1.5 -32.5 1.5c-28 0 -50.167 -6.33301 -66.5 -19s-27.5 -34.334 -33.5 -65.001l-13 -64h121c7.33301 0 12 -1.83301 14 -5.5s2.33301 -8.16699 1 -13.5l-10 -50
c-1.33301 -6.66699 -3.5 -11.5 -6.5 -14.5s-8.16699 -4.5 -15.5 -4.5h-122l-112 -575c-1.33301 -5.33301 -3.33301 -9.83301 -6 -13.5s-7.66699 -5.5 -15 -5.5h-70c-9.33301 0 -14.833 1.66699 -16.5 5s-1.83398 8 -0.500977 14l112 575h-169l-49.5 -254l-50.5 -254
c-1.33301 -6 -3.33301 -10.833 -6 -14.5s-7.66699 -5.5 -15 -5.5h-70c-9.33301 0 -14.833 1.83301 -16.5 5.5s-1.83398 8.5 -0.500977 14.5l101 508h-47c-8.66699 0 -13.667 1.66699 -15 5s-1.33301 8 0 14l10 50c1.33301 6.66699 3.5 11.5 6.5 14.5s8.16699 4.5 15.5 4.5
h46l11 55c11.333 56.667 34.666 98.834 69.999 126.501s84.333 41.5 147 41.5c22 -0.666992 44.833 -2.33398 68.5 -5.00098s44.834 -7.66699 63.501 -15c16.667 13.333 36.334 23.333 59.001 30s49 10 79 10zM372.004 618.001c-28.667 0 -51.335 -6.16699 -68.002 -18.5
s-28 -32.5 -34 -60.5c-2 -8.66699 -3.83301 -17 -5.5 -25s-3.16699 -16 -4.5 -24h169l13 68c2 9.33301 4.33301 18.5 7 27.5s5.66699 17.5 9 25.5c-19.333 2.66699 -35.666 4.5 -48.999 5.5s-25.666 1.5 -36.999 1.5z" />
    <glyph glyph-name="fi" unicode="fi" horiz-adv-x="551" 
d="M383 717c10 0 21.502 -0.332031 34.502 -0.999023s26.167 -2 39.5 -4s26.333 -4.5 39 -7.5s24 -6.83301 34 -11.5c7.33301 -3.33301 11.166 -7.33301 11.499 -12s-0.833984 -10 -3.50098 -16l-15 -40c-2.66699 -7.33301 -6.16699 -11.5 -10.5 -12.5
s-11.166 -0.833008 -20.499 0.5c-19.333 2 -39 3.83301 -59 5.5s-37.333 2.5 -52 2.5c-30 0 -54.5 -6.16699 -73.5 -18.5s-31.5 -33.833 -37.5 -64.5l-9 -48h258c13.333 0 18.333 -6.33301 15 -19l-88 -452c-1.33301 -12.667 -8.33301 -19 -21 -19h-70
c-13.333 0 -18.666 6.33301 -15.999 19l74 383h-170l-113 -575c-2 -12.667 -9.33301 -19 -22 -19h-70c-12.667 0 -18 6.33301 -16 19l113 575h-46c-12.667 0 -17.667 6.66699 -15 20l9 48c1.33301 6.66699 3.66602 11.667 6.99902 15s8.66602 5 15.999 5h46l11 59
c10.667 53.333 33 94.666 67 123.999s85 44 153 44z" />
    <glyph glyph-name="fl" unicode="fl" horiz-adv-x="562" 
d="M242 402l-99.9971 -516.999c-1.33301 -6 -3.5 -10.667 -6.5 -14s-8.16699 -5 -15.5 -5h-71c-12.667 0 -17.667 6.33301 -15 19l100 517h-46c-12.667 0 -17.667 6.66699 -15 20l9 48c1.33301 6.66699 3.66602 11.667 6.99902 15s8.66602 5 15.999 5h46l12 59
c10 53.333 32.167 94.666 66.5 123.999s85.166 44 152.499 44c8.66699 0 18.5 -0.333008 29.5 -1s22.167 -1.66699 33.5 -3s22.5 -3 33.5 -5s21.167 -4.66699 30.5 -8l51 11c14 2.66699 19.333 -3 16 -17l-142 -733c-2 -12.667 -9.33301 -19 -22 -19h-70
c-13.333 0 -18.666 6.33301 -15.999 19l127 655c-13.333 1.33301 -26.5 2.5 -39.5 3.5s-24.167 1.5 -33.5 1.5c-30.667 0 -55.334 -6.16699 -74.001 -18.5s-31 -33.833 -37 -64.5l-10 -48h100c12.667 0 18 -6.66699 16 -20l-10 -48c-2.66699 -13.333 -10 -20 -22 -20h-101z
" />
    <glyph glyph-name="ffi" unicode="ffi" horiz-adv-x="801" 
d="M766 490c8 0 12.8271 -2.00195 14.4941 -6.00195s1.83398 -8.66699 0.500977 -14l-87 -451c-2 -12.667 -9 -19 -21 -19h-71c-8 0 -13 1.66699 -15 5s-2.33301 8 -1 14l75 383h-171l-114 -575c-1.33301 -6 -3.33301 -10.667 -6 -14s-7.66699 -5 -15 -5h-70
c-8 0 -13.167 1.66699 -15.5 5s-2.83301 8 -1.5 14l114 575h-168l-101 -509c-1.33301 -6 -3.33301 -10.667 -6 -14s-7.66699 -5 -15 -5h-70c-8 0 -13.167 1.66699 -15.5 5s-2.83301 8 -1.5 14l102 509h-47c-8.66699 0 -13.667 1.83301 -15 5.5s-1.33301 8.16699 0 13.5l9 49
c2 13.333 9.66699 20 23 20h46l11 55c5.33301 26.667 13.333 50.334 24 71.001s24.667 38.334 42 53.001s38.333 25.667 63 33s53.667 11 87 11c23.333 0 47 -1.66699 71 -5s45.333 -8.33301 64 -15c8.66699 7.33301 19.334 13.5 32.001 18.5s26.334 9 41.001 12
s29.5 5.16699 44.5 6.5s29.167 2 42.5 2c20.667 -0.666992 43.834 -2.66699 69.501 -6s47.5 -9.33301 65.5 -18c7.33301 -2.66699 11 -6.66699 11 -12s-1 -10.666 -3 -15.999l-15 -40c-3.33301 -8.66699 -7.66602 -12.834 -12.999 -12.501s-11.333 0.5 -18 0.5
c-19.333 2 -39.166 3.83301 -59.499 5.5s-37.5 2.5 -51.5 2.5c-30.667 0 -55.5 -6.16699 -74.5 -18.5s-31.167 -33.833 -36.5 -64.5l-13 -63h259zM343.994 617.998c-28.667 0 -51.6689 -6.16602 -69.002 -18.499s-28.666 -32.833 -33.999 -61.5l-9 -48h167l13 66
c3.33301 19.333 9 37.666 17 54.999c-18.667 2.66699 -34.667 4.5 -48 5.5s-25.666 1.5 -36.999 1.5z" />
    <glyph glyph-name="ffl" unicode="ffl" horiz-adv-x="838" 
d="M660 732c8.66699 0 18.5 -0.332031 29.5 -0.999023s22.167 -1.66699 33.5 -3s22.666 -3 33.999 -5s21.666 -4.66699 30.999 -8l51 11c6.66699 1.33301 11.334 0.5 14.001 -2.5s3.33398 -7.16699 2.00098 -12.5l-135 -692c-1.33301 -12.667 -8.33301 -19 -21 -19h-70
c-8 0 -13.167 1.83301 -15.5 5.5s-2.83301 8.16699 -1.5 13.5l119 612c-13.333 1.33301 -26.333 2.5 -39 3.5s-23.667 1.5 -33 1.5c-30.667 0 -55.5 -6.16699 -74.5 -18.5s-31.5 -33.833 -37.5 -64.5l-12 -63h100c9.33301 0 14.5 -2 15.5 -6s0.833008 -8.66699 -0.5 -14
l-10 -49c-1.33301 -6.66699 -3.5 -11.5 -6.5 -14.5s-8.16699 -4.5 -15.5 -4.5h-101l-113 -575c-1.33301 -6 -3.33301 -10.667 -6 -14s-7.66699 -5 -15 -5h-70c-8 0 -13.167 1.66699 -15.5 5s-2.83301 8 -1.5 14l114 575h-168l-101 -509
c-1.33301 -12.667 -8.33301 -19 -21 -19h-70c-8 0 -13.167 1.66699 -15.5 5s-2.83301 8 -1.5 14l101 509h-46c-7.33301 0 -12.166 1.66699 -14.499 5s-2.83301 8 -1.5 14l10 49c1.33301 6.66699 3.5 11.667 6.5 15s8.16699 5 15.5 5h47l10 55
c10.667 59.333 36.167 102.166 76.5 128.499s91.833 39.5 154.5 39.5c16 -0.666992 35.5 -2.33398 58.5 -5.00098s43.833 -7.66699 62.5 -15c17.333 12.667 38.166 22.334 62.499 29.001s52.5 10 84.5 10zM259 490.001l166.999 -0.000976562l13 64c4 20.667 10 39.667 18 57
c-18.667 2.66699 -34.667 4.5 -48 5.5s-25.666 1.5 -36.999 1.5c-30 0 -53.5 -6.66699 -70.5 -20s-28.167 -34.666 -33.5 -63.999z" />
    <glyph glyph-name="ft" unicode="ft" horiz-adv-x="646" 
d="M371 717c10.667 0 27.0049 -1.16992 49.0049 -3.50293s42.667 -7.16602 62 -14.499c6.66699 -2.66699 10.167 -6.16699 10.5 -10.5s-0.5 -9.83301 -2.5 -16.5l-15 -44c-2.66699 -7.33301 -6.83398 -11.5 -12.501 -12.5s-11.834 -0.833008 -18.501 0.5
c-21.333 2.66699 -41.333 4.33398 -60 5.00098s-35.334 -1.33301 -50.001 -6s-26.834 -12.834 -36.501 -24.501s-16.5 -28.5 -20.5 -50.5l-10 -50h173c3.33301 14.667 6.16602 29.5 8.49902 44.5s5.16602 29.833 8.49902 44.5c1.33301 7.33301 4.33301 12.5 9 15.5
s9.66699 5.16699 15 6.5l63 16c10 2.66699 16.333 1.16699 19 -4.5s3.33398 -12.5 2.00098 -20.5l-19 -102h107c7.33301 0 12 -1.83301 14 -5.5s2.33301 -8.16699 1 -13.5l-10 -50c-1.33301 -6.66699 -3.33301 -11.5 -6 -14.5s-8 -4.5 -16 -4.5h-108l-48 -248
c-2.66699 -13.333 -3.66699 -24 -3 -32s3.33398 -14.5 8.00098 -19.5s11.5 -8.33301 20.5 -10s20.833 -2.5 35.5 -2.5c7.33301 0.666992 17.333 1.5 30 2.5s23.334 1.5 32.001 1.5c5.33301 0 9.16602 -0.833008 11.499 -2.5s3.5 -5.5 3.5 -11.5l-2 -42
c-0.666992 -7.33301 -2.5 -12.666 -5.5 -15.999s-6.83301 -6.33301 -11.5 -9c-9.33301 -4 -20 -7.33301 -32 -10s-24 -4.83398 -36 -6.50098s-23.5 -2.83398 -34.5 -3.50098s-20.5 -1 -28.5 -1c-28 0 -49.5 3.83301 -64.5 11.5s-25.5 18.334 -31.5 32.001
s-8.66699 29.334 -8 47.001s3 36.5 7 56.5l51 263h-172l-113 -575c-1.33301 -6 -3.33301 -10.667 -6 -14s-7.66699 -5 -15 -5h-70c-8 0 -13.167 1.66699 -15.5 5s-2.83301 8 -1.5 14l113 575h-46c-8.66699 0 -13.334 1.83301 -14.001 5.5s-1 8.16699 -1 13.5l9 49
c2 13.333 9.66699 20 23 20h47l11 59c4.66699 25.333 11.667 48.333 21 69s21.833 38.334 37.5 53.001s35 26 58 34s50.833 12 83.5 12z" />
    <glyph glyph-name=".notdef" horiz-adv-x="449" 
d="M0 700h449v-700h-449v700zM343 70l-119 216l-118 -216h237zM343 630h-238l119 -215zM70 142l114 208l-114 209v-417zM379 142v417l-115 -209z" />
    <glyph glyph-name="space" unicode=" " horiz-adv-x="280" 
 />
    <glyph glyph-name="exclam" unicode="!" horiz-adv-x="253" 
d="M258 615l-89.999 -411.998c-1.33301 -6.66699 -3.33301 -11.834 -6 -15.501s-7.33398 -5.5 -14.001 -5.5h-49c-7.33301 0 -11.5 1.66699 -12.5 5s-0.833008 7.66602 0.5 12.999l74 444c2 12.667 8.66699 19 20 19h71c8.66699 0 13 -3.33301 13 -10
c0 -2.66699 -0.333008 -4.66699 -1 -6zM156.001 68.002c0 -20 -5.16895 -38 -15.502 -54s-29.5 -24 -57.5 -24c-33.333 0 -50 12.333 -50 37c0 22 5.33301 40.5 16 55.5s29.334 22.5 56.001 22.5c16.667 0 29.334 -2.83301 38.001 -8.5s13 -15.167 13 -28.5z" />
    <glyph glyph-name="quotedbl" unicode="&#x22;" horiz-adv-x="318" 
d="M303 463c-2.66699 -7.33301 -8 -11 -16 -11h-42c-7.33301 0 -10.333 3.66699 -9 11l26 187c1.33301 8.66699 7 13 17 13h60c5.33301 0 8.5 -1.66699 9.5 -5s1.16699 -6 0.5 -8zM183 463c-1.33301 -3.33301 -2.99902 -6 -4.99902 -8s-5.66699 -3 -11 -3h-42
c-7.33301 0 -10.333 3.66699 -9 11l27 187c1.33301 8.66699 6.66602 13 15.999 13h60c5.33301 0 8.5 -1.66699 9.5 -5s1.16699 -6 0.5 -8z" />
    <glyph glyph-name="numbersign" unicode="#" horiz-adv-x="586" 
d="M296 227l-97.9961 0.000976562l-93 -212c-2.66699 -5.33301 -5 -9.16602 -7 -11.499s-5.33301 -3.5 -10 -3.5h-52c-12.667 0 -16.334 5.66699 -11.001 17l92 210h-106c-11.333 0 -15 4.33301 -11 13l20 44c2.66699 5.33301 5.5 9.16602 8.5 11.499s7.5 3.5 13.5 3.5h106
l43 98h-106c-11.333 0 -15 4.66699 -11 14l20 42c4.66699 10 12.334 15 23.001 15h106l78 179c3.33301 5.33301 6 9.16602 8 11.499s6 3.5 12 3.5h53c10 0 12.333 -5.66699 7 -17l-77 -177h98l79 179c2.66699 5.33301 5.16699 9.16602 7.5 11.499s6.16602 3.5 11.499 3.5h53
c10 0 12.667 -5.66699 8 -17l-78 -177h110c11.333 0 14.666 -5 9.99902 -15l-19 -42c-2 -4.66699 -4.5 -8.16699 -7.5 -10.5s-7.5 -3.5 -13.5 -3.5h-111l-43 -98h110c11.333 0 14.666 -5.33301 9.99902 -16l-19 -42c-4.66699 -9.33301 -11.667 -14 -21 -14h-112l-93 -212
c-2.66699 -5.33301 -5 -9.16602 -7 -11.499s-5.33301 -3.5 -10 -3.5h-52c-12.667 0 -16.334 5.66699 -11.001 17zM229.004 299.001h98l44 98h-99z" />
    <glyph glyph-name="dollar" unicode="$" horiz-adv-x="572" 
d="M342 739c1.33301 8 6.33301 11.9971 15 11.9971h52c5.33301 0 8.5 -1.33301 9.5 -4s1.16699 -5.66699 0.5 -9l-16 -81c10.667 0 22.334 -0.666992 35.001 -2s25.167 -3 37.5 -5s24.333 -4.5 36 -7.5s22.167 -6.5 31.5 -10.5s14.5 -8.16699 15.5 -12.5
s0.166992 -9.83301 -2.5 -16.5l-15 -39c-3.33301 -7.33301 -7.33301 -12.166 -12 -14.499s-11.667 -2.83301 -21 -1.5c-21.333 3.33301 -45.666 6.16602 -72.999 8.49902s-55.666 3.5 -84.999 3.5c-39.333 0 -70.833 -8 -94.5 -24s-36.167 -42 -37.5 -78
c-0.666992 -12 0.833008 -21.833 4.5 -29.5s9.66699 -14 18 -19s19.166 -9.16699 32.499 -12.5s29 -6.66602 47 -9.99902c23.333 -4.66699 46.166 -10 68.499 -16s42.166 -14.833 59.499 -26.5s31.333 -27.167 42 -46.5s16 -44 16 -74c0 -36 -6 -67.167 -18 -93.5
s-28.5 -48.5 -49.5 -66.5s-45.333 -32 -73 -42s-57.5 -16.333 -89.5 -19l-17 -86c0 -2.66699 -1.16699 -5.33398 -3.5 -8.00098s-6.16602 -4 -11.499 -4h-52c-8 0 -11.333 3.66699 -10 11l16 85c-13.333 0.666992 -27.5 1.66699 -42.5 3s-29.833 3 -44.5 5
s-28.334 4.66699 -41.001 8s-23.667 7 -33 11c-10 4 -15.333 8.33301 -16 13s0.333008 10.334 3 17.001l16 39c3.33301 8 7 12.833 11 14.5s10 1.83398 18 0.500977l82 -9.5c26 -3 56 -4.5 90 -4.5c42.667 0 77.5 8.66699 104.5 26s41.167 45.666 42.5 84.999
c0.666992 24.667 -7 42.167 -23 52.5s-41.667 18.833 -77 25.5c-24 4.66699 -47.333 10.334 -70 17.001s-42.667 15.667 -60 27s-31.166 26 -41.499 44s-15.5 41 -15.5 69c0 34 5.83301 63.833 17.5 89.5s27.5 47.334 47.5 65.001s43.667 31.5 71 41.5s56.666 16 87.999 18z
" />
    <glyph glyph-name="percent" unicode="%" horiz-adv-x="877" 
d="M260 671c29.333 0 53.5 -3.8291 72.5 -11.4961s34 -17.667 45 -30s18.667 -26.833 23 -43.5s6.5 -34 6.5 -52c0 -24.667 -2.66699 -49.667 -8 -75c-4 -21.333 -9.5 -45 -16.5 -71s-17.833 -50.333 -32.5 -73s-34.5 -41.667 -59.5 -57s-57.833 -23 -98.5 -23
c-27.333 0 -50 3.33301 -68 10s-32.5 15.667 -43.5 27s-19 24.5 -24 39.5s-7.83301 31.167 -8.5 48.5c0 3.33301 -0.166992 6.66602 -0.5 9.99902s-0.5 6.66602 -0.5 9.99902c0 13.333 1.16699 26.666 3.5 39.999s4.5 26.333 6.5 39c2.66699 16 7.5 36.167 14.5 60.5
s17.833 47.666 32.5 69.999s34.5 41.5 59.5 57.5s57.167 24 96.5 24zM708 430.004c29.333 0 53.501 -3.83398 72.501 -11.501s34 -17.667 45 -30s18.667 -26.833 23 -43.5s6.5 -34 6.5 -52c0 -24 -2.66699 -48.667 -8 -74c-4 -21.333 -9.5 -45 -16.5 -71
s-17.833 -50.333 -32.5 -73s-34.5 -41.667 -59.5 -57s-57.833 -23 -98.5 -23c-28.667 0 -52.334 3.66699 -71.001 11s-33.334 17.166 -44.001 29.499s-18.167 27 -22.5 44s-6.5 35.167 -6.5 54.5c0 14.667 0.833008 28.834 2.5 42.501s3.83398 27.834 6.50098 42.501
c2.66699 16 7.5 36 14.5 60s17.833 47.167 32.5 69.5s34.5 41.5 59.5 57.5s57.167 24 96.5 24zM696.001 685.003l-204.498 -347.999l-204.5 -348c-5.33301 -8 -11 -12 -17 -12h-56c-6.66699 0 -10 2.33301 -10 7c0 2 1 4.66699 3 8l410 695c4.66699 8.66699 10.667 13 18 13
c9.33301 0 18.666 -0.166992 27.999 -0.5s18.666 -0.5 27.999 -0.5c5.33301 0 8 -2 8 -6c0 -2.66699 -1 -5.33398 -3 -8.00098zM699.003 353.004c-16.667 0 -30.8311 -3.66406 -42.498 -10.9971s-21.334 -17.5 -29.001 -30.5s-14 -28 -19 -45s-9.5 -35.167 -13.5 -54.5
c-2.66699 -14 -4.83398 -27.333 -6.50098 -40s-2.5 -24.334 -2.5 -35.001c0.666992 -20 5 -35.833 13 -47.5s23 -17.5 45 -17.5c18 0 33 3.5 45 10.5s22.333 16.667 31 29s15.5 27.166 20.5 44.499s9.5 36 13.5 56c3.33301 15.333 5.83301 29.166 7.5 41.499
s2.5 23.833 2.5 34.5c0 21.333 -4.66699 37.5 -14 48.5s-26.333 16.5 -51 16.5zM251.006 594.007c-16.667 0 -30.666 -3.66504 -41.999 -10.998s-21 -17.5 -29 -30.5s-14.5 -28.167 -19.5 -45.5s-9.5 -35.666 -13.5 -54.999c-2.66699 -13.333 -4.83398 -26.333 -6.50098 -39
s-2.5 -24.334 -2.5 -35.001c0 -20 4.16699 -35.833 12.5 -47.5s23.5 -17.5 45.5 -17.5c18 0 33 3.5 45 10.5s22.167 16.667 30.5 29s15.166 27 20.499 44s10 35.5 14 55.5c2.66699 15.333 4.83398 29.166 6.50098 41.499s2.5 23.833 2.5 34.5
c0 21.333 -4.66699 37.666 -14 48.999s-26 17 -50 17z" />
    <glyph glyph-name="ampersand" unicode="&#x26;" horiz-adv-x="713" 
d="M384 674c20 0 38.3232 -2.66504 54.9902 -7.99805s31.334 -12.833 44.001 -22.5s22.5 -21.667 29.5 -36s10.5 -30.5 10.5 -48.5c0 -23.333 -5.16699 -44.833 -15.5 -64.5s-23.333 -37.5 -39 -53.5s-33.167 -30 -52.5 -42s-38 -22.333 -56 -31
c16.667 -36 34.334 -69 53.001 -99s40.667 -60.333 66 -91c32 28 60.833 60.333 86.5 97s45.834 77 60.501 121c3.33301 9.33301 6 15 8 17s7.66699 3 17 3h45c9.33301 -0.666992 14.833 -3 16.5 -7s1.5 -10.667 -0.5 -20c-6.66699 -26.667 -16.667 -53.334 -30 -80.001
s-28.166 -52.167 -44.499 -76.5s-33.333 -46.666 -51 -66.999s-34.5 -37.5 -50.5 -51.5c15.333 -17.333 32.333 -33.833 51 -49.5s37.667 -29.834 57 -42.501c6 -3.33301 8.83301 -6.66602 8.5 -9.99902s-3.16602 -8 -8.49902 -14l-33 -42
c-4 -4.66699 -8.16699 -7.83398 -12.5 -9.50098s-10.166 -0.833984 -17.499 2.49902c-9.33301 4.66699 -19.666 11 -30.999 19l-35 26c-12 9.33301 -23.667 19.166 -35 29.499s-21.666 20.5 -30.999 30.5c-34 -20 -70.5 -35.833 -109.5 -47.5s-79.167 -17.5 -120.5 -17.5
c-26 0 -50.333 3 -73 9s-42.5 15.167 -59.5 27.5s-30.333 28.333 -40 48s-14.5 43.167 -14.5 70.5c0 30.667 5.5 58.5 16.5 83.5s25.833 47.833 44.5 68.5s40 39.334 64 56.001s48.667 32 74 46c-7.33301 17.333 -13.166 34.666 -17.499 51.999s-6.5 34 -6.5 50
c0 24.667 4.5 47.667 13.5 69s21.5 39.833 37.5 55.5s34.833 27.834 56.5 36.501s44.834 13 69.501 13zM234.99 74.002c26.667 -0.666992 53.5 3.33203 80.5 11.999s52.5 20 76.5 34c-25.333 32 -49 65.333 -71 100s-40.667 69 -56 103
c-16.667 -9.33301 -33 -19.166 -49 -29.499s-30.167 -21.833 -42.5 -34.5s-22.333 -27 -30 -43s-11.5 -34 -11.5 -54c0 -30 10.167 -52.167 30.5 -66.5s44.5 -21.5 72.5 -21.5zM373.99 589.001c-10 0 -19.1699 -2.16992 -27.5029 -6.50293s-15.5 -10.166 -21.5 -17.499
s-10.833 -15.5 -14.5 -24.5s-5.5 -18.167 -5.5 -27.5c0 -11.333 2 -23.166 6 -35.499s8.66699 -24.166 14 -35.499c10.667 5.33301 21.834 11.333 33.501 18s22.334 14 32.001 22s17.834 17 24.501 27s10 21 10 33c0 14 -5 25.333 -15 34s-22 13 -36 13z" />
    <glyph glyph-name="quotesingle" unicode="'" horiz-adv-x="215" 
d="M188 463c-1.33301 -7.33301 -6.33301 -11 -15 -11h-43c-6 0 -9 3.66699 -9 11l27 187c2 8.66699 7.66699 13 17 13h59c6 0 9.5 -1.66699 10.5 -5s0.833008 -6 -0.5 -8z" />
    <glyph glyph-name="parenleft" unicode="(" horiz-adv-x="310" 
d="M65 190c1.33301 102 21.835 196.159 61.502 282.492s93.167 162.5 160.5 228.5c6.66699 6 11.834 9.33301 15.501 10s8.16699 -0.666016 13.5 -3.99902l31 -21c5.33301 -3.33301 8.16602 -6.66602 8.49902 -9.99902s-2.16699 -8.66602 -7.5 -15.999
c-60.667 -71.333 -105.334 -147.166 -134.001 -227.499s-43.334 -164.166 -44.001 -251.499c0 -50 3.5 -96.5 10.5 -139.5s16.5 -77.833 28.5 -104.5c2.66699 -7.33301 3 -12.666 1 -15.999s-6.33301 -6.66602 -13 -9.99902l-39 -20c-6.66699 -3.33301 -12 -5 -16 -5
s-7.66699 3.33301 -11 10c-17.333 32 -32.833 72.333 -46.5 121s-20.167 106.334 -19.5 173.001z" />
    <glyph glyph-name="parenright" unicode=")" horiz-adv-x="311" 
d="M289 406c-1.33301 -102 -21.835 -196.159 -61.502 -282.492s-93.167 -162.5 -160.5 -228.5c-6.66699 -6 -11.834 -9.33301 -15.501 -10s-8.16699 0.666016 -13.5 3.99902l-31 21c-5.33301 3.33301 -8.16602 6.66602 -8.49902 9.99902s2.16699 8.66602 7.5 15.999
c60.667 71.333 105.334 147.166 134.001 227.499s43.334 164.166 44.001 251.499c0 50 -3.5 96.5 -10.5 139.5s-16.5 77.833 -28.5 104.5c-2.66699 7.33301 -3 12.666 -1 15.999s6.33301 6.66602 13 9.99902l39 20c6.66699 3.33301 12 5 16 5s7.66699 -3.33301 11 -10
c17.333 -32 32.833 -72.333 46.5 -121s20.167 -106.334 19.5 -173.001z" />
    <glyph glyph-name="asterisk" unicode="*" horiz-adv-x="381" 
d="M369 419c-5.33301 -5.33301 -9.49609 -8.33301 -12.4961 -9s-7.16699 0.333008 -12.5 3l-65 38l-19 -77c-1.33301 -7.33301 -3.16602 -11.833 -5.49902 -13.5s-7.5 -2.5 -15.5 -2.5h-32c-7.33301 0 -11.833 0.833008 -13.5 2.5s-1.83398 6.16699 -0.500977 13.5l9 77
l-77 -35c-5.33301 -2 -9.83301 -3 -13.5 -3s-6.83398 2.66699 -9.50098 8l-9 24c-4 7.33301 -0.666992 14 10 20l74 46l-57 40c-4 3.33301 -6.5 6.66602 -7.5 9.99902s1.16699 8.33301 6.5 15l15 22c5.33301 7.33301 10 11 14 11s8.66699 -1.66699 14 -5l65 -34l18 78
c2 6.66699 4.33301 10.834 7 12.501s8 2.5 16 2.5h29c7.33301 0 12.166 -1.16699 14.499 -3.5s3.16602 -6.5 2.49902 -12.5l-12 -77l79 35c6 3.33301 10.167 4.83301 12.5 4.5s5.16602 -3.83301 8.49902 -10.5l10 -22c4 -8 2 -14.333 -6 -19l-80 -47l60 -47
c4.66699 -4 7.16699 -7.5 7.5 -10.5s-2.16699 -7.5 -7.5 -13.5z" />
    <glyph glyph-name="plus" unicode="+" horiz-adv-x="572" 
d="M349 368h142.999c11.333 0 16 -5.33301 14 -16l-10 -51c-2 -10.667 -8.66699 -16 -20 -16h-144l-29 -150c-2 -11.333 -8 -17 -18 -17h-63c-11.333 0 -16 5.66699 -14 17l30 150h-145c-11.333 0 -16 5.33301 -14 16l10 51c2.66699 10.667 9.33398 16 20.001 16h145l27 142
c2 11.333 9 17 21 17h61c10.667 0 15 -5.66699 13 -17z" />
    <glyph glyph-name="comma" unicode="," horiz-adv-x="213" 
d="M136 42c0 -20 -3.66797 -39.5 -11.001 -58.5s-17 -36.667 -29 -53s-25.5 -31 -40.5 -44s-30.167 -23.833 -45.5 -32.5c-4.66699 -2.66699 -9.16699 -4 -13.5 -4s-7.83301 1.66699 -10.5 5l-15 20c-3.33301 4.66699 -4.5 8.5 -3.5 11.5s4.5 7.16699 10.5 12.5
c15.333 12 26.833 24.667 34.5 38s12.167 26.666 13.5 39.999c1.33301 10 1 20.333 -1 31s-5.66699 19.667 -11 27c-3.33301 5.33301 -4.66602 10.5 -3.99902 15.5s5.66699 10.5 15 16.5l58 39c7.33301 5.33301 13.5 7.33301 18.5 6s9.83301 -4.66602 14.5 -9.99902
c6.66699 -7.33301 11.667 -16.333 15 -27s5 -21.667 5 -33z" />
    <glyph glyph-name="hyphen" unicode="-" horiz-adv-x="387" 
d="M371 370c11.333 0 15.667 -5.33301 13 -16l-11 -58c-2 -10.667 -8.66699 -16 -20 -16h-288c-12 0 -16.667 5.33301 -14 16l11 58c2 10.667 8.66699 16 20 16h289z" />
    <glyph glyph-name="period" unicode="." horiz-adv-x="205" 
d="M83 110c34 0 51 -12.668 51 -38.001c0 -21.333 -5.33301 -40.166 -16 -56.499s-30 -24.5 -58 -24.5c-34.667 0 -52 13 -52 39c0 22 5.5 40.833 16.5 56.5s30.5 23.5 58.5 23.5z" />
    <glyph glyph-name="slash" unicode="/" horiz-adv-x="283" 
d="M50 -49c-2 -5.33301 -5 -9.00098 -9 -11.001s-7.66699 -3 -11 -3h-60c-11.333 0 -14.333 5.66699 -9 17c4 8.66699 11 24.834 21 48.501l36 84.5l47 108.5l52.5 121l52 120.5l47 108.5l36.5 84.5c10 23.333 17 39.333 21 48c4 10 11 15 21 15h59
c10 0 12.667 -6.33301 8 -19z" />
    <glyph glyph-name="zero" unicode="0" horiz-adv-x="572" 
d="M257 -9c-38 0 -70.165 5.16699 -96.498 15.5s-47.833 24.833 -64.5 43.5s-28.667 41 -36 67s-11 54.667 -11 86c0 23.333 1.5 46.5 4.5 69.5s6.83301 45.833 11.5 68.5c6.66699 36.667 16 74.5 28 113.5s29 74.667 51 107s50.667 58.833 86 79.5s79.666 31 132.999 31
c76 0 131 -18.5 165 -55.5s51 -87.5 51 -151.5c0 -21.333 -1.16699 -42.333 -3.5 -63s-5.5 -41 -9.5 -61c-7.33301 -40 -17 -80.667 -29 -122s-29.333 -79 -52 -113s-52.334 -61.667 -89.001 -83s-83 -32 -139 -32zM357.002 574c-26 0 -48.166 -5.50195 -66.499 -16.502
s-34 -25.5 -47 -43.5s-23.833 -38.833 -32.5 -62.5s-16 -48.167 -22 -73.5c-4.66699 -17.333 -8.5 -35.166 -11.5 -53.499s-5.5 -36.166 -7.5 -53.499c-3.33301 -26.667 -5 -51.167 -5 -73.5s3.33301 -41.5 10 -57.5s17.167 -28.333 31.5 -37s34.166 -13 59.499 -13
c26 0 48.333 5 67 15s34.667 23.667 48 41s24.5 37.833 33.5 61.5s17.167 49.167 24.5 76.5c4.66699 17.333 8.5 35.333 11.5 54l8.5 55c3.33301 28 4.83301 53.167 4.5 75.5s-4 41.333 -11 57s-18.167 27.667 -33.5 36s-36 12.5 -62 12.5z" />
    <glyph glyph-name="one" unicode="1" horiz-adv-x="572" 
d="M86 0c-12 0 -16.666 5.66699 -13.999 17l11 63c3.33301 11.333 10.666 17 21.999 17h113l88 449h-104c-6.66699 0 -11.334 0.833008 -14.001 2.5s-3.33398 5.83398 -2.00098 12.501l6 34c1.33301 5.33301 3.33301 10.166 6 14.499s7.33398 7.83301 14.001 10.5l98 34
c9.33301 4 18 6.66699 26 8s16.333 2 25 2h58c8.66699 0 13.834 -1.66699 15.501 -5s1.83398 -8.33301 0.500977 -15l-107 -547h125c11.333 0 16 -5.66699 14 -17l-13 -63c-0.666992 -11.333 -7.33398 -17 -20.001 -17h-348z" />
    <glyph glyph-name="two" unicode="2" horiz-adv-x="572" 
d="M183 97l284.998 -0.000976562c11.333 0 16 -5.66699 14 -17l-12 -63c-2 -11.333 -8.66699 -17 -20 -17h-426c-12 0 -16.667 5.66699 -14 17l11 57c1.33301 6 3.16602 11.5 5.49902 16.5s6.16602 10.167 11.499 15.5l40 33l53.5 43l52 41.5l35.5 28.5l19.5 16l31 25
l36.5 30l37 31c12.667 10.667 24.5 21.334 35.5 32.001s20.833 22 29.5 34s15.5 24.833 20.5 38.5s7.5 28.167 7.5 43.5c0 23.333 -7.66699 40.5 -23 51.5s-43.666 16.5 -84.999 16.5c-30 0 -60.333 -1.33301 -91 -4s-57.667 -5.66699 -81 -9
c-8.66699 -1.33301 -14.5 -0.833008 -17.5 1.5s-4.5 7.16602 -4.5 14.499l1 40c0 6 1.33301 11.5 4 16.5s9.66699 9.83301 21 14.5c14.667 5.33301 31.334 9.66602 50.001 12.999s37 6 55 8s35 3.5 51 4.5s28.667 1.5 38 1.5c68.667 0 118.834 -13 150.501 -39
s47.5 -63 47.5 -111c0 -27.333 -3.5 -51.666 -10.5 -72.999s-16.667 -41.166 -29 -59.499s-26.666 -35.333 -42.999 -51s-33.833 -31.5 -52.5 -47.5l-52.5 -44.5l-51.5 -41.5l-58 -46l-73 -58z" />
    <glyph glyph-name="three" unicode="3" horiz-adv-x="572" 
d="M212 -8c-9.33301 0 -22 0.50293 -38 1.50293s-32.667 2.5 -50 4.5s-34.5 4.66699 -51.5 8s-31.167 7.66602 -42.5 12.999c-10 4.66699 -15.667 9.33398 -17 14.001s-0.333008 10.667 3 18l14 39c2.66699 6 6.16699 10.5 10.5 13.5s11.166 3.83301 20.499 2.5
c24.667 -3.33301 51 -6.5 79 -9.5s56 -4.5 84 -4.5c24.667 0 48 3 70 9s41.333 15.333 58 28s29.834 28.667 39.501 48s14.5 42.333 14.5 69c0 19.333 -6.5 33.666 -19.5 42.999s-29.833 15.666 -50.5 18.999l-124 23c-8.66699 1.33301 -14.167 4 -16.5 8
s-2.83301 10.333 -1.5 19l6 33c1.33301 9.33301 3.33301 16.166 6 20.499s6.33398 8.16602 11.001 11.499l181 141l-1 2h-253c-13.333 0 -18.333 6 -15 18l12 62c2.66699 11.333 9.33398 17 20.001 17h395c13.333 0 18.666 -6.66699 15.999 -20l-11 -53
c-1.33301 -5.33301 -3.33301 -11 -6 -17s-7.33398 -11.667 -14.001 -17l-182 -144v-2l65 -12c32 -7.33301 57.333 -20.5 76 -39.5s28 -45.167 28 -78.5c0 -50.667 -7.83301 -94.167 -23.5 -130.5s-37.5 -66.166 -65.5 -89.499s-61.333 -40.5 -100 -51.5
s-81 -16.5 -127 -16.5z" />
    <glyph glyph-name="four" unicode="4" horiz-adv-x="572" 
d="M408 508l-89 -89l-160 -157h204l49 246h-4zM425 18c-1.33301 -5.33301 -3.5 -9.66797 -6.5 -13.001s-7.83301 -5 -14.5 -5h-76c-10.667 0 -15 5.66699 -13 17l29 150l-313 -1c-5.33301 0 -9.66602 1.33301 -12.999 4s-4.33301 7.33398 -3 14.001l11 57
c1.33301 4.66699 3 9.33398 5 14.001s5.66699 9.66699 11 15l385 377c5.33301 5.33301 10.666 9.16602 15.999 11.499s12 3.5 20 3.5h71c6 0 9.83301 -1.5 11.5 -4.5s2.16699 -6.5 1.5 -10.5l-75 -384h73c12 0 16.667 -5.33301 14 -16l-12 -64
c-2 -11.333 -8.66699 -17 -20 -17l-73 1z" />
    <glyph glyph-name="five" unicode="5" horiz-adv-x="572" 
d="M274 567l-47 -137l177 -28c36 -5.33301 65.167 -18.333 87.5 -39s33.5 -49.667 33.5 -87c0 -49.333 -8.16699 -92 -24.5 -128s-38.5 -65.5 -66.5 -88.5s-60.667 -40 -98 -51s-77 -16.5 -119 -16.5c-9.33301 0 -22 0.5 -38 1.5s-33 2.5 -51 4.5s-35.5 4.66699 -52.5 8
s-31.5 7.66602 -43.5 12.999c-9.33301 4.66699 -14.666 9.33398 -15.999 14.001s-0.666016 10.667 2.00098 18l15 39c2.66699 6 6 10.5 10 13.5s10.667 3.83301 20 2.5c25.333 -3.33301 52 -6.5 80 -9.5s56 -4.5 84 -4.5c23.333 0 45.666 2.66699 66.999 8
s40.166 14.166 56.499 26.499s29.333 28.333 39 48s14.5 43.834 14.5 72.501c0 17.333 -6 30.833 -18 40.5s-28.667 16.5 -50 20.5l-214 37c-12 2.66699 -19.333 7.33398 -22 14.001s-2 16 2 28l89 252c3.33301 9.33301 7.33301 15.666 12 18.999s11.667 5 21 5h328
c11.333 0 16 -5.33301 14 -16l-12 -63c-2.66699 -11.333 -10 -17 -22 -17h-258z" />
    <glyph glyph-name="six" unicode="6" horiz-adv-x="572" 
d="M562 574c-5.33301 -12 -12.666 -17.9951 -21.999 -17.9951c-1.33301 0 -2.33301 0.166992 -3 0.5s-1.66699 0.5 -3 0.5c-22.667 3.33301 -47 6.33301 -73 9s-54.333 4 -85 4c-28 0 -52.167 -4.5 -72.5 -13.5s-37.5 -21.167 -51.5 -36.5s-25.667 -33.833 -35 -55.5
s-17 -44.834 -23 -69.501c35.333 3.33301 66.666 6.16602 93.999 8.49902s55.333 3.5 84 3.5c56 0 97.167 -13.5 123.5 -40.5s39.5 -66.833 39.5 -119.5c0 -44.667 -7.16699 -83.167 -21.5 -115.5s-34.166 -58.833 -59.499 -79.5s-55.5 -36 -90.5 -46
s-72.833 -15 -113.5 -15c-40 0 -73 4 -99 12s-46.833 19.667 -62.5 35s-26.667 34.166 -33 56.499s-9.5 48.166 -9.5 77.499c0 30.667 2.16699 61.667 6.5 93s10.166 63 17.499 95c9.33301 38.667 21.333 76.667 36 114s34.167 70.5 58.5 99.5s54.333 52.333 90 70
s79.5 26.5 131.5 26.5c8 0 19 -0.333008 33 -1s29.5 -1.83398 46.5 -3.50098s34.167 -4.16699 51.5 -7.5s33 -8 47 -14c11.333 -4.66699 17 -10.667 17 -18c0 -4 -1 -8.33301 -3 -13zM340 309.005c-23.333 0 -48.499 -1.16699 -75.499 -3.5l-93.5 -8.5
c-4 -20 -7.83301 -40.333 -11.5 -61s-5.5 -40 -5.5 -58c0 -32.667 8.16699 -56 24.5 -70s44.833 -21 85.5 -21c47.333 0 85.333 11.667 114 35s43 60.666 43 111.999c0 26.667 -6.33301 45.834 -19 57.501s-33.334 17.5 -62.001 17.5z" />
    <glyph glyph-name="seven" unicode="7" horiz-adv-x="572" 
d="M188 -1c-7.33301 -11.333 -16 -14.3311 -26 -8.99805l-62 32c-6 3.33301 -9.16699 6.66602 -9.5 9.99902s1.83398 8.66602 6.50098 15.999l358 519h-327c-10.667 0 -15 5.33301 -13 16l12 63c2 12 8.66699 18 20 18h440c12.667 0 17.667 -6 15 -18l-10 -52
c-2.66699 -10 -8.33398 -21.667 -17.001 -35z" />
    <glyph glyph-name="eight" unicode="8" horiz-adv-x="572" 
d="M368 672c26.667 0 52.168 -2.66699 76.501 -8s45.666 -13.833 63.999 -25.5s33 -27.167 44 -46.5s16.5 -43 16.5 -71c0 -39.333 -10.667 -73.833 -32 -103.5s-49.333 -51.167 -84 -64.5c0 -0.666992 -0.166992 -1 -0.5 -1s-0.5 -0.333008 -0.5 -1
c28 -11.333 48.333 -28.833 61 -52.5s19 -49.5 19 -77.5c0 -38.667 -8 -72.5 -24 -101.5s-37.167 -53 -63.5 -72s-56.833 -33.167 -91.5 -42.5s-70.334 -14 -107.001 -14c-28 0 -55.333 2.33301 -82 7s-50.167 13 -70.5 25s-36.666 28 -48.999 48s-18.5 45.667 -18.5 77
c0 48.667 12.333 90.5 37 125.5s59 60.833 103 77.5c-21.333 15.333 -37 33.833 -47 55.5s-14.333 44.5 -13 68.5c1.33301 32.667 9.33301 61.167 24 85.5s34 44.833 58 61.5s51.5 29.167 82.5 37.5s63.5 12.5 97.5 12.5zM355.001 575
c-18 0 -35.166 -1.99609 -51.499 -5.99609s-30.5 -10.333 -42.5 -19s-21.667 -19.834 -29 -33.501s-11 -29.834 -11 -48.501c0 -12 3 -22.167 9 -30.5s13.667 -15.333 23 -21s20 -10.334 32 -14.001s23.667 -6.83398 35 -9.50098c17.333 2.66699 34 6.5 50 11.5
s30 11.833 42 20.5s21.667 19.167 29 31.5s11 27.5 11 45.5c0 13.333 -2.66699 24.666 -8 33.999s-12.5 16.833 -21.5 22.5s-19.333 9.83398 -31 12.501s-23.834 4 -36.501 4zM297.002 310.004c-19.333 -3.33301 -38.334 -8.16895 -57.001 -14.502s-35.334 -15 -50.001 -26
s-26.334 -24.667 -35.001 -41s-13 -35.833 -13 -58.5c0 -16 3.33301 -29.167 10 -39.5s15.5 -18.666 26.5 -24.999s23.333 -10.833 37 -13.5s27.834 -4 42.501 -4c20.667 0 40.5 2.66699 59.5 8s35.833 13.333 50.5 24s26.5 23.5 35.5 38.5s13.5 32.5 13.5 52.5
c0 16 -3.66699 29.833 -11 41.5s-16.666 21.334 -27.999 29.001s-24.166 13.667 -38.499 18s-28.5 7.83301 -42.5 10.5z" />
    <glyph glyph-name="nine" unicode="9" horiz-adv-x="572" 
d="M60 87c4.66699 12 11.999 17.999 21.999 17.999c1.33301 0 2.33301 -0.166992 3 -0.5s1.66699 -0.5 3 -0.5c22.667 -3.33301 47 -6.33301 73 -9s54.333 -4 85 -4c28 0 52.167 4.5 72.5 13.5s37.5 21.167 51.5 36.5s25.667 33.666 35 54.999s17 44.666 23 69.999
c-35.333 -3.33301 -66.666 -6.16602 -93.999 -8.49902s-55.333 -3.5 -84 -3.5c-56 0 -97.167 13.5 -123.5 40.5s-39.5 66.833 -39.5 119.5c0 44.667 7.16699 83.167 21.5 115.5s34.166 58.833 59.499 79.5s55.333 36 90 46s72.667 15 114 15c40 0 73 -4 99 -12
s46.833 -19.667 62.5 -35s26.667 -34.166 33 -56.499s9.5 -48.166 9.5 -77.499c0 -30.667 -2.16699 -61.667 -6.5 -93s-10.166 -63 -17.499 -95c-9.33301 -39.333 -21.333 -77.5 -36 -114.5s-34.167 -70 -58.5 -99s-54.333 -52.333 -90 -70s-79.5 -26.5 -131.5 -26.5
c-8 0 -19 0.333008 -33 1s-29.5 1.83398 -46.5 3.50098s-34.167 4.16699 -51.5 7.5s-33 8 -47 14c-11.333 4.66699 -17 10.667 -17 18c0 3.33301 1 7.66602 3 12.999zM281.999 351.999c23.333 0 48.5 1.16602 75.5 3.49902l93.5 8.5c4 20 7.83301 40.333 11.5 61
s5.5 40 5.5 58c0 32.667 -8.16699 56 -24.5 70s-44.833 21 -85.5 21c-48 0 -86.167 -12 -114.5 -36s-42.5 -62 -42.5 -114c0 -25.333 6.5 -43.666 19.5 -54.999s33.5 -17 61.5 -17z" />
    <glyph glyph-name="colon" unicode=":" horiz-adv-x="211" 
d="M87 110c34 0 51.002 -12.665 51.002 -37.998c0 -10.667 -1.16699 -20.834 -3.5 -30.501s-6.33301 -18.334 -12 -26.001s-13.334 -13.667 -23.001 -18s-21.5 -6.5 -35.5 -6.5c-34.667 0 -52 13 -52 39c0 22 5.66699 40.833 17 56.5s30.666 23.5 57.999 23.5z
M152.002 446.002c17.333 0 30.333 -2.83301 39 -8.5s13 -15.5 13 -29.5c0 -10 -1.16699 -20 -3.5 -30s-6.5 -18.667 -12.5 -26s-13.667 -13.333 -23 -18s-21 -7 -35 -7c-34.667 0 -52 13.333 -52 40c0 22 5.5 40.667 16.5 56s30.167 23 57.5 23z" />
    <glyph glyph-name="semicolon" unicode=";" horiz-adv-x="211" 
d="M152 446c17.333 0 30.333 -2.83301 39 -8.5s13 -15.5 13 -29.5c0 -10 -1.16699 -20 -3.5 -30s-6.5 -18.667 -12.5 -26s-13.667 -13.333 -23 -18s-21 -7 -35 -7c-34.667 0 -52 13.333 -52 40c0 22 5.5 40.667 16.5 56s30.167 23 57.5 23zM136 42
c0 -20 -3.66797 -39.5 -11.001 -58.5s-17 -36.667 -29 -53s-25.5 -31 -40.5 -44s-30.167 -23.833 -45.5 -32.5c-4.66699 -2.66699 -9.16699 -4 -13.5 -4s-7.83301 1.66699 -10.5 5l-15 20c-3.33301 4.66699 -4.5 8.5 -3.5 11.5s4.5 7.16699 10.5 12.5
c15.333 12 26.833 24.667 34.5 38s12.167 26.666 13.5 39.999c1.33301 10 1 20.333 -1 31s-5.66699 19.667 -11 27c-3.33301 5.33301 -4.66602 10.5 -3.99902 15.5s5.66699 10.5 15 16.5l58 39c7.33301 5.33301 13.5 7.33301 18.5 6s9.83301 -4.66602 14.5 -9.99902
c6.66699 -7.33301 11.667 -16.333 15 -27s5 -21.667 5 -33z" />
    <glyph glyph-name="less" unicode="&#x3c;" horiz-adv-x="572" 
d="M443 174c4 -2 6.83301 -4.33398 8.5 -7.00098s1.83398 -7 0.500977 -13l-14 -66c-0.666992 -4.66699 -2.5 -7.66699 -5.5 -9s-6.16699 -1 -9.5 1l-343 201c-3.33301 1.33301 -6 3.33301 -8 6s-2.33301 7.33398 -1 14.001l10 48c1.33301 6 3 10.167 5 12.5
s5.33301 4.83301 10 7.5l420 200c5.33301 2.66699 9.16602 3 11.499 1s2.83301 -5.33301 1.5 -10l-14 -78c-1.33301 -6 -3.5 -10.167 -6.5 -12.5s-6.5 -4.5 -10.5 -6.5l-294 -143l-1 -4l240 -142v0z" />
    <glyph glyph-name="equal" unicode="=" horiz-adv-x="572" 
d="M509 452c11.333 0 16 -5.33301 14 -16l-10 -52c-2.66699 -10.667 -9.33398 -16 -20.001 -16h-383c-11.333 0 -16 5.33301 -14 16l10 51c2.66699 11.333 9.33398 17 20.001 17h383zM476 281c11.333 0 16 -5.33301 14 -16l-10 -52c-2 -10 -8.66699 -15 -20 -15h-383
c-11.333 0 -16 5 -14 15l10 52c2 10.667 8.66699 16 20 16h383z" />
    <glyph glyph-name="greater" unicode="&#x3e;" horiz-adv-x="572" 
d="M142 476c-4 2 -6.83301 4.33398 -8.5 7.00098s-1.83398 7 -0.500977 13l14 66c0.666992 4.66699 2.5 7.66699 5.5 9s6.16699 1 9.5 -1l343 -201c3.33301 -1.33301 6 -3.33301 8 -6s2.33301 -7.33398 1 -14.001l-10 -48c-1.33301 -6 -3 -10.167 -5 -12.5
s-5.33301 -4.83301 -10 -7.5l-420 -200c-5.33301 -2.66699 -9.16602 -3 -11.499 -1s-2.83301 5.33301 -1.5 10l14 78c1.33301 6 3.5 10.167 6.5 12.5s6.5 4.5 10.5 6.5l294 143l1 4l-240 142v0z" />
    <glyph glyph-name="question" unicode="?" horiz-adv-x="387" 
d="M314 382c-28.667 -18.667 -52.335 -36.832 -71.002 -54.499s-32.334 -40.167 -41.001 -67.5c-4 -12 -7 -23.833 -9 -35.5l-7 -40.5c-1.33301 -8 -6 -12 -14 -12h-64c-10 0 -15 4.66699 -15 14v3c0.666992 11.333 1.5 22.5 2.5 33.5s2.16699 20.5 3.5 28.5
c4 24 10.667 45 20 63s20.666 34.5 33.999 49.5s28.333 29 45 42s34.667 26.167 54 39.5c16 10.667 29.833 21.334 41.5 32.001s17.5 26 17.5 46c0 19.333 -6.5 33 -19.5 41s-36.167 12 -69.5 12c-23.333 -0.666992 -43.166 -1.5 -59.499 -2.5
s-31.166 -2.16699 -44.499 -3.5c-5.33301 -0.666992 -10 -0.333984 -14 0.999023s-6 4.66602 -6 9.99902l2 43c0.666992 7.33301 2 12.833 4 16.5s7.33301 7.16699 16 10.5c24 9.33301 47.833 15.166 71.5 17.499s44.167 3.5 61.5 3.5c56 0 98.5 -10.833 127.5 -32.5
s43.833 -53.5 44.5 -95.5c0 -20 -3.33301 -38 -10 -54s-15.167 -30.667 -25.5 -44s-22.166 -25.166 -35.499 -35.499s-26.666 -19.833 -39.999 -28.5zM127.999 107.002c19.333 0 32.5 -3.5 39.5 -10.5s10.5 -16.167 10.5 -27.5c0 -9.33301 -1 -18.5 -3 -27.5
s-5.83301 -17.333 -11.5 -25s-13.167 -13.834 -22.5 -18.501s-21.333 -7 -36 -7c-20 0 -33.333 3.66699 -40 11s-10 16.333 -10 27c0 20.667 5.33301 38.834 16 54.501s29.667 23.5 57 23.5z" />
    <glyph glyph-name="at" unicode="@" horiz-adv-x="851" 
d="M837 424c0 -35.333 -5.17285 -69.8301 -15.5059 -103.497s-25 -63.5 -44 -89.5s-42.333 -46.833 -70 -62.5s-58.834 -23.5 -93.501 -23.5c-35.333 0 -61.166 6.5 -77.499 19.5s-26.833 28.833 -31.5 47.5c-6.66699 -5.33301 -15.334 -10.833 -26.001 -16.5
s-22.167 -11 -34.5 -16s-25.166 -9.16699 -38.499 -12.5s-26 -5 -38 -5c-37.333 0 -62.833 9.16699 -76.5 27.5s-20.5 44.166 -20.5 77.499c0 11.333 0.833008 24 2.5 38s3.83398 28.333 6.50098 43c4.66699 28.667 10.834 54.5 18.501 77.5s17.834 42.667 30.501 59
s28.5 29 47.5 38s42.167 13.5 69.5 13.5c13.333 0 30 -2.33301 50 -7s37.667 -10.667 53 -18c0 1.33301 0.333008 3 1 5s1 3.33301 1 4c1.33301 5.33301 3.16602 8.66602 5.49902 9.99902s6.16602 2 11.499 2h50c7.33301 0 11.5 -1.33301 12.5 -4
s0.833008 -6.66699 -0.5 -12l-47 -252c-0.666992 -4.66699 -0.833984 -9.66699 -0.500977 -15s2.16602 -10.5 5.49902 -15.5s8.33301 -9.16699 15 -12.5s16 -5 28 -5c20 0 38 6.16699 54 18.5s29.5 28.166 40.5 47.499s19.5 40.833 25.5 64.5s9 46.834 9 69.501
c0 32 -5.16699 61.167 -15.5 87.5s-25.666 48.833 -45.999 67.5s-45.333 33.167 -75 43.5s-63.5 15.5 -101.5 15.5c-53.333 0 -102.666 -9 -147.999 -27s-84.666 -42.833 -117.999 -74.5s-59.5 -69 -78.5 -112s-28.5 -89.167 -28.5 -138.5c0 -70.667 20.333 -126 61 -166
s102.667 -60 186 -60c4.66699 0 11.5 0.333008 20.5 1s19.167 1.5 30.5 2.5s23.333 2.33301 36 4s25.334 3.5 38.001 5.5c10 2 16 -2.33301 18 -13l5 -25c1.33301 -5.33301 0.833008 -9.83301 -1.5 -13.5s-6.16602 -6.16699 -11.499 -7.5
c-23.333 -8.66699 -48.666 -15 -75.999 -19s-51.666 -6 -72.999 -6c-50 0 -94.333 6.83301 -133 20.5s-71 33 -97 58s-45.833 55.167 -59.5 90.5s-20.5 74.666 -20.5 117.999c0 62 11.5 119.5 34.5 172.5s55 98.833 96 137.5s89.333 68.834 145 90.501
s116.167 32.5 181.5 32.5c50 0 94.167 -6.83301 132.5 -20.5s70.5 -32.834 96.5 -57.501s45.667 -54 59 -88s20 -71 20 -111zM534.994 443.003c-28.667 11.333 -55.666 17 -80.999 17c-28 0 -48.167 -10 -60.5 -30s-21.833 -47 -28.5 -81
c-2 -10.667 -3.66699 -22.334 -5 -35.001s-2 -23.667 -2 -33c0 -17.333 3.16699 -28.666 9.5 -33.999s16.166 -8 29.499 -8c7.33301 0 15.833 1.16699 25.5 3.5s19.5 5 29.5 8s19.333 6.33301 28 10s16 7.16699 22 10.5z" />
    <glyph glyph-name="A" unicode="A" horiz-adv-x="577" 
d="M524 15c0 -10 -4.33008 -14.9971 -12.9971 -14.9971h-82c-7.33301 0 -12.333 1.5 -15 4.5s-4.33398 8.16699 -5.00098 15.5l-16 145h-224l-71 -144c-4 -8.66699 -8.33301 -14.334 -13 -17.001s-10.667 -4 -18 -4h-80c-8 0 -12 2.33301 -12 7
c0 3.33301 1.33301 7.66602 4 12.999l320 622c3.33301 7.33301 7.16602 12.666 11.499 15.999s11.166 5 20.499 5h85c10 0 16.333 -1.83301 19 -5.5s4.66699 -9.16699 6 -16.5l83 -623v-3zM384.003 258.003c-0.666992 7.33301 -2.16895 22.998 -4.50195 46.998
s-5.16602 48.667 -8.49902 74l-9 88.5c-2.66699 27 -4.33398 52.167 -5.00098 75.5h-4c-9.33301 -18.667 -20.166 -41.667 -32.499 -69s-25.166 -53.666 -38.499 -78.999c-6 -13.333 -12.667 -27.166 -20 -41.499l-20.5 -40.5l-17 -34l-10.5 -21h170z" />
    <glyph glyph-name="B" unicode="B" horiz-adv-x="579" 
d="M393 664c59.333 0 104.668 -14.3291 136.001 -42.9961s45 -70 41 -124c-1.33301 -12 -4.33301 -25 -9 -39s-11.5 -27.833 -20.5 -41.5s-20.333 -26.667 -34 -39s-29.5 -22.833 -47.5 -31.5v-2c17.333 -6.66699 31.166 -15.834 41.499 -27.501s18.333 -24.334 24 -38.001
s9.16699 -27.834 10.5 -42.501s1.33301 -28.334 0 -41.001c-2.66699 -30 -10.167 -57 -22.5 -81s-28.333 -44.5 -48 -61.5s-42 -30 -67 -39s-51.5 -13.5 -79.5 -13.5h-271c-15.333 -0 -21.333 6.33301 -18 19l121 625c2 12.667 10 19 24 19zM157.002 98.0039
l137.999 -0.00195312c37.333 0 66.5 10 87.5 30s32.833 44 35.5 72c1.33301 12.667 0.666016 24.834 -2.00098 36.501s-7.66699 21.834 -15 30.501s-17.166 15.667 -29.499 21s-27.166 8 -44.499 8h-132zM214.001 392.002h128.999c12.667 0 25.167 2.16699 37.5 6.5
s23.333 10.333 33 18s17.834 17 24.501 28s10.667 23.167 12 36.5c2.66699 24.667 -2 45 -14 61s-35.333 24 -70 24h-119z" />
    <glyph glyph-name="C" unicode="C" horiz-adv-x="561" 
d="M413 671c12 0 25.999 -0.49707 41.999 -1.49707s32.5 -2.66699 49.5 -5s33.5 -5.33301 49.5 -9s30 -8.16699 42 -13.5c7.33301 -3.33301 12.166 -7.33301 14.499 -12s1.83301 -11 -1.5 -19l-18 -41c-2 -6 -4.83301 -10.333 -8.5 -13s-10.167 -3.33398 -19.5 -2.00098
c-24 3.33301 -49.5 6.33301 -76.5 9s-53.167 4 -78.5 4c-34.667 0 -63.667 -6.5 -87 -19.5s-42.833 -30.5 -58.5 -52.5s-28 -47.5 -37 -76.5s-16.5 -59.5 -22.5 -91.5c-4 -18 -6.66699 -35.5 -8 -52.5s-2 -33.167 -2 -48.5c0.666992 -42.667 10.167 -75.5 28.5 -98.5
s50.5 -34.5 96.5 -34.5c29.333 0 56.5 1.33301 81.5 4s51.5 5.66699 79.5 9c9.33301 1.33301 15.833 0.666016 19.5 -2.00098s5.5 -7.33398 5.5 -14.001l1 -38c0.666992 -8 -0.666016 -14.5 -3.99902 -19.5s-9.66602 -9.16699 -18.999 -12.5
c-13.333 -5.33301 -28.5 -9.83301 -45.5 -13.5s-34.167 -6.83398 -51.5 -9.50098s-34.166 -4.5 -50.499 -5.5s-30.5 -1.5 -42.5 -1.5c-41.333 0 -75.833 5.5 -103.5 16.5s-50 26.5 -67 46.5s-29.167 43.667 -36.5 71s-11 57.333 -11 90c0 18.667 1 37.167 3 55.5
s4.66699 36.833 8 55.5c7.33301 42.667 17.666 84.667 30.999 126s32.5 78.333 57.5 111s56.833 58.834 95.5 78.501s86.667 29.5 144 29.5z" />
    <glyph glyph-name="D" unicode="D" horiz-adv-x="634" 
d="M605 434c0 -16.667 -0.665039 -33.3311 -1.99805 -49.998s-3.33301 -33.667 -6 -51c-7.33301 -47.333 -17.833 -91.333 -31.5 -132s-32.834 -75.834 -57.501 -105.501s-55.834 -53 -93.501 -70s-84.5 -25.5 -140.5 -25.5h-220c-12.667 0 -19 4.33301 -19 13v4
c0 1.33301 0.166992 2 0.5 2s0.5 0.666992 0.5 2l121 623c2.66699 12 10.667 18 24 18h194c82.667 0 141.667 -19.833 177 -59.5s53 -95.834 53 -168.501zM489.002 418.003c0 44 -10 79.3311 -30 105.998s-54.333 40 -103 40h-102l-90 -466h116
c32.667 0 60.5 5.83301 83.5 17.5s42 27.834 57 48.501s27 44.834 36 72.501s16.5 57.167 22.5 88.5c2.66699 15.333 5 30.833 7 46.5s3 31.167 3 46.5z" />
    <glyph glyph-name="E" unicode="E" horiz-adv-x="526" 
d="M156 644c1.33301 6.66699 3.82812 11.668 7.49512 15.001s9.16699 5 16.5 5h368c6 0 9.83301 -1.66699 11.5 -5s1.83398 -8 0.500977 -14l-12 -62c-1.33301 -6 -3.16602 -10.5 -5.49902 -13.5s-7.16602 -4.5 -14.499 -4.5h-275l-33 -172h244
c6.66699 0 10.834 -1.5 12.501 -4.5s1.83398 -7.5 0.500977 -13.5l-13 -62c-1.33301 -6 -3 -10.5 -5 -13.5s-6.66699 -4.5 -14 -4.5h-244l-38 -197h282c6.66699 0 10.667 -1.5 12 -4.5s1.33301 -7.83301 0 -14.5l-12 -61c-1.33301 -6.66699 -3 -11.334 -5 -14.001
s-6.66699 -4 -14 -4h-375c-13.333 0 -19 6 -17 18z" />
    <glyph glyph-name="F" unicode="F" horiz-adv-x="522" 
d="M148 645c2 12.667 9.99805 19 23.998 19h359c13.333 0 18.333 -6.33301 15 -19l-12 -62c-1.33301 -6 -3.66602 -10.5 -6.99902 -13.5s-8.66602 -4.5 -15.999 -4.5h-266l-33 -172h233c12.667 0 17.667 -6 15 -18l-12 -62c-2 -12.667 -9.66699 -19 -23 -19h-232l-54 -275
c-2 -12.667 -9.33301 -19 -22 -19h-74c-13.333 -0 -19 6.33301 -17 19z" />
    <glyph glyph-name="G" unicode="G" horiz-adv-x="620" 
d="M415 671c11.333 0 25.001 -0.498047 41.001 -1.49805s32.5 -2.66699 49.5 -5s33.667 -5.33301 50 -9s30.5 -8.16699 42.5 -13.5c7.33301 -3.33301 12.166 -7.16602 14.499 -11.499s1.5 -10.833 -2.5 -19.5l-16 -41c-2.66699 -6 -5.83398 -10.333 -9.50098 -13
s-9.83398 -3.33398 -18.501 -2.00098c-24 3.33301 -49.833 6.33301 -77.5 9s-54.167 4 -79.5 4c-34 0 -62.5 -6.33301 -85.5 -19s-42.167 -30 -57.5 -52s-27.666 -47.5 -36.999 -76.5s-17.333 -59.833 -24 -92.5c-3.33301 -18 -6 -36 -8 -54s-3 -33.667 -3 -47
c0 -20 2 -38.333 6 -55s10.667 -30.834 20 -42.501s21.833 -20.834 37.5 -27.501s35.5 -10 59.5 -10c14.667 0 32.5 1.33301 53.5 4s38.833 6 53.5 10l32 165h-81c-13.333 0 -19 6.33301 -17 19l12 59c2 12 9.66699 18 23 18h172c14 0 19.667 -6.33301 17 -19l-55 -284
c-2.66699 -11.333 -6.66699 -20.5 -12 -27.5s-13.666 -12.5 -24.999 -16.5c-31.333 -10 -64.666 -17.333 -99.999 -22s-69.333 -7 -102 -7c-42 0 -76.833 5.66699 -104.5 17s-49.5 27 -65.5 47s-27.167 43.5 -33.5 70.5s-9.5 55.833 -9.5 86.5
c0 35.333 3.66699 73.333 11 114c7.33301 44 18 86.667 32 128s33.667 78 59 110s57.166 57.833 95.499 77.5s85.833 29.5 142.5 29.5z" />
    <glyph glyph-name="H" unicode="H" horiz-adv-x="616" 
d="M519 644c3.33301 13.333 11.333 20 24 20h74c7.33301 0 12 -1.83301 14 -5.5s2.33301 -8.5 1 -14.5l-122 -625c-1.33301 -5.33301 -3.33301 -9.83301 -6 -13.5s-7.66699 -5.5 -15 -5.5h-75c-12.667 -0 -18 6.33301 -16 19l54 280h-251l-55 -280
c-2 -12.667 -9 -19 -21 -19h-75c-12.667 -0 -18 6.33301 -16 19l122 625c2 13.333 9.66699 20 23 20h75c11.333 0 16 -6.66699 14 -20l-48 -246h252z" />
    <glyph glyph-name="I" unicode="I" horiz-adv-x="275" 
d="M165 644c3.33301 13.333 11.332 20 23.999 20h74c7.33301 0 12 -1.83301 14 -5.5s2.33301 -8.5 1 -14.5l-122 -625c-2 -12.667 -9.33301 -19 -22 -19h-74c-13.333 -0 -18.666 6.33301 -15.999 19z" />
    <glyph glyph-name="J" unicode="J" horiz-adv-x="473" 
d="M331 644c2 13.333 9.66504 20.002 22.998 20.002h73c13.333 0 18.666 -6.66699 15.999 -20l-91 -473c-5.33301 -27.333 -13 -52.166 -23 -74.499s-23.5 -41.333 -40.5 -57s-38.5 -27.667 -64.5 -36s-57.667 -12.5 -95 -12.5c-19.333 0 -40.833 1.5 -64.5 4.5
s-45.167 8.5 -64.5 16.5c-11.333 4.66699 -17.666 9 -18.999 13s-0.666016 10.333 2.00098 19l14 45c2.66699 7.33301 5.83398 11.666 9.50098 12.999s8.83398 1.33301 15.501 0c15.333 -2 32.333 -3.83301 51 -5.5s35 -2.5 49 -2.5c21.333 0 39.166 2.16699 53.499 6.5
s26 10.666 35 18.999s16 18.166 21 29.499s8.83301 24 11.5 38z" />
    <glyph glyph-name="K" unicode="K" horiz-adv-x="578" 
d="M171 175l-29.002 -155.998c-2 -12.667 -9.33301 -19 -22 -19h-74c-13.333 0 -18.666 6.33301 -15.999 19l121 625c2 13.333 10 20 24 20h74c7.33301 0 11.833 -1.83301 13.5 -5.5s1.83398 -8.5 0.500977 -14.5l-57 -295h2l90 95l205 205
c5.33301 5.33301 10.333 9.16602 15 11.499s11 3.5 19 3.5h100c5.33301 0 8.83301 -2 10.5 -6s-0.166016 -8.66699 -5.49902 -14l-268 -266l154 -357c2 -6.66699 1.5 -11.834 -1.5 -15.501s-7.16699 -5.5 -12.5 -5.5h-82c-9.33301 0 -15.833 1.66699 -19.5 5
s-6.83398 8 -9.50098 14l-113 275z" />
    <glyph glyph-name="L" unicode="L" horiz-adv-x="501" 
d="M164 99h285c11.333 0 16 -5.66699 14 -17l-13 -64c-1.33301 -6 -3.33301 -10.5 -6 -13.5s-7.66699 -4.5 -15 -4.5h-378c-14 0 -19.333 6 -16 18l121 626c3.33301 13.333 11.333 20 24 20h75c12 0 16.667 -6.66699 14 -20z" />
    <glyph glyph-name="M" unicode="M" horiz-adv-x="755" 
d="M235 663c10 0 16.667 -1.33203 20 -3.99902s6 -7.33398 8 -14.001l47 -160l35 -123.5l34 -123.5h3l78 118l79 117l23 33.5l36.5 52l36 52l22.5 33.5c4.66699 6.66699 9.33398 11.5 14.001 14.5s12.334 4.5 23.001 4.5h61c8 0 12.667 -1.66699 14 -5
s1.33301 -7.66602 0 -12.999l-122 -626c-2 -12.667 -9.33301 -19 -22 -19h-73c-8 0 -12.833 1.83301 -14.5 5.5s-1.83398 8.16699 -0.500977 13.5l78 401h-3l-13.5 -21.5c-5.66699 -9 -11.834 -18.167 -18.501 -27.5s-12.834 -18.5 -18.501 -27.5l-13.5 -21.5l-36.5 -54
l-32.5 -47.5l-33 -48l-38 -54.5c-9.33301 -12.667 -20.666 -19 -33.999 -19h-36c-8.66699 0 -14.834 1.5 -18.501 4.5s-6.5 7.5 -8.5 13.5c-11.333 34 -21.333 66.667 -30 98l-27 96c-1.33301 4.66699 -3.33301 12.167 -6 22.5s-5.66699 21.166 -9 32.499l-9.5 32.5
l-6.5 22.5c-0.666992 0 -1 -0.166992 -1 -0.5s-0.333008 -0.5 -1 -0.5l-78 -401c-2 -12.667 -9 -19 -21 -19h-72c-7.33301 0 -12.166 1.66699 -14.499 5s-2.83301 8 -1.5 14l122 626c2 12 9 18 21 18h58v0z" />
    <glyph glyph-name="N" unicode="N" horiz-adv-x="645" 
d="M232 467h-3.00195l-85 -448c-1.33301 -6 -3.66602 -10.667 -6.99902 -14s-8.66602 -5 -15.999 -5h-72c-13.333 -0 -18.666 6.33301 -15.999 19l121 626c2 12 9.66699 18 23 18h57c15.333 0 25 -3.33301 29 -10s8 -14.667 12 -24l87 -206l101 -228h3l85 448
c2 13.333 9.66699 20 23 20h72c12.667 0 17.667 -6.66699 15 -20l-122 -625c-2 -12 -9.33301 -18 -22 -18h-57c-9.33301 0 -15.833 1.5 -19.5 4.5s-6.83398 7.83301 -9.50098 14.5l-153 341z" />
    <glyph glyph-name="O" unicode="O" horiz-adv-x="660" 
d="M405 672c41.333 0 76.6699 -5.33203 106.003 -15.999s53.166 -25.834 71.499 -45.501s31.833 -43.5 40.5 -71.5s12.667 -59.667 12 -95c0 -17.333 -1 -34.5 -3 -51.5s-4.66699 -34.167 -8 -51.5c-7.33301 -44.667 -17.333 -88 -30 -130s-31.334 -79.333 -56.001 -112
s-56.5 -58.834 -95.5 -78.501s-88.167 -29.5 -147.5 -29.5c-40.667 0 -75.167 5.16699 -103.5 15.5s-51.333 25.333 -69 45s-30.5 43.167 -38.5 70.5s-12 58 -12 92c0 21.333 1.33301 42.5 4 63.5s6 42.167 10 63.5c6.66699 38.667 16.667 77.834 30 117.501
s32.166 75.167 56.499 106.5s55.333 57 93 77s84.167 30 139.5 30zM397.004 574.001c-32 0 -59.002 -6.83496 -81.002 -20.502s-40.5 -31.667 -55.5 -54s-27.167 -48.166 -36.5 -77.499s-17 -59.666 -23 -90.999c-7.33301 -37.333 -11.333 -72.666 -12 -105.999
c-0.666992 -42.667 7.83301 -75.834 25.5 -99.501s47.834 -35.5 90.501 -35.5c34.667 0 63.5 6.5 86.5 19.5s42 30.5 57 52.5s27 47.5 36 76.5s16.5 59.833 22.5 92.5c4 18.667 7.16699 37.167 9.5 55.5s3.5 36.5 3.5 54.5c0.666992 44 -8.66602 77.167 -27.999 99.5
s-51 33.5 -95 33.5z" />
    <glyph glyph-name="P" unicode="P" horiz-adv-x="531" 
d="M141 19c-1.33301 -5.33301 -3.50195 -9.83301 -6.50195 -13.5s-8.16699 -5.5 -15.5 -5.5h-74c-13.333 -0 -18.666 6.33301 -15.999 19l121 626c2 12.667 10 19 24 19l196 -1c26.667 0 51.334 -3.5 74.001 -10.5s42.5 -17.667 59.5 -32s30.333 -32.333 40 -54
s14.5 -47.167 14.5 -76.5c0 -32 -5.5 -62.167 -16.5 -90.5s-27 -53 -48 -74s-46.833 -37.5 -77.5 -49.5s-66 -18 -106 -18h-123zM205.998 353h108c37.333 0 68 11.333 92 34s36 54.667 36 96c0 30 -9.16699 51.167 -27.5 63.5s-42.5 18.5 -72.5 18.5h-95z" />
    <glyph glyph-name="Q" unicode="Q" horiz-adv-x="661" 
d="M405 672c41.333 0 76.6699 -5.33301 106.003 -16s53.166 -25.834 71.499 -45.501s31.833 -43.5 40.5 -71.5s12.667 -59.667 12 -95c0 -17.333 -1 -34.5 -3 -51.5s-4.66699 -34.167 -8 -51.5c-4.66699 -30 -10.667 -59.667 -18 -89s-16.666 -57 -27.999 -83
s-25.333 -50 -42 -72s-36.667 -41 -60 -57l52 -18c17.333 -6 31.666 -10.667 42.999 -14c8 -3.33301 12 -7.33301 12 -12c0 -3.33301 -1.33301 -7 -4 -11s-5.33398 -8.33301 -8.00098 -13c-5.33301 -8 -10.5 -16.167 -15.5 -24.5s-10.167 -16.5 -15.5 -24.5
c-6.66699 -10.667 -14.667 -16 -24 -16c-3.33301 0 -7.33301 1 -12 3l-96 39.5l-102 42.5c-2 0 -4 -0.166992 -6 -0.5s-3.66699 -0.5 -5 -0.5c-40.667 0 -75.167 5.16699 -103.5 15.5s-51.333 25.333 -69 45s-30.5 43.167 -38.5 70.5s-12 58 -12 92
c0 21.333 1.33301 42.5 4 63.5s6 42.167 10 63.5c6.66699 38.667 16.667 77.834 30 117.501s32.166 75.167 56.499 106.5s55.333 57 93 77s84.167 30 139.5 30zM397.004 574c-32 0 -59.002 -6.83496 -81.002 -20.502s-40.5 -31.667 -55.5 -54s-27.167 -48.166 -36.5 -77.499
s-17 -59.666 -23 -90.999c-7.33301 -37.333 -11.333 -72.666 -12 -105.999c-0.666992 -42.667 7.83301 -75.834 25.5 -99.501s47.834 -35.5 90.501 -35.5c34.667 0 63.5 6.5 86.5 19.5s42 30.5 57 52.5s27 47.5 36 76.5s16.5 59.833 22.5 92.5
c4 18.667 7.16699 37.167 9.5 55.5s3.5 36.5 3.5 54.5c0.666992 44 -8.66602 77.167 -27.999 99.5s-51 33.5 -95 33.5z" />
    <glyph glyph-name="R" unicode="R" horiz-adv-x="557" 
d="M488 21c1.33301 -6 0.668945 -10.998 -1.99805 -14.998s-7 -6 -13 -6h-78c-8 0 -14 1 -18 3s-7 6.66699 -9 14l-32 115c-8 29.333 -14.167 52.666 -18.5 69.999s-7.5 30.666 -9.5 39.999s-4 18 -6 26h-112l-48 -248c-2 -13.333 -9.33301 -20 -22 -20h-75
c-12.667 -0 -18 6.33301 -16 19l122 626c1.33301 6 3.66602 10.667 6.99902 14s8.66602 5 15.999 5l216 -1c24 0 46.667 -3 68 -9s39.833 -15.667 55.5 -29s28 -30.333 37 -51s13.5 -45.667 13.5 -75c-0.666992 -50 -14.167 -93.5 -40.5 -130.5s-64.5 -64.5 -114.5 -82.5z
M248.003 565.002l-39 -202h106c37.333 0 68.5 10.167 93.5 30.5s37.833 51.5 38.5 93.5c0 14.667 -2.5 27 -7.5 37s-12 18 -21 24s-19.5 10.333 -31.5 13s-25 4 -39 4h-100z" />
    <glyph glyph-name="S" unicode="S" horiz-adv-x="549" 
d="M229 -9c-12.667 0 -27.834 0.50293 -45.501 1.50293s-35.667 2.66699 -54 5s-36.166 5.33301 -53.499 9s-32 8.16699 -44 13.5c-10 4.66699 -15.333 9.33398 -16 14.001s0.333008 10.334 3 17.001l16 41c3.33301 8.66699 7 13.667 11 15s10.333 1.33301 19 0
c28.667 -4.66699 59 -8.16699 91 -10.5s59.667 -3.5 83 -3.5c43.333 0 79.166 9 107.499 27s42.833 47 43.5 87c0 24 -8 41.333 -24 52s-41.667 19.667 -77 27c-27.333 6.66699 -52.666 13.667 -75.999 21s-43.666 17 -60.999 29s-30.833 27.333 -40.5 46s-14.5 42 -14.5 70
c0 37.333 6.83301 69.666 20.5 96.999s32.167 50 55.5 68s50.833 31.333 82.5 40s65.5 13 101.5 13c9.33301 0 21.833 -0.333008 37.5 -1s32.167 -1.83398 49.5 -3.50098s34.666 -4.33398 51.999 -8.00098s32.666 -8.5 45.999 -14.5
c10.667 -4.66699 16.334 -9.33398 17.001 -14.001s-0.333008 -10.334 -3 -17.001l-17 -41c-3.33301 -8 -7.16602 -12.833 -11.499 -14.5s-11.5 -2.16699 -21.5 -1.5c-21.333 3.33301 -45.333 6.33301 -72 9s-55 4 -85 4c-38.667 0 -70.667 -8 -96 -24s-38 -43 -38 -81
c0 -23.333 8.33301 -39.166 25 -47.499s43 -15.833 79 -22.5c23.333 -4.66699 46.5 -10.334 69.5 -17.001s43.667 -16.167 62 -28.5s33.166 -28.5 44.499 -48.5s17 -45.333 17 -76c0 -41.333 -7.33301 -76.666 -22 -105.999s-34.834 -53.333 -60.501 -72
s-55.667 -32.334 -90 -41.001s-71.166 -13 -110.499 -13z" />
    <glyph glyph-name="T" unicode="T" horiz-adv-x="497" 
d="M556 583c-1.33301 -6 -3.66797 -10.5 -7.00098 -13.5s-8.66602 -4.5 -15.999 -4.5h-158l-107 -546c-2 -12.667 -9.33301 -19 -22 -19h-74c-13.333 -0 -19 6.33301 -17 19l107 546h-158c-7.33301 0 -12.166 1.5 -14.499 4.5s-2.83301 7.5 -1.5 13.5l12 62
c1.33301 6 3.66602 10.667 6.99902 14s8.66602 5 15.999 5h430c12.667 0 17.334 -6.33301 14.001 -19l-11 -62v0z" />
    <glyph glyph-name="U" unicode="U" horiz-adv-x="626" 
d="M291 92c44 0 79.832 12.167 107.499 36.5s46.5 62.5 56.5 114.5l78 401c3.33301 13.333 11 20 23 20h74c7.33301 0 12 -1.83301 14 -5.5s2.33301 -8.5 1 -14.5l-79 -401c-7.33301 -38 -18.166 -72.5 -32.499 -103.5s-32.833 -57.333 -55.5 -79s-50 -38.5 -82 -50.5
s-69 -18 -111 -18c-43.333 0 -80 6 -110 18s-53.667 28.833 -71 50.5s-28.333 48 -33 79s-3.33398 65.5 3.99902 103.5l78 401c1.33301 6.66699 3.83301 11.667 7.5 15s9.16699 5 16.5 5h74c12.667 0 17.334 -6.66699 14.001 -20l-78 -401
c-9.33301 -48.667 -5.83301 -86 10.5 -112s47.5 -39 93.5 -39z" />
    <glyph glyph-name="V" unicode="V" horiz-adv-x="590" 
d="M654 643l-163.003 -311.5l-163 -311.5c-3.33301 -6.66699 -7.33301 -11.667 -12 -15s-12 -5 -22 -5h-78c-9.33301 0 -15.666 1.5 -18.999 4.5s-5.66602 7.83301 -6.99902 14.5l-85 624v3c0 11.333 5.66699 17 17 17h70c9.33301 0 15.5 -1.5 18.5 -4.5
s5.16699 -8.16699 6.5 -15.5l27 -219l21 -173c0 -1.33301 0.5 -7 1.5 -17s2.33301 -21.167 4 -33.5s3.16699 -24.333 4.5 -36s2.33301 -19.834 3 -24.501h3l55 108l30.5 62.5l45.5 91.5l39 77.5l37 73l29.5 57.5c8.33301 16 13.5 26.333 15.5 31
c6.66699 14.667 17.334 22 32.001 22h83c7.33301 0 11 -2.33301 11 -7c0 -3.33301 -1.66699 -7.66602 -5 -12.999z" />
    <glyph glyph-name="W" unicode="W" horiz-adv-x="840" 
d="M443 337l-34.0059 -71.0029l-121 -245c-3.33301 -7.33301 -7.16602 -12.666 -11.499 -15.999s-11.166 -5 -20.499 -5h-71c-9.33301 0 -15.666 1.66699 -18.999 5s-5.33301 8.33301 -6 15l-57 624c-1.33301 13.333 4.33398 20 17.001 20h74c8.66699 0 14.5 -1.5 17.5 -4.5
s4.83301 -8.16699 5.5 -15.5l28 -357l8 -125h4l48 103l118 246l-13 133c-0.666992 5.33301 0 10 2 14s6 6 12 6h74c14.667 0 22.334 -6.66699 23.001 -20c5.33301 -62 10 -118.667 14 -170c2 -22 3.83301 -43.667 5.5 -65s3.33398 -41 5.00098 -59s3 -33.5 4 -46.5
s1.83301 -21.5 2.5 -25.5l8 -116h4l51 119c2 4 5.83301 12.5 11.5 25.5l21 46.5l27 59l29.5 64l78 168c5.33301 13.333 16 20 32 20h78c12.667 0 15.667 -7.33301 9 -22l-294 -621c-3.33301 -7.33301 -7.5 -12.666 -12.5 -15.999s-12.167 -5 -21.5 -5h-69
c-10 0 -16.5 1.83301 -19.5 5.5s-5.16699 8.83398 -6.5 15.501l-24 247l-7 70z" />
    <glyph glyph-name="X" unicode="X" horiz-adv-x="550" 
d="M366 340l129.999 -320.998c5.33301 -12.667 0.666016 -19 -14.001 -19h-83c-7.33301 0 -12.666 1.16699 -15.999 3.5s-6.33301 6.83301 -9 13.5l-46 125l-38 109l-75 -106l-96 -127c-5.33301 -6.66699 -10.166 -11.334 -14.499 -14.001s-10.833 -4 -19.5 -4h-96
c-6.66699 0 -10.334 2.16699 -11.001 6.5s1.33301 9.16602 6 14.499l254 319l-120 302c-5.33301 14.667 -0.666016 22 14.001 22h84c8 0 13.167 -1.33301 15.5 -4s4.83301 -7 7.5 -13l41 -115l34 -100l75 103l83 111c4.66699 6.66699 9 11.167 13 13.5s9.66699 3.5 17 3.5
h95c11.333 0 16.5 -2.16699 15.5 -6.5s-3.16699 -8.83301 -6.5 -13.5z" />
    <glyph glyph-name="Y" unicode="Y" horiz-adv-x="558" 
d="M232 273l-134.006 371.998c-1.33301 4.66699 -0.666016 8.83398 2.00098 12.501s6.66699 5.5 12 5.5h77c8.66699 0 14.334 -1.16699 17.001 -3.5s5.33398 -6.83301 8.00098 -13.5l50 -156l36 -110h6l82 113l110 150c5.33301 7.33301 10 12.5 14 15.5s10 4.5 18 4.5h90
c6.66699 0 10.334 -1.66699 11.001 -5s-0.666016 -7.66602 -3.99902 -12.999l-283 -372l-49 -254c-2 -12.667 -9.33301 -19 -22 -19h-74c-13.333 -0 -18.666 6.33301 -15.999 19z" />
    <glyph glyph-name="Z" unicode="Z" horiz-adv-x="514" 
d="M148 98h289c12.667 0 17.667 -6 15 -18l-11 -61c-1.33301 -6 -3.66602 -10.667 -6.99902 -14s-8.66602 -5 -15.999 -5h-401c-13.333 0 -18.333 6 -15 18l11 55c0.666992 10 6.33398 21.667 17.001 35l384 457h-267c-13.333 0 -18.333 6 -15 18l11 62
c1.33301 6 3.66602 10.667 6.99902 14s8.66602 5 15.999 5h379c5.33301 0 9.5 -1.5 12.5 -4.5s3.83301 -7.16699 2.5 -12.5l-11 -55c-1.33301 -7.33301 -3.33301 -13.5 -6 -18.5s-6.33398 -10.5 -11.001 -16.5z" />
    <glyph glyph-name="bracketleft" unicode="[" horiz-adv-x="270" 
d="M99 -9h67.998c12 0 17 -5.66699 15 -17l-12 -57c-1.33301 -10 -7.66602 -15 -18.999 -15h-152c-12.667 0 -18 6 -16 18l148 757c2 12 9.66699 18 23 18h150c12.667 0 17.334 -5.66699 14.001 -17l-11 -57c-2 -10 -9 -15 -21 -15l-67 -1z" />
    <glyph glyph-name="backslash" unicode="\" horiz-adv-x="283" 
d="M229 -46c0 -5.33301 -1 -9.5 -3 -12.5s-6.33301 -4.5 -13 -4.5h-59c-8.66699 0 -13.667 4.66699 -15 14l-60 723c0 12 5 18 15 18h60c8 0 12.667 -4.66699 14 -14l61 -724v0z" />
    <glyph glyph-name="bracketright" unicode="]" horiz-adv-x="269" 
d="M208 606h-66.999c-12 0 -17 5.33301 -15 16l12 57c1.33301 10.667 7.66602 16 18.999 16h151c13.333 0 19 -6 17 -18l-148 -757c-2 -12 -9.66699 -18 -23 -18h-151c-11.333 0 -16 5.66699 -14 17l11 55c2 11.333 9 17 21 17h68z" />
    <glyph glyph-name="asciicircum" unicode="^" horiz-adv-x="490" 
d="M324 576l-194 -175.997c-5.33301 -5.33301 -9.83301 -7.83301 -13.5 -7.5s-7.5 2.5 -11.5 6.5l-25 21c-3.33301 3.33301 -4.83301 6.16602 -4.5 8.49902s2.83301 6.16602 7.5 11.499l188 208c5.33301 5.33301 10.166 9.16602 14.499 11.499s11.166 3.5 20.499 3.5l59 -1
c11.333 0 18.5 -1 21.5 -3s5.83301 -5.66699 8.5 -11l98 -210c2.66699 -5.33301 3.83398 -9.33301 3.50098 -12s-2.83301 -5.66699 -7.5 -9l-28 -18c-9.33301 -6.66699 -16.666 -6.66699 -21.999 0z" />
    <glyph glyph-name="underscore" unicode="_" horiz-adv-x="498" 
d="M439 -67c12 0 16.667 -5.33301 14 -16l-7 -37c-2 -10.667 -8.66699 -16 -20 -16h-487c-11.333 0 -16 5 -14 15l8 37c2 11.333 8.66699 17 20 17h486z" />
    <glyph glyph-name="grave" unicode="`" horiz-adv-x="512" 
d="M293 741c5.33301 3.33301 9.83301 4.5 13.5 3.5s7.5 -4.16699 11.5 -9.5l102 -160c6.66699 -8.66699 5.66699 -15.334 -3 -20.001l-32 -18c-8.66699 -5.33301 -15.667 -4.66602 -21 2.00098l-124 150c-4 4.66699 -6.16699 9 -6.5 13s2.16699 7.33301 7.5 10z" />
    <glyph glyph-name="a" unicode="a" horiz-adv-x="535" 
d="M434 19c-2 -12.667 -9.33105 -18.999 -21.998 -18.999h-71c-8 0 -12.833 1.5 -14.5 4.5s-1.83398 7.5 -0.500977 13.5l7 33h-1c-26.667 -16.667 -53.834 -30.667 -81.501 -42s-57.5 -17 -89.5 -17c-47.333 0 -80.5 12 -99.5 36s-28.5 58 -28.5 102
c0 16 1.33301 33.167 4 51.5s5.66699 37.166 9 56.499c8 40 17.5 76 28.5 108s25.5 59 43.5 81s39.833 39 65.5 51s56.834 18 93.501 18c18 0 39.167 -2.83301 63.5 -8.5s48.166 -14.5 71.499 -26.5l4 15c1.33301 6 3.5 9.83301 6.5 11.5s8.16699 2.5 15.5 2.5h68
c8 0 13 -1.66699 15 -5s2.33301 -8.33301 1 -15zM395.002 373.001c-39.333 16 -77.999 24 -115.999 24c-18 -0.666992 -33.333 -3.83398 -46 -9.50098s-23.667 -14.667 -33 -27s-17.333 -28.333 -24 -48s-12.667 -43.834 -18 -72.501c-3.33301 -18 -6 -34.167 -8 -48.5
s-3 -26.166 -3 -35.499c0 -27.333 5 -45.166 15 -53.499s24.667 -12.5 44 -12.5c10 0 21.5 1.66699 34.5 5s26.167 7.33301 39.5 12s26.166 9.5 38.499 14.5s22.5 9.5 30.5 13.5z" />
    <glyph glyph-name="b" unicode="b" horiz-adv-x="526" 
d="M236 704c7.33301 0 12 -1.83105 14 -5.49805s2.33301 -8.16699 1 -13.5l-41 -209l1 -1c26.667 9.33301 50.667 15.666 72 18.999s40.333 5 57 5c30.667 0 56.334 -3.5 77.001 -10.5s37.167 -17.167 49.5 -30.5s21.166 -29.333 26.499 -48s8 -40 8 -64
c0 -14 -0.833008 -29.5 -2.5 -46.5s-4.16699 -33.833 -7.5 -50.5c-7.33301 -40.667 -16.666 -77 -27.999 -109s-26.833 -59 -46.5 -81s-44.667 -38.833 -75 -50.5s-67.5 -17.5 -111.5 -17.5c-16 0 -33 0.5 -51 1.5s-35.5 2.66699 -52.5 5s-33.333 5.16602 -49 8.49902
s-28.834 7 -39.501 11c-10 4.66699 -15.667 11 -17 19s-1.33301 16.333 0 25l121 624c1.33301 6.66699 3.5 11.5 6.5 14.5s8.16699 4.5 15.5 4.5h72zM384 307.002c0 31.333 -4.49707 54.8311 -13.4971 70.498s-27.167 24.167 -54.5 25.5
c-21.333 0 -41.5 -1.16699 -60.5 -3.5s-39.5 -6.83301 -61.5 -13.5l-57 -289c15.333 -2.66699 32.333 -4.5 51 -5.5s36.667 -1.5 54 -1.5c14 0 27.167 1.16699 39.5 3.5s23.666 7.33301 33.999 15s19.666 18.834 27.999 33.501s15.833 34.334 22.5 59.001
c5.33301 17.333 9.66602 35.5 12.999 54.5s5 36.167 5 51.5z" />
    <glyph glyph-name="c" unicode="c" horiz-adv-x="447" 
d="M396 46c0 -7.33301 -1.50293 -13.335 -4.50293 -18.002s-9.5 -9 -19.5 -13c-20.667 -8 -45.667 -13.833 -75 -17.5s-56.333 -5.5 -81 -5.5c-35.333 0 -64.5 4.33301 -87.5 13s-41 20.334 -54 35.001s-22 31.334 -27 50.001s-7.5 38 -7.5 58c0 15.333 1.16699 33 3.5 53
s5.16602 39 8.49902 57c6 32 13.833 62.667 23.5 92s23.834 55.166 42.501 77.499s42.834 40 72.501 53s67.834 19.5 114.501 19.5c10.667 0 22.834 -0.333008 36.501 -1s27.5 -2 41.5 -4s27.5 -4.5 40.5 -7.5s24.5 -6.83301 34.5 -11.5c12 -6 15 -15.333 9 -28l-13 -40
c-3.33301 -7.33301 -7.16602 -11.666 -11.499 -12.999s-11.5 -1.33301 -21.5 0l-61 6c-20.667 2 -39.667 3 -57 3c-20 0 -37.333 -2.66699 -52 -8s-27.5 -14 -38.5 -26s-20.333 -27.833 -28 -47.5s-14.167 -43.834 -19.5 -72.501c-6 -32 -9 -58.333 -9 -79
c0 -31.333 6.83301 -53 20.5 -65s35.5 -18 65.5 -18c15.333 0 35.5 0.833008 60.5 2.5s48.167 3.83398 69.5 6.50098c7.33301 1.33301 13.166 1.33301 17.499 0s6.5 -6.33301 6.5 -15v-36z" />
    <glyph glyph-name="d" unicode="d" horiz-adv-x="527" 
d="M296 500c15.333 0 34.1699 -1.66504 56.5029 -4.99805s44.166 -9.33301 65.499 -18v1l21 103.5l20 103.5c1.33301 6.66699 3.5 11.667 6.5 15s8.16699 5 15.5 5h72c8 0 12.667 -2 14 -6s1.33301 -8.66699 0 -14l-129 -666c-2 -12.667 -9.33301 -19 -22 -19h-72
c-7.33301 0 -12 1.66699 -14 5s-2.33301 7.66602 -1 12.999l7 34c-0.666992 -0.666992 -1.33398 -1 -2.00098 -1c-10 -6 -21.833 -12.5 -35.5 -19.5s-28 -13.5 -43 -19.5s-30.333 -10.833 -46 -14.5s-30.834 -5.5 -45.501 -5.5c-47.333 0 -80.333 12.167 -99 36.5
s-28 59.166 -28 104.499c0.666992 25.333 3 51.833 7 79.5s8.66699 52.834 14 75.501c8 33.333 17.833 63.166 29.5 89.499s26.667 48.5 45 66.5s40.833 31.833 67.5 41.5s58.667 14.5 96 14.5zM400.004 387.002c-22 6.66699 -41.8291 11.168 -59.4961 13.501
s-36.834 3.5 -57.501 3.5c-14.667 -0.666992 -27.667 -3.16699 -39 -7.5s-21.5 -11.166 -30.5 -20.499s-16.833 -21.5 -23.5 -36.5s-13 -33.167 -19 -54.5c-5.33301 -18.667 -10 -40.334 -14 -65.001s-6 -46.334 -6 -65.001c0 -13.333 1.16699 -24.166 3.5 -32.499
s5.83301 -14.833 10.5 -19.5s10.667 -7.83398 18 -9.50098s15.666 -2.5 24.999 -2.5c10 0 21.667 1.66699 35 5s26.666 7.33301 39.999 12s26.166 9.5 38.499 14.5s22.5 9.5 30.5 13.5z" />
    <glyph glyph-name="e" unicode="e" horiz-adv-x="504" 
d="M40 143c0 21.333 1.99902 43.1709 5.99902 65.5039s8.66699 44.166 14 65.499c6 23.333 14.333 48.166 25 74.499s26.167 50.5 46.5 72.5s46.333 40.333 78 55s71.167 22 118.5 22c22 0 42.833 -2.66699 62.5 -8s37 -13.166 52 -23.499s27 -23.333 36 -39
s13.5 -33.834 13.5 -54.501c0 -40.667 -11.833 -73.5 -35.5 -98.5s-52.834 -44.5 -87.501 -58.5s-71.334 -23.5 -110.001 -28.5s-73 -7.83301 -103 -8.5c-3.33301 -15.333 -5 -28.333 -5 -39c0 -14.667 3 -25.834 9 -33.501s14 -13.334 24 -17.001s21.167 -5.66699 33.5 -6
s24.833 -0.5 37.5 -0.5c18.667 0 40 0.833008 64 2.5s46.667 3.83398 68 6.50098c7.33301 1.33301 13.5 1.16602 18.5 -0.500977s7.5 -7.16699 7.5 -16.5v-30c0 -8 -1.5 -14.167 -4.5 -18.5s-9.16699 -8.5 -18.5 -12.5c-23.333 -8.66699 -51.166 -14.5 -83.499 -17.5
s-62.166 -4.5 -89.499 -4.5s-51.833 2.5 -73.5 7.5s-40.167 13.333 -55.5 25s-27.166 27.167 -35.499 46.5s-12.5 43.333 -12.5 72zM378.999 359.005c0 17.333 -6.33105 29.8311 -18.998 37.498s-28.667 11.5 -48 11.5c-23.333 0 -42.833 -3.83301 -58.5 -11.5
s-28.334 -17.334 -38.001 -29.001s-17.334 -24.334 -23.001 -38.001s-10.167 -26.167 -13.5 -37.5l-5.5 -20.5c-1.66699 -6.33301 -3.16699 -10.833 -4.5 -13.5c18 0.666992 39 2.33398 63 5.00098s47 7.83398 69 15.501s40.5 17.834 55.5 30.501s22.5 29.334 22.5 50.001z
" />
    <glyph glyph-name="f" unicode="f" horiz-adv-x="370" 
d="M138 402l-49.999 0.00390625c-7.33301 0 -11.833 1.5 -13.5 4.5s-1.83398 8.16699 -0.500977 15.5l9 48c2 13.333 9.33301 20 22 20h52l10 53c4.66699 26 11.667 49.5 21 70.5s21.666 38.833 36.999 53.5s34 26 56 34s48.333 12 79 12
c6.66699 0 14.834 -0.333008 24.501 -1s19.834 -1.83398 30.501 -3.50098s21.167 -4 31.5 -7s19.833 -6.5 28.5 -10.5c7.33301 -3.33301 11 -7.5 11 -12.5s-1 -10.167 -3 -15.5l-14 -40c-2.66699 -7.33301 -5.83398 -11.5 -9.50098 -12.5s-10.5 -0.833008 -20.5 0.5
c-17.333 3.33301 -32.166 5.5 -44.499 6.5s-21.833 1.5 -28.5 1.5c-29.333 0 -50.333 -6.33301 -63 -19s-22 -33.667 -28 -63l-11 -47h127c7.33301 0 12 -1.66699 14 -5s2.33301 -8 1 -14l-10 -49c-2 -13.333 -9.66699 -20 -23 -20h-127l-84 -422
c-5.33301 -25.333 -12.333 -48.333 -21 -69s-20.5 -38.334 -35.5 -53.001s-33.333 -26 -55 -34s-47.834 -12 -78.501 -12c-14 0 -31.667 1.66699 -53 5s-41.666 9.66602 -60.999 18.999c-7.33301 3.33301 -11.166 7.33301 -11.499 12s0.5 9.66699 2.5 15l14 40
c2.66699 8 5.5 12.5 8.5 13.5s10.167 0.5 21.5 -1.5c17.333 -2.66699 31.666 -4.5 42.999 -5.5s20.666 -1.5 27.999 -1.5c29.333 0 50.5 6.66699 63.5 20s22.833 35.666 29.5 66.999z" />
    <glyph glyph-name="g" unicode="g" horiz-adv-x="527" 
d="M446 40c-6.66699 -33.333 -13.8291 -64.168 -21.4961 -92.501s-20 -53.166 -37 -74.499s-40.667 -38 -71 -50s-71.166 -18 -122.499 -18c-13.333 0 -27.333 0.333008 -42 1s-29.167 2 -43.5 4s-28 4.66699 -41 8s-24.167 7 -33.5 11
c-8.66699 3.33301 -13.667 7.16602 -15 11.499s-1 10.166 1 17.499l15 36c3.33301 8.66699 7.66602 13.5 12.999 14.5s11.666 0.833008 18.999 -0.5c21.333 -3.33301 44.666 -5.66602 69.999 -6.99902s47.666 -2 66.999 -2c20.667 0 38.167 1.66699 52.5 5
s26.333 8.5 36 15.5s17 16.167 22 27.5s9.16699 24.666 12.5 39.999c0.666992 5.33301 1.5 10.333 2.5 15s2.16699 9.66699 3.5 15c0 0.666992 -0.166992 1 -0.5 1s-0.5 0.333008 -0.5 1c-27.333 -9.33301 -51.5 -15.666 -72.5 -18.999s-39.5 -5 -55.5 -5
c-31.333 0 -57.166 3.5 -77.499 10.5s-36.666 17.333 -48.999 31s-21 30.167 -26 49.5s-7.5 41.333 -7.5 66c0 21.333 1.66699 44.333 5 69s7.66602 47.667 12.999 69c8 32 18.333 61 31 87s29 48.167 49 66.5s44.167 32.333 72.5 42s62.166 14.5 101.499 14.5
c16 0 32.667 -0.666992 50 -2s34.333 -3.16602 51 -5.49902s32.5 -5.16602 47.5 -8.49902s28.167 -7 39.5 -11c11.333 -4.66699 17.666 -10.834 18.999 -18.501s1 -16.167 -1 -25.5zM405.005 392.998c-16 2.66699 -32.999 4.66895 -50.999 6.00195s-35.667 2 -53 2
c-14 0 -27.167 -1.66699 -39.5 -5s-24 -9.33301 -35 -18s-20.833 -20.834 -29.5 -36.501s-16.334 -36.167 -23.001 -61.5c-4 -17.333 -7.5 -35.833 -10.5 -55.5s-4.5 -37.5 -4.5 -53.5c0 -18 2.33301 -32.667 7 -44s11.5 -19.833 20.5 -25.5s19.833 -9.16699 32.5 -10.5
s27 -1 43 1c13.333 1.33301 27.333 3.16602 42 5.49902s30 5.83301 46 10.5z" />
    <glyph glyph-name="h" unicode="h" horiz-adv-x="531" 
d="M382 499c34.667 0 61.165 -5.49805 79.498 -16.498s30.833 -25.5 37.5 -43.5s9.16699 -38.333 7.5 -61s-4.83398 -45.667 -9.50098 -69l-56 -290c-2 -12.667 -9.66699 -19 -23 -19h-72c-8 0 -12.667 1.83301 -14 5.5s-1.33301 8.16699 0 13.5l55 283
c2.66699 13.333 4.66699 26 6 38s0.333008 22.5 -3 31.5s-9.33301 16.167 -18 21.5s-21 8 -37 8c-10 0 -22 -1.83301 -36 -5.5s-27.833 -7.83398 -41.5 -12.501s-26.667 -9.66699 -39 -15s-22.166 -9.33301 -29.499 -12l-66 -337c-2 -12.667 -9.66699 -19 -23 -19h-70
c-8 0 -12.833 1.83301 -14.5 5.5s-1.83398 8.16699 -0.500977 13.5l129 667c2.66699 12.667 10.334 19 23.001 19h71c8.66699 0 13.834 -1.83301 15.501 -5.5s1.83398 -8.16699 0.500977 -13.5l-48 -242h1l38 18.5c13.333 6.33301 27.5 12.166 42.5 17.499
s30.5 9.83301 46.5 13.5s32 5.5 48 5.5z" />
    <glyph glyph-name="i" unicode="i" horiz-adv-x="246" 
d="M214 677c16.667 0 29.333 -2.83301 38 -8.5s13 -15.167 13 -28.5c0 -20 -5.16699 -38 -15.5 -54s-29.5 -24 -57.5 -24c-33.333 0 -50 12.667 -50 38c0 21.333 5.5 39.5 16.5 54.5s29.5 22.5 55.5 22.5zM139.999 19c-1.33301 -5.33301 -3.33398 -9.83301 -6.00098 -13.5
s-7.66699 -5.5 -15 -5.5h-71c-13.333 -0 -18.666 6.33301 -15.999 19l88 452c2 12.667 9.66699 19 23 19h70c7.33301 0 12 -1.83301 14 -5.5s2.33301 -8.16699 1 -13.5z" />
    <glyph glyph-name="j" unicode="j" horiz-adv-x="262" 
d="M226 677c16.667 0 29.165 -2.83496 37.498 -8.50195s12.5 -15.167 12.5 -28.5c0 -10 -1.16699 -19.667 -3.5 -29s-6.16602 -17.666 -11.499 -24.999s-12.666 -13.166 -21.999 -17.499s-21 -6.5 -35 -6.5c-33.333 0 -50 12.667 -50 38c0 21.333 5.5 39.5 16.5 54.5
s29.5 22.5 55.5 22.5zM134.998 -74.002c-8.66699 -42.667 -25 -74.001 -49 -94.001s-59.667 -30 -107 -30c-17.333 0 -36.5 1.66699 -57.5 5s-38.5 8.33301 -52.5 15c-4 1.33301 -7 4 -9 8s-1.66699 9.66699 1 17l13 42c3.33301 7.33301 6.33301 11.833 9 13.5
s9.33398 1.83398 20.001 0.500977c8.66699 -1.33301 19 -2.33301 31 -3s22.333 -1 31 -1c19.333 0 34.333 4.5 45 13.5s18 23.5 22 43.5l100 516c1.33301 7.33301 3.66602 12.166 6.99902 14.499s8.33301 3.5 15 3.5h71c6.66699 0 11.167 -1.16699 13.5 -3.5
s2.83301 -7.16602 1.5 -14.499z" />
    <glyph glyph-name="k" unicode="k" horiz-adv-x="481" 
d="M375 473c5.33301 5.33301 10.1641 9.50098 14.4971 12.501s11.166 4.5 20.499 4.5h86c8.66699 0 13.167 -2.33301 13.5 -7s-2.16699 -9.66699 -7.5 -15l-189 -182l123 -264c3.33301 -5.33301 3.5 -10.333 0.5 -15s-8.5 -7 -16.5 -7h-66
c-9.33301 0 -16.166 1.66699 -20.499 5s-7.83301 7.66602 -10.5 12.999l-90 192l-83 -81l-21 -110c-1.33301 -6 -3.66602 -10.667 -6.99902 -14s-8.66602 -5 -15.999 -5h-71c-12 -0 -16.667 6.33301 -14 19l128 667c2.66699 12.667 10.334 19 23.001 19h71
c13.333 0 18.333 -6.33301 15 -19l-80 -404c0.666992 0 0.666992 -0.333008 0 -1z" />
    <glyph glyph-name="l" unicode="l" horiz-adv-x="264" 
d="M158 128c-3.33301 -17.333 -1.5 -27.834 5.5 -31.501s19.167 -5.83398 36.5 -6.50098c8 -0.666992 13 -2 15 -4s3 -5.66699 3 -11l-6 -50c-0.666992 -9.33301 -6 -15.666 -16 -18.999c-10.667 -4.66699 -22.334 -7.66699 -35.001 -9s-23.667 -2 -33 -2
c-37.333 0 -62.166 8.83301 -74.499 26.5s-15.5 42.834 -9.5 75.501l115 589c2.66699 12.667 10 19 22 19h70c14 0 19.333 -6.33301 16 -19z" />
    <glyph glyph-name="m" unicode="m" horiz-adv-x="822" 
d="M732 19c-1.33301 -6 -3.50391 -10.666 -6.50391 -13.999s-8.16699 -5 -15.5 -5h-72c-12.667 0 -17.667 6.33301 -15 19l55 284c7.33301 37.333 7.16602 62.5 -0.500977 75.5s-24.167 19.5 -49.5 19.5c-9.33301 0 -20 -1.66699 -32 -5s-24.333 -7.16602 -37 -11.499
s-24.834 -9.16602 -36.501 -14.499l-30.5 -14l-9 -51l-55 -283c-1.33301 -6 -3.66602 -10.667 -6.99902 -14s-8.66602 -5 -15.999 -5h-73c-11.333 0 -15.666 6.33301 -12.999 19l56 289c6 30.667 5.66699 53.334 -1 68.001s-22.667 22 -48 22
c-8.66699 0 -18.834 -1.33301 -30.501 -4s-23.667 -6.33398 -36 -11.001s-24.666 -9.66699 -36.999 -15l-33.5 -15l-65 -334c-1.33301 -6 -3.66602 -10.667 -6.99902 -14s-8.66602 -5 -15.999 -5h-72c-12 0 -16.667 6.33301 -14 19l87 451
c3.33301 13.333 10.666 20 21.999 20h71c14 0 19.333 -6.66699 16 -20l-5 -29v-1c22.667 13.333 48.334 26.166 77.001 38.499s56.667 19.166 84 20.499c14.667 0 28.334 -1 41.001 -3s24.334 -5.5 35.001 -10.5s20 -12 28 -21s14.333 -20.833 19 -35.5
c28.667 18.667 59.5 35 92.5 49s65.5 21 97.5 21c32.667 0 57.667 -5 75 -15s29.333 -23.5 36 -40.5s9.16699 -36.833 7.5 -59.5s-4.83398 -46.334 -9.50098 -71.001l-57 -294v0z" />
    <glyph glyph-name="n" unicode="n" horiz-adv-x="527" 
d="M204 440l1.99707 -0.00292969c10.667 6.66699 23.334 13.5 38.001 20.5s30 13.333 46 19s32.167 10.334 48.5 14.001s32.166 5.5 47.499 5.5c33.333 0 58.833 -5.16699 76.5 -15.5s29.834 -24.166 36.501 -41.499s9 -37.5 7 -60.5s-5.33301 -47.167 -10 -72.5l-56 -290
c-2 -12.667 -9.66699 -19 -23 -19h-72c-12 0 -16.667 6.33301 -14 19l55 281c3.33301 20 5 36.333 5 49s-2.16699 22.834 -6.5 30.501s-10.666 12.834 -18.999 15.501s-19.166 4 -32.499 4c-10 0 -22 -1.83301 -36 -5.5s-27.833 -7.83398 -41.5 -12.501
s-26.667 -9.66699 -39 -15l-28.5 -12l-66 -335c-1.33301 -12.667 -9 -19 -23 -19h-70c-12.667 -0 -17.667 6.33301 -15 19l88 452c1.33301 6.66699 3.5 11.5 6.5 14.5s8.16699 4.5 15.5 4.5h71c13.333 0 18.333 -6.33301 15 -19z" />
    <glyph glyph-name="o" unicode="o" horiz-adv-x="522" 
d="M302 500c64.667 0 112.502 -14.1699 143.502 -42.5029s46.5 -70.166 46.5 -125.499c0 -13.333 -0.833008 -26.666 -2.5 -39.999s-3.83398 -26.333 -6.50098 -39c-6 -34.667 -14 -67.834 -24 -99.501s-24.333 -59.5 -43 -83.5s-43.167 -43 -73.5 -57
s-69.166 -21 -116.499 -21c-66 0 -113.5 15 -142.5 45s-43.5 72.333 -43.5 127c0 15.333 0.833008 30.333 2.5 45s4.16699 29.334 7.5 44.001c6 30.667 14.167 60.834 24.5 90.501s25.166 56.167 44.499 79.5s43.666 42 72.999 56s66 21 110 21zM293.002 403.997
c-23.333 0 -42.666 -4.16602 -57.999 -12.499s-27.833 -19.5 -37.5 -33.5s-17.334 -30.667 -23.001 -50s-10.5 -40 -14.5 -62c-2.66699 -13.333 -4.83398 -26.333 -6.50098 -39s-2.5 -25 -2.5 -37c0 -30 6.5 -51.167 19.5 -63.5s33.833 -18.5 62.5 -18.5
c24.667 0 44.834 3.83301 60.501 11.5s28.5 18.5 38.5 32.5s18 30.667 24 50s11 40.666 15 63.999c2.66699 13.333 4.83398 26.333 6.50098 39s2.5 25 2.5 37c0 30.667 -7.33301 52 -22 64s-36.334 18 -65.001 18z" />
    <glyph glyph-name="p" unicode="p" horiz-adv-x="524" 
d="M388 498c43.333 0 74.167 -13 92.5 -39s27.5 -61.667 27.5 -107c0 -7.33301 -0.5 -16.5 -1.5 -27.5s-2.16699 -22.833 -3.5 -35.5s-3.16602 -25.334 -5.49902 -38.001l-6.5 -35c-7.33301 -36 -16.666 -68 -27.999 -96s-26.333 -51.5 -45 -70.5
s-41.334 -33.5 -68.001 -43.5s-59 -15 -97 -15c-16.667 0 -36.334 1.66699 -59.001 5s-44.667 9 -66 17v-1l-18 -87.5c-6 -29 -11.667 -58.5 -17 -88.5c-1.33301 -5.33301 -3.5 -10 -6.5 -14s-8.5 -6 -16.5 -6h-70c-10 0 -15 3.66699 -15 11c0 4 0.333008 7 1 9l121 634
c3.33301 13.333 11 20 23 20h71c8.66699 0 13.667 -2 15 -6s1.33301 -8.66699 0 -14l-6 -32c0.666992 0.666992 1.33398 1 2.00098 1c10 6.66699 22 13.5 36 20.5s28.833 13.333 44.5 19s31.667 10.334 48 14.001s32.166 5.5 47.499 5.5zM337.001 398
c-10 0 -21.6641 -1.66992 -34.9971 -5.00293s-26.5 -7.16602 -39.5 -11.499s-25.667 -9.16602 -38 -14.499s-22.5 -10 -30.5 -14c-8.66699 -42 -16.834 -83.667 -24.501 -125s-15.834 -83 -24.501 -125c22 -6.66699 42 -11.167 60 -13.5s37.333 -3.5 58 -3.5
c19.333 0 35.833 4.16699 49.5 12.5s25.167 19.833 34.5 34.5s17 31.834 23 51.501s11 41.167 15 64.5c2.66699 14 4.66699 28 6 42s2.33301 26 3 36c0 28.667 -4.33301 47.667 -13 57s-23.334 14 -44.001 14z" />
    <glyph glyph-name="q" unicode="q" horiz-adv-x="527" 
d="M314 500c16 0 32.834 -0.500977 50.501 -1.50098s35 -2.66699 52 -5s33.167 -5.16602 48.5 -8.49902s28.666 -7.33301 39.999 -12c10 -4.66699 15.833 -10.834 17.5 -18.501s1.5 -16.167 -0.5 -25.5l-58 -296.5l-58 -296.5c-1.33301 -6 -3.33301 -10.833 -6 -14.5
s-8 -5.5 -16 -5.5h-71c-8 0 -13 2 -15 6s-2.33301 8.66699 -1 14l35 178l-1 1c-26.667 -9.33301 -50.667 -15.5 -72 -18.5s-40 -4.5 -56 -4.5c-59.333 0 -100.833 13 -124.5 39s-35.5 62.333 -35.5 109c0 22.667 1.83301 47.334 5.5 74.001s8.5 51.334 14.5 74.001
c8 33.333 18.5 63.166 31.5 89.499s29.5 48.5 49.5 66.5s43.833 31.833 71.5 41.5s60.5 14.5 98.5 14.5zM406.001 392.999c-16.667 2.66699 -33.834 4.66699 -51.501 6s-35.167 2 -52.5 2c-14 0 -27.167 -1.66699 -39.5 -5s-24 -9.33301 -35 -18s-21 -20.834 -30 -36.501
s-16.833 -36.5 -23.5 -62.5c-5.33301 -17.333 -9.16602 -36.666 -11.499 -57.999s-3.5 -40.333 -3.5 -57c0 -30 6.5 -50.333 19.5 -61s32.167 -16 57.5 -16c32 0 70 5.66699 114 17l28 144.5z" />
    <glyph glyph-name="r" unicode="r" horiz-adv-x="358" 
d="M224 422l0.999023 -1.99902c8.66699 8 19.5 16 32.5 24s26.667 15.5 41 22.5s28.833 13 43.5 18s28 8.5 40 10.5c8.66699 1.33301 14.334 1.16602 17.001 -0.500977s4 -7.16699 4 -16.5l-7 -69c-0.666992 -7.33301 -2.5 -12.833 -5.5 -16.5s-9.16699 -6.16699 -18.5 -7.5
c-14.667 -2.66699 -29.834 -6 -45.501 -10s-30.834 -8.33301 -45.501 -13s-28.5 -9.5 -41.5 -14.5s-24.167 -9.5 -33.5 -13.5l-60 -315c-1.33301 -5.33301 -3.66602 -9.83301 -6.99902 -13.5s-8.66602 -5.5 -15.999 -5.5h-72c-7.33301 0 -12 1.5 -14 4.5
s-2.33301 7.83301 -1 14.5l88 452c2 12.667 9.33301 19 22 19h72c12.667 0 18 -6.33301 16 -19z" />
    <glyph glyph-name="s" unicode="s" horiz-adv-x="457" 
d="M283 500c10 0 21.6592 -0.501953 34.9922 -1.50195s27 -2.33301 41 -4s27.667 -4 41 -7s24.666 -6.5 33.999 -10.5c7.33301 -3.33301 12.333 -7.16602 15 -11.499s2.33398 -10.166 -0.999023 -17.499l-14 -36c-3.33301 -7.33301 -7 -11.833 -11 -13.5
s-10.667 -1.83398 -20 -0.500977c-20.667 2.66699 -43.167 5.16699 -67.5 7.5s-45.5 3.5 -63.5 3.5c-28 0 -50.167 -4.33301 -66.5 -13s-24.5 -24.667 -24.5 -48c0 -8.66699 2.16699 -15.834 6.5 -21.501s10 -10.334 17 -14.001s15 -6.66699 24 -9s18.167 -4.5 27.5 -6.5
c16 -3.33301 32.833 -7.33301 50.5 -12s34.167 -11.667 49.5 -21s28 -21.666 38 -36.999s15 -35 15 -59c0 -35.333 -6.33301 -64.5 -19 -87.5s-29.667 -41 -51 -54s-45.666 -22 -72.999 -27s-56 -7.5 -86 -7.5c-12.667 0 -26.167 0.5 -40.5 1.5s-28.666 2.5 -42.999 4.5
s-27.666 4.33301 -39.999 7s-22.833 5.66699 -31.5 9c-9.33301 4 -14.833 8.5 -16.5 13.5s-0.833984 11.5 2.49902 19.5l13 33c3.33301 8 7 12.833 11 14.5s10 1.83398 18 0.500977c10.667 -2 22.334 -3.66699 35.001 -5s25.334 -2.5 38.001 -3.5
s24.834 -1.83301 36.501 -2.5s21.5 -1 29.5 -1c30 0 54.667 4.5 74 13.5s29.333 27.167 30 54.5c0 9.33301 -1.66699 17 -5 23s-8.16602 11 -14.499 15s-13.666 7.33301 -21.999 10s-17.5 5.33398 -27.5 8.00098c-17.333 4 -35.333 8.5 -54 13.5s-35.667 12 -51 21
s-28 20.833 -38 35.5s-15 33.667 -15 57c0 31.333 5.83301 57.5 17.5 78.5s27.334 38 47.001 51s42.5 22.333 68.5 28s53 8.5 81 8.5z" />
    <glyph glyph-name="t" unicode="t" horiz-adv-x="355" 
d="M325 38c-0.666992 -11.333 -6.67188 -19.6641 -18.0049 -24.9971c-9.33301 -4 -20.166 -7.33301 -32.499 -10s-24.666 -4.83398 -36.999 -6.50098s-24.166 -2.83398 -35.499 -3.50098s-21 -1 -29 -1c-29.333 0 -51.333 4.16699 -66 12.5s-24.667 19.833 -30 34.5
s-7 31.667 -5 51s5 39.666 9 60.999l49 251h-56c-7.33301 0 -12.166 1.5 -14.499 4.5s-2.83301 7.83301 -1.5 14.5l10 49c2 13.333 9.66699 20 23 20h57l20 103c1.33301 7.33301 4 12.5 8 15.5s9 5.16699 15 6.5l71 18c6 1.33301 10.667 1.33301 14 0
s4.33301 -5.33301 3 -12l-25 -131h107c8 0 12.833 -1.66699 14.5 -5s1.83398 -8 0.500977 -14l-10 -50c-1.33301 -6.66699 -3.33301 -11.5 -6 -14.5s-8 -4.5 -16 -4.5h-107l-49 -249c-2.66699 -13.333 -3.66699 -23.666 -3 -30.999s3.33398 -12.833 8.00098 -16.5
s11.167 -5.83398 19.5 -6.50098s19.166 -1 32.499 -1c7.33301 0 17.833 0.333008 31.5 1s25.5 1.66699 35.5 3c5.33301 0.666992 9.33301 0 12 -2s4 -6 4 -12z" />
    <glyph glyph-name="u" unicode="u" horiz-adv-x="529" 
d="M441 19c-2 -12.667 -9.33984 -19.001 -22.0068 -19.001h-71c-7.33301 0 -12.166 1.66699 -14.499 5s-2.83301 8 -1.5 14l6 31l-1 1c-11.333 -6.66699 -24.166 -13.5 -38.499 -20.5s-29.5 -13.5 -45.5 -19.5s-32.167 -10.833 -48.5 -14.5s-32.166 -5.5 -47.499 -5.5
c-34 0 -59.833 4.66699 -77.5 14s-30 22.333 -37 39s-9.66699 36.334 -8 59.001s5.16699 47 10.5 73l57 294c2 13.333 9.66699 20 23 20h73c12.667 0 17.334 -6.66699 14.001 -20l-55 -281c-2.66699 -15.333 -4.16699 -29 -4.5 -41s1.16699 -22.167 4.5 -30.5
s9.33301 -14.833 18 -19.5s20.667 -7 36 -7c10.667 0 22.834 1.66699 36.501 5s27.334 7.5 41.001 12.5s26.334 10 38.001 15l28.5 12.5l65 334c2 13.333 9.66699 20 23 20h71c13.333 0 18.333 -6.66699 15 -20l-88 -451v0z" />
    <glyph glyph-name="v" unicode="v" horiz-adv-x="497" 
d="M229 123c0.666992 2 4.16895 9.16504 10.502 21.498l20.5 40.5c8.66699 17.333 18.667 36.333 30 57l125 232c3.33301 5.33301 6.66602 9.33301 9.99902 12s8.66602 4 15.999 4h81c14 0 16.667 -6.33301 8 -19l-257 -450c-4 -7.33301 -8.33301 -12.666 -13 -15.999
s-11 -5 -19 -5h-67c-9.33301 0 -15.333 1.5 -18 4.5s-4.66699 8.16699 -6 15.5l-83 450c-1.33301 5.33301 -0.833008 10 1.5 14s6.83301 6 13.5 6h74c7.33301 0 12.333 -1.16699 15 -3.5s4.66699 -7.16602 6 -14.499l34 -234c2 -19.333 4.33301 -37.333 7 -54
c2 -14 3.66699 -27.167 5 -39.5s2.33301 -19.5 3 -21.5h3z" />
    <glyph glyph-name="w" unicode="w" horiz-adv-x="717" 
d="M460 287l16.002 -153.997l1 1c0.666992 0 1.33398 -0.333008 2.00098 -1l79 166l84 173c2.66699 7.33301 5.5 12.166 8.5 14.499s7.5 3.5 13.5 3.5h79c7.33301 0 10.833 -1.83301 10.5 -5.5s-1.5 -7.83398 -3.5 -12.501l-235 -451
c-5.33301 -11.333 -11 -17.666 -17 -18.999s-11.333 -2 -16 -2h-57c-14.667 0 -22.334 6.66699 -23.001 20l-15 105l-17 127h-2l-67 -128l-54 -101c-8 -15.333 -20 -23 -36 -23h-52c-12 0 -19.5 2.16699 -22.5 6.5s-5.16699 11.166 -6.5 20.499l-64 444
c-0.666992 4.66699 0.166016 9 2.49902 13s6.5 6 12.5 6h74c6.66699 0 11.167 -1.33301 13.5 -4s4.16602 -7.33398 5.49902 -14.001l18 -169l18 -173h3l77 151l49 92l-12 98c-0.666992 4.66699 0.333008 9 3 13s6.66699 6 12 6h79c7.33301 0 12 -1.33301 14 -4
s3.33301 -7.66699 4 -15z" />
    <glyph glyph-name="x" unicode="x" horiz-adv-x="468" 
d="M310 249l114 -228.001c2.66699 -5.33301 2.66699 -10.166 0 -14.499s-7.66699 -6.5 -15 -6.5h-82c-6 0 -10.167 1.16699 -12.5 3.5s-4.83301 6.16602 -7.5 11.499l-72 158l-130 -158c-4.66699 -5.33301 -8.66699 -9.16602 -12 -11.499s-8.33301 -3.5 -15 -3.5h-95
c-6 0 -9.66699 2 -11 6s0.666992 9 6 15l202 229l-107 220c-2 4.66699 -1.83301 9.16699 0.5 13.5s6.83301 6.5 13.5 6.5h82c6.66699 0 11 -1.16699 13 -3.5s4 -6.16602 6 -11.499l66 -149l124 149c4 5.33301 7.33301 9.16602 10 11.499s7 3.5 13 3.5h98
c7.33301 0 11.333 -2 12 -6s-1.33301 -8.66699 -6 -14z" />
    <glyph glyph-name="y" unicode="y" horiz-adv-x="489" 
d="M227 140l32.001 58l26 47l23 44l98 184c3.33301 6 6.83301 10.333 10.5 13s9.16699 4 16.5 4h79c8 0 12 -2 12 -6s-1.66699 -8.66699 -5 -14l-357 -636c-3.33301 -6.66699 -7 -11.334 -11 -14.001s-10.333 -4 -19 -4h-68c-8 0 -12.167 2 -12.5 6s1.16699 8.66699 4.5 14
l96 169l-85 465c-1.33301 5.33301 -1 10 1 14s6.66699 6 14 6h72c6.66699 0 11.167 -0.666992 13.5 -2s4.16602 -5.66602 5.49902 -12.999l29 -186l21 -149h4z" />
    <glyph glyph-name="z" unicode="z" horiz-adv-x="448" 
d="M372 91c13.333 0 18.666 -6.33203 15.999 -18.999l-10 -53c-2.66699 -12.667 -10 -19 -22 -19h-348c-11.333 0 -16 5.66699 -14 17l8 42c1.33301 5.33301 3.16602 10.666 5.49902 15.999s6.5 11 12.5 17l297 309h-216c-12.667 0 -17.667 6.33301 -15 19l10 52
c2.66699 12 10 18 22 18h328c6.66699 0 11.334 -1 14.001 -3s3.33398 -6.66699 2.00098 -14l-9 -47c-2.66699 -11.333 -9 -22.333 -19 -33l-290 -302h228z" />
    <glyph glyph-name="braceleft" unicode="{" horiz-adv-x="299" 
d="M148 11c-2.66699 -13.333 -2.16895 -23.1689 1.49805 -29.502s12.167 -10.166 25.5 -11.499l28 -2c5.33301 -0.666992 9.33301 -2 12 -4s3.33398 -6 2.00098 -12l-9 -42c-1.33301 -10 -7.33301 -15.667 -18 -17c-13.333 -2 -26 -3.33301 -38 -4s-22 -1 -30 -1
c-18.667 0 -33.834 3 -45.501 9s-20.334 13.833 -26.001 23.5s-9 20.667 -10 33s-0.166992 25.166 2.5 38.499l36 185c4.66699 22.667 6.33398 41.667 5.00098 57s-12.333 26.333 -33 33c-8.66699 3.33301 -12.334 8.66602 -11.001 15.999l7 35
c0.666992 7.33301 5.66699 12 15 14c24 6.66699 39.833 18 47.5 34s13.5 35.333 17.5 58l34 174c2.66699 13.333 7.16699 26.333 13.5 39s14.5 23.834 24.5 33.501s21.833 17.5 35.5 23.5s29.5 9 47.5 9c8 0 17.5 -0.5 28.5 -1.5s23.167 -2.16699 36.5 -3.5
c9.33301 -2 13 -8 11 -18l-8 -42c-1.33301 -6.66699 -3.66602 -11 -6.99902 -13s-7.66602 -3 -12.999 -3l-29 -2c-14 -1.33301 -23.667 -5.16602 -29 -11.499s-9.66602 -16.5 -12.999 -30.5l-31 -161c-2 -9.33301 -4.83301 -19.833 -8.5 -31.5s-8.66699 -23.167 -15 -34.5
s-14.333 -21.666 -24 -30.999s-21.5 -16.333 -35.5 -21v-2c12.667 -6.66699 22.167 -14.167 28.5 -22.5s10.5 -17.333 12.5 -27s2.33301 -20 1 -31s-3.33301 -22.5 -6 -34.5z" />
    <glyph glyph-name="bar" unicode="|" horiz-adv-x="263" 
d="M85 677c0 12.667 6.66699 19 20 19h54c7.33301 0 12.166 -1.66699 14.499 -5s3.5 -8 3.5 -14v-772c0 -5.33301 -1.16699 -9.83301 -3.5 -13.5s-7.16602 -5.5 -14.499 -5.5h-54c-13.333 0 -20 6.33301 -20 19v772z" />
    <glyph glyph-name="braceright" unicode="}" horiz-adv-x="299" 
d="M100 182c2.66699 12 5.49805 23.502 8.49805 34.502s7.5 21.333 13.5 31s13.667 18.667 23 27s21.666 15.833 36.999 22.5l1 2c-12 4.66699 -21 11.667 -27 21s-10.167 19.666 -12.5 30.999s-3.16602 22.833 -2.49902 34.5s2 22.167 4 31.5l31 161
c3.33301 14 3.33301 24.167 0 30.5s-12 10.166 -26 11.499l-27 2c-5.33301 0 -9.16602 1 -11.499 3s-2.83301 6.33301 -1.5 13l8 42c2 10 8.33301 16 19 18c13.333 1.33301 25.666 2.5 36.999 3.5s21 1.5 29 1.5c18 0 32.833 -3 44.5 -9s20.5 -13.833 26.5 -23.5
s9.5 -20.834 10.5 -33.501s0.166992 -25.667 -2.5 -39l-34 -174c-2 -11.333 -3.66699 -21.833 -5 -31.5s-1.16602 -18.5 0.500977 -26.5s5 -14.833 10 -20.5s12.833 -10.167 23.5 -13.5c8 -2 11.667 -6.66699 11 -14l-7 -35c-1.33301 -7.33301 -7 -12.666 -17 -15.999
c-12 -3.33301 -21.667 -7.83301 -29 -13.5s-13.166 -12.167 -17.499 -19.5s-7.83301 -15.833 -10.5 -25.5s-5 -20.167 -7 -31.5l-36 -185c-2.66699 -13.333 -6.66699 -26.166 -12 -38.499s-12.833 -23.333 -22.5 -33s-21.334 -17.5 -35.001 -23.5s-29.834 -9 -48.501 -9
c-8 0 -17.833 0.333008 -29.5 1s-23.5 2 -35.5 4c-9.33301 0.666992 -13.333 6.33398 -12 17.001l9 42c1.33301 6 3.5 10 6.5 12s7.16699 3.33301 12.5 4l27 2c14.667 1.33301 24.834 5.16602 30.501 11.499s9.83398 16.166 12.501 29.499z" />
    <glyph glyph-name="asciitilde" unicode="~" horiz-adv-x="572" 
d="M374 227c-13.333 0 -27.499 2.83203 -42.499 8.49902s-29.833 12 -44.5 19s-29.167 13.5 -43.5 19.5s-27.5 9 -39.5 9c-13.333 0 -25.333 -2.83301 -36 -8.5s-24.334 -17.167 -41.001 -34.5l-8 -6c-2.66699 -2 -7 -1.33301 -13 2l-31 19c-4 1.33301 -6 4 -6 8
s1 7.66699 3 11c10.667 18.667 22 34 34 46s24.333 21.333 37 28s25.5 11.334 38.5 14.001s25.5 4 37.5 4c16 0 31.833 -2.66699 47.5 -8s30.834 -11.333 45.501 -18s28.834 -12.667 42.501 -18s26.5 -8 38.5 -8c13.333 0 25.166 2.66699 35.499 8
s21.166 14.666 32.499 27.999c4 4.66699 8 8 12 10s8.66699 1 14 -3l28 -20c6 -3.33301 9 -6.16602 9 -8.49902s-1.33301 -6.16602 -4 -11.499c-21.333 -34.667 -44 -58.334 -68 -71.001s-50 -19 -78 -19z" />
    <glyph glyph-name="exclamdown" unicode="&#xa1;" horiz-adv-x="253" 
d="M191 492c12 0 21.334 -1.33203 28.001 -3.99902s11.667 -6.33398 15 -11.001s5.33301 -10.167 6 -16.5s0.666992 -12.833 0 -19.5c-2 -18 -8 -33.333 -18 -46s-27.667 -19 -53 -19c-22.667 0 -37 4.5 -43 13.5s-8 21.167 -6 36.5c0.666992 8 2.16699 16 4.5 24
s6.16602 15 11.499 21s12.333 11 21 15s20 6 34 6zM114.001 -162.999c-1.33301 -7.33301 -3.5 -12.167 -6.5 -14.5s-7.83301 -3.5 -14.5 -3.5h-70c-10.667 0 -15 6 -13 18l101 449c2.66699 12 8.66699 18 18 18h49c10.667 0 15 -6 13 -18z" />
    <glyph glyph-name="cent" unicode="&#xa2;" horiz-adv-x="572" 
d="M436 46c0 -7.33301 -1.33398 -13.335 -4.00098 -18.002s-9 -9 -19 -13c-17.333 -7.33301 -37.833 -12.5 -61.5 -15.5s-46.834 -5.16699 -69.501 -6.5l-23 -126c-3.33301 -12.667 -9.66602 -19 -18.999 -19h-38c-11.333 0 -15.666 6.33301 -12.999 19l24 128
c-25.333 3.33301 -46.5 9.5 -63.5 18.5s-30.667 20.167 -41 33.5s-17.666 28.5 -21.999 45.5s-6.5 35.5 -6.5 55.5c0 15.333 1.16699 32.166 3.5 50.499s5.16602 36.5 8.49902 54.5c6 30 13.333 59 22 87s21 53.167 37 75.5s36.667 40.666 62 54.999
s57.666 23.166 96.999 26.499l26 131c2.66699 13.333 9.66699 20 21 20h38c6 0 9.83301 -1.83301 11.5 -5.5s1.83398 -8.5 0.500977 -14.5l-26 -130c20 -1.33301 40.833 -3.66602 62.5 -6.99902s40.167 -8.33301 55.5 -15c11.333 -5.33301 14.333 -14.666 9 -27.999l-14 -40
c-2.66699 -7.33301 -6.16699 -11.666 -10.5 -12.999s-11.833 -1.66602 -22.5 -0.999023l-61 6c-20.667 2 -39.667 3 -57 3c-20 0 -37.333 -2.66699 -52 -8s-27.5 -14 -38.5 -26s-20.333 -27.667 -28 -47s-14.167 -43.333 -19.5 -72c-2.66699 -16 -4.66699 -30.5 -6 -43.5
s-2 -24.833 -2 -35.5c-0.666992 -31.333 6 -53 20 -65s36 -18 66 -18c15.333 0 35.333 0.833008 60 2.5s47.667 3.83398 69 6.50098c8 1.33301 14 1.33301 18 0s6 -6.33301 6 -15v-36z" />
    <glyph glyph-name="sterling" unicode="&#xa3;" horiz-adv-x="572" 
d="M397 669c10 0 21.8291 -0.501953 35.4961 -1.50195s27.834 -2.5 42.501 -4.5s29.334 -4.66699 44.001 -8s28 -7.66602 40 -12.999c7.33301 -3.33301 11.166 -7 11.499 -11s-0.5 -8.66699 -2.5 -14l-16 -45c-1.33301 -5.33301 -3.83301 -9.5 -7.5 -12.5
s-8.5 -3.83301 -14.5 -2.5c-20.667 3.33301 -41.834 6.5 -63.501 9.5s-45.834 4.5 -72.501 4.5c-32.667 0 -59 -8.5 -79 -25.5s-32.667 -40.833 -38 -71.5l-18 -102h163c8.66699 0 13.667 -1.5 15 -4.5s1.33301 -7.16699 0 -12.5l-10 -50
c-1.33301 -7.33301 -3.66602 -12.166 -6.99902 -14.499s-8.33301 -3.5 -15 -3.5h-161c-2.66699 -12 -5.16699 -23.833 -7.5 -35.5s-5.16602 -23.167 -8.49902 -34.5c-5.33301 -22.667 -12.166 -45.834 -20.499 -69.501s-19.166 -41.167 -32.499 -52.5l272 -1
c7.33301 0 11.833 -1.5 13.5 -4.5s1.83398 -7.5 0.500977 -13.5l-11 -60c-1.33301 -7.33301 -3.5 -11.833 -6.5 -13.5s-8.16699 -2.5 -15.5 -2.5h-403c-12 0 -17 5.33301 -15 16l8 40c2 10.667 7.33301 19.334 16 26.001c25.333 21.333 44.833 43.5 58.5 66.5
s24.167 51.167 31.5 84.5l12 54h-48c-9.33301 0 -14.666 1.5 -15.999 4.5s-1.33301 7.5 0 13.5l10 50c1.33301 6.66699 3.5 11.167 6.5 13.5s8.16699 3.5 15.5 3.5h46c6.66699 42.667 14.667 86 24 130c11.333 52 35.666 92.833 72.999 122.5s87.333 44.5 150 44.5z" />
    <glyph glyph-name="currency" unicode="&#xa4;" horiz-adv-x="518" 
d="M146 284c0 -38 9.5 -67.667 28.5 -89s45.833 -32 80.5 -32c37.333 0 66.166 11.333 86.499 34s30.5 51.667 30.5 87c0 38 -10.167 67.667 -30.5 89s-49.166 32 -86.499 32c-34.667 0 -61.5 -10.667 -80.5 -32s-28.5 -51 -28.5 -89zM58 283
c0 11.333 1.99805 26.9971 5.99805 46.9971s11.667 40.333 23 61l-55 55c-5.33301 5.33301 -8.16602 10 -8.49902 14s2.16699 8.66699 7.5 14l37 35c6.66699 6.66699 11.667 9.66699 15 9s7.66602 -3.66699 12.999 -9l52 -52c13.333 8 28.833 14.5 46.5 19.5
s37.834 7.83301 60.501 8.5c44.667 0 82.667 -10 114 -30l58 58c6 6 10.833 9 14.5 9s8.16699 -2.33301 13.5 -7l38 -38c5.33301 -5.33301 7.83301 -9.83301 7.5 -13.5s-3.16602 -8.16699 -8.49902 -13.5l-62 -61c10 -17.333 17.333 -35 22 -53s7 -34.333 7 -49
c0 -15.333 -2.33301 -33.666 -7 -54.999s-13 -42 -25 -62l63 -62c6 -5.33301 9.5 -10 10.5 -14s-1.5 -9 -7.5 -15l-35 -36c-6 -6 -11.167 -8.83301 -15.5 -8.5s-9.16602 3.5 -14.499 9.5l-63 63c-14.667 -8.66699 -31.167 -15.5 -49.5 -20.5s-38.5 -7.16699 -60.5 -6.5
c-20.667 0 -38.834 1.83301 -54.501 5.5s-30.167 8.83398 -43.5 15.501l-62 -60c-5.33301 -6 -10 -9.5 -14 -10.5s-9 1.5 -15 7.5l-38 38c-4 4.66699 -5.83301 9 -5.5 13s3.5 8.66699 9.5 14l58 57c-12.667 20.667 -21.167 42.334 -25.5 65.001s-6.5 42 -6.5 58z" />
    <glyph glyph-name="yen" unicode="&#xa5;" horiz-adv-x="572" 
d="M453 221c10 0 14 -4.66699 12 -14l-8 -37c-0.666992 -4 -2 -7.16699 -4 -9.5s-5.66699 -3.5 -11 -3.5h-153l-28 -138c-1.33301 -12.667 -8.33301 -19 -21 -19h-73c-12 -0 -17 6.33301 -15 19l27 138h-152c-10 0 -13.667 4.66699 -11 14l7 38c2 8 7.66699 12 17 12h413z
M48 262c-10 0 -14.0029 4.33203 -12.0029 12.999l7 38c2 8.66699 8 13 18 13h126l-109 319c-1.33301 4.66699 -0.666016 8.83398 2.00098 12.501s6.66699 5.5 12 5.5h80c8 0 13.333 -1.16699 16 -3.5s5.33398 -6.83301 8.00098 -13.5l77 -269h6l182 266
c5.33301 6.66699 9.83301 11.667 13.5 15s9.83398 5 18.501 5h82c5.33301 0 8.5 -1.83301 9.5 -5.5s-0.166992 -8.16699 -3.5 -13.5l-234 -318h127c9.33301 0 13 -4.66699 11 -14l-7 -37c-1.33301 -4 -3 -7.16699 -5 -9.5s-5.66699 -3.5 -11 -3.5h-414z" />
    <glyph glyph-name="brokenbar" unicode="&#xa6;" horiz-adv-x="263" 
d="M85 266c0 12.667 6.66699 19 20 19h54c7.33301 0 12.166 -1.66699 14.499 -5s3.5 -8 3.5 -14v-361c0 -5.33301 -1.16699 -9.83301 -3.5 -13.5s-7.16602 -5.5 -14.499 -5.5h-54c-13.333 0 -20 6.33301 -20 19v361zM85 674c0 13.333 6.66699 20 20 20h54
c7.33301 0 12.166 -1.83301 14.499 -5.5s3.5 -8.5 3.5 -14.5v-328c0 -5.33301 -1.16699 -9.83301 -3.5 -13.5s-7.16602 -5.5 -14.499 -5.5h-54c-13.333 0 -20 6.33301 -20 19v328z" />
    <glyph glyph-name="section" unicode="&#xa7;" horiz-adv-x="438" 
d="M456 576c-4.66699 -9.33301 -10.666 -13.9961 -17.999 -13.9961c-4 0 -10 1 -18 3c-7.33301 2 -15.666 4 -24.999 6s-18.833 3.83301 -28.5 5.5s-19.167 3 -28.5 4s-17.333 1.5 -24 1.5c-14.667 0 -28.834 -1 -42.501 -3s-25.834 -5.83301 -36.501 -11.5
s-19.167 -13.5 -25.5 -23.5s-9.5 -23.333 -9.5 -40c0 -10.667 3.5 -20.334 10.5 -29.001s15.667 -16.5 26 -23.5s21.166 -13.333 32.499 -19s21 -10.834 29 -15.501c14.667 -7.33301 29.167 -15.333 43.5 -24s27 -18.667 38 -30s19.833 -24.5 26.5 -39.5s10 -32.5 10 -52.5
c-0.666992 -28.667 -9.16699 -54.667 -25.5 -78s-35.833 -45.666 -58.5 -66.999c10 -11.333 18.833 -25 26.5 -41s11.5 -34.333 11.5 -55c0 -31.333 -6 -58.5 -18 -81.5s-28.333 -42.167 -49 -57.5s-44.334 -26.833 -71.001 -34.5s-55 -11.5 -85 -11.5
c-12.667 0 -26.334 0.833008 -41.001 2.5s-29 4 -43 7s-27 6.66699 -39 11s-21.667 9.16602 -29 14.499c-8.66699 6.66699 -10.667 15.334 -6 26.001l15 34c4 9.33301 8.83301 14.166 14.5 14.499s12.834 -0.5 21.501 -2.5c40 -11.333 75.333 -17 106 -17
c13.333 0 27 1.33301 41 4s26.667 7.16699 38 13.5s20.666 14.666 27.999 24.999s11 23.5 11 39.5c0 14 -5.16699 26.833 -15.5 38.5s-23.166 22.5 -38.499 32.5s-31.666 19.333 -48.999 28s-32.666 16.667 -45.999 24c-17.333 9.33301 -33 23.166 -47 41.499
s-21 41.166 -21 68.499c0 14 2.33301 28.333 7 43s11 28.667 19 42s17.333 26 28 38s21.667 22.333 33 31c-24.667 22.667 -37 51 -37 85c0 30.667 5.83301 57.5 17.5 80.5s27.334 42 47.001 57s42.167 26.167 67.5 33.5s52 11 80 11c13.333 0 27.666 -0.833008 42.999 -2.5
s30.166 -4 44.499 -7s27.5 -6.66699 39.5 -11s21.667 -9.16602 29 -14.499c6 -3.33301 9.33301 -6.83301 10 -10.5s-0.666016 -8.16699 -3.99902 -13.5zM314.001 253.004c0 15.333 -3.83496 28.168 -11.502 38.501s-18.5 19.166 -32.5 26.499
c-11.333 6 -23.166 11.833 -35.499 17.5s-24.833 12.167 -37.5 19.5c-13.333 -12.667 -24.666 -26.667 -33.999 -42s-14 -30.333 -14 -45c0 -12 3.83301 -22.5 11.5 -31.5s17.167 -17.167 28.5 -24.5s24 -14 38 -20s27.667 -12.333 41 -19c13.333 13.333 24 26.5 32 39.5
s12.667 26.5 14 40.5z" />
    <glyph glyph-name="dieresis" unicode="&#xa8;" horiz-adv-x="513" 
d="M260 666c15.333 0 27.166 -2.5 35.499 -7.5s12.5 -13.833 12.5 -26.5c0 -20 -5.16699 -37.5 -15.5 -52.5s-28.166 -22.5 -53.499 -22.5c-30.667 0 -46 11.667 -46 35c0 21.333 4.83301 39 14.5 53s27.167 21 52.5 21zM455 666c15.333 0 27 -2.5 35 -7.5
s12 -13.833 12 -26.5c0 -20 -5 -37.5 -15 -52.5s-28 -22.5 -54 -22.5c-30.667 0 -46 11.667 -46 35c0 21.333 5 39 15 53s27.667 21 53 21z" />
    <glyph glyph-name="copyright" unicode="&#xa9;" horiz-adv-x="808" 
d="M403 -15c-49.333 0 -95.5 9.16699 -138.5 27.5s-80.5 43.166 -112.5 74.499s-57.167 68.333 -75.5 111s-27.5 88.334 -27.5 137.001s9.16699 94.334 27.5 137.001s43.5 79.667 75.5 111s69.5 56.166 112.5 74.499s89.167 27.5 138.5 27.5c50 0 96.667 -9.16699 140 -27.5
s80.833 -43.166 112.5 -74.499s56.5 -68.333 74.5 -111s27 -88.334 27 -137.001s-9.33301 -94.334 -28 -137.001s-44 -79.667 -76 -111s-69.5 -56.166 -112.5 -74.499s-88.833 -27.5 -137.5 -27.5zM403 624c-40 0 -77.5 -7.66699 -112.5 -23s-65.667 -36 -92 -62
s-47 -56.5 -62 -91.5s-22.5 -72.5 -22.5 -112.5s7.5 -77.5 22.5 -112.5s35.667 -65.5 62 -91.5s57 -46.5 92 -61.5s72.5 -22.5 112.5 -22.5s77.5 7.5 112.5 22.5s65.5 35.5 91.5 61.5s46.5 56.5 61.5 91.5s22.5 72.5 22.5 112.5s-7.5 77.5 -22.5 112.5
s-35.5 65.5 -61.5 91.5s-56.5 46.667 -91.5 62s-72.5 23 -112.5 23zM243 325c0 26 2.00195 51.501 6.00195 76.501s12 47.167 24 66.5s28.667 35 50 47s49 18 83 18c14.667 0 32.667 -1.16699 54 -3.5s40 -6.83301 56 -13.5c10 -4 14 -10 12 -18l-5 -25
c-2 -8 -7.33301 -11 -16 -9c-13.333 2 -29 3.83301 -47 5.5s-34.667 2.5 -50 2.5c-20.667 0 -37.334 -3.83301 -50.001 -11.5s-22.334 -18.167 -29.001 -31.5s-11 -28.833 -13 -46.5s-3 -36.5 -3 -56.5s1.16699 -38.5 3.5 -55.5s7 -32 14 -45s16.667 -23.167 29 -30.5
s28.5 -11 48.5 -11c17.333 0 33.666 0.666992 48.999 2s31.333 3 48 5c8.66699 2 14 -1 16 -9l5 -22c2 -8.66699 -1.33301 -15 -10 -19c-15.333 -6.66699 -34 -11.334 -56 -14.001s-40.667 -4 -56 -4c-33.333 0 -60.666 5.66699 -81.999 17s-38 26.5 -50 45.5
s-20.167 40.5 -24.5 64.5s-6.5 49 -6.5 75z" />
    <glyph glyph-name="ordfeminine" unicode="&#xaa;" horiz-adv-x="371" 
d="M219 571c11.333 0 25.8311 -2.33496 43.498 -7.00195s33.5 -12 47.5 -22l3 14c0.666992 3.33301 1.66699 5.83301 3 7.5s4.33301 2.5 9 2.5h56c7.33301 0 11.5 -1.5 12.5 -4.5s0.833008 -7.16699 -0.5 -12.5l-55 -294c-1.33301 -5.33301 -2.83301 -9.16602 -4.5 -11.499
s-5.5 -3.5 -11.5 -3.5h-54c-9.33301 0 -13.666 4 -12.999 12l4 24c-15.333 -10.667 -32.666 -20 -51.999 -28s-37.666 -12.667 -54.999 -14c-32.667 0 -57.334 7.33301 -74.001 22s-25.334 38.667 -26.001 72c0 10.667 0.666992 21.834 2 33.501s3.33301 24.167 6 37.5
c4.66699 26 10.834 49.667 18.501 71s17.5 39.5 29.5 54.5s27 26.5 45 34.5s40 12 66 12zM266.998 334.998l14.001 72.502c4.66699 24.333 9.66699 48.5 15 72.5c-13.333 6 -25.666 10 -36.999 12s-22.333 3 -33 3c-23.333 0 -40.333 -7.66699 -51 -23s-20 -40.333 -28 -75
c-2.66699 -10 -4.5 -19.5 -5.5 -28.5s-1.5 -16.833 -1.5 -23.5c0 -15.333 3.16699 -25.333 9.5 -30s15.166 -7 26.499 -7c6 0 13.167 0.833008 21.5 2.5s16.666 3.66699 24.999 6s16.333 5.16602 24 8.49902s14.5 6.66602 20.5 9.99902z" />
    <glyph glyph-name="guillemotleft" unicode="&#xab;" horiz-adv-x="478" 
d="M172 337c3.33301 3.33301 7.50098 6.66797 12.501 10.001s10.5 5 16.5 5h87c4 0 6.33301 -1.33301 7 -4s-0.333008 -5.33398 -3 -8.00098l-151 -150l86 -144c1.33301 -2.66699 1.66602 -6 0.999023 -10s-3.66699 -6 -9 -6l-82 1c-6.66699 0 -11.5 1.83301 -14.5 5.5
l-8.5 10.5l-77 129c-4.66699 7.33301 -6 13.5 -4 18.5s5.33301 9.83301 10 14.5zM351.001 337.002c3.33301 3.33301 7.49805 6.66797 12.498 10.001s10.833 5 17.5 5h86c4.66699 0 7.33398 -1.33301 8.00098 -4s-0.666016 -5.33398 -3.99902 -8.00098l-150 -150l85 -144
c1.33301 -2.66699 1.5 -6 0.5 -10s-4.16699 -6 -9.5 -6l-80 1c-6.66699 0 -11.667 1.83301 -15 5.5s-6 7.16699 -8 10.5l-77 129c-4.66699 7.33301 -6 13.5 -4 18.5s5.33301 9.83301 10 14.5z" />
    <glyph glyph-name="logicalnot" unicode="&#xac;" horiz-adv-x="572" 
d="M389 118c-9.33301 0 -14.001 3.99805 -14.001 11.998v5l30 152h-311c-9.33301 0 -14 4 -14 12c0 2.66699 0.666992 7.33398 2 14.001l7 39c2 12 9 18 21 18h382c10 0 15 -3.33301 15 -10c0 -2.66699 -0.333008 -5 -1 -7l-42 -217
c-1.33301 -7.33301 -3.66602 -12.166 -6.99902 -14.499s-8 -3.5 -14 -3.5h-54v0z" />
    <glyph glyph-name="sfthyphen" unicode="&#xad;" horiz-adv-x="387" 
d="M371 370c11.333 0 15.667 -5.33301 13 -16l-11 -58c-2 -10.667 -8.66699 -16 -20 -16h-288c-12 0 -16.667 5.33301 -14 16l11 58c2 10.667 8.66699 16 20 16h289z" />
    <glyph glyph-name="registered" unicode="&#xae;" horiz-adv-x="527" 
d="M489 505c0 -31.333 -5.83398 -60.5 -17.501 -87.5s-27.667 -50.5 -48 -70.5s-44.166 -35.833 -71.499 -47.5s-56.333 -17.5 -87 -17.5c-31.333 0 -60.666 5.83301 -87.999 17.5s-51.166 27.5 -71.499 47.5s-36.333 43.5 -48 70.5s-17.5 56.167 -17.5 87.5
c0 30.667 5.83301 59.5 17.5 86.5s27.667 50.5 48 70.5s44.166 35.833 71.499 47.5s56.666 17.5 87.999 17.5c32 0 61.667 -5.83301 89 -17.5s51 -27.5 71 -47.5s35.667 -43.5 47 -70.5s17 -55.833 17 -86.5zM442.999 505c0 24.667 -4.66699 47.834 -14 69.501
s-22 40.5 -38 56.5s-34.833 28.667 -56.5 38s-44.834 14 -69.501 14c-25.333 0 -48.833 -4.66699 -70.5 -14s-40.667 -22 -57 -38s-29.166 -34.833 -38.499 -56.5s-14 -44.834 -14 -69.501s4.66699 -47.834 14 -69.501s22.166 -40.667 38.499 -57s35.333 -29.166 57 -38.499
s45.167 -14 70.5 -14c24.667 0 47.834 4.66699 69.501 14s40.5 22.166 56.5 38.499s28.667 35.333 38 57s14 44.834 14 69.501zM364.999 383c1.33301 -2.66699 1.83203 -4.99902 1.49902 -6.99902s-1.83301 -3 -4.5 -3h-40c-6 0 -10.333 2.66699 -13 8l-22 46.5l-23 47.5
h-33v-92c0 -6.66699 -3 -10 -9 -10h-32c-6 0 -9 3.33301 -9 10v243c0 6 3.66699 9 11 9h86c20.667 0 39.5 -6 56.5 -18s25.5 -32 25.5 -60c0 -14.667 -3.16699 -28.834 -9.5 -42.501s-18.166 -24.167 -35.499 -31.5zM308.998 556.001c0 14 -3.83301 23.5 -11.5 28.5
s-17.167 7.5 -28.5 7.5h-38v-74h38c9.33301 0 18.333 2.16699 27 6.5s13 14.833 13 31.5z" />
    <glyph glyph-name="macron" unicode="&#xaf;" horiz-adv-x="521" 
d="M190 576c-12 0 -16.668 5.33301 -14.001 16l10 52c2.66699 11.333 9.33398 17 20.001 17h274c11.333 0 16 -5.33301 14 -16l-11 -53c-2 -10.667 -8.33301 -16 -19 -16h-274z" />
    <glyph glyph-name="degree" unicode="&#xb0;" horiz-adv-x="369" 
d="M191 389c-23.333 0 -43.999 3.66699 -61.999 11s-33.333 17.333 -46 30s-22.334 27.5 -29.001 44.5s-10 35.5 -10 55.5c0 18.667 3.83301 36.667 11.5 54s18.167 32.5 31.5 45.5s29 23.333 47 31s37 11.5 57 11.5s38.667 -3.83301 56 -11.5s32.5 -18 45.5 -31
s23.167 -28.167 30.5 -45.5s11 -35.333 11 -54c0 -20 -3.66699 -38.5 -11 -55.5s-17.5 -31.833 -30.5 -44.5s-28.167 -22.667 -45.5 -30s-36 -11 -56 -11zM188.001 600c-19.333 0 -36 -7.16699 -50 -21.5s-21 -31.166 -21 -50.499s6.83301 -36 20.5 -50s30.5 -21 50.5 -21
c19.333 0 36 7 50 21s21 30.667 21 50s-7 36.166 -21 50.499s-30.667 21.5 -50 21.5z" />
    <glyph glyph-name="plusminus" unicode="&#xb1;" horiz-adv-x="572" 
d="M372 386h143.002c12 0 17 -5.33301 15 -16l-10 -50c-2 -10.667 -9 -16 -21 -16h-144l-28 -147c-2 -11.333 -8 -17 -18 -17h-63c-6.66699 0 -10.834 1.33301 -12.501 4s-1.83398 7 -0.500977 13l28 147h-145c-10.667 0 -15 5.33301 -13 16l10 50
c2 10.667 8.33301 16 19 16h145l27 137c2 11.333 8.66699 17 20 17h62c10.667 0 14.667 -5.66699 12 -17zM57.002 22c-10.667 0 -15 5.33301 -13 16l10 48c2 11.333 8.33301 17 19 17h383c12 0 16.667 -5.33301 14 -16l-9 -49c-2.66699 -10.667 -9.66699 -16 -21 -16h-383z
" />
    <glyph glyph-name="twosuperior" unicode="&#xb2;" horiz-adv-x="381" 
d="M320 511c-22 -19.333 -43.1699 -36.6621 -63.5029 -51.9951l-67.5 -52h169c5.33301 0 9 -1 11 -3s2.33301 -6 1 -12l-9 -45c-1.33301 -5.33301 -3 -9.33301 -5 -12s-5.66699 -4 -11 -4h-285c-11.333 0 -16 5.33301 -14 16l8 38c0.666992 4 2.33398 8.5 5.00098 13.5
s6.66699 9.5 12 13.5l38 30.5l54.5 43.5l56 44.5l42.5 33.5c17.333 14 30.333 27.5 39 40.5s13.334 27.167 14.001 42.5c-0.666992 10 -5 18.167 -13 24.5s-24.333 9.5 -49 9.5c-18.667 0 -38.167 -0.5 -58.5 -1.5s-37.166 -2.5 -50.499 -4.5
c-8.66699 -1.33301 -14.334 -1.66602 -17.001 -0.999023s-4.33398 4.66699 -5.00098 12l-2 29c-1.33301 5.33301 -0.666016 10.666 2.00098 15.999s9.66699 9.66602 21 12.999c8.66699 3.33301 19 6.16602 31 8.49902s24 4.16602 36 5.49902s23.167 2.16602 33.5 2.49902
s18.833 0.5 25.5 0.5c52 0 88.5 -8.33301 109.5 -25s31.5 -39.667 31.5 -69c0 -30.667 -7.16699 -57.834 -21.5 -81.501s-37.166 -48.5 -68.499 -74.5z" />
    <glyph glyph-name="threesuperior" unicode="&#xb3;" horiz-adv-x="381" 
d="M320 591c21.333 -5.33301 37.6699 -15.168 49.0029 -29.501s17 -37.166 17 -68.499s-5.66699 -57.666 -17 -78.999s-26.833 -38.5 -46.5 -51.5s-42.834 -22.333 -69.501 -28s-55.334 -8.5 -86.001 -8.5c-7.33301 0 -16.333 0.5 -27 1.5s-21.5 2.5 -32.5 4.5
s-21.5 4.33301 -31.5 7s-18.333 6 -25 10c-5.33301 2.66699 -8.16602 6.33398 -8.49902 11.001s0.833984 9.66699 3.50098 15l10 24c2.66699 6 5.16699 10.5 7.5 13.5s6.16602 3.83301 11.499 2.5c19.333 -3.33301 38 -6 56 -8s36.667 -3 56 -3
c10.667 0 22.167 0.833008 34.5 2.5s23.666 5.33398 33.999 11.001s19 13.667 26 24s10.5 24.166 10.5 41.499c0 11.333 -3.33301 19.666 -10 24.999s-16.334 9 -29.001 11l-77 13c-8 1.33301 -13.167 4.16602 -15.5 8.49902s-2.83301 10.5 -1.5 18.5l4 22c2 10 7 18 15 24
l51.5 37l51.5 38h-154c-12 0 -16.667 5.33301 -14 16l8 44c2 10.667 8.33301 16 19 16h262c7.33301 0 11.833 -1.66699 13.5 -5s2.16699 -7 1.5 -11l-6 -35c-2 -12.667 -9.66699 -23.667 -23 -33l-49.5 -37l-48.5 -37z" />
    <glyph glyph-name="acute" unicode="&#xb4;" horiz-adv-x="512" 
d="M469 709c5.33301 -2.66699 7.66699 -6 7 -10s-2.66699 -8.33301 -6 -13l-128 -139c-6.66699 -7.33301 -13.667 -9.33301 -21 -6l-33 18c-7.33301 4 -8 10.333 -2 19l109 155c6 8.66699 13.333 10.667 22 6z" />
    <glyph glyph-name="mu" unicode="&#xb5;" horiz-adv-x="529" 
d="M440 19c-2 -12.667 -9.3291 -19.0029 -21.9961 -19.0029h-71c-7.33301 0 -12 1.83301 -14 5.5s-2.33301 8.16699 -1 13.5l6 31c-0.666992 0 -1 0.333008 -1 1l-1 -1c-9.33301 -5.33301 -20.333 -11.166 -33 -17.499s-26.334 -12.166 -41.001 -17.499
s-29.834 -9.83301 -45.501 -13.5s-30.834 -5.5 -45.501 -5.5c-20.667 0 -37 3.66699 -49 11l-34 -171c-1.33301 -5.33301 -3.5 -10 -6.5 -14s-8.5 -6 -16.5 -6h-70c-7.33301 0 -12 1.83301 -14 5.5s-2.33301 8.5 -1 14.5l122 634c3.33301 13.333 11 20 23 20h72
c7.33301 0 11.833 -1.83301 13.5 -5.5s1.83398 -8.5 0.500977 -14.5l-56 -297c-5.33301 -25.333 -4.5 -45.333 2.5 -60s24.833 -22 53.5 -22c11.333 0 23.833 1.83301 37.5 5.5s27 7.83398 40 12.501s25.333 9.5 37 14.5l28.5 12.5l33 167.5l32 166.5
c1.33301 6 3.66602 10.833 6.99902 14.5s8.66602 5.5 15.999 5.5h71c14.667 0 19.667 -6.66699 15 -20z" />
    <glyph glyph-name="mu" unicode="&#x3bc;" horiz-adv-x="529" 
d="M440 19c-2 -12.667 -9.3291 -19.0029 -21.9961 -19.0029h-71c-7.33301 0 -12 1.83301 -14 5.5s-2.33301 8.16699 -1 13.5l6 31c-0.666992 0 -1 0.333008 -1 1l-1 -1c-9.33301 -5.33301 -20.333 -11.166 -33 -17.499s-26.334 -12.166 -41.001 -17.499
s-29.834 -9.83301 -45.501 -13.5s-30.834 -5.5 -45.501 -5.5c-20.667 0 -37 3.66699 -49 11l-34 -171c-1.33301 -5.33301 -3.5 -10 -6.5 -14s-8.5 -6 -16.5 -6h-70c-7.33301 0 -12 1.83301 -14 5.5s-2.33301 8.5 -1 14.5l122 634c3.33301 13.333 11 20 23 20h72
c7.33301 0 11.833 -1.83301 13.5 -5.5s1.83398 -8.5 0.500977 -14.5l-56 -297c-5.33301 -25.333 -4.5 -45.333 2.5 -60s24.833 -22 53.5 -22c11.333 0 23.833 1.83301 37.5 5.5s27 7.83398 40 12.501s25.333 9.5 37 14.5l28.5 12.5l33 167.5l32 166.5
c1.33301 6 3.66602 10.833 6.99902 14.5s8.66602 5.5 15.999 5.5h71c14.667 0 19.667 -6.66699 15 -20z" />
    <glyph glyph-name="paragraph" unicode="&#xb6;" horiz-adv-x="508" 
d="M552 664c12.667 0 17.9902 -5 15.9902 -15l-11 -58c-1.33301 -7.33301 -3.66602 -12.666 -6.99902 -15.999s-8.66602 -5 -15.999 -5h-22l-127 -650c-1.33301 -8 -3.66602 -13.333 -6.99902 -16s-8.66602 -4 -15.999 -4h-49c-7.33301 0 -12.166 1.5 -14.499 4.5
s-3.16602 8.16699 -2.49902 15.5l127 651h-94l-127 -651c-1.33301 -8 -3.66602 -13.333 -6.99902 -16s-8.66602 -4 -15.999 -4h-49c-7.33301 0 -12.166 1.5 -14.499 4.5s-3.16602 8.16699 -2.49902 15.5l73 374c-21.333 0.666992 -39.333 5 -54 13s-26.667 18.5 -36 31.5
s-16.166 27.667 -20.499 44s-6.5 33.5 -6.5 51.5c0 35.333 6 67.166 18 95.499s28.333 52.5 49 72.5s45.167 35.333 73.5 46s59.166 16 92.499 16h250z" />
    <glyph glyph-name="periodcentered" unicode="&#xb7;" horiz-adv-x="211" 
d="M133 322c16 0 28.501 -2.83301 37.501 -8.5s13.5 -15.5 13.5 -29.5c0 -10 -1.16699 -20 -3.5 -30s-6.33301 -18.667 -12 -26s-13.334 -13.333 -23.001 -18s-21.5 -7 -35.5 -7c-34.667 0 -52 13.333 -52 40c0 21.333 5.5 39.833 16.5 55.5s30.5 23.5 58.5 23.5z" />
    <glyph glyph-name="cedilla" unicode="&#xb8;" horiz-adv-x="424" 
d="M213 -117c0 11.333 -4.83008 18.832 -14.4971 22.499s-25.167 6.16699 -46.5 7.5c-14 1.33301 -17 9 -9 23l38 74c0 0.666992 1 1.83398 3 3.50098s4.33301 2.5 7 2.5h38c2.66699 0 4 -0.833008 4 -2.5s-0.333008 -3.16699 -1 -4.5l-30 -55
c29.333 -1.33301 50.333 -8 63 -20s19 -26.667 19 -44c0 -33.333 -12.833 -58 -38.5 -74s-58.5 -24 -98.5 -24c-9.33301 0 -21.5 1 -36.5 3s-27.5 4.66699 -37.5 8c-6 2 -7.66699 6 -5 12l10 28c1.33301 2 2.66602 3.5 3.99902 4.5s4.33301 1.16699 9 0.5
c9.33301 -1.33301 19.666 -2.5 30.999 -3.5s21 -1.5 29 -1.5c7.33301 0 14.666 0.5 21.999 1.5s14 3 20 6s10.833 7.16699 14.5 12.5s5.5 12 5.5 20z" />
    <glyph glyph-name="onesuperior" unicode="&#xb9;" horiz-adv-x="345" 
d="M85 331c-5.33301 0 -8.99707 0.833008 -10.9971 2.5s-2.33301 5.5 -1 11.5l9 46c2 10.667 7.66699 16 17 16h62l48 259h-62c-7.33301 0 -12 1.16699 -14 3.5s-2.33301 6.5 -1 12.5l5 25c1.33301 5.33301 2.66602 9.5 3.99902 12.5s5.66602 5.83301 12.999 8.5l65 23
c6 2 11.5 3.5 16.5 4.5s10.5 1.5 16.5 1.5h45c7.33301 0 12 -1.5 14 -4.5s2.33301 -7.16699 1 -12.5l-61 -333h68c5.33301 0 9.16602 -0.833008 11.499 -2.5s2.83301 -5.5 1.5 -11.5l-10 -48c-1.33301 -6 -3 -9.83301 -5 -11.5s-5.66699 -2.5 -11 -2.5h-221z" />
    <glyph glyph-name="ordmasculine" unicode="&#xba;" horiz-adv-x="360" 
d="M243 572c46 0 80 -9.49902 102 -28.499s33.333 -46.833 34 -83.5c0 -9.33301 -0.5 -18.333 -1.5 -27s-2.16699 -17 -3.5 -25c-4 -22.667 -9.5 -44.334 -16.5 -65.001s-17.167 -39 -30.5 -55s-30.666 -28.833 -51.999 -38.5s-48.666 -14.5 -81.999 -14.5
c-45.333 0 -78.5 9.5 -99.5 28.5s-31.833 46.5 -32.5 82.5c0 10 0.666992 20.5 2 31.5s3 21.5 5 31.5c4 20 9.66699 39.667 17 59s17.666 36.833 30.999 52.5s30.166 28.167 50.499 37.5s45.833 14 76.5 14zM237 499.001c-14.667 0 -26.8301 -2.50098 -36.4971 -7.50098
s-17.5 -11.833 -23.5 -20.5s-10.833 -18.834 -14.5 -30.501s-6.83398 -24.167 -9.50098 -37.5c-1.33301 -8 -2.5 -16 -3.5 -24s-1.5 -15.667 -1.5 -23c0 -17.333 4.16699 -29.5 12.5 -36.5s21.166 -10.5 38.499 -10.5c15.333 0 28 2.33301 38 7s18.167 11.334 24.5 20.001
s11.166 18.667 14.499 30s6.66602 24 9.99902 38c1.33301 8.66699 2.5 16.834 3.5 24.501s1.5 15.167 1.5 22.5c0 18 -4.66699 30.5 -14 37.5s-22.666 10.5 -39.999 10.5z" />
    <glyph glyph-name="guillemotright" unicode="&#xbb;" horiz-adv-x="478" 
d="M436 208c4.66699 -7.33301 6.16895 -13.332 4.50195 -17.999s-5.16699 -9.66699 -10.5 -15l-127 -129c-4.66699 -4 -9.16699 -7.66699 -13.5 -11s-9.83301 -5 -16.5 -5h-86c-4.66699 0 -6.83398 1.66699 -6.50098 5s1.83301 6.33301 4.5 9l148 148l-88 145
c-1.33301 3.33301 -1.33301 6.66602 0 9.99902s4.66602 5 9.99902 5h81c6.66699 0 11.5 -1.83301 14.5 -5.5s6.16699 -7.16699 9.5 -10.5zM257.002 208.001c7.33301 -12 5.33203 -22.999 -6.00098 -32.999l-128 -129c-4 -4 -8.33301 -7.66699 -13 -11s-10 -5 -16 -5h-87
c-4 0 -6 1.66699 -6 5s1.33301 6.33301 4 9l148 148l-88 145c-1.33301 3.33301 -1.16602 6.66602 0.500977 9.99902s5.16699 5 10.5 5h80c7.33301 0 12.5 -1.83301 15.5 -5.5s6.16699 -7.16699 9.5 -10.5z" />
    <glyph glyph-name="onequarter" unicode="&#xbc;" horiz-adv-x="880" 
d="M815 118c-1.33301 -4.66699 -3 -8.5 -5 -11.5s-6 -4.5 -12 -4.5h-44l-16 -84c-1.33301 -7.33301 -3.66602 -12 -6.99902 -14s-8 -3 -14 -3h-56c-5.33301 0 -9.33301 0.833008 -12 2.5s-3.33398 6.16699 -2.00098 13.5l17 85h-198c-10.667 0 -15 5.33301 -13 16l7 37l4 12
c1.33301 4 4.33301 8 9 12l243 232c5.33301 5.33301 10 9 14 11s9.66699 3 17 3h54c10.667 0 15 -5 13 -15l-45 -231h44c9.33301 0 13 -5.66699 11 -17zM312 -11c-5.33301 -8 -11.001 -12 -17.001 -12h-56c-10 0 -12.333 5 -7 15l410 695c4.66699 8.66699 10.667 13 18 13
l56 -1c8.66699 0 10.334 -4.66699 5.00098 -14zM116.999 241c-5.33301 0 -8.99707 0.833008 -10.9971 2.5s-2.33301 5.5 -1 11.5l9 46c2 10.667 7.66699 16 17 16h62l48 259h-62c-7.33301 0 -12 1.16699 -14 3.5s-2.33301 6.5 -1 12.5l5 25
c1.33301 5.33301 2.66602 9.5 3.99902 12.5s5.66602 5.83301 12.999 8.5l65 23c6 2 11.5 3.5 16.5 4.5s10.5 1.5 16.5 1.5h45c7.33301 0 12 -1.5 14 -4.5s2.33301 -7.16699 1 -12.5l-61 -333h68c5.33301 0 9.16602 -0.833008 11.499 -2.5s2.83301 -5.5 1.5 -11.5l-10 -48
c-1.33301 -6 -3 -9.83301 -5 -11.5s-5.66699 -2.5 -11 -2.5h-221zM706.002 311h-1l-69.5 -67l-69.5 -66h114z" />
    <glyph glyph-name="onehalf" unicode="&#xbd;" horiz-adv-x="880" 
d="M94 241c-5.33301 0 -8.99707 0.833008 -10.9971 2.5s-2.33301 5.5 -1 11.5l9 46c2 10.667 7.66699 16 17 16h62l48 259h-62c-7.33301 0 -12 1.16699 -14 3.5s-2.33301 6.5 -1 12.5l5 25c1.33301 5.33301 2.66602 9.5 3.99902 12.5s5.66602 5.83301 12.999 8.5l65 23
c6 2 11.5 3.5 16.5 4.5s10.5 1.5 16.5 1.5h45c7.33301 0 12 -1.5 14 -4.5s2.33301 -7.16699 1 -12.5l-61 -333h68c5.33301 0 9.16602 -0.833008 11.499 -2.5s2.83301 -5.5 1.5 -11.5l-10 -48c-1.33301 -6 -3 -9.83301 -5 -11.5s-5.66699 -2.5 -11 -2.5h-221zM281.003 -11
c-5.33301 -8 -11.001 -12 -17.001 -12h-56c-10 0 -12.333 5 -7 15l410 695c4.66699 8.66699 10.667 13 18 13l56 -1c8.66699 0 10.334 -4.66699 5.00098 -14zM758.002 180c-22 -19.333 -43.1699 -36.6621 -63.5029 -51.9951l-67.5 -52h169c5.33301 0 9 -1 11 -3
s2.33301 -6 1 -12l-9 -45c-1.33301 -5.33301 -3 -9.33301 -5 -12s-5.66699 -4 -11 -4h-285c-11.333 0 -16 5.33301 -14 16l8 38c0.666992 4 2.33398 8.5 5.00098 13.5s6.66699 9.5 12 13.5l38 30.5l54.5 43.5l56 44.5l42.5 33.5c17.333 14 30.333 27.5 39 40.5
s13.334 27.167 14.001 42.5c-0.666992 10 -5 18.167 -13 24.5s-24.333 9.5 -49 9.5c-18.667 0 -38.167 -0.5 -58.5 -1.5s-37.166 -2.5 -50.499 -4.5c-8.66699 -1.33301 -14.334 -1.66602 -17.001 -0.999023s-4.33398 4.66699 -5.00098 12l-2 29
c-1.33301 5.33301 -0.666016 10.666 2.00098 15.999s9.66699 9.66602 21 12.999c8.66699 3.33301 19 6.16602 31 8.49902s24 4.16602 36 5.49902s23.167 2.16602 33.5 2.49902s18.833 0.5 25.5 0.5c52 0 88.5 -8.33301 109.5 -25s31.5 -39.667 31.5 -69
c0 -30.667 -7.16699 -57.834 -21.5 -81.501s-37.166 -48.5 -68.499 -74.5z" />
    <glyph glyph-name="threequarters" unicode="&#xbe;" horiz-adv-x="880" 
d="M838 118c-1.33301 -4.66699 -3 -8.5 -5 -11.5s-6 -4.5 -12 -4.5h-44l-16 -84c-1.33301 -7.33301 -3.66602 -12 -6.99902 -14s-8 -3 -14 -3h-56c-5.33301 0 -9.33301 0.833008 -12 2.5s-3.33398 6.16699 -2.00098 13.5l17 85h-198c-10.667 0 -15 5.33301 -13 16l7 37l4 12
c1.33301 4 4.33301 8 9 12l243 232c5.33301 5.33301 10 9 14 11s9.66699 3 17 3h54c10.667 0 15 -5 13 -15l-45 -231h44c9.33301 0 13 -5.66699 11 -17zM341 501c21.333 -5.33301 37.6699 -15.168 49.0029 -29.501s17 -37.166 17 -68.499s-5.66699 -57.666 -17 -78.999
s-26.833 -38.5 -46.5 -51.5s-42.834 -22.333 -69.501 -28s-55.334 -8.5 -86.001 -8.5c-7.33301 0 -16.333 0.5 -27 1.5s-21.5 2.5 -32.5 4.5s-21.5 4.33301 -31.5 7s-18.333 6 -25 10c-5.33301 2.66699 -8.16602 6.33398 -8.49902 11.001s0.833984 9.66699 3.50098 15l10 24
c2.66699 6 5.16699 10.5 7.5 13.5s6.16602 3.83301 11.499 2.5c19.333 -3.33301 38 -6 56 -8s36.667 -3 56 -3c10.667 0 22.167 0.833008 34.5 2.5s23.666 5.33398 33.999 11.001s19 13.667 26 24s10.5 24.166 10.5 41.499c0 11.333 -3.33301 19.666 -10 24.999
s-16.334 9 -29.001 11l-77 13c-8 1.33301 -13.167 4.16602 -15.5 8.49902s-2.83301 10.5 -1.5 18.5l4 22c2 10 7 18 15 24l51.5 37l51.5 38h-154c-12 0 -16.667 5.33301 -14 16l8 44c2 10.667 8.33301 16 19 16h262c7.33301 0 11.833 -1.66699 13.5 -5s2.16699 -7 1.5 -11
l-6 -35c-2 -12.667 -9.66699 -23.667 -23 -33l-49.5 -37l-48.5 -37zM319.004 -11.002c-5.33301 -8 -11.001 -12 -17.001 -12h-56c-10 0 -12.333 5 -7 15l410 695c4.66699 8.66699 10.667 13 18 13l56 -1c8.66699 0 10.334 -4.66699 5.00098 -14zM729.003 310.998h-1
l-69.5 -67l-69.5 -66h114z" />
    <glyph glyph-name="questiondown" unicode="&#xbf;" horiz-adv-x="387" 
d="M147 -189c-59.333 0 -102.834 10.834 -130.501 32.501s-41.5 53.167 -41.5 94.5c0 18 3.33301 35 10 51s15.167 31 25.5 45s22.166 26.5 35.499 37.5s27 20.5 41 28.5c15.333 10 29.5 19.833 42.5 29.5s24.5 20 34.5 31s18.333 23 25 36s11.667 28.167 15 45.5l4.5 23.5
l4.5 24.5c2 12.667 8 19 18 19h62c6 0 10.167 -1.16699 12.5 -3.5s3.5 -7.16602 3.5 -14.499l-5 -43c-4 -26.667 -10.5 -50 -19.5 -70s-20.333 -38 -34 -54s-29.167 -30.833 -46.5 -44.5s-36.666 -27.834 -57.999 -42.501c-17.333 -12 -31.166 -23.5 -41.499 -34.5
s-15.5 -26.5 -15.5 -46.5c0 -18 7 -30.667 21 -38s36.667 -11 68 -11c15.333 0 32.5 0.666992 51.5 2s36.5 2.66602 52.5 3.99902h8c5.33301 0 8.83301 -1 10.5 -3s2.5 -5.66699 2.5 -11l-3 -40c0 -15.333 -12 -26.333 -36 -33c-10 -3.33301 -20.667 -6 -32 -8
s-22.333 -3.5 -33 -4.5s-20.5 -1.66699 -29.5 -2s-16.5 -0.5 -22.5 -0.5zM271.999 375.001c-19.333 0 -32.499 3.83105 -39.499 11.498s-10.5 17.167 -10.5 28.5c0 9.33301 1 18.5 3 27.5s5.66699 17.167 11 24.5s12.666 13.333 21.999 18s21.333 7 36 7
c20 0 33.667 -4.16699 41 -12.5s11 -18.166 11 -29.499c0 -23.333 -5.33301 -41.666 -16 -54.999s-30 -20 -58 -20z" />
    <glyph glyph-name="Agrave" unicode="&#xc0;" horiz-adv-x="577" 
d="M524 15c0 -10 -4.33008 -14.9971 -12.9971 -14.9971h-82c-7.33301 0 -12.333 1.5 -15 4.5s-4.33398 8.16699 -5.00098 15.5l-16 145h-224l-71 -144c-4 -8.66699 -8.33301 -14.334 -13 -17.001s-10.667 -4 -18 -4h-80c-8 0 -12 2.33301 -12 7
c0 3.33301 1.33301 7.66602 4 12.999l320 622c3.33301 7.33301 7.16602 12.666 11.499 15.999s11.166 5 20.499 5h85c10 0 16.333 -1.83301 19 -5.5s4.66699 -9.16699 6 -16.5l83 -623v-3zM384.003 258.003c-0.666992 7.33301 -2.16895 22.998 -4.50195 46.998
s-5.16602 48.667 -8.49902 74l-9 88.5c-2.66699 27 -4.33398 52.167 -5.00098 75.5h-4c-9.33301 -18.667 -20.166 -41.667 -32.499 -69s-25.166 -53.666 -38.499 -78.999c-6 -13.333 -12.667 -27.166 -20 -41.499l-20.5 -40.5l-17 -34l-10.5 -21h170zM241.001 860.001
c6.66699 9.33301 14.333 10.667 23 4l149 -117c5.33301 -3.33301 8 -6.5 8 -9.5s-1.66699 -6.5 -5 -10.5l-21 -26c-3.33301 -4.66699 -6.83301 -6.66699 -10.5 -6s-7.5 2 -11.5 4l-162 92c-10 6 -12 13 -6 21z" />
    <glyph glyph-name="Aacute" unicode="&#xc1;" horiz-adv-x="577" 
d="M524 15c0 -10 -4.33008 -14.9971 -12.9971 -14.9971h-82c-7.33301 0 -12.333 1.5 -15 4.5s-4.33398 8.16699 -5.00098 15.5l-16 145h-224l-71 -144c-4 -8.66699 -8.33301 -14.334 -13 -17.001s-10.667 -4 -18 -4h-80c-8 0 -12 2.33301 -12 7
c0 3.33301 1.33301 7.66602 4 12.999l320 622c3.33301 7.33301 7.16602 12.666 11.499 15.999s11.166 5 20.499 5h85c10 0 16.333 -1.83301 19 -5.5s4.66699 -9.16699 6 -16.5l83 -623v-3zM384.003 258.003c-0.666992 7.33301 -2.16895 22.998 -4.50195 46.998
s-5.16602 48.667 -8.49902 74l-9 88.5c-2.66699 27 -4.33398 52.167 -5.00098 75.5h-4c-9.33301 -18.667 -20.166 -41.667 -32.499 -69s-25.166 -53.666 -38.499 -78.999c-6 -13.333 -12.667 -27.166 -20 -41.499l-20.5 -40.5l-17 -34l-10.5 -21h170zM560.001 798.001
c2.66699 -4.66699 2.83301 -8.83203 0.5 -12.499s-5.83301 -6.5 -10.5 -8.5l-170 -76c-4 -1.33301 -7.5 -2 -10.5 -2s-5.83301 2 -8.5 6l-19 35c-4 6 -1.33301 12 8 18l162 100c6 3.33301 10.5 4.16602 13.5 2.49902s5.5 -4.16699 7.5 -7.5z" />
    <glyph glyph-name="Acircumflex" unicode="&#xc2;" horiz-adv-x="577" 
d="M524 15c0 -10 -4.33008 -14.9971 -12.9971 -14.9971h-82c-7.33301 0 -12.333 1.5 -15 4.5s-4.33398 8.16699 -5.00098 15.5l-16 145h-224l-71 -144c-4 -8.66699 -8.33301 -14.334 -13 -17.001s-10.667 -4 -18 -4h-80c-8 0 -12 2.33301 -12 7
c0 3.33301 1.33301 7.66602 4 12.999l320 622c3.33301 7.33301 7.16602 12.666 11.499 15.999s11.166 5 20.499 5h85c10 0 16.333 -1.83301 19 -5.5s4.66699 -9.16699 6 -16.5l83 -623v-3zM254.003 697.003c-6 -4 -10.499 -6.16602 -13.499 -6.49902s-6.16699 1.5 -9.5 5.5
l-22 26c-2.66699 3.33301 -3.83398 6.16602 -3.50098 8.49902s2.83301 5.83301 7.5 10.5l134 107c6 4.66699 11.333 8.16699 16 10.5s11 3.5 19 3.5h54c9.33301 0 15.833 -1 19.5 -3s7.16699 -5 10.5 -9l89 -107c6.66699 -6.66699 5.66699 -13.667 -3 -21l-27 -21
c-4.66699 -3.33301 -8.5 -5 -11.5 -5s-6.16699 1.66699 -9.5 5l-103 87zM384.004 258.004c-0.666992 7.33301 -2.16895 22.998 -4.50195 46.998s-5.16602 48.667 -8.49902 74l-9 88.5c-2.66699 27 -4.33398 52.167 -5.00098 75.5h-4
c-9.33301 -18.667 -20.166 -41.667 -32.499 -69s-25.166 -53.666 -38.499 -78.999c-6 -13.333 -12.667 -27.166 -20 -41.499l-20.5 -40.5l-17 -34l-10.5 -21h170z" />
    <glyph glyph-name="Atilde" unicode="&#xc3;" horiz-adv-x="577" 
d="M524 15c0 -10 -4.33008 -14.9971 -12.9971 -14.9971h-82c-7.33301 0 -12.333 1.5 -15 4.5s-4.33398 8.16699 -5.00098 15.5l-16 145h-224l-71 -144c-4 -8.66699 -8.33301 -14.334 -13 -17.001s-10.667 -4 -18 -4h-80c-8 0 -12 2.33301 -12 7
c0 3.33301 1.33301 7.66602 4 12.999l320 622c3.33301 7.33301 7.16602 12.666 11.499 15.999s11.166 5 20.499 5h85c10 0 16.333 -1.83301 19 -5.5s4.66699 -9.16699 6 -16.5l83 -623v-3zM458.003 697.003c-11.333 0 -23.335 2.66699 -36.002 8s-25.167 11.333 -37.5 18
s-24.666 12.667 -36.999 18s-23.5 8 -33.5 8c-8.66699 0 -18 -2.33301 -28 -7s-21.667 -15.667 -35 -33c-4.66699 -5.33301 -9 -7.66602 -13 -6.99902s-8.66699 2.66699 -14 6l-23 16c-2.66699 1.33301 -4 4 -4 8s0.666992 7.33301 2 10
c19.333 35.333 40.333 58.833 63 70.5s44.667 17.5 66 17.5c13.333 0 26.5 -2.5 39.5 -7.5s25.5 -10.667 37.5 -17s23.667 -12 35 -17s22 -7.5 32 -7.5c20 0 39 12.333 57 37c6 9.33301 13 11.666 21 6.99902l29 -17c6.66699 -4 7.66699 -10.333 3 -19
c-18.667 -34 -38.167 -57.833 -58.5 -71.5s-42.166 -20.5 -65.499 -20.5zM384.001 258.003c-0.666992 7.33301 -2.16895 22.998 -4.50195 46.998s-5.16602 48.667 -8.49902 74l-9 88.5c-2.66699 27 -4.33398 52.167 -5.00098 75.5h-4
c-9.33301 -18.667 -20.166 -41.667 -32.499 -69s-25.166 -53.666 -38.499 -78.999c-6 -13.333 -12.667 -27.166 -20 -41.499l-20.5 -40.5l-17 -34l-10.5 -21h170z" />
    <glyph glyph-name="Adieresis" unicode="&#xc4;" horiz-adv-x="577" 
d="M524 15c0 -10 -4.33008 -14.9971 -12.9971 -14.9971h-82c-7.33301 0 -12.333 1.5 -15 4.5s-4.33398 8.16699 -5.00098 15.5l-16 145h-224l-71 -144c-4 -8.66699 -8.33301 -14.334 -13 -17.001s-10.667 -4 -18 -4h-80c-8 0 -12 2.33301 -12 7
c0 3.33301 1.33301 7.66602 4 12.999l320 622c3.33301 7.33301 7.16602 12.666 11.499 15.999s11.166 5 20.499 5h85c10 0 16.333 -1.83301 19 -5.5s4.66699 -9.16699 6 -16.5l83 -623v-3zM384.003 258.003c-0.666992 7.33301 -2.16895 22.998 -4.50195 46.998
s-5.16602 48.667 -8.49902 74l-9 88.5c-2.66699 27 -4.33398 52.167 -5.00098 75.5h-4c-9.33301 -18.667 -20.166 -41.667 -32.499 -69s-25.166 -53.666 -38.499 -78.999c-6 -13.333 -12.667 -27.166 -20 -41.499l-20.5 -40.5l-17 -34l-10.5 -21h170zM305.001 820.001
c15.333 0 27.167 -2.5 35.5 -7.5s12.5 -13.833 12.5 -26.5c0 -20 -5 -37.333 -15 -52s-27.667 -22 -53 -22c-31.333 0 -47 11.333 -47 34c0 21.333 4.83301 39 14.5 53s27.167 21 52.5 21zM500.002 820.001c15.333 0 27 -2.5 35 -7.5s12 -13.833 12 -26.5
c0 -20 -5 -37.333 -15 -52s-27.667 -22 -53 -22c-31.333 0 -47 11.333 -47 34c0 21.333 5 39 15 53s27.667 21 53 21z" />
    <glyph glyph-name="Aring" unicode="&#xc5;" horiz-adv-x="577" 
d="M524 15c0 -10 -4.33008 -14.9971 -12.9971 -14.9971h-82c-7.33301 0 -12.333 1.5 -15 4.5s-4.33398 8.16699 -5.00098 15.5l-16 145h-224l-71 -144c-4 -8.66699 -8.33301 -14.334 -13 -17.001s-10.667 -4 -18 -4h-80c-8 0 -12 2.33301 -12 7
c0 3.33301 1.33301 7.66602 4 12.999l320 622c3.33301 7.33301 7.16602 12.666 11.499 15.999s11.166 5 20.499 5h85c10 0 16.333 -1.83301 19 -5.5s4.66699 -9.16699 6 -16.5l83 -623v-3zM379.003 674.003c-26 0 -48.4971 8.16504 -67.4971 24.498
s-28.5 38.166 -28.5 65.499c0 20 3.83301 37.667 11.5 53s17.5 28.5 29.5 39.5s25.667 19.333 41 25s30.666 8.5 45.999 8.5c28 0 51 -8.66699 69 -26s27 -38.666 27 -63.999c0 -18 -3.33301 -34.667 -10 -50s-15.834 -28.666 -27.501 -39.999
s-25.334 -20.166 -41.001 -26.499s-32.167 -9.5 -49.5 -9.5zM384.006 258.001c-0.666992 7.33301 -2.16895 22.998 -4.50195 46.998s-5.16602 48.667 -8.49902 74l-9 88.5c-2.66699 27 -4.33398 52.167 -5.00098 75.5h-4c-9.33301 -18.667 -20.166 -41.667 -32.499 -69
s-25.166 -53.666 -38.499 -78.999c-6 -13.333 -12.667 -27.166 -20 -41.499l-20.5 -40.5l-17 -34l-10.5 -21h170zM406.004 831.999c-17.333 0 -31.167 -6.16895 -41.5 -18.502s-15.5 -26.166 -15.5 -41.499c0 -11.333 3.33301 -20.666 10 -27.999s16 -11 28 -11
c14.667 0 28 5.5 40 16.5s18 24.833 18 41.5c0 11.333 -3.5 21 -10.5 29s-16.5 12 -28.5 12z" />
    <glyph glyph-name="AE" unicode="&#xc6;" horiz-adv-x="849" 
d="M407 170l-210.002 0.000976562l-102 -151c-6 -7.33301 -11.5 -12.333 -16.5 -15s-11.167 -4 -18.5 -4h-84c-13.333 0 -15.333 6.33301 -6 19l429 625c4.66699 7.33301 9.5 12.5 14.5 15.5s12.167 4.5 21.5 4.5h426c12.667 0 18.334 -6.33301 17.001 -19l-10 -62
c-1.33301 -12 -8.66602 -18 -21.999 -18h-270l-25 -172h242c13.333 0 19 -6 17 -18l-9 -62c-2 -12 -9.33301 -18 -22 -18h-242l-27 -197h279c12 0 17 -6.33301 15 -19l-8 -61c-1.33301 -6.66699 -3.33301 -11.334 -6 -14.001s-7.66699 -4 -15 -4h-372
c-8.66699 -0 -14 1.33301 -16 4s-2.33301 6.66699 -1 12zM460.998 561.001l-198 -295h157l44 295h-3z" />
    <glyph glyph-name="Ccedilla" unicode="&#xc7;" horiz-adv-x="561" 
d="M413 671c12 0 26.002 -0.499023 42.002 -1.49902s32.5 -2.66699 49.5 -5s33.5 -5.33301 49.5 -9s30 -8.16699 42 -13.5c7.33301 -3.33301 12.166 -7.33301 14.499 -12s1.83301 -11 -1.5 -19l-18 -41c-2 -6 -4.83301 -10.333 -8.5 -13s-10.167 -3.33398 -19.5 -2.00098
c-24 3.33301 -49.5 6.33301 -76.5 9s-53.167 4 -78.5 4c-34.667 0 -63.667 -6.5 -87 -19.5s-42.833 -30.5 -58.5 -52.5s-28 -47.5 -37 -76.5s-16.5 -59.5 -22.5 -91.5c-4 -18 -6.66699 -35.5 -8 -52.5s-2 -33.167 -2 -48.5c0.666992 -42.667 10.167 -75.5 28.5 -98.5
s50.5 -34.5 96.5 -34.5c29.333 0 56.5 1.33301 81.5 4s51.5 5.66699 79.5 9c9.33301 1.33301 15.833 0.666016 19.5 -2.00098s5.5 -7.33398 5.5 -14.001l1 -38c0.666992 -8 -0.666016 -14.5 -3.99902 -19.5s-9.66602 -9.16699 -18.999 -12.5
c-12 -4.66699 -25.167 -8.66699 -39.5 -12s-29.166 -6.16602 -44.499 -8.49902s-30.333 -4.16602 -45 -5.49902s-28.334 -2.33301 -41.001 -3l-19 -38c29.333 -1.33301 50.166 -8 62.499 -20s18.5 -26.667 18.5 -44c0 -33.333 -12.667 -58 -38 -74s-58 -24 -98 -24
c-9.33301 0 -21.5 1 -36.5 3s-27.5 4.66699 -37.5 8c-5.33301 2 -7.33301 6 -6 12l11 28c1.33301 2 2.66602 3.5 3.99902 4.5s4 1.16699 8 0.5c9.33301 -1.33301 19.833 -2.5 31.5 -3.5s21.167 -1.5 28.5 -1.5s14.833 0.5 22.5 1.5s14.5 3 20.5 6s10.833 7.16699 14.5 12.5
s5.5 12 5.5 20c0 11.333 -4.83301 18.833 -14.5 22.5s-25.167 6.16699 -46.5 7.5c-14 1.33301 -17 9 -9 23l28 56c-35.333 2.66699 -65 10 -89 22s-43.333 27.667 -58 47s-25.167 42.166 -31.5 68.499s-9.5 54.833 -9.5 85.5c0 18.667 1 37.167 3 55.5
s4.66699 36.833 8 55.5c7.33301 42.667 17.666 84.667 30.999 126s32.5 78.333 57.5 111s56.833 58.834 95.5 78.501s86.667 29.5 144 29.5z" />
    <glyph glyph-name="Egrave" unicode="&#xc8;" horiz-adv-x="526" 
d="M156 644c1.33301 6.66699 3.82812 11.668 7.49512 15.001s9.16699 5 16.5 5h368c6 0 9.83301 -1.66699 11.5 -5s1.83398 -8 0.500977 -14l-12 -62c-1.33301 -6 -3.16602 -10.5 -5.49902 -13.5s-7.16602 -4.5 -14.499 -4.5h-275l-33 -172h244
c6.66699 0 10.834 -1.5 12.501 -4.5s1.83398 -7.5 0.500977 -13.5l-13 -62c-1.33301 -6 -3 -10.5 -5 -13.5s-6.66699 -4.5 -14 -4.5h-244l-38 -197h282c6.66699 0 10.667 -1.5 12 -4.5s1.33301 -7.83301 0 -14.5l-12 -61c-1.33301 -6.66699 -3 -11.334 -5 -14.001
s-6.66699 -4 -14 -4h-375c-13.333 0 -19 6 -17 18zM239.995 860.001c6.66699 9.33301 14.333 10.667 23 4l149 -117c5.33301 -3.33301 8 -6.5 8 -9.5s-1.66699 -6.5 -5 -10.5l-21 -26c-3.33301 -4.66699 -6.83301 -6.66699 -10.5 -6s-7.5 2 -11.5 4l-162 92
c-10 6 -12 13 -6 21z" />
    <glyph glyph-name="Eacute" unicode="&#xc9;" horiz-adv-x="526" 
d="M156 644c1.33301 6.66699 3.82812 11.668 7.49512 15.001s9.16699 5 16.5 5h368c6 0 9.83301 -1.66699 11.5 -5s1.83398 -8 0.500977 -14l-12 -62c-1.33301 -6 -3.16602 -10.5 -5.49902 -13.5s-7.16602 -4.5 -14.499 -4.5h-275l-33 -172h244
c6.66699 0 10.834 -1.5 12.501 -4.5s1.83398 -7.5 0.500977 -13.5l-13 -62c-1.33301 -6 -3 -10.5 -5 -13.5s-6.66699 -4.5 -14 -4.5h-244l-38 -197h282c6.66699 0 10.667 -1.5 12 -4.5s1.33301 -7.83301 0 -14.5l-12 -61c-1.33301 -6.66699 -3 -11.334 -5 -14.001
s-6.66699 -4 -14 -4h-375c-13.333 0 -19 6 -17 18zM527.995 798.001c2.66699 -4.66699 2.83301 -8.83203 0.5 -12.499s-5.83301 -6.5 -10.5 -8.5l-170 -76c-4 -1.33301 -7.5 -2 -10.5 -2s-5.83301 2 -8.5 6l-19 35c-4 6 -1.33301 12 8 18l162 100
c6 3.33301 10.5 4.16602 13.5 2.49902s5.5 -4.16699 7.5 -7.5z" />
    <glyph glyph-name="Ecircumflex" unicode="&#xca;" horiz-adv-x="526" 
d="M156 644c1.33301 6.66699 3.82812 11.668 7.49512 15.001s9.16699 5 16.5 5h368c6 0 9.83301 -1.66699 11.5 -5s1.83398 -8 0.500977 -14l-12 -62c-1.33301 -6 -3.16602 -10.5 -5.49902 -13.5s-7.16602 -4.5 -14.499 -4.5h-275l-33 -172h244
c6.66699 0 10.834 -1.5 12.501 -4.5s1.83398 -7.5 0.500977 -13.5l-13 -62c-1.33301 -6 -3 -10.5 -5 -13.5s-6.66699 -4.5 -14 -4.5h-244l-38 -197h282c6.66699 0 10.667 -1.5 12 -4.5s1.33301 -7.83301 0 -14.5l-12 -61c-1.33301 -6.66699 -3 -11.334 -5 -14.001
s-6.66699 -4 -14 -4h-375c-13.333 0 -19 6 -17 18zM237.995 697.001c-6 -4 -10.499 -6.16602 -13.499 -6.49902s-6.16699 1.5 -9.5 5.5l-22 26c-2.66699 3.33301 -3.83398 6.16602 -3.50098 8.49902s2.83301 5.83301 7.5 10.5l134 107c6 4.66699 11.333 8.16699 16 10.5
s11 3.5 19 3.5h54c9.33301 0 15.833 -1 19.5 -3s7.16699 -5 10.5 -9l89 -107c6.66699 -6.66699 5.66699 -13.667 -3 -21l-27 -21c-4.66699 -3.33301 -8.5 -5 -11.5 -5s-6.16699 1.66699 -9.5 5l-103 87z" />
    <glyph glyph-name="Edieresis" unicode="&#xcb;" horiz-adv-x="526" 
d="M156 644c1.33301 6.66699 3.82812 11.668 7.49512 15.001s9.16699 5 16.5 5h368c6 0 9.83301 -1.66699 11.5 -5s1.83398 -8 0.500977 -14l-12 -62c-1.33301 -6 -3.16602 -10.5 -5.49902 -13.5s-7.16602 -4.5 -14.499 -4.5h-275l-33 -172h244
c6.66699 0 10.834 -1.5 12.501 -4.5s1.83398 -7.5 0.500977 -13.5l-13 -62c-1.33301 -6 -3 -10.5 -5 -13.5s-6.66699 -4.5 -14 -4.5h-244l-38 -197h282c6.66699 0 10.667 -1.5 12 -4.5s1.33301 -7.83301 0 -14.5l-12 -61c-1.33301 -6.66699 -3 -11.334 -5 -14.001
s-6.66699 -4 -14 -4h-375c-13.333 0 -19 6 -17 18zM292.995 820.001c15.333 0 27.167 -2.5 35.5 -7.5s12.5 -13.833 12.5 -26.5c0 -20 -5 -37.333 -15 -52s-27.667 -22 -53 -22c-31.333 0 -47 11.333 -47 34c0 21.333 4.83301 39 14.5 53s27.167 21 52.5 21z
M487.996 820.001c15.333 0 27 -2.5 35 -7.5s12 -13.833 12 -26.5c0 -20 -5 -37.333 -15 -52s-27.667 -22 -53 -22c-31.333 0 -47 11.333 -47 34c0 21.333 5 39 15 53s27.667 21 53 21z" />
    <glyph glyph-name="Igrave" unicode="&#xcc;" horiz-adv-x="275" 
d="M165 644c3.33301 13.333 11.332 20 23.999 20h74c7.33301 0 12 -1.83301 14 -5.5s2.33301 -8.5 1 -14.5l-122 -625c-2 -12.667 -9.33301 -19 -22 -19h-74c-13.333 -0 -18.666 6.33301 -15.999 19zM91.999 860c6.66699 9.33301 14.333 10.667 23 4l149 -117
c5.33301 -3.33301 8 -6.5 8 -9.5s-1.66699 -6.5 -5 -10.5l-21 -26c-3.33301 -4.66699 -6.83301 -6.66699 -10.5 -6s-7.5 2 -11.5 4l-162 92c-10 6 -12 13 -6 21z" />
    <glyph glyph-name="Iacute" unicode="&#xcd;" horiz-adv-x="275" 
d="M165 644c3.33301 13.333 11.332 20 23.999 20h74c7.33301 0 12 -1.83301 14 -5.5s2.33301 -8.5 1 -14.5l-122 -625c-2 -12.667 -9.33301 -19 -22 -19h-74c-13.333 -0 -18.666 6.33301 -15.999 19zM413.999 798c2.66699 -4.66699 2.83301 -8.83203 0.5 -12.499
s-5.83301 -6.5 -10.5 -8.5l-170 -76c-4 -1.33301 -7.5 -2 -10.5 -2s-5.83301 2 -8.5 6l-19 35c-4 6 -1.33301 12 8 18l162 100c6 3.33301 10.5 4.16602 13.5 2.49902s5.5 -4.16699 7.5 -7.5z" />
    <glyph glyph-name="Icircumflex" unicode="&#xce;" horiz-adv-x="275" 
d="M165 644c3.33301 13.333 11.332 20 23.999 20h74c7.33301 0 12 -1.83301 14 -5.5s2.33301 -8.5 1 -14.5l-122 -625c-2 -12.667 -9.33301 -19 -22 -19h-74c-13.333 -0 -18.666 6.33301 -15.999 19zM110.999 697c-6 -4 -10.499 -6.16602 -13.499 -6.49902
s-6.16699 1.5 -9.5 5.5l-22 26c-2.66699 3.33301 -3.83398 6.16602 -3.50098 8.49902s2.83301 5.83301 7.5 10.5l134 107c6 4.66699 11.333 8.16699 16 10.5s11 3.5 19 3.5h54c9.33301 0 15.833 -1 19.5 -3s7.16699 -5 10.5 -9l89 -107
c6.66699 -6.66699 5.66699 -13.667 -3 -21l-27 -21c-4.66699 -3.33301 -8.5 -5 -11.5 -5s-6.16699 1.66699 -9.5 5l-103 87z" />
    <glyph glyph-name="Idieresis" unicode="&#xcf;" horiz-adv-x="275" 
d="M165 644c3.33301 13.333 11.332 20 23.999 20h74c7.33301 0 12 -1.83301 14 -5.5s2.33301 -8.5 1 -14.5l-122 -625c-2 -12.667 -9.33301 -19 -22 -19h-74c-13.333 -0 -18.666 6.33301 -15.999 19zM156.999 820c15.333 0 27.167 -2.5 35.5 -7.5s12.5 -13.833 12.5 -26.5
c0 -20 -5 -37.333 -15 -52s-27.667 -22 -53 -22c-31.333 0 -47 11.333 -47 34c0 21.333 4.83301 39 14.5 53s27.167 21 52.5 21zM352 820c15.333 0 27 -2.5 35 -7.5s12 -13.833 12 -26.5c0 -20 -5 -37.333 -15 -52s-27.667 -22 -53 -22c-31.333 0 -47 11.333 -47 34
c0 21.333 5 39 15 53s27.667 21 53 21z" />
    <glyph glyph-name="Eth" unicode="&#xd0;" horiz-adv-x="634" 
d="M605 434c0 -16.667 -0.665039 -33.3311 -1.99805 -49.998s-3.33301 -33.667 -6 -51c-7.33301 -47.333 -17.833 -91.333 -31.5 -132s-32.834 -75.834 -57.501 -105.501s-55.834 -53 -93.501 -70s-84.5 -25.5 -140.5 -25.5h-220c-12.667 0 -19 4.33301 -19 13v4
c0 1.33301 0.166992 2 0.5 2s0.5 0.666992 0.5 2l27.5 141.5l27.5 142.5h-35c-11.333 0 -16 4.66699 -14 14l10 46c1.33301 6 3.5 10 6.5 12s7.5 3 13.5 3h34l51 264c2.66699 12 10.667 18 24 18h194c82.667 0 141.667 -19.833 177 -59.5s53 -95.834 53 -168.501z
M489.002 418.003c0 44 -10.001 79.3311 -30.001 105.998s-54.333 40 -103 40h-102l-36 -184h125c12 0 16.667 -5 14 -15l-10 -46c-2 -9.33301 -8.33301 -14 -19 -14h-124c-7.33301 -34.667 -14.166 -69.167 -20.499 -103.5l-19.5 -103.5h116
c32.667 0 60.5 5.83301 83.5 17.5s42 27.834 57 48.501s27 44.834 36 72.501s16.5 57.167 22.5 88.5c2.66699 15.333 5 30.833 7 46.5s3 31.167 3 46.5z" />
    <glyph glyph-name="Ntilde" unicode="&#xd1;" horiz-adv-x="645" 
d="M232 467h-3.00195l-85 -448c-1.33301 -6 -3.66602 -10.667 -6.99902 -14s-8.66602 -5 -15.999 -5h-72c-13.333 -0 -18.666 6.33301 -15.999 19l121 626c2 12 9.66699 18 23 18h57c15.333 0 25 -3.33301 29 -10s8 -14.667 12 -24l87 -206l101 -228h3l85 448
c2 13.333 9.66699 20 23 20h72c12.667 0 17.667 -6.66699 15 -20l-122 -625c-2 -12 -9.33301 -18 -22 -18h-57c-9.33301 0 -15.833 1.5 -19.5 4.5s-6.83398 7.83301 -9.50098 14.5l-153 341zM473.998 692c-11.333 0 -23.335 2.66699 -36.002 8s-25.167 11.333 -37.5 18
s-24.666 12.667 -36.999 18s-23.5 8 -33.5 8c-8.66699 0 -18 -2.33301 -28 -7s-21.667 -15.667 -35 -33c-4.66699 -5.33301 -9 -7.66602 -13 -6.99902s-8.66699 2.66699 -14 6l-23 16c-2.66699 1.33301 -4 4 -4 8s0.666992 7.33301 2 10
c19.333 35.333 40.333 58.833 63 70.5s44.667 17.5 66 17.5c13.333 0 26.5 -2.5 39.5 -7.5s25.5 -10.667 37.5 -17s23.667 -12 35 -17s22 -7.5 32 -7.5c20 0 39 12.333 57 37c6 9.33301 13 11.666 21 6.99902l29 -17c6.66699 -4 7.66699 -10.333 3 -19
c-18.667 -34 -38.167 -57.833 -58.5 -71.5s-42.166 -20.5 -65.499 -20.5z" />
    <glyph glyph-name="Ograve" unicode="&#xd2;" horiz-adv-x="660" 
d="M405 672c41.333 0 76.6699 -5.33203 106.003 -15.999s53.166 -25.834 71.499 -45.501s31.833 -43.5 40.5 -71.5s12.667 -59.667 12 -95c0 -17.333 -1 -34.5 -3 -51.5s-4.66699 -34.167 -8 -51.5c-7.33301 -44.667 -17.333 -88 -30 -130s-31.334 -79.333 -56.001 -112
s-56.5 -58.834 -95.5 -78.501s-88.167 -29.5 -147.5 -29.5c-40.667 0 -75.167 5.16699 -103.5 15.5s-51.333 25.333 -69 45s-30.5 43.167 -38.5 70.5s-12 58 -12 92c0 21.333 1.33301 42.5 4 63.5s6 42.167 10 63.5c6.66699 38.667 16.667 77.834 30 117.501
s32.166 75.167 56.499 106.5s55.333 57 93 77s84.167 30 139.5 30zM397.004 574.001c-32 0 -59.002 -6.83496 -81.002 -20.502s-40.5 -31.667 -55.5 -54s-27.167 -48.166 -36.5 -77.499s-17 -59.666 -23 -90.999c-7.33301 -37.333 -11.333 -72.666 -12 -105.999
c-0.666992 -42.667 7.83301 -75.834 25.5 -99.501s47.834 -35.5 90.501 -35.5c34.667 0 63.5 6.5 86.5 19.5s42 30.5 57 52.5s27 47.5 36 76.5s16.5 59.833 22.5 92.5c4 18.667 7.16699 37.167 9.5 55.5s3.5 36.5 3.5 54.5c0.666992 44 -8.66602 77.167 -27.999 99.5
s-51 33.5 -95 33.5zM324.002 860.999c6.66699 9.33301 14.333 10.667 23 4l149 -117c5.33301 -3.33301 8 -6.5 8 -9.5s-1.66699 -6.5 -5 -10.5l-21 -26c-3.33301 -4.66699 -6.83301 -6.66699 -10.5 -6s-7.5 2 -11.5 4l-162 92c-10 6 -12 13 -6 21z" />
    <glyph glyph-name="Oacute" unicode="&#xd3;" horiz-adv-x="660" 
d="M405 672c41.333 0 76.6699 -5.33203 106.003 -15.999s53.166 -25.834 71.499 -45.501s31.833 -43.5 40.5 -71.5s12.667 -59.667 12 -95c0 -17.333 -1 -34.5 -3 -51.5s-4.66699 -34.167 -8 -51.5c-7.33301 -44.667 -17.333 -88 -30 -130s-31.334 -79.333 -56.001 -112
s-56.5 -58.834 -95.5 -78.501s-88.167 -29.5 -147.5 -29.5c-40.667 0 -75.167 5.16699 -103.5 15.5s-51.333 25.333 -69 45s-30.5 43.167 -38.5 70.5s-12 58 -12 92c0 21.333 1.33301 42.5 4 63.5s6 42.167 10 63.5c6.66699 38.667 16.667 77.834 30 117.501
s32.166 75.167 56.499 106.5s55.333 57 93 77s84.167 30 139.5 30zM397.004 574.001c-32 0 -59.002 -6.83496 -81.002 -20.502s-40.5 -31.667 -55.5 -54s-27.167 -48.166 -36.5 -77.499s-17 -59.666 -23 -90.999c-7.33301 -37.333 -11.333 -72.666 -12 -105.999
c-0.666992 -42.667 7.83301 -75.834 25.5 -99.501s47.834 -35.5 90.501 -35.5c34.667 0 63.5 6.5 86.5 19.5s42 30.5 57 52.5s27 47.5 36 76.5s16.5 59.833 22.5 92.5c4 18.667 7.16699 37.167 9.5 55.5s3.5 36.5 3.5 54.5c0.666992 44 -8.66602 77.167 -27.999 99.5
s-51 33.5 -95 33.5zM587.002 797.999c2.66699 -4.66699 2.83301 -8.83203 0.5 -12.499s-5.83301 -6.5 -10.5 -8.5l-170 -76c-4 -1.33301 -7.5 -2 -10.5 -2s-5.83301 2 -8.5 6l-19 35c-4 6 -1.33301 12 8 18l162 100c6 3.33301 10.5 4.16602 13.5 2.49902
s5.5 -4.16699 7.5 -7.5z" />
    <glyph glyph-name="Ocircumflex" unicode="&#xd4;" horiz-adv-x="660" 
d="M405 672c41.333 0 76.6699 -5.33203 106.003 -15.999s53.166 -25.834 71.499 -45.501s31.833 -43.5 40.5 -71.5s12.667 -59.667 12 -95c0 -17.333 -1 -34.5 -3 -51.5s-4.66699 -34.167 -8 -51.5c-7.33301 -44.667 -17.333 -88 -30 -130s-31.334 -79.333 -56.001 -112
s-56.5 -58.834 -95.5 -78.501s-88.167 -29.5 -147.5 -29.5c-40.667 0 -75.167 5.16699 -103.5 15.5s-51.333 25.333 -69 45s-30.5 43.167 -38.5 70.5s-12 58 -12 92c0 21.333 1.33301 42.5 4 63.5s6 42.167 10 63.5c6.66699 38.667 16.667 77.834 30 117.501
s32.166 75.167 56.499 106.5s55.333 57 93 77s84.167 30 139.5 30zM397.004 574.001c-32 0 -59.002 -6.83496 -81.002 -20.502s-40.5 -31.667 -55.5 -54s-27.167 -48.166 -36.5 -77.499s-17 -59.666 -23 -90.999c-7.33301 -37.333 -11.333 -72.666 -12 -105.999
c-0.666992 -42.667 7.83301 -75.834 25.5 -99.501s47.834 -35.5 90.501 -35.5c34.667 0 63.5 6.5 86.5 19.5s42 30.5 57 52.5s27 47.5 36 76.5s16.5 59.833 22.5 92.5c4 18.667 7.16699 37.167 9.5 55.5s3.5 36.5 3.5 54.5c0.666992 44 -8.66602 77.167 -27.999 99.5
s-51 33.5 -95 33.5zM307.002 696.999c-6 -4 -10.499 -6.16602 -13.499 -6.49902s-6.16699 1.5 -9.5 5.5l-22 26c-2.66699 3.33301 -3.83398 6.16602 -3.50098 8.49902s2.83301 5.83301 7.5 10.5l134 107c6 4.66699 11.333 8.16699 16 10.5s11 3.5 19 3.5h54
c9.33301 0 15.833 -1 19.5 -3s7.16699 -5 10.5 -9l89 -107c6.66699 -6.66699 5.66699 -13.667 -3 -21l-27 -21c-4.66699 -3.33301 -8.5 -5 -11.5 -5s-6.16699 1.66699 -9.5 5l-103 87z" />
    <glyph glyph-name="Otilde" unicode="&#xd5;" horiz-adv-x="660" 
d="M405 672c41.333 0 76.6699 -5.33203 106.003 -15.999s53.166 -25.834 71.499 -45.501s31.833 -43.5 40.5 -71.5s12.667 -59.667 12 -95c0 -17.333 -1 -34.5 -3 -51.5s-4.66699 -34.167 -8 -51.5c-7.33301 -44.667 -17.333 -88 -30 -130s-31.334 -79.333 -56.001 -112
s-56.5 -58.834 -95.5 -78.501s-88.167 -29.5 -147.5 -29.5c-40.667 0 -75.167 5.16699 -103.5 15.5s-51.333 25.333 -69 45s-30.5 43.167 -38.5 70.5s-12 58 -12 92c0 21.333 1.33301 42.5 4 63.5s6 42.167 10 63.5c6.66699 38.667 16.667 77.834 30 117.501
s32.166 75.167 56.499 106.5s55.333 57 93 77s84.167 30 139.5 30zM397.004 574.001c-32 0 -59.002 -6.83496 -81.002 -20.502s-40.5 -31.667 -55.5 -54s-27.167 -48.166 -36.5 -77.499s-17 -59.666 -23 -90.999c-7.33301 -37.333 -11.333 -72.666 -12 -105.999
c-0.666992 -42.667 7.83301 -75.834 25.5 -99.501s47.834 -35.5 90.501 -35.5c34.667 0 63.5 6.5 86.5 19.5s42 30.5 57 52.5s27 47.5 36 76.5s16.5 59.833 22.5 92.5c4 18.667 7.16699 37.167 9.5 55.5s3.5 36.5 3.5 54.5c0.666992 44 -8.66602 77.167 -27.999 99.5
s-51 33.5 -95 33.5zM500.002 699.999c-11.333 0 -23.335 2.66699 -36.002 8s-25.167 11.333 -37.5 18s-24.666 12.667 -36.999 18s-23.5 8 -33.5 8c-8.66699 0 -18 -2.33301 -28 -7s-21.667 -15.667 -35 -33c-4.66699 -5.33301 -9 -7.66602 -13 -6.99902
s-8.66699 2.66699 -14 6l-23 16c-2.66699 1.33301 -4 4 -4 8s0.666992 7.33301 2 10c19.333 35.333 40.333 58.833 63 70.5s44.667 17.5 66 17.5c13.333 0 26.5 -2.5 39.5 -7.5s25.5 -10.667 37.5 -17s23.667 -12 35 -17s22 -7.5 32 -7.5c20 0 39 12.333 57 37
c6 9.33301 13 11.666 21 6.99902l29 -17c6.66699 -4 7.66699 -10.333 3 -19c-18.667 -34 -38.167 -57.833 -58.5 -71.5s-42.166 -20.5 -65.499 -20.5z" />
    <glyph glyph-name="Odieresis" unicode="&#xd6;" horiz-adv-x="660" 
d="M405 672c41.333 0 76.6699 -5.33203 106.003 -15.999s53.166 -25.834 71.499 -45.501s31.833 -43.5 40.5 -71.5s12.667 -59.667 12 -95c0 -17.333 -1 -34.5 -3 -51.5s-4.66699 -34.167 -8 -51.5c-7.33301 -44.667 -17.333 -88 -30 -130s-31.334 -79.333 -56.001 -112
s-56.5 -58.834 -95.5 -78.501s-88.167 -29.5 -147.5 -29.5c-40.667 0 -75.167 5.16699 -103.5 15.5s-51.333 25.333 -69 45s-30.5 43.167 -38.5 70.5s-12 58 -12 92c0 21.333 1.33301 42.5 4 63.5s6 42.167 10 63.5c6.66699 38.667 16.667 77.834 30 117.501
s32.166 75.167 56.499 106.5s55.333 57 93 77s84.167 30 139.5 30zM397.004 574.001c-32 0 -59.002 -6.83496 -81.002 -20.502s-40.5 -31.667 -55.5 -54s-27.167 -48.166 -36.5 -77.499s-17 -59.666 -23 -90.999c-7.33301 -37.333 -11.333 -72.666 -12 -105.999
c-0.666992 -42.667 7.83301 -75.834 25.5 -99.501s47.834 -35.5 90.501 -35.5c34.667 0 63.5 6.5 86.5 19.5s42 30.5 57 52.5s27 47.5 36 76.5s16.5 59.833 22.5 92.5c4 18.667 7.16699 37.167 9.5 55.5s3.5 36.5 3.5 54.5c0.666992 44 -8.66602 77.167 -27.999 99.5
s-51 33.5 -95 33.5zM350.002 819.999c15.333 0 27.167 -2.5 35.5 -7.5s12.5 -13.833 12.5 -26.5c0 -20 -5 -37.333 -15 -52s-27.667 -22 -53 -22c-31.333 0 -47 11.333 -47 34c0 21.333 4.83301 39 14.5 53s27.167 21 52.5 21zM545.003 819.999c15.333 0 27 -2.5 35 -7.5
s12 -13.833 12 -26.5c0 -20 -5 -37.333 -15 -52s-27.667 -22 -53 -22c-31.333 0 -47 11.333 -47 34c0 21.333 5 39 15 53s27.667 21 53 21z" />
    <glyph glyph-name="multiply" unicode="&#xd7;" horiz-adv-x="572" 
d="M305 386l139.999 117c5.33301 4.66699 9.66602 7.16699 12.999 7.5s7 -1.83398 11 -6.50098l35 -44c6.66699 -7.33301 5.33398 -15 -3.99902 -23l-142 -118l96 -117c3.33301 -5.33301 4.83301 -9.66602 4.5 -12.999s-3.5 -7.33301 -9.5 -12l-44 -37
c-8 -7.33301 -15.667 -7 -23 1l-95 119l-145 -123c-5.33301 -3.33301 -9.66602 -5.33301 -12.999 -6s-6.66602 1.33301 -9.99902 6l-36 44c-3.33301 4.66699 -4.66602 8.5 -3.99902 11.5s3.66699 6.83301 9 11.5l145 122l-96 121c-6 6.66699 -5 13.667 3 21l45 38
c5.33301 4.66699 9.66602 7 12.999 7s6.66602 -2.33301 9.99902 -7z" />
    <glyph glyph-name="Oslash" unicode="&#xd8;" horiz-adv-x="660" 
d="M405 672c42 0 77.6689 -5.50098 107.002 -16.501s53.333 -26.5 72 -46.5l45 50c4 4.66699 7.5 8 10.5 10s6.83301 1 11.5 -3l21 -17c4 -4 5.66699 -7.5 5 -10.5s-3 -6.83301 -7 -11.5l-57 -63c8 -16.667 13.667 -35 17 -55s5 -41.667 5 -65c0 -17.333 -1 -34.5 -3 -51.5
s-4.66699 -34.167 -8 -51.5c-7.33301 -44.667 -17.333 -88 -30 -130s-31.334 -79.333 -56.001 -112s-56.5 -58.834 -95.5 -78.501s-88.167 -29.5 -147.5 -29.5c-36 0 -66.833 3.83301 -92.5 11.5s-47.5 19.167 -65.5 34.5l-39 -43c-4 -4 -7.83301 -7.16699 -11.5 -9.5
s-7.5 -1.5 -11.5 2.5l-20 18c-6.66699 6 -5.66699 13 3 21l46 51c-21.333 34.667 -32 80.334 -32 137.001c0 21.333 1.33301 42.5 4 63.5s6 42.167 10 63.5c6.66699 38.667 16.667 77.834 30 117.501s32.166 75.167 56.499 106.5s55.333 57 93 77s84.167 30 139.5 30z
M397.002 573.999c-32 0 -59 -6.83789 -81 -20.5049s-40.5 -31.667 -55.5 -54s-27.167 -48.166 -36.5 -77.499s-17 -59.666 -23 -90.999c-7.33301 -37.333 -11.333 -72.666 -12 -105.999c0 -9.33301 0.333008 -18.166 1 -26.499s1.66699 -16.166 3 -23.499l312 346
c-18 35.333 -54 53 -108 53zM520.002 440.994l-0.000976562 9.5c0 3 -0.333008 6.16699 -1 9.5l-303 -336c18.667 -22.667 48.334 -34 89.001 -34c34.667 0 63.5 6.5 86.5 19.5s42 30.5 57 52.5s27 47.5 36 76.5s16.5 59.833 22.5 92.5c4 18.667 7.16699 37.167 9.5 55.5
s3.5 36.5 3.5 54.5z" />
    <glyph glyph-name="Ugrave" unicode="&#xd9;" horiz-adv-x="626" 
d="M291 92c44 0 79.832 12.167 107.499 36.5s46.5 62.5 56.5 114.5l78 401c3.33301 13.333 11 20 23 20h74c7.33301 0 12 -1.83301 14 -5.5s2.33301 -8.5 1 -14.5l-79 -401c-7.33301 -38 -18.166 -72.5 -32.499 -103.5s-32.833 -57.333 -55.5 -79s-50 -38.5 -82 -50.5
s-69 -18 -111 -18c-43.333 0 -80 6 -110 18s-53.667 28.833 -71 50.5s-28.333 48 -33 79s-3.33398 65.5 3.99902 103.5l78 401c1.33301 6.66699 3.83301 11.667 7.5 15s9.16699 5 16.5 5h74c12.667 0 17.334 -6.66699 14.001 -20l-78 -401
c-9.33301 -48.667 -5.83301 -86 10.5 -112s47.5 -39 93.5 -39zM281.999 860c6.66699 9.33301 14.333 10.667 23 4l149 -117c5.33301 -3.33301 8 -6.5 8 -9.5s-1.66699 -6.5 -5 -10.5l-21 -26c-3.33301 -4.66699 -6.83301 -6.66699 -10.5 -6s-7.5 2 -11.5 4l-162 92
c-10 6 -12 13 -6 21z" />
    <glyph glyph-name="Uacute" unicode="&#xda;" horiz-adv-x="626" 
d="M291 92c44 0 79.832 12.167 107.499 36.5s46.5 62.5 56.5 114.5l78 401c3.33301 13.333 11 20 23 20h74c7.33301 0 12 -1.83301 14 -5.5s2.33301 -8.5 1 -14.5l-79 -401c-7.33301 -38 -18.166 -72.5 -32.499 -103.5s-32.833 -57.333 -55.5 -79s-50 -38.5 -82 -50.5
s-69 -18 -111 -18c-43.333 0 -80 6 -110 18s-53.667 28.833 -71 50.5s-28.333 48 -33 79s-3.33398 65.5 3.99902 103.5l78 401c1.33301 6.66699 3.83301 11.667 7.5 15s9.16699 5 16.5 5h74c12.667 0 17.334 -6.66699 14.001 -20l-78 -401
c-9.33301 -48.667 -5.83301 -86 10.5 -112s47.5 -39 93.5 -39zM568.999 798c2.66699 -4.66699 2.83301 -8.83203 0.5 -12.499s-5.83301 -6.5 -10.5 -8.5l-170 -76c-4 -1.33301 -7.5 -2 -10.5 -2s-5.83301 2 -8.5 6l-19 35c-4 6 -1.33301 12 8 18l162 100
c6 3.33301 10.5 4.16602 13.5 2.49902s5.5 -4.16699 7.5 -7.5z" />
    <glyph glyph-name="Ucircumflex" unicode="&#xdb;" horiz-adv-x="626" 
d="M291 92c44 0 79.832 12.167 107.499 36.5s46.5 62.5 56.5 114.5l78 401c3.33301 13.333 11 20 23 20h74c7.33301 0 12 -1.83301 14 -5.5s2.33301 -8.5 1 -14.5l-79 -401c-7.33301 -38 -18.166 -72.5 -32.499 -103.5s-32.833 -57.333 -55.5 -79s-50 -38.5 -82 -50.5
s-69 -18 -111 -18c-43.333 0 -80 6 -110 18s-53.667 28.833 -71 50.5s-28.333 48 -33 79s-3.33398 65.5 3.99902 103.5l78 401c1.33301 6.66699 3.83301 11.667 7.5 15s9.16699 5 16.5 5h74c12.667 0 17.334 -6.66699 14.001 -20l-78 -401
c-9.33301 -48.667 -5.83301 -86 10.5 -112s47.5 -39 93.5 -39zM289.999 697c-6 -4 -10.499 -6.16602 -13.499 -6.49902s-6.16699 1.5 -9.5 5.5l-22 26c-2.66699 3.33301 -3.83398 6.16602 -3.50098 8.49902s2.83301 5.83301 7.5 10.5l134 107
c6 4.66699 11.333 8.16699 16 10.5s11 3.5 19 3.5h54c9.33301 0 15.833 -1 19.5 -3s7.16699 -5 10.5 -9l89 -107c6.66699 -6.66699 5.66699 -13.667 -3 -21l-27 -21c-4.66699 -3.33301 -8.5 -5 -11.5 -5s-6.16699 1.66699 -9.5 5l-103 87z" />
    <glyph glyph-name="Udieresis" unicode="&#xdc;" horiz-adv-x="626" 
d="M291 92c44 0 79.832 12.167 107.499 36.5s46.5 62.5 56.5 114.5l78 401c3.33301 13.333 11 20 23 20h74c7.33301 0 12 -1.83301 14 -5.5s2.33301 -8.5 1 -14.5l-79 -401c-7.33301 -38 -18.166 -72.5 -32.499 -103.5s-32.833 -57.333 -55.5 -79s-50 -38.5 -82 -50.5
s-69 -18 -111 -18c-43.333 0 -80 6 -110 18s-53.667 28.833 -71 50.5s-28.333 48 -33 79s-3.33398 65.5 3.99902 103.5l78 401c1.33301 6.66699 3.83301 11.667 7.5 15s9.16699 5 16.5 5h74c12.667 0 17.334 -6.66699 14.001 -20l-78 -401
c-9.33301 -48.667 -5.83301 -86 10.5 -112s47.5 -39 93.5 -39zM329.999 820c15.333 0 27.167 -2.5 35.5 -7.5s12.5 -13.833 12.5 -26.5c0 -20 -5 -37.333 -15 -52s-27.667 -22 -53 -22c-31.333 0 -47 11.333 -47 34c0 21.333 4.83301 39 14.5 53s27.167 21 52.5 21zM525 820
c15.333 0 27 -2.5 35 -7.5s12 -13.833 12 -26.5c0 -20 -5 -37.333 -15 -52s-27.667 -22 -53 -22c-31.333 0 -47 11.333 -47 34c0 21.333 5 39 15 53s27.667 21 53 21z" />
    <glyph glyph-name="Yacute" unicode="&#xdd;" horiz-adv-x="558" 
d="M232 273l-134.006 371.998c-1.33301 4.66699 -0.666016 8.83398 2.00098 12.501s6.66699 5.5 12 5.5h77c8.66699 0 14.334 -1.16699 17.001 -3.5s5.33398 -6.83301 8.00098 -13.5l50 -156l36 -110h6l82 113l110 150c5.33301 7.33301 10 12.5 14 15.5s10 4.5 18 4.5h90
c6.66699 0 10.334 -1.66699 11.001 -5s-0.666016 -7.66602 -3.99902 -12.999l-283 -372l-49 -254c-2 -12.667 -9.33301 -19 -22 -19h-74c-13.333 -0 -18.666 6.33301 -15.999 19zM516.994 797.998c2.66699 -4.66699 2.83301 -8.83203 0.5 -12.499s-5.83301 -6.5 -10.5 -8.5
l-170 -76c-4 -1.33301 -7.5 -2 -10.5 -2s-5.83301 2 -8.5 6l-19 35c-4 6 -1.33301 12 8 18l162 100c6 3.33301 10.5 4.16602 13.5 2.49902s5.5 -4.16699 7.5 -7.5z" />
    <glyph glyph-name="Thorn" unicode="&#xde;" horiz-adv-x="534" 
d="M141 19c-1.33301 -5.33301 -3.50195 -9.83203 -6.50195 -13.499s-8.16699 -5.5 -15.5 -5.5h-74c-13.333 0 -18.666 6.33301 -15.999 19l121 626c2.66699 12.667 10.334 19 23.001 19h74c13.333 0 18.333 -6.33301 15 -19l-20 -102h108c26.667 0 51.167 -3.5 73.5 -10.5
s41.833 -17.833 58.5 -32.5s29.667 -32.834 39 -54.501s14 -47.167 14 -76.5c0 -31.333 -5.66699 -61 -17 -89s-27.5 -52.5 -48.5 -73.5s-46.833 -37.667 -77.5 -50s-66 -18.5 -106 -18.5h-122zM182.998 234.001h108c37.333 0 68 11.333 92 34s36 54.667 36 96
c0 30 -9.16699 51.167 -27.5 63.5s-42.5 18.5 -72.5 18.5l-95 -1z" />
    <glyph glyph-name="germandbls" unicode="&#xdf;" horiz-adv-x="523" 
d="M330 711c25.333 0 48.8379 -2.82812 70.5049 -8.49512s40.334 -14.334 56.001 -26.001s27.834 -26.167 36.501 -43.5s13 -38 13 -62c0 -32 -7.5 -63.5 -22.5 -94.5s-38.5 -55.167 -70.5 -72.5c28 -9.33301 47.333 -24.333 58 -45s16 -44.334 16 -71.001
c0 -37.333 -4.33301 -73.833 -13 -109.5s-22.167 -67.5 -40.5 -95.5s-41.833 -50.5 -70.5 -67.5s-63.334 -25.5 -104.001 -25.5c-9.33301 0 -20.833 0.5 -34.5 1.5s-24.834 3.16699 -33.501 6.5c-6.66699 1.33301 -10.5 4 -11.5 8s-0.833008 8.66699 0.5 14l14 50
c1.33301 5.33301 3.66602 9.16602 6.99902 11.499s9.33301 3.5 18 3.5c25.333 0 47.666 4.66699 66.999 14s35.333 22 48 38s22.167 34.5 28.5 55.5s9.5 43.5 9.5 67.5c0 12.667 -0.833008 24 -2.5 34s-5.33398 18.833 -11.001 26.5s-13.5 14 -23.5 19s-23 8.5 -39 10.5
c-12.667 2 -20.334 4.66699 -23.001 8s-3.33398 8.33301 -2.00098 15l7 32c2 10.667 7.33301 17.334 16 20.001c9.33301 2 20 6.16699 32 12.5s23.167 14.666 33.5 24.999s19 22.5 26 36.5s10.5 30 10.5 48c0 22.667 -6.66699 39.667 -20 51s-30.666 17 -51.999 17
c-16.667 0 -31.167 -3 -43.5 -9s-22.666 -14.333 -30.999 -25s-15.333 -22.834 -21 -36.501s-9.83398 -27.834 -12.501 -42.501l-95 -486c-2 -12.667 -9.66699 -19 -23 -19h-71c-8 0 -12.833 1.5 -14.5 4.5s-1.83398 7.5 -0.500977 13.5l93 473
c15.333 76.667 41.833 133 79.5 169s86.167 54 145.5 54z" />
    <glyph glyph-name="agrave" unicode="&#xe0;" horiz-adv-x="535" 
d="M434 19c-2 -12.667 -9.33105 -18.999 -21.998 -18.999h-71c-8 0 -12.833 1.5 -14.5 4.5s-1.83398 7.5 -0.500977 13.5l7 33h-1c-26.667 -16.667 -53.834 -30.667 -81.501 -42s-57.5 -17 -89.5 -17c-47.333 0 -80.5 12 -99.5 36s-28.5 58 -28.5 102
c0 16 1.33301 33.167 4 51.5s5.66699 37.166 9 56.499c8 40 17.5 76 28.5 108s25.5 59 43.5 81s39.833 39 65.5 51s56.834 18 93.501 18c18 0 39.167 -2.83301 63.5 -8.5s48.166 -14.5 71.499 -26.5l4 15c1.33301 6 3.5 9.83301 6.5 11.5s8.16699 2.5 15.5 2.5h68
c8 0 13 -1.66699 15 -5s2.33301 -8.33301 1 -15zM395.002 373.001c-39.333 16 -77.999 24 -115.999 24c-18 -0.666992 -33.333 -3.83398 -46 -9.50098s-23.667 -14.667 -33 -27s-17.333 -28.333 -24 -48s-12.667 -43.834 -18 -72.501c-3.33301 -18 -6 -34.167 -8 -48.5
s-3 -26.166 -3 -35.499c0 -27.333 5 -45.166 15 -53.499s24.667 -12.5 44 -12.5c10 0 21.5 1.66699 34.5 5s26.167 7.33301 39.5 12s26.166 9.5 38.499 14.5s22.5 9.5 30.5 13.5zM280.003 741.001c5.33301 3.33301 9.83301 4.5 13.5 3.5s7.5 -4.16699 11.5 -9.5l102 -160
c6.66699 -8.66699 5.66699 -15.334 -3 -20.001l-32 -18c-8.66699 -5.33301 -15.667 -4.66602 -21 2.00098l-124 150c-4 4.66699 -6.16699 9 -6.5 13s2.16699 7.33301 7.5 10z" />
    <glyph glyph-name="aacute" unicode="&#xe1;" horiz-adv-x="535" 
d="M434 19c-2 -12.667 -9.33105 -18.999 -21.998 -18.999h-71c-8 0 -12.833 1.5 -14.5 4.5s-1.83398 7.5 -0.500977 13.5l7 33h-1c-26.667 -16.667 -53.834 -30.667 -81.501 -42s-57.5 -17 -89.5 -17c-47.333 0 -80.5 12 -99.5 36s-28.5 58 -28.5 102
c0 16 1.33301 33.167 4 51.5s5.66699 37.166 9 56.499c8 40 17.5 76 28.5 108s25.5 59 43.5 81s39.833 39 65.5 51s56.834 18 93.501 18c18 0 39.167 -2.83301 63.5 -8.5s48.166 -14.5 71.499 -26.5l4 15c1.33301 6 3.5 9.83301 6.5 11.5s8.16699 2.5 15.5 2.5h68
c8 0 13 -1.66699 15 -5s2.33301 -8.33301 1 -15zM395.002 373.001c-39.333 16 -77.999 24 -115.999 24c-18 -0.666992 -33.333 -3.83398 -46 -9.50098s-23.667 -14.667 -33 -27s-17.333 -28.333 -24 -48s-12.667 -43.834 -18 -72.501c-3.33301 -18 -6 -34.167 -8 -48.5
s-3 -26.166 -3 -35.499c0 -27.333 5 -45.166 15 -53.499s24.667 -12.5 44 -12.5c10 0 21.5 1.66699 34.5 5s26.167 7.33301 39.5 12s26.166 9.5 38.499 14.5s22.5 9.5 30.5 13.5zM462.003 709.001c5.33301 -2.66699 7.66699 -6 7 -10s-2.66699 -8.33301 -6 -13l-128 -139
c-6.66699 -7.33301 -13.667 -9.33301 -21 -6l-33 18c-7.33301 4 -8 10.333 -2 19l109 155c6 8.66699 13.333 10.667 22 6z" />
    <glyph glyph-name="acircumflex" unicode="&#xe2;" horiz-adv-x="535" 
d="M434 19c-2 -12.667 -9.33105 -18.999 -21.998 -18.999h-71c-8 0 -12.833 1.5 -14.5 4.5s-1.83398 7.5 -0.500977 13.5l7 33h-1c-26.667 -16.667 -53.834 -30.667 -81.501 -42s-57.5 -17 -89.5 -17c-47.333 0 -80.5 12 -99.5 36s-28.5 58 -28.5 102
c0 16 1.33301 33.167 4 51.5s5.66699 37.166 9 56.499c8 40 17.5 76 28.5 108s25.5 59 43.5 81s39.833 39 65.5 51s56.834 18 93.501 18c18 0 39.167 -2.83301 63.5 -8.5s48.166 -14.5 71.499 -26.5l4 15c1.33301 6 3.5 9.83301 6.5 11.5s8.16699 2.5 15.5 2.5h68
c8 0 13 -1.66699 15 -5s2.33301 -8.33301 1 -15zM395.002 373.001c-39.333 16 -77.999 24 -115.999 24c-18 -0.666992 -33.333 -3.83398 -46 -9.50098s-23.667 -14.667 -33 -27s-17.333 -28.333 -24 -48s-12.667 -43.834 -18 -72.501c-3.33301 -18 -6 -34.167 -8 -48.5
s-3 -26.166 -3 -35.499c0 -27.333 5 -45.166 15 -53.499s24.667 -12.5 44 -12.5c10 0 21.5 1.66699 34.5 5s26.167 7.33301 39.5 12s26.166 9.5 38.499 14.5s22.5 9.5 30.5 13.5zM215.003 536.001c-5.33301 -4 -9.49805 -5.99707 -12.498 -5.99707s-6.5 2 -10.5 6l-28 23
c-3.33301 3.33301 -4.66602 6.16602 -3.99902 8.49902s3 5.83301 7 10.5l131 127c5.33301 5.33301 10.166 9 14.499 11s11.166 3 20.499 3h55c10.667 0 17.667 -0.833008 21 -2.5s6.66602 -4.83398 9.99902 -9.50098l82 -132c6 -8.66699 5 -15.334 -3 -20.001l-30 -20
c-8 -6.66699 -15 -6.66699 -21 0l-97 109z" />
    <glyph glyph-name="atilde" unicode="&#xe3;" horiz-adv-x="535" 
d="M434 19c-2 -12.667 -9.33105 -18.999 -21.998 -18.999h-71c-8 0 -12.833 1.5 -14.5 4.5s-1.83398 7.5 -0.500977 13.5l7 33h-1c-26.667 -16.667 -53.834 -30.667 -81.501 -42s-57.5 -17 -89.5 -17c-47.333 0 -80.5 12 -99.5 36s-28.5 58 -28.5 102
c0 16 1.33301 33.167 4 51.5s5.66699 37.166 9 56.499c8 40 17.5 76 28.5 108s25.5 59 43.5 81s39.833 39 65.5 51s56.834 18 93.501 18c18 0 39.167 -2.83301 63.5 -8.5s48.166 -14.5 71.499 -26.5l4 15c1.33301 6 3.5 9.83301 6.5 11.5s8.16699 2.5 15.5 2.5h68
c8 0 13 -1.66699 15 -5s2.33301 -8.33301 1 -15zM395.002 373.001c-39.333 16 -77.999 24 -115.999 24c-18 -0.666992 -33.333 -3.83398 -46 -9.50098s-23.667 -14.667 -33 -27s-17.333 -28.333 -24 -48s-12.667 -43.834 -18 -72.501c-3.33301 -18 -6 -34.167 -8 -48.5
s-3 -26.166 -3 -35.499c0 -27.333 5 -45.166 15 -53.499s24.667 -12.5 44 -12.5c10 0 21.5 1.66699 34.5 5s26.167 7.33301 39.5 12s26.166 9.5 38.499 14.5s22.5 9.5 30.5 13.5zM413.003 550.001c-11.333 0 -23.335 2.66699 -36.002 8s-25.167 11.333 -37.5 18
s-24.666 12.667 -36.999 18s-23.5 8 -33.5 8c-8.66699 0 -18 -2.33301 -28 -7s-21.667 -15.667 -35 -33c-4.66699 -5.33301 -9 -7.66602 -13 -6.99902s-8.66699 2.66699 -14 6l-23 16c-2.66699 1.33301 -4 4 -4 8s0.666992 7.33301 2 10
c19.333 35.333 40.333 58.833 63 70.5s44.667 17.5 66 17.5c13.333 0 26.5 -2.5 39.5 -7.5s25.5 -10.667 37.5 -17s23.667 -12 35 -17s22 -7.5 32 -7.5c20 0 39 12.333 57 37c6 9.33301 13 11.666 21 6.99902l29 -17c6.66699 -4 7.66699 -10.333 3 -19
c-18.667 -34 -38.167 -57.833 -58.5 -71.5s-42.166 -20.5 -65.499 -20.5z" />
    <glyph glyph-name="adieresis" unicode="&#xe4;" horiz-adv-x="535" 
d="M434 19c-2 -12.667 -9.33105 -18.999 -21.998 -18.999h-71c-8 0 -12.833 1.5 -14.5 4.5s-1.83398 7.5 -0.500977 13.5l7 33h-1c-26.667 -16.667 -53.834 -30.667 -81.501 -42s-57.5 -17 -89.5 -17c-47.333 0 -80.5 12 -99.5 36s-28.5 58 -28.5 102
c0 16 1.33301 33.167 4 51.5s5.66699 37.166 9 56.499c8 40 17.5 76 28.5 108s25.5 59 43.5 81s39.833 39 65.5 51s56.834 18 93.501 18c18 0 39.167 -2.83301 63.5 -8.5s48.166 -14.5 71.499 -26.5l4 15c1.33301 6 3.5 9.83301 6.5 11.5s8.16699 2.5 15.5 2.5h68
c8 0 13 -1.66699 15 -5s2.33301 -8.33301 1 -15zM395.002 373.001c-39.333 16 -77.999 24 -115.999 24c-18 -0.666992 -33.333 -3.83398 -46 -9.50098s-23.667 -14.667 -33 -27s-17.333 -28.333 -24 -48s-12.667 -43.834 -18 -72.501c-3.33301 -18 -6 -34.167 -8 -48.5
s-3 -26.166 -3 -35.499c0 -27.333 5 -45.166 15 -53.499s24.667 -12.5 44 -12.5c10 0 21.5 1.66699 34.5 5s26.167 7.33301 39.5 12s26.166 9.5 38.499 14.5s22.5 9.5 30.5 13.5zM263.003 666.001c15.333 0 27.166 -2.5 35.499 -7.5s12.5 -13.833 12.5 -26.5
c0 -20 -5.16699 -37.5 -15.5 -52.5s-28.166 -22.5 -53.499 -22.5c-30.667 0 -46 11.667 -46 35c0 21.333 4.83301 39 14.5 53s27.167 21 52.5 21zM458.003 666.001c15.333 0 27 -2.5 35 -7.5s12 -13.833 12 -26.5c0 -20 -5 -37.5 -15 -52.5s-28 -22.5 -54 -22.5
c-30.667 0 -46 11.667 -46 35c0 21.333 5 39 15 53s27.667 21 53 21z" />
    <glyph glyph-name="aring" unicode="&#xe5;" horiz-adv-x="535" 
d="M434 19c-2 -12.667 -9.33105 -18.999 -21.998 -18.999h-71c-8 0 -12.833 1.5 -14.5 4.5s-1.83398 7.5 -0.500977 13.5l7 33h-1c-26.667 -16.667 -53.834 -30.667 -81.501 -42s-57.5 -17 -89.5 -17c-47.333 0 -80.5 12 -99.5 36s-28.5 58 -28.5 102
c0 16 1.33301 33.167 4 51.5s5.66699 37.166 9 56.499c8 40 17.5 76 28.5 108s25.5 59 43.5 81s39.833 39 65.5 51s56.834 18 93.501 18c18 0 39.167 -2.83301 63.5 -8.5s48.166 -14.5 71.499 -26.5l4 15c1.33301 6 3.5 9.83301 6.5 11.5s8.16699 2.5 15.5 2.5h68
c8 0 13 -1.66699 15 -5s2.33301 -8.33301 1 -15zM395.002 373.001c-39.333 16 -77.999 24 -115.999 24c-18 -0.666992 -33.333 -3.83398 -46 -9.50098s-23.667 -14.667 -33 -27s-17.333 -28.333 -24 -48s-12.667 -43.834 -18 -72.501c-3.33301 -18 -6 -34.167 -8 -48.5
s-3 -26.166 -3 -35.499c0 -27.333 5 -45.166 15 -53.499s24.667 -12.5 44 -12.5c10 0 21.5 1.66699 34.5 5s26.167 7.33301 39.5 12s26.166 9.5 38.499 14.5s22.5 9.5 30.5 13.5zM329.003 523.001c-26 0 -48.4971 8.16504 -67.4971 24.498s-28.5 38.166 -28.5 65.499
c0 20 3.83301 37.667 11.5 53s17.5 28.5 29.5 39.5s25.667 19.333 41 25s30.666 8.5 45.999 8.5c28 0 51 -8.66699 69 -26s27 -38.666 27 -63.999c0 -18 -3.33301 -34.667 -10 -50s-15.834 -28.666 -27.501 -39.999s-25.334 -20.166 -41.001 -26.499
s-32.167 -9.5 -49.5 -9.5zM356.006 680.999c-17.333 0 -31.167 -6.16895 -41.5 -18.502s-15.5 -26.166 -15.5 -41.499c0 -11.333 3.33301 -20.666 10 -27.999s16 -11 28 -11c14.667 0 28 5.5 40 16.5s18 24.833 18 41.5c0 11.333 -3.5 21 -10.5 29s-16.5 12 -28.5 12z" />
    <glyph glyph-name="ae" unicode="&#xe6;" horiz-adv-x="814" 
d="M466 445c15.333 15.333 37.668 27.835 67.001 37.502s58.666 14.5 87.999 14.5c54.667 0 97.334 -10.667 128.001 -32s46 -52 46 -92c0 -36.667 -9.5 -66.667 -28.5 -90s-42.833 -41.5 -71.5 -54.5s-60.334 -21.833 -95.001 -26.5s-67.334 -7 -98.001 -7
c-6.66699 0 -13.167 0.166992 -19.5 0.5s-12.5 0.5 -18.5 0.5l-5.5 -29c-2.33301 -12 -3.5 -21 -3.5 -27c0 -14.667 3 -25.834 9 -33.501s14 -13.334 24 -17.001s21.167 -5.66699 33.5 -6s24.833 -0.5 37.5 -0.5c18.667 0 40 1 64 3s46.667 4 68 6
c7.33301 1.33301 13.5 1.16602 18.5 -0.500977s7.5 -7.16699 7.5 -16.5v-30c0 -8 -1.5 -14.167 -4.5 -18.5s-9.16699 -8.5 -18.5 -12.5c-23.333 -8.66699 -51.166 -14.5 -83.499 -17.5s-62.166 -4.5 -89.499 -4.5c-38 0 -70.833 5 -98.5 15s-48.167 28 -61.5 54
c-34 -20.667 -69 -37.334 -105 -50.001s-76 -19 -120 -19c-43.333 0 -73.5 8.83301 -90.5 26.5s-25.5 41.834 -25.5 72.501c0 130.667 79 197 237 199c16.667 0 34.167 -0.333008 52.5 -1s37.166 -2 56.499 -4l11 42c3.33301 13.333 5 23.333 5 30
c0 18 -7.33301 30.833 -22 38.5s-38.667 11.5 -72 11.5c-8 0 -17.667 -0.166992 -29 -0.5s-23.333 -1 -36 -2l-37.5 -3c-12.333 -1 -23.833 -2.16699 -34.5 -3.5c-6.66699 0 -12.667 -0.166992 -18 -0.5s-8 4.16699 -8 13.5v37c0 6 1.83301 11.333 5.5 16s11.167 9 22.5 13
s24.5 7.33301 39.5 10s30.5 5 46.5 7s31.5 3.33301 46.5 4s28.5 1 40.5 1c40 0 71.167 -4.66699 93.5 -14s37.833 -22.666 46.5 -39.999zM245.002 215.002c-37.333 0 -65.333 -8.16797 -84 -24.501s-28 -40.166 -28 -71.499
c0.666992 -14.667 5.33398 -24.834 14.001 -30.501s22.667 -8.5 42 -8.5c9.33301 0 20.5 1.5 33.5 4.5s26.5 6.83301 40.5 11.5s27.667 9.83398 41 15.501s25.666 11.167 36.999 16.5c0 13.333 0.5 26.5 1.5 39.5s3.16699 26.833 6.5 41.5c-41.333 4 -76 6 -104 6z
M683.002 359.001c0 17.333 -6.33203 29.833 -18.999 37.5s-28.667 11.5 -48 11.5c-25.333 0 -46 -4.33301 -62 -13s-29 -19.667 -39 -33s-17.833 -27.833 -23.5 -43.5s-10.5 -30.5 -14.5 -44.5h23c18.667 0 38.667 1 60 3s41.166 6 59.499 12s33.5 14.5 45.5 25.5
s18 25.833 18 44.5z" />
    <glyph glyph-name="ccedilla" unicode="&#xe7;" horiz-adv-x="447" 
d="M217 -117c0 11.333 -4.83301 18.834 -14.5 22.501s-25.167 6.16699 -46.5 7.5c-14 1.33301 -17 9 -9 23l30 58c-27.333 3.33301 -49.833 9.83301 -67.5 19.5s-31.667 21.5 -42 35.5s-17.5 29.5 -21.5 46.5s-6 34.5 -6 52.5c0 15.333 1.16699 33 3.5 53
s5.16602 39 8.49902 57c6 32 13.833 62.667 23.5 92s23.834 55.166 42.501 77.499s42.834 40 72.501 53s67.834 19.5 114.501 19.5c10.667 0 22.834 -0.333008 36.501 -1s27.5 -2 41.5 -4s27.5 -4.5 40.5 -7.5s24.5 -6.83301 34.5 -11.5c12 -6 15 -15.333 9 -28l-13 -40
c-3.33301 -7.33301 -7.16602 -11.666 -11.499 -12.999s-11.5 -1.33301 -21.5 0l-61 6c-20.667 2 -39.667 3 -57 3c-20 0 -37.333 -2.66699 -52 -8s-27.5 -14 -38.5 -26s-20.333 -27.833 -28 -47.5s-14.167 -43.834 -19.5 -72.501c-6 -32 -9 -58.333 -9 -79
c0 -31.333 6.83301 -53 20.5 -65s35.5 -18 65.5 -18c15.333 0 35.5 0.833008 60.5 2.5s48.167 3.83398 69.5 6.50098c7.33301 1.33301 13.166 1.33301 17.499 0s6.5 -6.33301 6.5 -15v-36c0 -7.33301 -1.5 -13.333 -4.5 -18s-9.5 -9 -19.5 -13
c-19.333 -7.33301 -42.5 -12.833 -69.5 -16.5s-52.5 -5.83398 -76.5 -6.50098l-20 -38c29.333 -1.33301 50.333 -8 63 -20s19 -26.667 19 -44c0 -33.333 -12.833 -58 -38.5 -74s-58.5 -24 -98.5 -24c-9.33301 0 -21.5 1 -36.5 3s-27.5 4.66699 -37.5 8
c-6 2 -7.66699 6 -5 12l10 28c1.33301 2 2.66602 3.5 3.99902 4.5s4.33301 1.16699 9 0.5c9.33301 -1.33301 19.666 -2.5 30.999 -3.5s21 -1.5 29 -1.5c7.33301 0 14.666 0.5 21.999 1.5s14 3 20 6s10.833 7.16699 14.5 12.5s5.5 12 5.5 20z" />
    <glyph glyph-name="egrave" unicode="&#xe8;" horiz-adv-x="504" 
d="M40 143c0 21.333 1.99902 43.1709 5.99902 65.5039s8.66699 44.166 14 65.499c6 23.333 14.333 48.166 25 74.499s26.167 50.5 46.5 72.5s46.333 40.333 78 55s71.167 22 118.5 22c22 0 42.833 -2.66699 62.5 -8s37 -13.166 52 -23.499s27 -23.333 36 -39
s13.5 -33.834 13.5 -54.501c0 -40.667 -11.833 -73.5 -35.5 -98.5s-52.834 -44.5 -87.501 -58.5s-71.334 -23.5 -110.001 -28.5s-73 -7.83301 -103 -8.5c-3.33301 -15.333 -5 -28.333 -5 -39c0 -14.667 3 -25.834 9 -33.501s14 -13.334 24 -17.001s21.167 -5.66699 33.5 -6
s24.833 -0.5 37.5 -0.5c18.667 0 40 0.833008 64 2.5s46.667 3.83398 68 6.50098c7.33301 1.33301 13.5 1.16602 18.5 -0.500977s7.5 -7.16699 7.5 -16.5v-30c0 -8 -1.5 -14.167 -4.5 -18.5s-9.16699 -8.5 -18.5 -12.5c-23.333 -8.66699 -51.166 -14.5 -83.499 -17.5
s-62.166 -4.5 -89.499 -4.5s-51.833 2.5 -73.5 7.5s-40.167 13.333 -55.5 25s-27.166 27.167 -35.499 46.5s-12.5 43.333 -12.5 72zM378.999 359.005c0 17.333 -6.33105 29.8311 -18.998 37.498s-28.667 11.5 -48 11.5c-23.333 0 -42.833 -3.83301 -58.5 -11.5
s-28.334 -17.334 -38.001 -29.001s-17.334 -24.334 -23.001 -38.001s-10.167 -26.167 -13.5 -37.5l-5.5 -20.5c-1.66699 -6.33301 -3.16699 -10.833 -4.5 -13.5c18 0.666992 39 2.33398 63 5.00098s47 7.83398 69 15.501s40.5 17.834 55.5 30.501s22.5 29.334 22.5 50.001z
M263.001 741.003c5.33301 3.33301 9.83301 4.5 13.5 3.5s7.5 -4.16699 11.5 -9.5l102 -160c6.66699 -8.66699 5.66699 -15.334 -3 -20.001l-32 -18c-8.66699 -5.33301 -15.667 -4.66602 -21 2.00098l-124 150c-4 4.66699 -6.16699 9 -6.5 13s2.16699 7.33301 7.5 10z" />
    <glyph glyph-name="eacute" unicode="&#xe9;" horiz-adv-x="504" 
d="M40 143c0 21.333 1.99902 43.1709 5.99902 65.5039s8.66699 44.166 14 65.499c6 23.333 14.333 48.166 25 74.499s26.167 50.5 46.5 72.5s46.333 40.333 78 55s71.167 22 118.5 22c22 0 42.833 -2.66699 62.5 -8s37 -13.166 52 -23.499s27 -23.333 36 -39
s13.5 -33.834 13.5 -54.501c0 -40.667 -11.833 -73.5 -35.5 -98.5s-52.834 -44.5 -87.501 -58.5s-71.334 -23.5 -110.001 -28.5s-73 -7.83301 -103 -8.5c-3.33301 -15.333 -5 -28.333 -5 -39c0 -14.667 3 -25.834 9 -33.501s14 -13.334 24 -17.001s21.167 -5.66699 33.5 -6
s24.833 -0.5 37.5 -0.5c18.667 0 40 0.833008 64 2.5s46.667 3.83398 68 6.50098c7.33301 1.33301 13.5 1.16602 18.5 -0.500977s7.5 -7.16699 7.5 -16.5v-30c0 -8 -1.5 -14.167 -4.5 -18.5s-9.16699 -8.5 -18.5 -12.5c-23.333 -8.66699 -51.166 -14.5 -83.499 -17.5
s-62.166 -4.5 -89.499 -4.5s-51.833 2.5 -73.5 7.5s-40.167 13.333 -55.5 25s-27.166 27.167 -35.499 46.5s-12.5 43.333 -12.5 72zM378.999 359.005c0 17.333 -6.33105 29.8311 -18.998 37.498s-28.667 11.5 -48 11.5c-23.333 0 -42.833 -3.83301 -58.5 -11.5
s-28.334 -17.334 -38.001 -29.001s-17.334 -24.334 -23.001 -38.001s-10.167 -26.167 -13.5 -37.5l-5.5 -20.5c-1.66699 -6.33301 -3.16699 -10.833 -4.5 -13.5c18 0.666992 39 2.33398 63 5.00098s47 7.83398 69 15.501s40.5 17.834 55.5 30.501s22.5 29.334 22.5 50.001z
M463.001 709.003c5.33301 -2.66699 7.66699 -6 7 -10s-2.66699 -8.33301 -6 -13l-128 -139c-6.66699 -7.33301 -13.667 -9.33301 -21 -6l-33 18c-7.33301 4 -8 10.333 -2 19l109 155c6 8.66699 13.333 10.667 22 6z" />
    <glyph glyph-name="ecircumflex" unicode="&#xea;" horiz-adv-x="504" 
d="M40 143c0 21.333 1.99902 43.1709 5.99902 65.5039s8.66699 44.166 14 65.499c6 23.333 14.333 48.166 25 74.499s26.167 50.5 46.5 72.5s46.333 40.333 78 55s71.167 22 118.5 22c22 0 42.833 -2.66699 62.5 -8s37 -13.166 52 -23.499s27 -23.333 36 -39
s13.5 -33.834 13.5 -54.501c0 -40.667 -11.833 -73.5 -35.5 -98.5s-52.834 -44.5 -87.501 -58.5s-71.334 -23.5 -110.001 -28.5s-73 -7.83301 -103 -8.5c-3.33301 -15.333 -5 -28.333 -5 -39c0 -14.667 3 -25.834 9 -33.501s14 -13.334 24 -17.001s21.167 -5.66699 33.5 -6
s24.833 -0.5 37.5 -0.5c18.667 0 40 0.833008 64 2.5s46.667 3.83398 68 6.50098c7.33301 1.33301 13.5 1.16602 18.5 -0.500977s7.5 -7.16699 7.5 -16.5v-30c0 -8 -1.5 -14.167 -4.5 -18.5s-9.16699 -8.5 -18.5 -12.5c-23.333 -8.66699 -51.166 -14.5 -83.499 -17.5
s-62.166 -4.5 -89.499 -4.5s-51.833 2.5 -73.5 7.5s-40.167 13.333 -55.5 25s-27.166 27.167 -35.499 46.5s-12.5 43.333 -12.5 72zM378.999 359.005c0 17.333 -6.33105 29.8311 -18.998 37.498s-28.667 11.5 -48 11.5c-23.333 0 -42.833 -3.83301 -58.5 -11.5
s-28.334 -17.334 -38.001 -29.001s-17.334 -24.334 -23.001 -38.001s-10.167 -26.167 -13.5 -37.5l-5.5 -20.5c-1.66699 -6.33301 -3.16699 -10.833 -4.5 -13.5c18 0.666992 39 2.33398 63 5.00098s47 7.83398 69 15.501s40.5 17.834 55.5 30.501s22.5 29.334 22.5 50.001z
M209.001 536.003c-5.33301 -4 -9.49805 -5.99707 -12.498 -5.99707s-6.5 2 -10.5 6l-28 23c-3.33301 3.33301 -4.66602 6.16602 -3.99902 8.49902s3 5.83301 7 10.5l131 127c5.33301 5.33301 10.166 9 14.499 11s11.166 3 20.499 3h55c10.667 0 17.667 -0.833008 21 -2.5
s6.66602 -4.83398 9.99902 -9.50098l82 -132c6 -8.66699 5 -15.334 -3 -20.001l-30 -20c-8 -6.66699 -15 -6.66699 -21 0l-97 109z" />
    <glyph glyph-name="edieresis" unicode="&#xeb;" horiz-adv-x="504" 
d="M40 143c0 21.333 1.99902 43.1709 5.99902 65.5039s8.66699 44.166 14 65.499c6 23.333 14.333 48.166 25 74.499s26.167 50.5 46.5 72.5s46.333 40.333 78 55s71.167 22 118.5 22c22 0 42.833 -2.66699 62.5 -8s37 -13.166 52 -23.499s27 -23.333 36 -39
s13.5 -33.834 13.5 -54.501c0 -40.667 -11.833 -73.5 -35.5 -98.5s-52.834 -44.5 -87.501 -58.5s-71.334 -23.5 -110.001 -28.5s-73 -7.83301 -103 -8.5c-3.33301 -15.333 -5 -28.333 -5 -39c0 -14.667 3 -25.834 9 -33.501s14 -13.334 24 -17.001s21.167 -5.66699 33.5 -6
s24.833 -0.5 37.5 -0.5c18.667 0 40 0.833008 64 2.5s46.667 3.83398 68 6.50098c7.33301 1.33301 13.5 1.16602 18.5 -0.500977s7.5 -7.16699 7.5 -16.5v-30c0 -8 -1.5 -14.167 -4.5 -18.5s-9.16699 -8.5 -18.5 -12.5c-23.333 -8.66699 -51.166 -14.5 -83.499 -17.5
s-62.166 -4.5 -89.499 -4.5s-51.833 2.5 -73.5 7.5s-40.167 13.333 -55.5 25s-27.166 27.167 -35.499 46.5s-12.5 43.333 -12.5 72zM378.999 359.005c0 17.333 -6.33105 29.8311 -18.998 37.498s-28.667 11.5 -48 11.5c-23.333 0 -42.833 -3.83301 -58.5 -11.5
s-28.334 -17.334 -38.001 -29.001s-17.334 -24.334 -23.001 -38.001s-10.167 -26.167 -13.5 -37.5l-5.5 -20.5c-1.66699 -6.33301 -3.16699 -10.833 -4.5 -13.5c18 0.666992 39 2.33398 63 5.00098s47 7.83398 69 15.501s40.5 17.834 55.5 30.501s22.5 29.334 22.5 50.001z
M247.001 666.003c15.333 0 27.166 -2.5 35.499 -7.5s12.5 -13.833 12.5 -26.5c0 -20 -5.16699 -37.5 -15.5 -52.5s-28.166 -22.5 -53.499 -22.5c-30.667 0 -46 11.667 -46 35c0 21.333 4.83301 39 14.5 53s27.167 21 52.5 21zM442.001 666.003c15.333 0 27 -2.5 35 -7.5
s12 -13.833 12 -26.5c0 -20 -5 -37.5 -15 -52.5s-28 -22.5 -54 -22.5c-30.667 0 -46 11.667 -46 35c0 21.333 5 39 15 53s27.667 21 53 21z" />
    <glyph glyph-name="igrave" unicode="&#xec;" horiz-adv-x="252" 
d="M155 19c-1.33301 -12.667 -8.33301 -19 -21 -19h-71c-12.667 -0 -17.667 6.33301 -15 19l87 452c2.66699 12.667 10.667 19 24 19h70c7.33301 0 12 -1.83301 14 -5.5s2.33301 -8.16699 1 -13.5zM115 741c5.33301 3.33301 9.83301 4.5 13.5 3.5s7.5 -4.16699 11.5 -9.5
l102 -160c6.66699 -8.66699 5.66699 -15.334 -3 -20.001l-32 -18c-8.66699 -5.33301 -15.667 -4.66602 -21 2.00098l-124 150c-4 4.66699 -6.16699 9 -6.5 13s2.16699 7.33301 7.5 10z" />
    <glyph glyph-name="iacute" unicode="&#xed;" horiz-adv-x="242" 
d="M138 19c-1.33301 -12.667 -8.33301 -19 -21 -19h-71c-12.667 -0 -17.667 6.33301 -15 19l87 452c2.66699 12.667 10.667 19 24 19h70c7.33301 0 12 -1.83301 14 -5.5s2.33301 -8.16699 1 -13.5zM329 709c5.33301 -2.66699 7.66699 -6 7 -10s-2.66699 -8.33301 -6 -13
l-128 -139c-6.66699 -7.33301 -13.667 -9.33301 -21 -6l-33 18c-7.33301 4 -8 10.333 -2 19l109 155c6 8.66699 13.333 10.667 22 6z" />
    <glyph glyph-name="icircumflex" unicode="&#xee;" horiz-adv-x="277" 
d="M157 19c-1.33301 -12.667 -8.33301 -19 -21 -19h-71c-12.667 -0 -17.667 6.33301 -15 19l87 452c2.66699 12.667 10.667 19 24 19h70c7.33301 0 12 -1.83301 14 -5.5s2.33301 -8.16699 1 -13.5zM90 536c-5.33301 -4 -9.49805 -5.99707 -12.498 -5.99707s-6.5 2 -10.5 6
l-28 23c-3.33301 3.33301 -4.66602 6.16602 -3.99902 8.49902s3 5.83301 7 10.5l131 127c5.33301 5.33301 10.166 9 14.499 11s11.166 3 20.499 3h55c10.667 0 17.667 -0.833008 21 -2.5s6.66602 -4.83398 9.99902 -9.50098l82 -132c6 -8.66699 5 -15.334 -3 -20.001
l-30 -20c-8 -6.66699 -15 -6.66699 -21 0l-97 109z" />
    <glyph glyph-name="idieresis" unicode="&#xef;" horiz-adv-x="265" 
d="M154 19c-1.33301 -12.667 -8.33301 -19 -21 -19h-71c-12.667 -0 -17.667 6.33301 -15 19l87 452c2.66699 12.667 10.667 19 24 19h70c7.33301 0 12 -1.83301 14 -5.5s2.33301 -8.16699 1 -13.5zM122 666c15.333 0 27.166 -2.5 35.499 -7.5s12.5 -13.833 12.5 -26.5
c0 -20 -5.16699 -37.5 -15.5 -52.5s-28.166 -22.5 -53.499 -22.5c-30.667 0 -46 11.667 -46 35c0 21.333 4.83301 39 14.5 53s27.167 21 52.5 21zM317 666c15.333 0 27 -2.5 35 -7.5s12 -13.833 12 -26.5c0 -20 -5 -37.5 -15 -52.5s-28 -22.5 -54 -22.5
c-30.667 0 -46 11.667 -46 35c0 21.333 5 39 15 53s27.667 21 53 21z" />
    <glyph glyph-name="eth" unicode="&#xf0;" horiz-adv-x="520" 
d="M550 702c3.33301 -4 4.8291 -7.33105 4.49609 -9.99805s-3.16602 -6 -8.49902 -10l-58 -48c11.333 -18.667 19.166 -40.834 23.499 -66.501s6.5 -52.5 6.5 -80.5c0 -26 -1.66699 -52.5 -5 -79.5s-7 -52.833 -11 -77.5c-3.33301 -18.667 -6.83301 -36.834 -10.5 -54.501
s-7.83398 -35.167 -12.501 -52.5c-9.33301 -32 -20.666 -62.167 -33.999 -90.5s-30.166 -52.833 -50.499 -73.5s-45.166 -37 -74.499 -49s-64.333 -18 -105 -18c-36 0 -65.667 5 -89 15s-41.833 23 -55.5 39s-23 34 -28 54s-7.5 40 -7.5 60c0 12 0.666992 24.333 2 37
s3 24.334 5 35.001c4 22.667 10.833 47.5 20.5 74.5s23.834 52.333 42.501 76s42.834 43.5 72.501 59.5s66.5 24 110.5 24c12 0 24.167 -1.16699 36.5 -3.5s24.166 -5.66602 35.499 -9.99902s21.5 -9.33301 30.5 -15s15.833 -11.834 20.5 -18.501h2
c2 9.33301 3.5 20.666 4.5 33.999s1.5 26.666 1.5 39.999s-0.666992 26.333 -2 39s-4 23.334 -8 32.001l-56 -47c-7.33301 -6 -14 -6 -20 0l-20 22c-6.66699 6.66699 -6 13 2 19l55 46c-8.66699 6.66699 -19.834 11.167 -33.501 13.5s-28.5 3.5 -44.5 3.5
c-12 0 -23.667 -0.5 -35 -1.5s-23 -2.16699 -35 -3.5c-7.33301 0 -11.166 1.5 -11.499 4.5l-1.5 13.5l-2 40c-0.666992 9.33301 5.33301 16.333 18 21c16.667 5.33301 33.334 9.16602 50.001 11.499s33.334 3.5 50.001 3.5c23.333 0 45.833 -2.66699 67.5 -8
s41.167 -13.666 58.5 -24.999l57 47c4 3.33301 7.66699 5.5 11 6.5s6.66602 -0.833008 9.99902 -5.5zM360.996 227.002c2 11.333 3.66797 21.8311 5.00098 31.498s2 19.167 2 28.5c0 25.333 -6.16699 45.5 -18.5 60.5s-34.833 22.5 -67.5 22.5
c-39.333 0 -68.833 -12.667 -88.5 -38s-34.167 -61 -43.5 -107c-4 -20 -6 -38.667 -6 -56c0 -24 6 -43.333 18 -58s34.333 -22 67 -22c20.667 0 38.5 3.66699 53.5 11s27.667 17.333 38 30s18.666 27.334 24.999 44.001s11.5 34.334 15.5 53.001z" />
    <glyph glyph-name="ntilde" unicode="&#xf1;" horiz-adv-x="527" 
d="M204 440l1.99707 -0.00292969c10.667 6.66699 23.334 13.5 38.001 20.5s30 13.333 46 19s32.167 10.334 48.5 14.001s32.166 5.5 47.499 5.5c33.333 0 58.833 -5.16699 76.5 -15.5s29.834 -24.166 36.501 -41.499s9 -37.5 7 -60.5s-5.33301 -47.167 -10 -72.5l-56 -290
c-2 -12.667 -9.66699 -19 -23 -19h-72c-12 0 -16.667 6.33301 -14 19l55 281c3.33301 20 5 36.333 5 49s-2.16699 22.834 -6.5 30.501s-10.666 12.834 -18.999 15.501s-19.166 4 -32.499 4c-10 0 -22 -1.83301 -36 -5.5s-27.833 -7.83398 -41.5 -12.501
s-26.667 -9.66699 -39 -15l-28.5 -12l-66 -335c-1.33301 -12.667 -9 -19 -23 -19h-70c-12.667 -0 -17.667 6.33301 -15 19l88 452c1.33301 6.66699 3.5 11.5 6.5 14.5s8.16699 4.5 15.5 4.5h71c13.333 0 18.333 -6.33301 15 -19zM400.997 549.997
c-11.333 0 -23.335 2.66699 -36.002 8s-25.167 11.333 -37.5 18s-24.666 12.667 -36.999 18s-23.5 8 -33.5 8c-8.66699 0 -18 -2.33301 -28 -7s-21.667 -15.667 -35 -33c-4.66699 -5.33301 -9 -7.66602 -13 -6.99902s-8.66699 2.66699 -14 6l-23 16
c-2.66699 1.33301 -4 4 -4 8s0.666992 7.33301 2 10c19.333 35.333 40.333 58.833 63 70.5s44.667 17.5 66 17.5c13.333 0 26.5 -2.5 39.5 -7.5s25.5 -10.667 37.5 -17s23.667 -12 35 -17s22 -7.5 32 -7.5c20 0 39 12.333 57 37c6 9.33301 13 11.666 21 6.99902l29 -17
c6.66699 -4 7.66699 -10.333 3 -19c-18.667 -34 -38.167 -57.833 -58.5 -71.5s-42.166 -20.5 -65.499 -20.5z" />
    <glyph glyph-name="ograve" unicode="&#xf2;" horiz-adv-x="522" 
d="M302 500c64.667 0 112.502 -14.1699 143.502 -42.5029s46.5 -70.166 46.5 -125.499c0 -13.333 -0.833008 -26.666 -2.5 -39.999s-3.83398 -26.333 -6.50098 -39c-6 -34.667 -14 -67.834 -24 -99.501s-24.333 -59.5 -43 -83.5s-43.167 -43 -73.5 -57
s-69.166 -21 -116.499 -21c-66 0 -113.5 15 -142.5 45s-43.5 72.333 -43.5 127c0 15.333 0.833008 30.333 2.5 45s4.16699 29.334 7.5 44.001c6 30.667 14.167 60.834 24.5 90.501s25.166 56.167 44.499 79.5s43.666 42 72.999 56s66 21 110 21zM293.002 403.997
c-23.333 0 -42.666 -4.16602 -57.999 -12.499s-27.833 -19.5 -37.5 -33.5s-17.334 -30.667 -23.001 -50s-10.5 -40 -14.5 -62c-2.66699 -13.333 -4.83398 -26.333 -6.50098 -39s-2.5 -25 -2.5 -37c0 -30 6.5 -51.167 19.5 -63.5s33.833 -18.5 62.5 -18.5
c24.667 0 44.834 3.83301 60.501 11.5s28.5 18.5 38.5 32.5s18 30.667 24 50s11 40.666 15 63.999c2.66699 13.333 4.83398 26.333 6.50098 39s2.5 25 2.5 37c0 30.667 -7.33301 52 -22 64s-36.334 18 -65.001 18zM257.002 740.998c5.33301 3.33301 9.83301 4.5 13.5 3.5
s7.5 -4.16699 11.5 -9.5l102 -160c6.66699 -8.66699 5.66699 -15.334 -3 -20.001l-32 -18c-8.66699 -5.33301 -15.667 -4.66602 -21 2.00098l-124 150c-4 4.66699 -6.16699 9 -6.5 13s2.16699 7.33301 7.5 10z" />
    <glyph glyph-name="oacute" unicode="&#xf3;" horiz-adv-x="522" 
d="M302 500c64.667 0 112.502 -14.1699 143.502 -42.5029s46.5 -70.166 46.5 -125.499c0 -13.333 -0.833008 -26.666 -2.5 -39.999s-3.83398 -26.333 -6.50098 -39c-6 -34.667 -14 -67.834 -24 -99.501s-24.333 -59.5 -43 -83.5s-43.167 -43 -73.5 -57
s-69.166 -21 -116.499 -21c-66 0 -113.5 15 -142.5 45s-43.5 72.333 -43.5 127c0 15.333 0.833008 30.333 2.5 45s4.16699 29.334 7.5 44.001c6 30.667 14.167 60.834 24.5 90.501s25.166 56.167 44.499 79.5s43.666 42 72.999 56s66 21 110 21zM293.002 403.997
c-23.333 0 -42.666 -4.16602 -57.999 -12.499s-27.833 -19.5 -37.5 -33.5s-17.334 -30.667 -23.001 -50s-10.5 -40 -14.5 -62c-2.66699 -13.333 -4.83398 -26.333 -6.50098 -39s-2.5 -25 -2.5 -37c0 -30 6.5 -51.167 19.5 -63.5s33.833 -18.5 62.5 -18.5
c24.667 0 44.834 3.83301 60.501 11.5s28.5 18.5 38.5 32.5s18 30.667 24 50s11 40.666 15 63.999c2.66699 13.333 4.83398 26.333 6.50098 39s2.5 25 2.5 37c0 30.667 -7.33301 52 -22 64s-36.334 18 -65.001 18zM468.002 708.998c5.33301 -2.66699 7.66699 -6 7 -10
s-2.66699 -8.33301 -6 -13l-128 -139c-6.66699 -7.33301 -13.667 -9.33301 -21 -6l-33 18c-7.33301 4 -8 10.333 -2 19l109 155c6 8.66699 13.333 10.667 22 6z" />
    <glyph glyph-name="ocircumflex" unicode="&#xf4;" horiz-adv-x="522" 
d="M302 500c64.667 0 112.502 -14.1699 143.502 -42.5029s46.5 -70.166 46.5 -125.499c0 -13.333 -0.833008 -26.666 -2.5 -39.999s-3.83398 -26.333 -6.50098 -39c-6 -34.667 -14 -67.834 -24 -99.501s-24.333 -59.5 -43 -83.5s-43.167 -43 -73.5 -57
s-69.166 -21 -116.499 -21c-66 0 -113.5 15 -142.5 45s-43.5 72.333 -43.5 127c0 15.333 0.833008 30.333 2.5 45s4.16699 29.334 7.5 44.001c6 30.667 14.167 60.834 24.5 90.501s25.166 56.167 44.499 79.5s43.666 42 72.999 56s66 21 110 21zM293.002 403.997
c-23.333 0 -42.666 -4.16602 -57.999 -12.499s-27.833 -19.5 -37.5 -33.5s-17.334 -30.667 -23.001 -50s-10.5 -40 -14.5 -62c-2.66699 -13.333 -4.83398 -26.333 -6.50098 -39s-2.5 -25 -2.5 -37c0 -30 6.5 -51.167 19.5 -63.5s33.833 -18.5 62.5 -18.5
c24.667 0 44.834 3.83301 60.501 11.5s28.5 18.5 38.5 32.5s18 30.667 24 50s11 40.666 15 63.999c2.66699 13.333 4.83398 26.333 6.50098 39s2.5 25 2.5 37c0 30.667 -7.33301 52 -22 64s-36.334 18 -65.001 18zM212.002 535.998
c-5.33301 -4 -9.49805 -5.99707 -12.498 -5.99707s-6.5 2 -10.5 6l-28 23c-3.33301 3.33301 -4.66602 6.16602 -3.99902 8.49902s3 5.83301 7 10.5l131 127c5.33301 5.33301 10.166 9 14.499 11s11.166 3 20.499 3h55c10.667 0 17.667 -0.833008 21 -2.5
s6.66602 -4.83398 9.99902 -9.50098l82 -132c6 -8.66699 5 -15.334 -3 -20.001l-30 -20c-8 -6.66699 -15 -6.66699 -21 0l-97 109z" />
    <glyph glyph-name="otilde" unicode="&#xf5;" horiz-adv-x="522" 
d="M302 500c64.667 0 112.502 -14.1699 143.502 -42.5029s46.5 -70.166 46.5 -125.499c0 -13.333 -0.833008 -26.666 -2.5 -39.999s-3.83398 -26.333 -6.50098 -39c-6 -34.667 -14 -67.834 -24 -99.501s-24.333 -59.5 -43 -83.5s-43.167 -43 -73.5 -57
s-69.166 -21 -116.499 -21c-66 0 -113.5 15 -142.5 45s-43.5 72.333 -43.5 127c0 15.333 0.833008 30.333 2.5 45s4.16699 29.334 7.5 44.001c6 30.667 14.167 60.834 24.5 90.501s25.166 56.167 44.499 79.5s43.666 42 72.999 56s66 21 110 21zM293.002 403.997
c-23.333 0 -42.666 -4.16602 -57.999 -12.499s-27.833 -19.5 -37.5 -33.5s-17.334 -30.667 -23.001 -50s-10.5 -40 -14.5 -62c-2.66699 -13.333 -4.83398 -26.333 -6.50098 -39s-2.5 -25 -2.5 -37c0 -30 6.5 -51.167 19.5 -63.5s33.833 -18.5 62.5 -18.5
c24.667 0 44.834 3.83301 60.501 11.5s28.5 18.5 38.5 32.5s18 30.667 24 50s11 40.666 15 63.999c2.66699 13.333 4.83398 26.333 6.50098 39s2.5 25 2.5 37c0 30.667 -7.33301 52 -22 64s-36.334 18 -65.001 18zM404.002 549.998c-11.333 0 -23.335 2.66699 -36.002 8
s-25.167 11.333 -37.5 18s-24.666 12.667 -36.999 18s-23.5 8 -33.5 8c-8.66699 0 -18 -2.33301 -28 -7s-21.667 -15.667 -35 -33c-4.66699 -5.33301 -9 -7.66602 -13 -6.99902s-8.66699 2.66699 -14 6l-23 16c-2.66699 1.33301 -4 4 -4 8s0.666992 7.33301 2 10
c19.333 35.333 40.333 58.833 63 70.5s44.667 17.5 66 17.5c13.333 0 26.5 -2.5 39.5 -7.5s25.5 -10.667 37.5 -17s23.667 -12 35 -17s22 -7.5 32 -7.5c20 0 39 12.333 57 37c6 9.33301 13 11.666 21 6.99902l29 -17c6.66699 -4 7.66699 -10.333 3 -19
c-18.667 -34 -38.167 -57.833 -58.5 -71.5s-42.166 -20.5 -65.499 -20.5z" />
    <glyph glyph-name="odieresis" unicode="&#xf6;" horiz-adv-x="522" 
d="M302 500c64.667 0 112.502 -14.1699 143.502 -42.5029s46.5 -70.166 46.5 -125.499c0 -13.333 -0.833008 -26.666 -2.5 -39.999s-3.83398 -26.333 -6.50098 -39c-6 -34.667 -14 -67.834 -24 -99.501s-24.333 -59.5 -43 -83.5s-43.167 -43 -73.5 -57
s-69.166 -21 -116.499 -21c-66 0 -113.5 15 -142.5 45s-43.5 72.333 -43.5 127c0 15.333 0.833008 30.333 2.5 45s4.16699 29.334 7.5 44.001c6 30.667 14.167 60.834 24.5 90.501s25.166 56.167 44.499 79.5s43.666 42 72.999 56s66 21 110 21zM293.002 403.997
c-23.333 0 -42.666 -4.16602 -57.999 -12.499s-27.833 -19.5 -37.5 -33.5s-17.334 -30.667 -23.001 -50s-10.5 -40 -14.5 -62c-2.66699 -13.333 -4.83398 -26.333 -6.50098 -39s-2.5 -25 -2.5 -37c0 -30 6.5 -51.167 19.5 -63.5s33.833 -18.5 62.5 -18.5
c24.667 0 44.834 3.83301 60.501 11.5s28.5 18.5 38.5 32.5s18 30.667 24 50s11 40.666 15 63.999c2.66699 13.333 4.83398 26.333 6.50098 39s2.5 25 2.5 37c0 30.667 -7.33301 52 -22 64s-36.334 18 -65.001 18zM248.002 665.998c15.333 0 27.166 -2.5 35.499 -7.5
s12.5 -13.833 12.5 -26.5c0 -20 -5.16699 -37.5 -15.5 -52.5s-28.166 -22.5 -53.499 -22.5c-30.667 0 -46 11.667 -46 35c0 21.333 4.83301 39 14.5 53s27.167 21 52.5 21zM443.002 665.998c15.333 0 27 -2.5 35 -7.5s12 -13.833 12 -26.5c0 -20 -5 -37.5 -15 -52.5
s-28 -22.5 -54 -22.5c-30.667 0 -46 11.667 -46 35c0 21.333 5 39 15 53s27.667 21 53 21z" />
    <glyph glyph-name="divide" unicode="&#xf7;" horiz-adv-x="572" 
d="M93 284c-11.333 0 -16 5.33301 -14 16l10 51c2.66699 10.667 9.66699 16 21 16h383c10.667 0 15 -5.33301 13 -16l-10 -51c-2 -10.667 -8.66699 -16 -20 -16h-383zM310 424c-13.333 0 -23.6689 1.66797 -31.002 5.00098s-12.5 7.66602 -15.5 12.999
s-4.33301 11.666 -4 18.999s1.16602 15 2.49902 23c3.33301 16.667 9.83301 30.334 19.5 41.001s26.834 16 51.501 16s39.834 -5.16699 45.501 -15.5s6.83398 -24.166 3.50098 -41.499c-3.33301 -16.667 -9.83301 -30.834 -19.5 -42.501s-27.167 -17.5 -52.5 -17.5z
M246.997 102.001c-13.333 0 -23.4961 1.66504 -30.4961 4.99805s-12 7.83301 -15 13.5s-4.33301 12 -4 19s1.16602 14.5 2.49902 22.5c3.33301 16.667 9.66602 30.5 18.999 41.5s26.333 16.5 51 16.5c25.333 0 40.666 -5.16699 45.999 -15.5s6.33301 -24.5 3 -42.5
c-1.33301 -8 -3.5 -15.667 -6.5 -23s-7.16699 -13.666 -12.5 -18.999s-12.333 -9.66602 -21 -12.999s-19.334 -5 -32.001 -5z" />
    <glyph glyph-name="oslash" unicode="&#xf8;" horiz-adv-x="522" 
d="M302 500c60.667 0 107.334 -13.3359 140.001 -40.0029l40 42c3.33301 3.33301 6.16602 5.5 8.49902 6.5s5.83301 -0.5 10.5 -4.5l16 -15c4.66699 -4 6.83398 -7 6.50098 -9s-2.16602 -4.66699 -5.49902 -8l-47 -49c14 -25.333 21 -55.666 21 -90.999
c0 -13.333 -0.833008 -26.666 -2.5 -39.999s-3.83398 -26.333 -6.50098 -39c-6 -34.667 -14 -67.834 -24 -99.501s-24.333 -59.5 -43 -83.5s-43.167 -43 -73.5 -57s-69.166 -21 -116.499 -21c-56.667 0 -100.334 11.667 -131.001 35l-31 -33
c-3.33301 -3.33301 -6 -5.5 -8 -6.5s-5.33301 0.5 -10 4.5l-17 15c-3.33301 3.33301 -4.66602 6.33301 -3.99902 9s2.66699 5.66699 6 9l34 36c-16.667 26.667 -25 61 -25 103c0 15.333 0.833008 30.333 2.5 45s4.16699 29.334 7.5 44.001
c6 30.667 14.167 60.834 24.5 90.501s25.166 56.167 44.499 79.5s43.666 42 72.999 56s66 21 110 21zM293 403.997c-23.333 0 -42.665 -4.16699 -57.998 -12.5s-27.833 -19.5 -37.5 -33.5s-17.334 -30.667 -23.001 -50s-10.5 -40 -14.5 -62
c-2.66699 -13.333 -4.83398 -26.333 -6.50098 -39s-2.5 -25 -2.5 -37v-18l214 226c-14.667 17.333 -38.667 26 -72 26zM371.001 245.997c2.66699 13.333 4.83203 26.334 6.49902 39.001s2.5 25 2.5 37v5l-210 -221c12.667 -12 33.667 -18 63 -18
c24.667 0 44.834 3.83301 60.501 11.5s28.5 18.5 38.5 32.5s18 30.667 24 50s11 40.666 15 63.999z" />
    <glyph glyph-name="ugrave" unicode="&#xf9;" horiz-adv-x="529" 
d="M441 19c-2 -12.667 -9.33984 -19.001 -22.0068 -19.001h-71c-7.33301 0 -12.166 1.66699 -14.499 5s-2.83301 8 -1.5 14l6 31l-1 1c-11.333 -6.66699 -24.166 -13.5 -38.499 -20.5s-29.5 -13.5 -45.5 -19.5s-32.167 -10.833 -48.5 -14.5s-32.166 -5.5 -47.499 -5.5
c-34 0 -59.833 4.66699 -77.5 14s-30 22.333 -37 39s-9.66699 36.334 -8 59.001s5.16699 47 10.5 73l57 294c2 13.333 9.66699 20 23 20h73c12.667 0 17.334 -6.66699 14.001 -20l-55 -281c-2.66699 -15.333 -4.16699 -29 -4.5 -41s1.16699 -22.167 4.5 -30.5
s9.33301 -14.833 18 -19.5s20.667 -7 36 -7c10.667 0 22.834 1.66699 36.501 5s27.334 7.5 41.001 12.5s26.334 10 38.001 15l28.5 12.5l65 334c2 13.333 9.66699 20 23 20h71c13.333 0 18.333 -6.66699 15 -20zM248.993 740.999c5.33301 3.33301 9.83301 4.5 13.5 3.5
s7.5 -4.16699 11.5 -9.5l102 -160c6.66699 -8.66699 5.66699 -15.334 -3 -20.001l-32 -18c-8.66699 -5.33301 -15.667 -4.66602 -21 2.00098l-124 150c-4 4.66699 -6.16699 9 -6.5 13s2.16699 7.33301 7.5 10z" />
    <glyph glyph-name="uacute" unicode="&#xfa;" horiz-adv-x="529" 
d="M441 19c-2 -12.667 -9.33984 -19.001 -22.0068 -19.001h-71c-7.33301 0 -12.166 1.66699 -14.499 5s-2.83301 8 -1.5 14l6 31l-1 1c-11.333 -6.66699 -24.166 -13.5 -38.499 -20.5s-29.5 -13.5 -45.5 -19.5s-32.167 -10.833 -48.5 -14.5s-32.166 -5.5 -47.499 -5.5
c-34 0 -59.833 4.66699 -77.5 14s-30 22.333 -37 39s-9.66699 36.334 -8 59.001s5.16699 47 10.5 73l57 294c2 13.333 9.66699 20 23 20h73c12.667 0 17.334 -6.66699 14.001 -20l-55 -281c-2.66699 -15.333 -4.16699 -29 -4.5 -41s1.16699 -22.167 4.5 -30.5
s9.33301 -14.833 18 -19.5s20.667 -7 36 -7c10.667 0 22.834 1.66699 36.501 5s27.334 7.5 41.001 12.5s26.334 10 38.001 15l28.5 12.5l65 334c2 13.333 9.66699 20 23 20h71c13.333 0 18.333 -6.66699 15 -20zM466.993 708.999c5.33301 -2.66699 7.66699 -6 7 -10
s-2.66699 -8.33301 -6 -13l-128 -139c-6.66699 -7.33301 -13.667 -9.33301 -21 -6l-33 18c-7.33301 4 -8 10.333 -2 19l109 155c6 8.66699 13.333 10.667 22 6z" />
    <glyph glyph-name="ucircumflex" unicode="&#xfb;" horiz-adv-x="529" 
d="M441 19c-2 -12.667 -9.33984 -19.001 -22.0068 -19.001h-71c-7.33301 0 -12.166 1.66699 -14.499 5s-2.83301 8 -1.5 14l6 31l-1 1c-11.333 -6.66699 -24.166 -13.5 -38.499 -20.5s-29.5 -13.5 -45.5 -19.5s-32.167 -10.833 -48.5 -14.5s-32.166 -5.5 -47.499 -5.5
c-34 0 -59.833 4.66699 -77.5 14s-30 22.333 -37 39s-9.66699 36.334 -8 59.001s5.16699 47 10.5 73l57 294c2 13.333 9.66699 20 23 20h73c12.667 0 17.334 -6.66699 14.001 -20l-55 -281c-2.66699 -15.333 -4.16699 -29 -4.5 -41s1.16699 -22.167 4.5 -30.5
s9.33301 -14.833 18 -19.5s20.667 -7 36 -7c10.667 0 22.834 1.66699 36.501 5s27.334 7.5 41.001 12.5s26.334 10 38.001 15l28.5 12.5l65 334c2 13.333 9.66699 20 23 20h71c13.333 0 18.333 -6.66699 15 -20zM213.993 535.999
c-5.33301 -4 -9.49805 -5.99707 -12.498 -5.99707s-6.5 2 -10.5 6l-28 23c-3.33301 3.33301 -4.66602 6.16602 -3.99902 8.49902s3 5.83301 7 10.5l131 127c5.33301 5.33301 10.166 9 14.499 11s11.166 3 20.499 3h55c10.667 0 17.667 -0.833008 21 -2.5
s6.66602 -4.83398 9.99902 -9.50098l82 -132c6 -8.66699 5 -15.334 -3 -20.001l-30 -20c-8 -6.66699 -15 -6.66699 -21 0l-97 109z" />
    <glyph glyph-name="udieresis" unicode="&#xfc;" horiz-adv-x="529" 
d="M441 19c-2 -12.667 -9.33984 -19.001 -22.0068 -19.001h-71c-7.33301 0 -12.166 1.66699 -14.499 5s-2.83301 8 -1.5 14l6 31l-1 1c-11.333 -6.66699 -24.166 -13.5 -38.499 -20.5s-29.5 -13.5 -45.5 -19.5s-32.167 -10.833 -48.5 -14.5s-32.166 -5.5 -47.499 -5.5
c-34 0 -59.833 4.66699 -77.5 14s-30 22.333 -37 39s-9.66699 36.334 -8 59.001s5.16699 47 10.5 73l57 294c2 13.333 9.66699 20 23 20h73c12.667 0 17.334 -6.66699 14.001 -20l-55 -281c-2.66699 -15.333 -4.16699 -29 -4.5 -41s1.16699 -22.167 4.5 -30.5
s9.33301 -14.833 18 -19.5s20.667 -7 36 -7c10.667 0 22.834 1.66699 36.501 5s27.334 7.5 41.001 12.5s26.334 10 38.001 15l28.5 12.5l65 334c2 13.333 9.66699 20 23 20h71c13.333 0 18.333 -6.66699 15 -20zM255.993 665.999c15.333 0 27.166 -2.5 35.499 -7.5
s12.5 -13.833 12.5 -26.5c0 -20 -5.16699 -37.5 -15.5 -52.5s-28.166 -22.5 -53.499 -22.5c-30.667 0 -46 11.667 -46 35c0 21.333 4.83301 39 14.5 53s27.167 21 52.5 21zM450.993 665.999c15.333 0 27 -2.5 35 -7.5s12 -13.833 12 -26.5c0 -20 -5 -37.5 -15 -52.5
s-28 -22.5 -54 -22.5c-30.667 0 -46 11.667 -46 35c0 21.333 5 39 15 53s27.667 21 53 21z" />
    <glyph glyph-name="yacute" unicode="&#xfd;" horiz-adv-x="489" 
d="M227 140l32.001 58l26 47l23 44l98 184c3.33301 6 6.83301 10.333 10.5 13s9.16699 4 16.5 4h79c8 0 12 -2 12 -6s-1.66699 -8.66699 -5 -14l-357 -636c-3.33301 -6.66699 -7 -11.334 -11 -14.001s-10.333 -4 -19 -4h-68c-8 0 -12.167 2 -12.5 6s1.16699 8.66699 4.5 14
l96 169l-85 465c-1.33301 5.33301 -1 10 1 14s6.66699 6 14 6h72c6.66699 0 11.167 -0.666992 13.5 -2s4.16602 -5.66602 5.49902 -12.999l29 -186l21 -149h4zM450.001 709c5.33301 -2.66699 7.66699 -6 7 -10s-2.66699 -8.33301 -6 -13l-128 -139
c-6.66699 -7.33301 -13.667 -9.33301 -21 -6l-33 18c-7.33301 4 -8 10.333 -2 19l109 155c6 8.66699 13.333 10.667 22 6z" />
    <glyph glyph-name="thorn" unicode="&#xfe;" horiz-adv-x="524" 
d="M388 498c43.333 0 74.167 -13 92.5 -39s27.5 -61.667 27.5 -107c0 -7.33301 -0.5 -16.5 -1.5 -27.5s-2.16699 -22.833 -3.5 -35.5s-3.16602 -25.334 -5.49902 -38.001l-6.5 -35c-7.33301 -36 -16.666 -68 -27.999 -96s-26.333 -51.5 -45 -70.5
s-41.334 -33.5 -68.001 -43.5s-59 -15 -97 -15c-16.667 0 -36.334 1.66699 -59.001 5s-44.667 9 -66 17v-1l-18 -87.5c-6 -29 -11.667 -58.5 -17 -88.5c-1.33301 -5.33301 -3.5 -10 -6.5 -14s-8.5 -6 -16.5 -6h-70c-10 0 -15 3.66699 -15 11c0 4 0.333008 7 1 9l22.5 118.5
l26.5 137.5l28.5 147.5l28.5 147.5l26.5 137.5l22.5 118.5c3.33301 13.333 11 20 23 20h71c8.66699 0 13.667 -2 15 -6s1.33301 -8.66699 0 -14l-40 -205c0.666992 0.666992 1.33398 1 2.00098 1c10 6.66699 22 13.5 36 20.5s28.833 13.333 44.5 19s31.667 10.334 48 14.001
s32.166 5.5 47.499 5.5zM337.001 398c-10 0 -21.6641 -1.66992 -34.9971 -5.00293s-26.5 -7.16602 -39.5 -11.499s-25.667 -9.16602 -38 -14.499s-22.5 -10 -30.5 -14c-8.66699 -42 -16.834 -83.667 -24.501 -125s-15.834 -83 -24.501 -125c22 -6.66699 42 -11.167 60 -13.5
s37.333 -3.5 58 -3.5c19.333 0 35.833 4.16699 49.5 12.5s25.167 19.833 34.5 34.5s17 31.834 23 51.501s11 41.167 15 64.5c2.66699 14 4.66699 28 6 42s2.33301 26 3 36c0 28.667 -4.33301 47.667 -13 57s-23.334 14 -44.001 14z" />
    <glyph glyph-name="ydieresis" unicode="&#xff;" horiz-adv-x="489" 
d="M227 140l32.001 58l26 47l23 44l98 184c3.33301 6 6.83301 10.333 10.5 13s9.16699 4 16.5 4h79c8 0 12 -2 12 -6s-1.66699 -8.66699 -5 -14l-357 -636c-3.33301 -6.66699 -7 -11.334 -11 -14.001s-10.333 -4 -19 -4h-68c-8 0 -12.167 2 -12.5 6s1.16699 8.66699 4.5 14
l96 169l-85 465c-1.33301 5.33301 -1 10 1 14s6.66699 6 14 6h72c6.66699 0 11.167 -0.666992 13.5 -2s4.16602 -5.66602 5.49902 -12.999l29 -186l21 -149h4zM232.001 666c15.333 0 27.166 -2.5 35.499 -7.5s12.5 -13.833 12.5 -26.5c0 -20 -5.16699 -37.5 -15.5 -52.5
s-28.166 -22.5 -53.499 -22.5c-30.667 0 -46 11.667 -46 35c0 21.333 4.83301 39 14.5 53s27.167 21 52.5 21zM427.001 666c15.333 0 27 -2.5 35 -7.5s12 -13.833 12 -26.5c0 -20 -5 -37.5 -15 -52.5s-28 -22.5 -54 -22.5c-30.667 0 -46 11.667 -46 35c0 21.333 5 39 15 53
s27.667 21 53 21z" />
    <glyph glyph-name="Amacron" unicode="&#x100;" horiz-adv-x="577" 
d="M524 15c0 -10 -4.33008 -14.9971 -12.9971 -14.9971h-82c-7.33301 0 -12.333 1.5 -15 4.5s-4.33398 8.16699 -5.00098 15.5l-16 145h-224l-71 -144c-4 -8.66699 -8.33301 -14.334 -13 -17.001s-10.667 -4 -18 -4h-80c-8 0 -12 2.33301 -12 7
c0 3.33301 1.33301 7.66602 4 12.999l320 622c3.33301 7.33301 7.16602 12.666 11.499 15.999s11.166 5 20.499 5h85c10 0 16.333 -1.83301 19 -5.5s4.66699 -9.16699 6 -16.5l83 -623v-3zM242.003 725.003c-11.333 0 -15.667 5.33301 -13 16l9 52
c1.33301 6.66699 3.83301 11 7.5 13s8.16699 3 13.5 3h274c6 0 10 -1 12 -3s2.33301 -6.33301 1 -13l-10 -52c-2 -10.667 -8.66699 -16 -20 -16h-274zM384.002 258.003c-0.666992 7.33301 -2.16895 22.998 -4.50195 46.998s-5.16602 48.667 -8.49902 74l-9 88.5
c-2.66699 27 -4.33398 52.167 -5.00098 75.5h-4c-9.33301 -18.667 -20.166 -41.667 -32.499 -69s-25.166 -53.666 -38.499 -78.999c-6 -13.333 -12.667 -27.166 -20 -41.499l-20.5 -40.5l-17 -34l-10.5 -21h170z" />
    <glyph glyph-name="amacron" unicode="&#x101;" horiz-adv-x="535" 
d="M434 19c-2 -12.667 -9.33105 -18.999 -21.998 -18.999h-71c-8 0 -12.833 1.5 -14.5 4.5s-1.83398 7.5 -0.500977 13.5l7 33h-1c-26.667 -16.667 -53.834 -30.667 -81.501 -42s-57.5 -17 -89.5 -17c-47.333 0 -80.5 12 -99.5 36s-28.5 58 -28.5 102
c0 16 1.33301 33.167 4 51.5s5.66699 37.166 9 56.499c8 40 17.5 76 28.5 108s25.5 59 43.5 81s39.833 39 65.5 51s56.834 18 93.501 18c18 0 39.167 -2.83301 63.5 -8.5s48.166 -14.5 71.499 -26.5l4 15c1.33301 6 3.5 9.83301 6.5 11.5s8.16699 2.5 15.5 2.5h68
c8 0 13 -1.66699 15 -5s2.33301 -8.33301 1 -15zM395.002 373.001c-39.333 16 -77.999 24 -115.999 24c-18 -0.666992 -33.333 -3.83398 -46 -9.50098s-23.667 -14.667 -33 -27s-17.333 -28.333 -24 -48s-12.667 -43.834 -18 -72.501c-3.33301 -18 -6 -34.167 -8 -48.5
s-3 -26.166 -3 -35.499c0 -27.333 5 -45.166 15 -53.499s24.667 -12.5 44 -12.5c10 0 21.5 1.66699 34.5 5s26.167 7.33301 39.5 12s26.166 9.5 38.499 14.5s22.5 9.5 30.5 13.5zM200.003 576.001c-12 0 -16.668 5.33301 -14.001 16l10 52
c2.66699 11.333 9.33398 17 20.001 17h274c11.333 0 16 -5.33301 14 -16l-11 -53c-2 -10.667 -8.33301 -16 -19 -16h-274z" />
    <glyph glyph-name="Abreve" unicode="&#x102;" horiz-adv-x="577" 
d="M524 15c0 -10 -4.33008 -14.9971 -12.9971 -14.9971h-82c-7.33301 0 -12.333 1.5 -15 4.5s-4.33398 8.16699 -5.00098 15.5l-16 145h-224l-71 -144c-4 -8.66699 -8.33301 -14.334 -13 -17.001s-10.667 -4 -18 -4h-80c-8 0 -12 2.33301 -12 7
c0 3.33301 1.33301 7.66602 4 12.999l320 622c3.33301 7.33301 7.16602 12.666 11.499 15.999s11.166 5 20.499 5h85c10 0 16.333 -1.83301 19 -5.5s4.66699 -9.16699 6 -16.5l83 -623v-3zM377.003 702.003c-32.667 0 -63.1689 8 -91.502 24s-48.166 41.333 -59.499 76
c-1.33301 5.33301 -2.5 11 -3.5 17s1.83301 11.333 8.5 16l31 21c6 3.33301 10.667 4.66602 14 3.99902s6.66602 -3.66699 9.99902 -9c14 -21.333 28.333 -37.666 43 -48.999s34.334 -17 59.001 -17c23.333 0 44 5.66699 62 17s38.667 28 62 50
c10.667 9.33301 19.334 11 26.001 5l26 -19c5.33301 -4 6.33301 -9.5 3 -16.5s-7.33301 -13.167 -12 -18.5c-24 -34.667 -52 -60.167 -84 -76.5s-63.333 -24.5 -94 -24.5zM384.001 258.003c-0.666992 7.33301 -2.16895 22.998 -4.50195 46.998s-5.16602 48.667 -8.49902 74
l-9 88.5c-2.66699 27 -4.33398 52.167 -5.00098 75.5h-4c-9.33301 -18.667 -20.166 -41.667 -32.499 -69s-25.166 -53.666 -38.499 -78.999c-6 -13.333 -12.667 -27.166 -20 -41.499l-20.5 -40.5l-17 -34l-10.5 -21h170z" />
    <glyph glyph-name="abreve" unicode="&#x103;" horiz-adv-x="535" 
d="M434 19c-2 -12.667 -9.33105 -18.999 -21.998 -18.999h-71c-8 0 -12.833 1.5 -14.5 4.5s-1.83398 7.5 -0.500977 13.5l7 33h-1c-26.667 -16.667 -53.834 -30.667 -81.501 -42s-57.5 -17 -89.5 -17c-47.333 0 -80.5 12 -99.5 36s-28.5 58 -28.5 102
c0 16 1.33301 33.167 4 51.5s5.66699 37.166 9 56.499c8 40 17.5 76 28.5 108s25.5 59 43.5 81s39.833 39 65.5 51s56.834 18 93.501 18c18 0 39.167 -2.83301 63.5 -8.5s48.166 -14.5 71.499 -26.5l4 15c1.33301 6 3.5 9.83301 6.5 11.5s8.16699 2.5 15.5 2.5h68
c8 0 13 -1.66699 15 -5s2.33301 -8.33301 1 -15zM395.002 373.001c-39.333 16 -77.999 24 -115.999 24c-18 -0.666992 -33.333 -3.83398 -46 -9.50098s-23.667 -14.667 -33 -27s-17.333 -28.333 -24 -48s-12.667 -43.834 -18 -72.501c-3.33301 -18 -6 -34.167 -8 -48.5
s-3 -26.166 -3 -35.499c0 -27.333 5 -45.166 15 -53.499s24.667 -12.5 44 -12.5c10 0 21.5 1.66699 34.5 5s26.167 7.33301 39.5 12s26.166 9.5 38.499 14.5s22.5 9.5 30.5 13.5zM336.003 536.001c-16 0 -31.9961 2.00195 -47.9961 6.00195s-30.833 10 -44.5 18
s-25.834 18.333 -36.501 31s-18.667 27.667 -24 45c-2 5.33301 -3.5 11.166 -4.5 17.499s1.83301 11.833 8.5 16.5l32 21c5.33301 3.33301 9.66602 4.66602 12.999 3.99902s6.66602 -3.66699 9.99902 -9c14.667 -21.333 29.334 -37.833 44.001 -49.5
s34.334 -17.5 59.001 -17.5c22.667 0 43.167 5.66699 61.5 17s39.166 28 62.499 50c5.33301 5.33301 9.66602 8.5 12.999 9.5s7.66602 -0.166992 12.999 -3.5l29 -21c5.33301 -4 6.33301 -9.5 3 -16.5s-7 -13.167 -11 -18.5c-24.667 -34.667 -53.167 -60 -85.5 -76
s-63.833 -24 -94.5 -24z" />
    <glyph glyph-name="Aogonek" unicode="&#x104;" horiz-adv-x="577" 
d="M524 15c0 -10 -4.33105 -14.998 -12.998 -14.998h-21c-34.667 -40 -52 -73.667 -52 -101c0 -11.333 3.66699 -19.166 11 -23.499s16.666 -6.5 27.999 -6.5c8.66699 0 17.334 0.833008 26.001 2.5s17.667 3.5 27 5.5c7.33301 2 11.333 0.333008 12 -5l6 -30
c0 -5.33301 -1 -9 -3 -11s-5 -3.66699 -9 -5c-12 -5.33301 -25.5 -9.83301 -40.5 -13.5s-31.167 -5.5 -48.5 -5.5c-30 0 -52.333 6.5 -67 19.5s-22 29.833 -22 50.5c0 22.667 5.5 44 16.5 64s26.833 39.667 47.5 59c-8 2 -12.333 8.66699 -13 20l-16 145h-224l-71 -144
c-4 -8.66699 -8.33301 -14.334 -13 -17.001s-10.667 -4 -18 -4h-80c-8 0 -12 2.33301 -12 7c0 3.33301 1.33301 7.66602 4 12.999l320 622c3.33301 7.33301 7.16602 12.666 11.499 15.999s11.166 5 20.499 5h85c10 0 16.333 -1.83301 19 -5.5s4.66699 -9.16699 6 -16.5
l83 -623v-3zM384.002 258.002c-0.666992 7.33301 -2.16895 22.998 -4.50195 46.998s-5.16602 48.667 -8.49902 74l-9 88.5c-2.66699 27 -4.33398 52.167 -5.00098 75.5h-4c-9.33301 -18.667 -20.166 -41.667 -32.499 -69s-25.166 -53.666 -38.499 -78.999
c-6 -13.333 -12.667 -27.166 -20 -41.499l-20.5 -40.5l-17 -34l-10.5 -21h170z" />
    <glyph glyph-name="aogonek" unicode="&#x105;" horiz-adv-x="535" 
d="M434 19c-2 -12.667 -9.33203 -19 -21.999 -19h-16c-34.667 -40 -52 -73.667 -52 -101c0 -11.333 3.66699 -19.166 11 -23.499s16.666 -6.5 27.999 -6.5c8.66699 0 17.334 0.833008 26.001 2.5s17.667 3.5 27 5.5c7.33301 2 11.333 0.333008 12 -5l6 -30
c0 -5.33301 -1 -9 -3 -11s-5 -3.66699 -9 -5c-12 -5.33301 -25.5 -9.83301 -40.5 -13.5s-31.167 -5.5 -48.5 -5.5c-30 0 -52.333 6.5 -67 19.5s-22 29.833 -22 50.5c0 23.333 5.5 45 16.5 65s27.167 40 48.5 60c-4 2 -5 7.33301 -3 16l7 33h-1
c-26.667 -16.667 -53.834 -30.667 -81.501 -42s-57.5 -17 -89.5 -17c-47.333 0 -80.5 12 -99.5 36s-28.5 58 -28.5 102c0 16 1.33301 33.167 4 51.5s5.66699 37.166 9 56.499c8 40 17.5 76 28.5 108s25.5 59 43.5 81s39.833 39 65.5 51s56.834 18 93.501 18
c18 0 39.167 -2.83301 63.5 -8.5s48.166 -14.5 71.499 -26.5l4 15c1.33301 6 3.5 9.83301 6.5 11.5s8.16699 2.5 15.5 2.5h68c8 0 13 -1.66699 15 -5s2.33301 -8.33301 1 -15zM395.001 373c-39.333 16 -77.999 24 -115.999 24c-18 -0.666992 -33.333 -3.83398 -46 -9.50098
s-23.667 -14.667 -33 -27s-17.333 -28.333 -24 -48s-12.667 -43.834 -18 -72.501c-3.33301 -18 -6 -34.167 -8 -48.5s-3 -26.166 -3 -35.499c0 -27.333 5 -45.166 15 -53.499s24.667 -12.5 44 -12.5c10 0 21.5 1.66699 34.5 5s26.167 7.33301 39.5 12
s26.166 9.5 38.499 14.5s22.5 9.5 30.5 13.5z" />
    <glyph glyph-name="Cacute" unicode="&#x106;" horiz-adv-x="561" 
d="M413 671c12 0 25.999 -0.49707 41.999 -1.49707s32.5 -2.66699 49.5 -5s33.5 -5.33301 49.5 -9s30 -8.16699 42 -13.5c7.33301 -3.33301 12.166 -7.33301 14.499 -12s1.83301 -11 -1.5 -19l-18 -41c-2 -6 -4.83301 -10.333 -8.5 -13s-10.167 -3.33398 -19.5 -2.00098
c-24 3.33301 -49.5 6.33301 -76.5 9s-53.167 4 -78.5 4c-34.667 0 -63.667 -6.5 -87 -19.5s-42.833 -30.5 -58.5 -52.5s-28 -47.5 -37 -76.5s-16.5 -59.5 -22.5 -91.5c-4 -18 -6.66699 -35.5 -8 -52.5s-2 -33.167 -2 -48.5c0.666992 -42.667 10.167 -75.5 28.5 -98.5
s50.5 -34.5 96.5 -34.5c29.333 0 56.5 1.33301 81.5 4s51.5 5.66699 79.5 9c9.33301 1.33301 15.833 0.666016 19.5 -2.00098s5.5 -7.33398 5.5 -14.001l1 -38c0.666992 -8 -0.666016 -14.5 -3.99902 -19.5s-9.66602 -9.16699 -18.999 -12.5
c-13.333 -5.33301 -28.5 -9.83301 -45.5 -13.5s-34.167 -6.83398 -51.5 -9.50098s-34.166 -4.5 -50.499 -5.5s-30.5 -1.5 -42.5 -1.5c-41.333 0 -75.833 5.5 -103.5 16.5s-50 26.5 -67 46.5s-29.167 43.667 -36.5 71s-11 57.333 -11 90c0 18.667 1 37.167 3 55.5
s4.66699 36.833 8 55.5c7.33301 42.667 17.666 84.667 30.999 126s32.5 78.333 57.5 111s56.833 58.834 95.5 78.501s86.667 29.5 144 29.5zM593.999 798.003c2.66699 -4.66699 2.83301 -8.83203 0.5 -12.499s-5.83301 -6.5 -10.5 -8.5l-170 -76
c-4 -1.33301 -7.5 -2 -10.5 -2s-5.83301 2 -8.5 6l-19 35c-4 6 -1.33301 12 8 18l162 100c6 3.33301 10.5 4.16602 13.5 2.49902s5.5 -4.16699 7.5 -7.5z" />
    <glyph glyph-name="cacute" unicode="&#x107;" horiz-adv-x="447" 
d="M396 46c0 -7.33301 -1.50293 -13.335 -4.50293 -18.002s-9.5 -9 -19.5 -13c-20.667 -8 -45.667 -13.833 -75 -17.5s-56.333 -5.5 -81 -5.5c-35.333 0 -64.5 4.33301 -87.5 13s-41 20.334 -54 35.001s-22 31.334 -27 50.001s-7.5 38 -7.5 58c0 15.333 1.16699 33 3.5 53
s5.16602 39 8.49902 57c6 32 13.833 62.667 23.5 92s23.834 55.166 42.501 77.499s42.834 40 72.501 53s67.834 19.5 114.501 19.5c10.667 0 22.834 -0.333008 36.501 -1s27.5 -2 41.5 -4s27.5 -4.5 40.5 -7.5s24.5 -6.83301 34.5 -11.5c12 -6 15 -15.333 9 -28l-13 -40
c-3.33301 -7.33301 -7.16602 -11.666 -11.499 -12.999s-11.5 -1.33301 -21.5 0l-61 6c-20.667 2 -39.667 3 -57 3c-20 0 -37.333 -2.66699 -52 -8s-27.5 -14 -38.5 -26s-20.333 -27.833 -28 -47.5s-14.167 -43.834 -19.5 -72.501c-6 -32 -9 -58.333 -9 -79
c0 -31.333 6.83301 -53 20.5 -65s35.5 -18 65.5 -18c15.333 0 35.5 0.833008 60.5 2.5s48.167 3.83398 69.5 6.50098c7.33301 1.33301 13.166 1.33301 17.499 0s6.5 -6.33301 6.5 -15v-36zM434.997 708.998c5.33301 -2.66699 7.66699 -6 7 -10s-2.66699 -8.33301 -6 -13
l-128 -139c-6.66699 -7.33301 -13.667 -9.33301 -21 -6l-33 18c-7.33301 4 -8 10.333 -2 19l109 155c6 8.66699 13.333 10.667 22 6z" />
    <glyph glyph-name="Ccircumflex" unicode="&#x108;" horiz-adv-x="561" 
d="M413 671c12 0 25.999 -0.49707 41.999 -1.49707s32.5 -2.66699 49.5 -5s33.5 -5.33301 49.5 -9s30 -8.16699 42 -13.5c7.33301 -3.33301 12.166 -7.33301 14.499 -12s1.83301 -11 -1.5 -19l-18 -41c-2 -6 -4.83301 -10.333 -8.5 -13s-10.167 -3.33398 -19.5 -2.00098
c-24 3.33301 -49.5 6.33301 -76.5 9s-53.167 4 -78.5 4c-34.667 0 -63.667 -6.5 -87 -19.5s-42.833 -30.5 -58.5 -52.5s-28 -47.5 -37 -76.5s-16.5 -59.5 -22.5 -91.5c-4 -18 -6.66699 -35.5 -8 -52.5s-2 -33.167 -2 -48.5c0.666992 -42.667 10.167 -75.5 28.5 -98.5
s50.5 -34.5 96.5 -34.5c29.333 0 56.5 1.33301 81.5 4s51.5 5.66699 79.5 9c9.33301 1.33301 15.833 0.666016 19.5 -2.00098s5.5 -7.33398 5.5 -14.001l1 -38c0.666992 -8 -0.666016 -14.5 -3.99902 -19.5s-9.66602 -9.16699 -18.999 -12.5
c-13.333 -5.33301 -28.5 -9.83301 -45.5 -13.5s-34.167 -6.83398 -51.5 -9.50098s-34.166 -4.5 -50.499 -5.5s-30.5 -1.5 -42.5 -1.5c-41.333 0 -75.833 5.5 -103.5 16.5s-50 26.5 -67 46.5s-29.167 43.667 -36.5 71s-11 57.333 -11 90c0 18.667 1 37.167 3 55.5
s4.66699 36.833 8 55.5c7.33301 42.667 17.666 84.667 30.999 126s32.5 78.333 57.5 111s56.833 58.834 95.5 78.501s86.667 29.5 144 29.5zM296.999 697.003c-6 -4 -10.499 -6.16602 -13.499 -6.49902s-6.16699 1.5 -9.5 5.5l-22 26
c-2.66699 3.33301 -3.83398 6.16602 -3.50098 8.49902s2.83301 5.83301 7.5 10.5l134 107c6 4.66699 11.333 8.16699 16 10.5s11 3.5 19 3.5h54c9.33301 0 15.833 -1 19.5 -3s7.16699 -5 10.5 -9l89 -107c6.66699 -6.66699 5.66699 -13.667 -3 -21l-27 -21
c-4.66699 -3.33301 -8.5 -5 -11.5 -5s-6.16699 1.66699 -9.5 5l-103 87z" />
    <glyph glyph-name="ccircumflex" unicode="&#x109;" horiz-adv-x="447" 
d="M396 46c0 -7.33301 -1.50293 -13.335 -4.50293 -18.002s-9.5 -9 -19.5 -13c-20.667 -8 -45.667 -13.833 -75 -17.5s-56.333 -5.5 -81 -5.5c-35.333 0 -64.5 4.33301 -87.5 13s-41 20.334 -54 35.001s-22 31.334 -27 50.001s-7.5 38 -7.5 58c0 15.333 1.16699 33 3.5 53
s5.16602 39 8.49902 57c6 32 13.833 62.667 23.5 92s23.834 55.166 42.501 77.499s42.834 40 72.501 53s67.834 19.5 114.501 19.5c10.667 0 22.834 -0.333008 36.501 -1s27.5 -2 41.5 -4s27.5 -4.5 40.5 -7.5s24.5 -6.83301 34.5 -11.5c12 -6 15 -15.333 9 -28l-13 -40
c-3.33301 -7.33301 -7.16602 -11.666 -11.499 -12.999s-11.5 -1.33301 -21.5 0l-61 6c-20.667 2 -39.667 3 -57 3c-20 0 -37.333 -2.66699 -52 -8s-27.5 -14 -38.5 -26s-20.333 -27.833 -28 -47.5s-14.167 -43.834 -19.5 -72.501c-6 -32 -9 -58.333 -9 -79
c0 -31.333 6.83301 -53 20.5 -65s35.5 -18 65.5 -18c15.333 0 35.5 0.833008 60.5 2.5s48.167 3.83398 69.5 6.50098c7.33301 1.33301 13.166 1.33301 17.499 0s6.5 -6.33301 6.5 -15v-36zM198.997 535.998c-5.33301 -4 -9.49805 -5.99707 -12.498 -5.99707s-6.5 2 -10.5 6
l-28 23c-3.33301 3.33301 -4.66602 6.16602 -3.99902 8.49902s3 5.83301 7 10.5l131 127c5.33301 5.33301 10.166 9 14.499 11s11.166 3 20.499 3h55c10.667 0 17.667 -0.833008 21 -2.5s6.66602 -4.83398 9.99902 -9.50098l82 -132c6 -8.66699 5 -15.334 -3 -20.001
l-30 -20c-8 -6.66699 -15 -6.66699 -21 0l-97 109z" />
    </font>
</defs>
</svg>
