<?xml version="1.0" standalone="no"?>
<!DOCTYPE svg PUBLIC "-//W3C//DTD SVG 1.1//EN" "http://www.w3.org/Graphics/SVG/1.1/DTD/svg11.dtd" >
<svg>
<metadata>
Created by FontForge 20090914 at Fri Nov 20 12:27:20 2015
 By www-data
Copyright (c) 2005 Parachute&#194;&#168;, www.parachute.gr.  All rights reserved.
</metadata>
<defs>
<font id="PFSquareSansPro-ExtraBlack" horiz-adv-x="1818" >
  <font-face 
    font-family="PF Square Sans Pro Extra Black"
    font-weight="1000"
    font-stretch="normal"
    units-per-em="1000"
    panose-1="2 0 9 6 4 0 0 2 0 4"
    ascent="750"
    descent="-250"
    x-height="496.999"
    cap-height="665"
    bbox="-247.667 -366.099 1760 952.565"
    underline-thickness="40"
    underline-position="-80"
    unicode-range="U+0020-U+FB05"
  />
<missing-glyph horiz-adv-x="460" 
d="M0 700h460v-700h-460v700zM323 95l-93 167l-92 -167h185zM323 605h-187l94 -165zM95 199l83 152l-83 153v-305zM365 199v304l-83 -154z" />
    <glyph glyph-name="fj" unicode="fj" horiz-adv-x="633" 
d="M313 733c11.333 0 24.3271 -0.501953 38.9941 -1.50195s29.5 -2.5 44.5 -4.5s29.667 -4.66699 44 -8s26.833 -7.33301 37.5 -12c14 -6 21.333 -12.833 22 -20.5s0.333984 -15.5 -0.999023 -23.5l-16 -81c-2 -9.33301 -5 -14.333 -9 -15s-13 -0.333984 -27 0.999023
c-15.333 1.33301 -30.166 2.5 -44.499 3.5s-27.833 1.5 -40.5 1.5c-23.333 0 -42.5 -3.66699 -57.5 -11s-22.5 -21.666 -22.5 -42.999v-22h273c10.667 0 17.167 -3 19.5 -9s3.5 -11 3.5 -15v-429c0 -54.667 -7.66699 -99.334 -23 -134.001s-36.166 -61.5 -62.499 -80.5
s-57.666 -31.667 -93.999 -38s-75.5 -8.83301 -117.5 -7.5c-4.66699 0 -10.334 1.5 -17.001 4.5s-10.667 9.83301 -12 20.5l-9 102c-1.33301 9.33301 -0.666016 15.833 2.00098 19.5s9 6.83398 19 9.50098c24 4.66699 44 9.16699 60 13.5s29 9.83301 39 16.5
s17 15.334 21 26.001s6 25 6 43v313h-110v-328c0 -4 -1.16699 -9 -3.5 -15s-8.83301 -9 -19.5 -9h-140c-9.33301 0 -15.666 2.33301 -18.999 7s-5 10.334 -5 17.001v43.5v36v37.5v48c0 18.667 0.166992 41.167 0.5 67.5s0.5 58.166 0.5 95.499h-40c-16 0 -24 8.33301 -24 25
v96c0 16 8 24 24 24h40v54c0 28 3.83301 53.167 11.5 75.5s20.167 41.333 37.5 57s39.833 27.834 67.5 36.501s61.834 13 102.501 13z" />
    <glyph glyph-name="ffj" unicode="ffj" horiz-adv-x="925" 
d="M605 743c11.333 0 24.3271 -0.500977 38.9941 -1.50098s29.5 -2.5 44.5 -4.5s29.667 -4.66699 44 -8s26.833 -7.33301 37.5 -12c14 -6 21.333 -12.833 22 -20.5s0.333984 -15.5 -0.999023 -23.5l-16 -81c-2 -9.33301 -5 -14.333 -9 -15s-13 -0.333984 -27 0.999023
c-15.333 1.33301 -30.166 2.5 -44.499 3.5s-27.833 1.5 -40.5 1.5c-23.333 0 -42.5 -3.66699 -57.5 -11s-22.5 -21.666 -22.5 -42.999v-32h273c10.667 0 17.167 -3 19.5 -9s3.5 -11 3.5 -15v-429c0 -54.667 -7.66699 -99.334 -23 -134.001s-36.166 -61.5 -62.499 -80.5
s-57.666 -31.667 -93.999 -38s-75.5 -8.83301 -117.5 -7.5c-4.66699 0 -10.334 1.5 -17.001 4.5s-10.667 9.83301 -12 20.5l-9 102c-1.33301 9.33301 -0.666016 15.833 2.00098 19.5s9 6.83398 19 9.50098c24 4.66699 44 9.16699 60 13.5s29 9.83301 39 16.5
s17 15.334 21 26.001s6 25 6 43v313h-110v-328c0 -4 -1.16699 -9 -3.5 -15s-8.83301 -9 -19.5 -9h-140c-9.33301 -0 -15.666 2.33301 -18.999 7s-5 10.334 -5 17.001v43.5v36v37.5v48c0 18.667 0.166992 41.167 0.5 67.5s0.5 58.166 0.5 95.499h-106v-328
c0 -4 -1.16699 -9 -3.5 -15s-8.83301 -9 -19.5 -9h-140c-9.33301 -0 -15.666 2.33301 -18.999 7s-5 10.334 -5 17.001v43.5v36v37.5v48c0 18.667 0.166992 41.167 0.5 67.5s0.5 58.166 0.5 95.499h-40c-16 0 -24 8.33301 -24 25v96c0 16 8 24 24 24h40
c0 7.33301 0.166992 14.333 0.5 21s0.5 14 0.5 22c0 56 16.833 100.333 50.5 133s86.167 49 157.5 49c20.667 0 43.834 -1.66699 69.501 -5s49.167 -8.66602 70.5 -15.999c17.333 13.333 39.166 23.666 65.499 30.999s58.5 11 96.5 11zM281.994 496.999l104.001 0.000976562
v63c-12 1.33301 -22.5 2 -31.5 2h-18.5c-20.667 0 -34.834 -4.83301 -42.501 -14.5s-11.5 -22.834 -11.5 -39.501v-11z" />
    <glyph glyph-name="ff" unicode="ff" horiz-adv-x="756" 
d="M599 743c11.333 0 23.6641 -0.5 36.9971 -1.5s26.833 -2.5 40.5 -4.5s27 -4.66699 40 -8s24.833 -7.33301 35.5 -12c14 -6 21.333 -12.833 22 -20.5s0.333984 -15.5 -0.999023 -23.5l-16 -81c-2 -9.33301 -5 -14.333 -9 -15s-13 -0.333984 -27 0.999023
c-19.333 2 -37.666 3.33301 -54.999 4s-28.666 1 -33.999 1c-20.667 0 -34.834 -4.83301 -42.501 -14.5s-11.5 -22.834 -11.5 -39.501v-32h102c10 0 16.333 -2 19 -6s4 -9.66699 4 -17v-97c0 -8.66699 -1.33301 -15 -4 -19s-9 -6 -19 -6h-104v-328
c0 -4 -1.16699 -9 -3.5 -15s-8.83301 -9 -19.5 -9h-140c-9.33301 0 -15.666 2.33301 -18.999 7s-5 10.334 -5 17.001l1 328h-110v-328c0 -4 -1.16699 -9 -3.5 -15s-8.83301 -9 -19.5 -9h-140c-9.33301 0 -15.666 2.33301 -18.999 7s-5 10.334 -5 17.001l1 328h-40
c-16 0 -24 8.33301 -24 25v96c0 16 8 24 24 24h40v43c0 56 17 100.333 51 133s86.667 49 158 49c21.333 0 45.5 -1.66699 72.5 -5s51.167 -9.33301 72.5 -18c35.333 29.333 85.666 44 150.999 44zM335.998 562c-20.667 0 -34.833 -4.83203 -42.5 -14.499
s-11.5 -22.834 -11.5 -39.501v-11h108v63c-13.333 0.666992 -24.833 1.16699 -34.5 1.5s-16.167 0.5 -19.5 0.5z" />
    <glyph glyph-name="fi" unicode="fi" horiz-adv-x="633" 
d="M313 733c11.333 0 24.3301 -0.50293 38.9971 -1.50293s29.5 -2.5 44.5 -4.5s29.667 -4.66699 44 -8s26.833 -7.33301 37.5 -12c14 -6 21.333 -12.833 22 -20.5s0.333984 -15.5 -0.999023 -23.5l-16 -81c-2 -9.33301 -5 -14.333 -9 -15s-13 -0.333984 -27 0.999023
l-45.5 3.5c-13.667 1 -26.834 1.5 -39.501 1.5c-23.333 0 -42.5 -3.66699 -57.5 -11s-22.5 -21.666 -22.5 -42.999v-22h273c10.667 0 17.167 -3 19.5 -9s3.5 -11 3.5 -15v-449c0 -4 -1.16699 -9 -3.5 -15s-8.83301 -9 -19.5 -9h-141c-9.33301 0 -15.666 2.33301 -18.999 7
s-5 10.334 -5 17.001v328h-110v-328c0 -4 -1.16699 -9 -3.5 -15s-8.83301 -9 -19.5 -9h-140c-9.33301 0 -15.666 2.33301 -18.999 7s-5 10.334 -5 17.001v328h-39c-16 0 -24 8.33301 -24 25v96c0 16 8 24 24 24h40v54c0 28 3.83301 53.167 11.5 75.5s20.167 41.333 37.5 57
s39.833 27.834 67.5 36.501s61.834 13 102.501 13z" />
    <glyph glyph-name="fl" unicode="fl" horiz-adv-x="633" 
d="M280 352l-0.00390625 -328.003c0 -4 -1.16699 -9 -3.5 -15s-8.83301 -9 -19.5 -9h-140c-9.33301 0 -15.666 2.33301 -18.999 7s-5 10.334 -5 17.001v328h-39c-16 0 -24 8.33301 -24 25v96c0 16 8 24 24 24h40v54c0 28 3.83301 53.167 11.5 75.5s20.167 41.333 37.5 57
s39.833 27.834 67.5 36.501s61.834 13 102.501 13c11.333 0 24.333 -0.5 39 -1.5s29.5 -2.5 44.5 -4.5s29.5 -4.66699 43.5 -8s26.333 -7.33301 37 -12l78 20c10 2.66699 16.333 2.16699 19 -1.5s4 -8.83398 4 -15.501v-686c0 -4 -1.16699 -9 -3.5 -15s-8.83301 -9 -19.5 -9
h-141c-9.33301 0 -15.666 2.33301 -18.999 7s-5 10.334 -5 17.001v548c-5.33301 0.666992 -10.166 1 -14.499 1h-13.5c-23.333 0 -42.5 -3.66699 -57.5 -11s-22.5 -21.666 -22.5 -42.999v-22h56c16 0 24 -8 24 -24v-96c0 -16.667 -8 -25 -24 -25h-58z" />
    <glyph glyph-name="ffi" unicode="ffi" horiz-adv-x="925" 
d="M605 743c11.333 0 24.3281 -0.500977 38.9951 -1.50098s29.5 -2.5 44.5 -4.5s29.667 -4.66699 44 -8s26.833 -7.33301 37.5 -12c14 -6 21.333 -12.833 22 -20.5s0.333984 -15.5 -0.999023 -23.5l-16 -81c-2 -9.33301 -5 -14.333 -9 -15s-13 -0.333984 -27 0.999023
c-15.333 1.33301 -30.166 2.5 -44.499 3.5s-27.833 1.5 -40.5 1.5c-23.333 0 -42.5 -3.66699 -57.5 -11s-22.5 -21.666 -22.5 -42.999v-32h273c10.667 0 17.167 -3 19.5 -9s3.5 -11 3.5 -15v-449c0 -4 -1.16699 -9 -3.5 -15s-8.83301 -9 -19.5 -9h-140
c-9.33301 0 -15.666 2.33301 -18.999 7s-5 10.334 -5 17.001l-1 328h-110v-328c0 -4 -1.16699 -9 -3.5 -15s-8.83301 -9 -19.5 -9h-140c-9.33301 -0 -15.666 2.33301 -18.999 7s-5 10.334 -5 17.001v43.5v36v37.5v48c0 18.667 0.166992 41.167 0.5 67.5
s0.5 58.166 0.5 95.499h-106v-328c0 -4 -1.16699 -9 -3.5 -15s-8.83301 -9 -19.5 -9h-140c-9.33301 -0 -15.666 2.33301 -18.999 7s-5 10.334 -5 17.001v43.5v36v37.5v48c0 18.667 0.166992 41.167 0.5 67.5s0.5 58.166 0.5 95.499h-40c-16 0 -24 8.33301 -24 25v96
c0 16 8 24 24 24h40v43c0 56 17 100.333 51 133s86.667 49 158 49c20.667 0 43.834 -1.66699 69.501 -5s49.167 -8.66602 70.5 -15.999c17.333 13.333 39.166 23.666 65.499 30.999s58.5 11 96.5 11zM335.995 561.999c-20.667 0 -34.833 -4.83203 -42.5 -14.499
s-11.5 -22.834 -11.5 -39.501v-11h104v63c-12 1.33301 -22.5 2 -31.5 2h-18.5z" />
    <glyph glyph-name="ffl" unicode="ffl" horiz-adv-x="925" 
d="M572 352l-0.00390625 -328c0 -4 -1.16699 -9 -3.5 -15s-8.83301 -9 -19.5 -9h-139c-9.33301 -0 -15.666 2.33301 -18.999 7s-5 10.334 -5 17.001v328h-106v-328c0 -4 -1.16699 -9 -3.5 -15s-8.83301 -9 -19.5 -9h-140c-9.33301 0 -15.666 2.33301 -18.999 7
s-5 10.334 -5 17.001v43.5v36v37.5v48c0 18.667 0.166992 41.167 0.5 67.5s0.5 58.166 0.5 95.499h-40c-16 0 -24 8.33301 -24 25v96c0 16 8 24 24 24h40v43c0 56 17 100.333 51 133s86.667 49 158 49c20.667 0 43.834 -1.66699 69.501 -5s49.167 -8.66602 70.5 -15.999
c17.333 13.333 39.166 23.666 65.499 30.999s58.5 11 96.5 11c11.333 0 24.333 -0.5 39 -1.5s29.5 -2.5 44.5 -4.5s29.667 -4.83301 44 -8.5s26.833 -7.83398 37.5 -12.501l77 22c10 3.33301 16.333 3.16602 19 -0.500977s4 -7.83398 4 -12.501v-701
c0 -4 -1.16699 -9 -3.5 -15s-8.83301 -9 -19.5 -9h-140c-9.33301 0 -15.666 2.33301 -18.999 7s-5 10.334 -5 17.001l-1 558c-5.33301 0 -10.166 0.166992 -14.499 0.5s-8.83301 0.5 -13.5 0.5c-23.333 0 -42.5 -3.66699 -57.5 -11s-22.5 -21.666 -22.5 -42.999v-32h56
c16 0 24 -8 24 -24v-96c0 -16.667 -8 -25 -24 -25h-58zM335.996 562c-20.667 0 -34.833 -4.83203 -42.5 -14.499s-11.5 -22.834 -11.5 -39.501v-11h104v63c-12 1.33301 -22.5 2 -31.5 2h-18.5z" />
    <glyph glyph-name="ft" unicode="ft" horiz-adv-x="783" 
d="M287 722c12.667 0 28.6699 -0.669922 48.0029 -2.00293s38.666 -4.66602 57.999 -9.99902c12.667 -3.33301 19.667 -8.83301 21 -16.5s1.33301 -15.5 0 -23.5l-11 -95c-1.33301 -8 -4.16602 -12.667 -8.49902 -14s-13.5 -1.33301 -27.5 0c-6 0.666992 -11.333 1 -16 1
h-15c-20.667 0 -34.834 -4.83301 -42.501 -14.5s-11.5 -22.834 -11.5 -39.501v-11h140v94c0 8.66699 2.16699 15 6.5 19s10.166 7 17.499 9l129 34c8.66699 2 15.667 1.33301 21 -2s8 -9.66602 8 -18.999v-135h98c10 0 16.333 -2 19 -6s4 -9.66699 4 -17v-97
c0 -8.66699 -1.33301 -15 -4 -19s-9 -6 -19 -6h-100v-118c0 -21.333 1.83301 -37.5 5.5 -48.5s10.334 -18.667 20.001 -23s22.667 -6.16602 39 -5.49902s37.5 2 63.5 4c9.33301 0.666992 16 0.333984 20 -0.999023s6.66699 -7 8 -17l13 -88
c1.33301 -10.667 -0.333984 -18.834 -5.00098 -24.501s-10.667 -9.83398 -18 -12.501c-14.667 -6 -30 -10.667 -46 -14s-31.5 -5.83301 -46.5 -7.5s-29 -2.83398 -42 -3.50098s-23.833 -1 -32.5 -1c-58.667 0 -100.167 13.833 -124.5 41.5s-36.5 66.834 -36.5 117.501v201
h-140v-328c0 -4 -1.16699 -9 -3.5 -15s-8.83301 -9 -19.5 -9h-140c-9.33301 0 -15.666 2.33301 -18.999 7s-5 10.334 -5 17.001l1 328h-40c-16 0 -24 8.33301 -24 25v96c0 16 8 24 24 24h40v43c0 28 3.5 53.167 10.5 75.5s18.167 41.333 33.5 57
s35.166 27.834 59.499 36.501s54.166 13 89.499 13z" />
    <glyph glyph-name=".notdef" horiz-adv-x="460" 
d="M0 700h460v-700h-460v700zM323 95l-93 167l-92 -167h185zM323 605h-187l94 -165zM95 199l83 152l-83 153v-305zM365 199v304l-83 -154z" />
    <glyph glyph-name="space" unicode=" " horiz-adv-x="305" 
 />
    <glyph glyph-name="exclam" unicode="!" horiz-adv-x="324" 
d="M238 228c-0.666992 -7.33301 -2.49902 -12.833 -5.49902 -16.5s-8.5 -5.5 -16.5 -5.5h-104c-8 0 -13.5 1.66699 -16.5 5s-4.5 9 -4.5 17l-15 413c-0.666992 8.66699 0.666016 14.5 3.99902 17.5s9 4.5 17 4.5h133c8 0 13.667 -1.5 17 -4.5s5 -8.83301 5 -17.5z
M254.001 75c0 -10.667 -1.16797 -21.001 -3.50098 -31.001s-6.83301 -19 -13.5 -27s-16 -14.5 -28 -19.5s-27.667 -7.5 -47 -7.5c-20 0 -36.167 2.5 -48.5 7.5s-21.666 11.667 -27.999 20s-10.5 17.5 -12.5 27.5s-3 20 -3 30c0 12 1.33301 23.167 4 33.5s7.5 19.333 14.5 27
s16.5 13.667 28.5 18s27 6.5 45 6.5c18.667 0 34 -2.16699 46 -6.5s21.5 -10.166 28.5 -17.499s11.667 -16.333 14 -27s3.5 -22 3.5 -34z" />
    <glyph glyph-name="quotedbl" unicode="&#x22;" horiz-adv-x="405" 
d="M345 418c-0.666992 -4.66699 -2.49902 -8.66699 -5.49902 -12s-7.5 -5 -13.5 -5h-82c-11.333 0 -17 5.66699 -17 17l-10 226c-0.666992 5.33301 0.833008 9.83301 4.5 13.5s8.5 5.5 14.5 5.5h101c7.33301 0 12.166 -2.33301 14.499 -7s3.5 -8.66699 3.5 -12zM178.001 418
c0 -4.66699 -1.49902 -8.66699 -4.49902 -12s-7.5 -5 -13.5 -5h-83c-10.667 0 -16 5.66699 -16 17l-11 226c0 12.667 6.66699 19 20 19h101c7.33301 0 12.166 -2.33301 14.499 -7s3.5 -8.66699 3.5 -12z" />
    <glyph glyph-name="numbersign" unicode="#" horiz-adv-x="664" 
d="M333 203h-73.9961l-45 -181c-2 -7.33301 -4.16699 -12.833 -6.5 -16.5s-7.5 -5.5 -15.5 -5.5h-93c-8 0 -14 1.66699 -18 5s-5 9 -3 17l45 181h-75c-7.33301 0 -12.333 1.5 -15 4.5s-2.66699 8.83301 0 17.5l21 77c2.66699 8 6 13.5 10 16.5s10.333 4.5 19 4.5h71l14 56
h-74c-7.33301 0 -12.333 1.5 -15 4.5s-2.66699 8.83301 0 17.5l20 76c2.66699 8 6 13.5 10 16.5s10.333 4.5 19 4.5h70l36 143c2.66699 8.66699 5 14.5 7 17.5s7 4.5 15 4.5h98c8 0 13.333 -1.5 16 -4.5s2.66699 -8.83301 0 -17.5l-36 -143h74l36 143
c2.66699 8.66699 5 14.5 7 17.5s7 4.5 15 4.5h98c8 0 13.333 -1.5 16 -4.5s2.66699 -8.83301 0 -17.5l-36 -143h73c8.66699 0 14 -1.5 16 -4.5s1.66699 -8.5 -1 -16.5l-20 -76c-2.66699 -8 -5.83398 -13.667 -9.50098 -17s-9.83398 -5 -18.501 -5h-70l-14 -56h72
c8.66699 0 14 -1.5 16 -4.5s1.66699 -8.5 -1 -16.5l-21 -77c-2.66699 -8 -5.83398 -13.667 -9.50098 -17s-9.83398 -5 -18.501 -5h-69l-45 -181c-2 -7.33301 -4.16699 -12.833 -6.5 -16.5s-7.5 -5.5 -15.5 -5.5h-93c-8 0 -14 1.66699 -18 5s-5 9 -3 17zM290.004 323h74
l14 56h-74z" />
    <glyph glyph-name="dollar" unicode="$" horiz-adv-x="616" 
d="M241 736c0 6.66699 1.66504 12.332 4.99805 16.999s9.66602 7 18.999 7h94c10.667 0 17.167 -3 19.5 -9s3.5 -11 3.5 -15v-85c19.333 -1.33301 39.666 -4 60.999 -8s41.666 -9.66699 60.999 -17c10 -4 17.667 -7.66699 23 -11s9 -7 11 -11s2.83301 -8.16699 2.5 -12.5
s-0.833008 -9.5 -1.5 -15.5l-14 -66c-2 -8.66699 -4.33301 -15.167 -7 -19.5s-6 -7.16602 -10 -8.49902s-9 -1.83301 -15 -1.5s-13.333 0.833008 -22 1.5c-22 3.33301 -44.5 5.83301 -67.5 7.5s-49.833 2.5 -80.5 2.5c-18.667 0 -34 -2.33301 -46 -7s-18 -14 -18 -28
c0 -13.333 4.33301 -22.5 13 -27.5s25.334 -10.167 50.001 -15.5c28 -6.66699 56.167 -14 84.5 -22s54.166 -19.333 77.499 -34s42.333 -34.167 57 -58.5s22 -55.833 22 -94.5c0 -30.667 -4.66699 -57.334 -14 -80.001s-22.333 -42 -39 -58s-36 -29 -58 -39
s-45.333 -17.333 -70 -22v-80c0 -4 -1.16699 -9 -3.5 -15s-8.83301 -9 -19.5 -9h-94c-9.33301 0 -15.666 2.33301 -18.999 7s-5 10.334 -5 17.001v74c-21.333 1.33301 -45.166 4.16602 -71.499 8.49902s-51.166 11.166 -74.499 20.499c-10 4 -17.667 7.66699 -23 11
s-9 7 -11 11s-3 8.16699 -3 12.5s0.666992 9.5 2 15.5l15 70c3.33301 15.333 7.83301 24 13.5 26s16.834 1.66699 33.501 -1c22 -3.33301 48.167 -6.5 78.5 -9.5s60.833 -4.5 91.5 -4.5c26.667 0 45.334 3.33301 56.001 10s16 17 16 31c0 14.667 -5.83301 24.5 -17.5 29.5
s-29.167 10.167 -52.5 15.5c-28 6.66699 -56 14.334 -84 23.001s-53.5 20.5 -76.5 35.5s-41.667 34.333 -56 58s-21.5 53.834 -21.5 90.501c0 56 16.667 100.5 50 133.5s78.333 54.167 135 63.5v86z" />
    <glyph glyph-name="percent" unicode="%" horiz-adv-x="1020" 
d="M786 -6c-46.667 0 -83.335 8.16504 -110.002 24.498s-46.667 36.333 -60 60s-21.666 48.834 -24.999 75.501s-5 50.667 -5 72c0 9.33301 0.666992 21.333 2 36s4.33301 30.167 9 46.5s11.334 32.666 20.001 48.999s20.5 31 35.5 44s33.333 23.667 55 32
s47.834 12.5 78.501 12.5c45.333 0 81.5 -7.16699 108.5 -21.5s47.667 -32.333 62 -54s23.666 -45.5 27.999 -71.5s6.5 -50.333 6.5 -73c0 -19.333 -1.83301 -42.166 -5.5 -68.499s-12.5 -51.666 -26.5 -75.999s-34.667 -45 -62 -62s-64.333 -25.5 -111 -25.5z
M785.999 320.998c-17.333 0 -29 -9.49902 -35 -28.499s-9 -43.167 -9 -72.5c0 -12.667 0.666992 -25 2 -37s3.66602 -22.833 6.99902 -32.5s7.83301 -17.334 13.5 -23.001s12.834 -8.5 21.501 -8.5c19.333 0 32.5 8.83301 39.5 26.5s10.5 42.5 10.5 74.5
c0 32.667 -3.16699 57.667 -9.5 75s-19.833 26 -40.5 26zM227.999 228.999c-46.667 0 -83.335 8.16504 -110.002 24.498s-46.667 36.333 -60 60s-21.666 48.834 -24.999 75.501s-5 50.667 -5 72c0 9.33301 0.666992 21.333 2 36s4.33301 30.167 9 46.5
s11.334 32.666 20.001 48.999s20.5 31 35.5 44s33.333 23.667 55 32s47.834 12.5 78.501 12.5c45.333 0 81.5 -7.16699 108.5 -21.5s47.667 -32.333 62 -54s23.666 -45.5 27.999 -71.5s6.5 -50.333 6.5 -73c0 -19.333 -1.83301 -42.166 -5.5 -68.499
s-12.5 -51.666 -26.5 -75.999s-34.667 -45 -62 -62s-64.333 -25.5 -111 -25.5zM227.998 555.997c-17.333 0 -29 -9.49902 -35 -28.499s-9 -43.167 -9 -72.5c0 -12.667 0.666992 -25 2 -37s3.66602 -22.833 6.99902 -32.5s7.83301 -17.334 13.5 -23.001
s12.834 -8.5 21.501 -8.5c19.333 0 32.5 8.83301 39.5 26.5s10.5 42.5 10.5 74.5c0 32.667 -3.16699 57.667 -9.5 75s-19.833 26 -40.5 26zM440.998 -11.002c-3.33301 -8 -8.33398 -12 -15.001 -12h-114c-10 0 -13.333 5 -10 15l276 695c2 4.66699 4 8 6 10s5.33301 3 10 3
h114c8.66699 0 11.334 -5 8.00098 -15z" />
    <glyph glyph-name="ampersand" unicode="&#x26;" horiz-adv-x="772" 
d="M681 -49c-5.33301 -7.33301 -10.833 -12.166 -16.5 -14.499s-15.167 -0.5 -28.5 5.5c-10 4.66699 -21.333 10.834 -34 18.501l-38.5 24.5l-38.5 26.5c-12.667 9 -24 17.5 -34 25.5c-31.333 -18 -65.166 -30.667 -101.499 -38s-75.5 -11 -117.5 -11
c-32.667 0 -63.167 3.83301 -91.5 11.5s-52.833 19.667 -73.5 36s-37 36.833 -49 61.5s-18 54 -18 88c0 42 12 81.333 36 118s58 69 102 97c-12.667 21.333 -21.834 41.5 -27.501 60.5s-8.5 33.5 -8.5 43.5c0 24 3.83301 46.5 11.5 67.5s19.334 39.333 35.001 55
s35.167 28 58.5 37s50.666 13.5 81.999 13.5c28.667 0 54.5 -4.33301 77.5 -13s42.333 -20.334 58 -35.001s27.667 -31.834 36 -51.501s12.5 -40.5 12.5 -62.5c0 -16.667 -2.83301 -33.167 -8.5 -49.5s-13.667 -31.666 -24 -45.999s-23 -27.333 -38 -39
s-31.5 -20.834 -49.5 -27.501l25 -33c7.33301 -9.33301 14.666 -18 21.999 -26l24 -25c8.66699 -8.66699 19.667 -18.334 33 -29.001c17.333 23.333 31.833 49 43.5 77s19.834 56.333 24.501 85c2 8.66699 3.33301 15.667 4 21s1.83398 9.16602 3.50098 11.499
s4.5 3.83301 8.5 4.5s10 1 18 1h87c15.333 0 25.333 -2.16699 30 -6.5s6.66699 -16.166 6 -35.499c-0.666992 -22.667 -4.33398 -46.5 -11.001 -71.5s-15 -49.167 -25 -72.5s-21 -45.5 -33 -66.5s-24 -38.833 -36 -53.5l51 -37.5c16.667 -11.667 34.667 -23.167 54 -34.5
c11.333 -6.66699 16.333 -12.667 15 -18s-5 -12.666 -11 -21.999zM287 126c11.333 -0.666992 24.667 0.333008 40 3s30.666 7.66699 45.999 15c-24.667 25.333 -47.167 49.5 -67.5 72.5s-36.166 43.167 -47.499 60.5c-31.333 -24 -47 -50 -47 -78
c0 -22 7.16699 -39.667 21.5 -53s32.5 -20 54.5 -20zM349.001 514c0 6.66699 -2.33301 12.501 -7 17.501s-11.667 7.5 -21 7.5c-8.66699 0 -15.5 -3.16699 -20.5 -9.5s-7.5 -13.166 -7.5 -20.499c0 -4.66699 1.16699 -10.167 3.5 -16.5s6.83301 -13.833 13.5 -22.5
c12 7.33301 21.5 14.666 28.5 21.999s10.5 14.666 10.5 21.999z" />
    <glyph glyph-name="quotesingle" unicode="'" horiz-adv-x="239" 
d="M178 418c0 -4.66699 -1.49902 -8.66699 -4.49902 -12s-7.5 -5 -13.5 -5h-83c-10.667 0 -16 5.66699 -16 17l-11 226c0 12.667 6.66699 19 20 19h101c7.33301 0 12.166 -2.33301 14.499 -7s3.5 -8.66699 3.5 -12z" />
    <glyph glyph-name="parenleft" unicode="(" horiz-adv-x="363" 
d="M234 302c0 -50.667 6.66992 -104 20.0029 -160s34.666 -110 63.999 -162c8 -14.667 11.5 -24.834 10.5 -30.501s-6.5 -11.167 -16.5 -16.5l-76 -44c-11.333 -6.66699 -20 -9.66699 -26 -9s-13.667 7.33398 -23 20.001c-42.667 56 -77 119 -103 189s-39 141 -39 213
s13 143 39 213s60.333 133 103 189c9.33301 12.667 17 19.334 23 20.001s14.667 -2.33301 26 -9l76 -44c10 -5.33301 15.667 -10.833 17 -16.5s-2.33398 -15.834 -11.001 -30.501c-30.667 -52 -52.334 -105.833 -65.001 -161.5s-19 -109.167 -19 -160.5z" />
    <glyph glyph-name="parenright" unicode=")" horiz-adv-x="363" 
d="M132 302c0 51.333 -6.33008 104.833 -18.9971 160.5s-34.334 109.5 -65.001 161.5c-8.66699 14.667 -12.334 24.834 -11.001 30.501s7 11.167 17 16.5l76 44c11.333 6.66699 20 9.66699 26 9s13.667 -7.33398 23 -20.001c42.667 -56 77 -119 103 -189s39 -141 39 -213
s-13 -143 -39 -213s-60.333 -133 -103 -189c-9.33301 -12.667 -17 -19.334 -23 -20.001s-14.667 2.33301 -26 9l-76 44c-10 5.33301 -15.5 10.833 -16.5 16.5s2.5 15.834 10.5 30.501c29.333 52 50.666 106 63.999 162s20 109.333 20 160z" />
    <glyph glyph-name="asterisk" unicode="*" horiz-adv-x="476" 
d="M409 350c-6.66699 -10 -12.833 -15.501 -18.5 -16.501s-14.167 1.16699 -25.5 6.5l-66 28l-7 -62c-1.33301 -13.333 -3.5 -21.333 -6.5 -24s-11.167 -4 -24.5 -4h-57c-12 0 -19.5 1.33301 -22.5 4s-5.16699 10.667 -6.5 24l-8 62l-61 -25
c-7.33301 -3.33301 -14.5 -5.5 -21.5 -6.5s-13.167 2.83301 -18.5 11.5l-29 43c-4 6 -5.33301 11.5 -4 16.5s7.33301 11.5 18 19.5l52 43l-52 33c-9.33301 6.66699 -15.333 12.667 -18 18s-0.666992 14 6 26l20 39c7.33301 12.667 14 18.5 20 17.5s14.667 -3.83301 26 -8.5
l64 -24l5 65c1.33301 12 3.83301 19.667 7.5 23s12.5 5 26.5 5h48c13.333 0 22.666 -2.16699 27.999 -6.5s8.33301 -12.166 9 -23.499l4 -65l70 30c10.667 5.33301 17.834 7.83301 21.501 7.5s8.83398 -5.83301 15.501 -16.5l24 -37
c10.667 -15.333 10.334 -26.333 -0.999023 -33l-66 -48l60 -46c11.333 -8 17.166 -14.5 17.499 -19.5s-2.83398 -12.5 -9.50098 -22.5z" />
    <glyph glyph-name="plus" unicode="+" horiz-adv-x="616" 
d="M388 391h139c10 0 16.333 -2 19 -6s4 -9.66699 4 -17v-87c0 -8.66699 -1.33301 -15 -4 -19s-9 -6 -19 -6h-139v-145c0 -10 -2 -16.333 -6 -19s-9.66699 -4 -17 -4h-114c-8.66699 0 -15 1.33301 -19 4s-6 9 -6 19v145h-135c-16 0 -24 8.33301 -24 25v86c0 16 8 24 24 24
h135v136c0 16 8.33301 24 25 24h113c16 0 24 -8 24 -24v-136z" />
    <glyph glyph-name="comma" unicode="," horiz-adv-x="258" 
d="M222 36c0 -23.333 -3.5 -45.8301 -10.5 -67.4971s-16.333 -41.834 -28 -60.501s-24.834 -35.334 -39.501 -50.001s-29.334 -26.334 -44.001 -35.001c-10 -5.33301 -18.5 -7.16602 -25.5 -5.49902s-13.833 6.16699 -20.5 13.5l-32 33
c-5.33301 5.33301 -9.16602 9.66602 -11.499 12.999s-3.33301 6.5 -3 9.5s2 6.5 5 10.5s7.5 9 13.5 15c12 13.333 20.667 26.5 26 39.5s8 24.833 8 35.5c0 20.667 -7.33301 39.334 -22 56.001c-11.333 12 -17.666 21.833 -18.999 29.5s5.66699 17.167 21 28.5l77 59
c12.667 9.33301 23 12.166 31 8.49902s17 -10.167 27 -19.5c15.333 -14.667 27 -32.667 35 -54s12 -41 12 -59z" />
    <glyph glyph-name="hyphen" unicode="-" horiz-adv-x="430" 
d="M384 391c10 0 16.333 -2 19 -6s4 -9.66699 4 -17v-98c0 -8.66699 -1.33301 -15 -4 -19s-9 -6 -19 -6h-331c-16 0 -24 8.33301 -24 25v97c0 16 8 24 24 24h331z" />
    <glyph glyph-name="period" unicode="." horiz-adv-x="252" 
d="M222 79c0 -11.333 -1.16699 -22.166 -3.5 -32.499s-7 -19.833 -14 -28.5s-16.833 -15.5 -29.5 -20.5s-29 -7.5 -49 -7.5c-21.333 0 -38.166 2.66699 -50.499 8s-22 12.166 -29 20.499s-11.5 17.833 -13.5 28.5s-3 21.334 -3 32.001c0 12 1.5 23.333 4.5 34s8 20 15 28
s16.667 14.333 29 19s28.166 7 47.499 7c20 0 36.167 -2.16699 48.5 -6.5s22 -10.5 29 -18.5s11.833 -17.333 14.5 -28s4 -22.334 4 -35.001z" />
    <glyph glyph-name="slash" unicode="/" horiz-adv-x="348" 
d="M174 -43c-1.33301 -5.33301 -4.33203 -9.83398 -8.99902 -13.501s-9.66699 -5.5 -15 -5.5h-123c-16.667 0 -23.334 8.33301 -20.001 25l85 356l85 356c1.33301 4.66699 3.83301 8.83398 7.5 12.501s9.16699 5.5 16.5 5.5h121c8 0 13.5 -2.66699 16.5 -8
s4.16699 -12 3.5 -20z" />
    <glyph glyph-name="zero" unicode="0" horiz-adv-x="616" 
d="M304 -9c-43.333 0 -80.499 5.66504 -111.499 16.998s-57 26.5 -78 45.5s-37.667 40.5 -50 64.5s-21.666 49 -27.999 75s-10.333 51.833 -12 77.5s-2.5 49.167 -2.5 70.5c0 14 1 32 3 54s6.16699 45.333 12.5 70s15.666 49.334 27.999 74.001s29 47 50 67
s46.833 36.167 77.5 48.5s67.667 18.5 111 18.5c42.667 0 79.334 -5 110.001 -15s56.834 -23.333 78.501 -40s39.167 -36.167 52.5 -58.5s23.5 -45.833 30.5 -70.5s11.833 -49.667 14.5 -75s4 -49.666 4 -72.999c0 -19.333 -1 -41.333 -3 -66s-6.33301 -50 -13 -76
s-16.334 -51.5 -29.001 -76.5s-29.834 -47.167 -51.501 -66.5s-48.334 -35 -80.001 -47s-69.5 -18 -113.5 -18zM304.001 509.998c-16.667 0 -30.333 -4.33105 -41 -12.998s-19.167 -21 -25.5 -37s-10.833 -34.833 -13.5 -56.5s-4 -45.5 -4 -71.5
c0 -22.667 1.16699 -44.834 3.5 -66.501s6.66602 -40.834 12.999 -57.501s15 -30 26 -40s24.833 -15 41.5 -15c36 0 60.5 15.667 73.5 47s19.5 75.333 19.5 132c0 57.333 -6.16699 101.333 -18.5 132s-37.166 46 -74.499 46z" />
    <glyph glyph-name="one" unicode="1" horiz-adv-x="616" 
d="M120 0c-16 0 -23.999 8.33203 -23.999 24.999v107c0 16 8 24 24 24h100v333h-85c-10 0 -17.5 1.16699 -22.5 3.5s-7.5 8.5 -7.5 18.5v60c0 8.66699 1.33301 16.334 4 23.001s9.33398 12.667 20.001 18l85 40c13.333 6.66699 25.666 10.5 36.999 11.5
s23.666 1.5 36.999 1.5h96c18 0 27 -8.33301 27 -25v-484h108c10 0 16.333 -2 19 -6s4 -9.66699 4 -17v-108c0 -8.66699 -1.33301 -15 -4 -19s-9 -6 -19 -6h-399z" />
    <glyph glyph-name="two" unicode="2" horiz-adv-x="616" 
d="M328 157l205.004 -0.000976562c10 0 16.333 -2.16699 19 -6.5s4 -10.166 4 -17.499v-108c0 -8.66699 -1.33301 -15 -4 -19s-9 -6 -19 -6h-469c-16 -0 -24 8.33301 -24 25v82c0 6.66699 1 14 3 22s7 15.667 15 23l137 128l105 98c13.333 12 24.166 25.167 32.499 39.5
s12.5 29.166 12.5 44.499c0 17.333 -6 29.333 -18 36s-30.333 10 -55 10c-30.667 0 -61.834 -1.33301 -93.501 -4l-80.5 -7c-14.667 -1.33301 -24.834 -1 -30.501 1s-9.5 10.333 -11.5 25l-9 68c-0.666992 4.66699 -1 9.33398 -1 14.001s1 9.16699 3 13.5
s5.66699 8.5 11 12.5s12.666 8 21.999 12c14 5.33301 30.333 10 49 14s37.5 7.16699 56.5 9.5s36.833 4 53.5 5s29.667 1.5 39 1.5c94 0 161.833 -17.5 203.5 -52.5s62.5 -83.833 62.5 -146.5c0 -22 -2.16699 -41.833 -6.5 -59.5s-10.833 -34.5 -19.5 -50.5
s-19.5 -31.5 -32.5 -46.5s-27.833 -30.833 -44.5 -47.5l-24.5 -23.5l-26 -23.5l-29.5 -26.5l-37 -32.5z" />
    <glyph glyph-name="three" unicode="3" horiz-adv-x="616" 
d="M566 250c0 -51.333 -6.83203 -93.6689 -20.499 -127.002s-33.334 -59.666 -59.001 -78.999s-56.5 -33 -92.5 -41s-76 -12 -120 -12c-9.33301 0 -21.833 0.5 -37.5 1.5s-32.5 2.66699 -50.5 5s-36.167 5.33301 -54.5 9s-34.5 8.16699 -48.5 13.5
c-21.333 8 -34.333 16.167 -39 24.5s-5.66699 18.5 -3 30.5l13 67c2.66699 13.333 6.5 21.666 11.5 24.999s15.5 4 31.5 2c29.333 -4 58 -7.16699 86 -9.5s52.667 -3.5 74 -3.5c16.667 0 31.834 0.666992 45.501 2s25.5 4.66602 35.5 9.99902s17.667 13.166 23 23.499
s8 24.833 8 43.5c0 13.333 -3.33301 22.833 -10 28.5s-17 9.83398 -31 12.501l-138 26c-14 2.66699 -23.333 6.66699 -28 12s-7 15.333 -7 30v41c0 12.667 0.666992 21.834 2 27.501s5 11.167 11 16.5l92 76l-1 4h-178c-16 0 -24 8 -24 24v107c0 16.667 8 25 24 25h434
c10 0 16.333 -2 19 -6s4 -10.333 4 -19l-1 -80c0 -7.33301 -0.833008 -15 -2.5 -23s-7.83398 -16.667 -18.501 -26l-93 -82l2 -4l39 -10c19.333 -5.33301 35.5 -13.166 48.5 -23.499s23.5 -22.666 31.5 -36.999s13.667 -30.333 17 -48s5 -36.5 5 -56.5z" />
    <glyph glyph-name="four" unicode="4" horiz-adv-x="616" 
d="M324 425l-97 -132v-6h103v138h-6zM516 24c0 -4 -1.16699 -9.00293 -3.5 -15.0029s-8.83301 -9 -19.5 -9h-142c-9.33301 0 -15.666 2.33301 -18.999 7s-5 10.334 -5 17.001v112l-274 -1c-8.66699 0 -16.167 2 -22.5 6s-9.5 11.667 -9.5 23v94
c0 4.66699 0.5 9.83398 1.5 15.501s4.16699 11.834 9.5 18.501l273 351c11.333 13.333 26.666 20 45.999 20h142c10.667 0 17.167 -3 19.5 -9s3.5 -11 3.5 -15v-347h59c10 0 16.333 -2 19 -6s4 -9.66699 4 -17v-109c0 -8.66699 -1.33301 -15 -4 -19s-9 -6 -19 -6l-59 1v-112
z" />
    <glyph glyph-name="five" unicode="5" horiz-adv-x="616" 
d="M369 236c0 10.667 -3 19.167 -9 25.5s-16.333 11.166 -31 14.499l-222 39c-22.667 4 -36.334 11.5 -41.001 22.5s-5.33398 25.5 -2.00098 43.5l40 238c2.66699 15.333 7.66699 26.833 15 34.5s20 11.5 38 11.5h351c16 0 24 -8.33301 24 -25v-107c0 -16 -8 -24 -24 -24
h-237l-10 -59l157 -23c45.333 -6.66699 81.5 -25 108.5 -55s40.5 -70.667 40.5 -122s-7 -93.666 -21 -126.999s-33.667 -59.666 -59 -78.999s-56.166 -33 -92.499 -41s-76.5 -12 -120.5 -12c-9.33301 0 -21.833 0.5 -37.5 1.5s-32.5 2.66699 -50.5 5
s-36.167 5.33301 -54.5 9s-34.5 8.16699 -48.5 13.5c-21.333 8 -34.333 16.167 -39 24.5s-5.66699 18.5 -3 30.5l13 67c2.66699 13.333 6.5 21.666 11.5 24.999s15.5 4 31.5 2c29.333 -4 58 -7.16699 86 -9.5s52.667 -3.5 74 -3.5c16.667 0 31.834 0.666992 45.501 2
s25.5 4.66602 35.5 9.99902s17.667 13.333 23 24s8 25.334 8 44.001z" />
    <glyph glyph-name="six" unicode="6" horiz-adv-x="616" 
d="M587 207c0 -40.667 -8.33398 -74.6641 -25.001 -101.997s-38.334 -49.5 -65.001 -66.5s-56.834 -29.167 -90.501 -36.5s-67.167 -11 -100.5 -11c-62.667 0 -112 8.33301 -148 25s-63.167 39.334 -81.5 68.001s-29.833 62.5 -34.5 101.5s-7 81.167 -7 126.5
c0 25.333 1.16699 51.666 3.5 78.999s7 54.333 14 81s16.833 52.167 29.5 76.5s29.5 45.666 50.5 63.999s46.833 32.833 77.5 43.5s67.334 16 110.001 16h28.5c13.667 0 29.667 -0.833008 48 -2.5s38 -4.5 59 -8.5s41.167 -9.66699 60.5 -17
c18.667 -7.33301 30.167 -14.333 34.5 -21s4.83301 -16.334 1.5 -29.001l-14 -67c-3.33301 -14 -7.66602 -22.833 -12.999 -26.5s-13 -4.83398 -23 -3.50098c-26 3.33301 -54.667 6 -86 8s-63.666 3 -96.999 3c-25.333 0 -44.666 -6.33301 -57.999 -19
s-21.666 -33 -24.999 -61c27.333 2.66699 50.666 4.5 69.999 5.5s39.666 1.5 60.999 1.5c72 0 126.667 -19 164 -57s56 -95 56 -171zM393.999 206.003c0 25.333 -4.16406 44.0029 -12.4971 56.0029s-22.833 18 -43.5 18c-12.667 0 -26.834 -0.333008 -42.501 -1
s-37.834 -2.33398 -66.501 -5.00098c-0.666992 -23.333 -0.166992 -42.833 1.5 -58.5s5.16699 -29.167 10.5 -40.5c3.33301 -7.33301 9.83301 -13.5 19.5 -18.5s26.167 -7.5 49.5 -7.5c11.333 0 22.166 0.833008 32.499 2.5s19.333 4.66699 27 9s13.667 10.166 18 17.499
s6.5 16.666 6.5 27.999z" />
    <glyph glyph-name="seven" unicode="7" horiz-adv-x="616" 
d="M286 -4c-5.33301 -9.33301 -10.5 -15.667 -15.5 -19s-13.833 -2 -26.5 4l-113 49c-12.667 6 -19.167 11.5 -19.5 16.5s2.16699 13.167 7.5 24.5l218 438h-270c-16 0 -24 8 -24 24v107c0 16.667 8 25 24 25h477c10 0 16.333 -2 19 -6s4 -10.333 4 -19l-1 -73
c0 -11.333 -1.66699 -21 -5 -29s-8.33301 -18.333 -15 -31z" />
    <glyph glyph-name="eight" unicode="8" horiz-adv-x="616" 
d="M303 -9c-40 0 -76.832 3.83203 -110.499 11.499s-62.667 19.834 -87 36.501s-43.333 38.167 -57 64.5s-20.5 58.166 -20.5 95.499c0 29.333 7.33301 57.5 22 84.5s37 49.833 67 68.5c-13.333 6.66699 -24.5 14.667 -33.5 24s-16.333 19.333 -22 30
s-9.83398 21.5 -12.501 32.5s-4 21.5 -4 31.5c0 34 6.33301 63.667 19 89s30.5 46.5 53.5 63.5s50.5 29.833 82.5 38.5s67.333 13 106 13c36.667 0 70.667 -3.83301 102 -11.5s58.5 -19.5 81.5 -35.5s41.167 -36.667 54.5 -62s20 -55.666 20 -90.999
c0 -8.66699 -1.5 -18.667 -4.5 -30s-7.5 -22.5 -13.5 -33.5s-13.5 -21.5 -22.5 -31.5s-19.833 -18.333 -32.5 -25c33.333 -16.667 57 -39 71 -67s21 -56.667 21 -86c0 -33.333 -7 -63 -21 -89s-33.5 -48 -58.5 -66s-54.5 -31.667 -88.5 -41s-71.333 -14 -112 -14z
M388.001 215.999c0 22.667 -8.49902 39.5 -25.499 50.5s-37.167 18.5 -60.5 22.5c-9.33301 -2 -18.833 -4.83301 -28.5 -8.5s-18.334 -8.5 -26.001 -14.5s-14 -13.167 -19 -21.5s-7.5 -17.833 -7.5 -28.5c0 -18 7.33301 -32.833 22 -44.5s34.667 -17.5 60 -17.5
c30 0 51.667 6.66699 65 20s20 27.333 20 42zM306.002 510.999c-21.333 0 -37.501 -4.50098 -48.501 -13.501s-16.5 -19.833 -16.5 -32.5c0 -10 5.33301 -19 16 -27s27.667 -14.667 51 -20c23.333 3.33301 39.333 9.83301 48 19.5s13 18.834 13 27.501
c0 15.333 -6.16699 26.833 -18.5 34.5s-27.166 11.5 -44.499 11.5z" />
    <glyph glyph-name="nine" unicode="9" horiz-adv-x="616" 
d="M33 450c0 40.667 8.33301 74.998 25 102.998s38.334 50.833 65.001 68.5s56.834 30.5 90.501 38.5s67.167 12 100.5 12c62.667 0 112 -8.33301 148 -25s63.167 -39.334 81.5 -68.001s29.833 -62.667 34.5 -102s7 -81.333 7 -126c0 -25.333 -1.16699 -51.666 -3.5 -78.999
s-7 -54.333 -14 -81s-16.833 -52.167 -29.5 -76.5s-29.5 -45.666 -50.5 -63.999s-46.833 -32.833 -77.5 -43.5s-67.334 -16 -110.001 -16h-28.5c-13.667 0 -29.667 0.833008 -48 2.5s-38 4.5 -59 8.5s-41.167 9.66699 -60.5 17c-18.667 7.33301 -30.167 14.333 -34.5 21
s-4.83301 16.334 -1.5 29.001l14 67c4 13.333 8.5 22 13.5 26s12.5 5.33301 22.5 4c26 -3.33301 54.167 -6 84.5 -8s62.166 -3 95.499 -3c25.333 0 45.166 6 59.499 18s23.166 32 26.499 60c-27.333 -2.66699 -50.666 -4.16699 -69.999 -4.5s-39.666 -0.5 -60.999 -0.5
c-72 0 -126.667 18 -164 54s-56 92 -56 168zM226 453.998c0 -25.333 4.16309 -43.5 12.4961 -54.5s22.833 -16.5 43.5 -16.5c12.667 0 26.834 0.333008 42.501 1s37.834 2.33398 66.501 5.00098c0 18.667 -0.666992 37 -2 55s-4.33301 31.667 -9 41
c-3.33301 7.33301 -10.666 13.5 -21.999 18.5s-27.333 7.5 -48 7.5c-23.333 0 -43.166 -3.83301 -59.499 -11.5s-24.5 -22.834 -24.5 -45.501z" />
    <glyph glyph-name="colon" unicode=":" horiz-adv-x="252" 
d="M222 79c0 -11.333 -1.16699 -22.166 -3.5 -32.499s-7 -19.833 -14 -28.5s-16.833 -15.5 -29.5 -20.5s-29 -7.5 -49 -7.5c-21.333 0 -38.166 2.66699 -50.499 8s-22 12.166 -29 20.499s-11.5 17.833 -13.5 28.5s-3 21.334 -3 32.001c0 12 1.5 23.333 4.5 34s8 20 15 28
s16.667 14.333 29 19s28.166 7 47.499 7c20 0 36.167 -2.16699 48.5 -6.5s22 -10.5 29 -18.5s11.833 -17.333 14.5 -28s4 -22.334 4 -35.001zM222 372c0 -11.333 -1.16699 -22.166 -3.5 -32.499s-7 -19.833 -14 -28.5s-16.833 -15.5 -29.5 -20.5s-29 -7.5 -49 -7.5
c-21.333 0 -38.166 2.66699 -50.499 8s-22 12.166 -29 20.499s-11.5 17.833 -13.5 28.5s-3 21.334 -3 32.001c0 12 1.5 23.333 4.5 34s8 20 15 28s16.667 14.333 29 19s28.166 7 47.499 7c20 0 36.167 -2.16699 48.5 -6.5s22 -10.5 29 -18.5s11.833 -17.333 14.5 -28
s4 -22.334 4 -35.001z" />
    <glyph glyph-name="semicolon" unicode=";" horiz-adv-x="252" 
d="M222 372c0 -11.333 -1.16699 -22.166 -3.5 -32.499s-7 -19.833 -14 -28.5s-16.833 -15.5 -29.5 -20.5s-29 -7.5 -49 -7.5c-21.333 0 -38.166 2.66699 -50.499 8s-22 12.166 -29 20.499s-11.5 17.833 -13.5 28.5s-3 21.334 -3 32.001c0 12 1.5 23.333 4.5 34s8 20 15 28
s16.667 14.333 29 19s28.166 7 47.499 7c20 0 36.167 -2.16699 48.5 -6.5s22 -10.5 29 -18.5s11.833 -17.333 14.5 -28s4 -22.334 4 -35.001zM224 36c0 -23.333 -3.5 -45.8301 -10.5 -67.4971s-16.333 -41.834 -28 -60.501s-24.834 -35.334 -39.501 -50.001
s-29.334 -26.334 -44.001 -35.001c-10 -5.33301 -18.5 -7.16602 -25.5 -5.49902s-13.833 6.16699 -20.5 13.5l-32 33c-5.33301 5.33301 -9.16602 9.66602 -11.499 12.999s-3.33301 6.5 -3 9.5s2 6.5 5 10.5s7.5 9 13.5 15c12 13.333 20.667 26.5 26 39.5s8 24.833 8 35.5
c0 20.667 -7.33301 39.334 -22 56.001c-11.333 12 -17.666 21.833 -18.999 29.5s5.66699 17.167 21 28.5l77 59c12.667 9.33301 23 12.166 31 8.49902s17 -10.167 27 -19.5c15.333 -14.667 27 -32.667 35 -54s12 -41 12 -59z" />
    <glyph glyph-name="less" unicode="&#x3c;" horiz-adv-x="616" 
d="M523 207c5.33301 -2 9.49902 -4.83105 12.499 -8.49805s4.5 -9.16699 4.5 -16.5v-123c0 -6 -2.16699 -9.83301 -6.5 -11.5s-9.16602 -1.16699 -14.499 1.5l-423 208c-4 2 -7.83301 4.66699 -11.5 8s-5.5 9.33301 -5.5 18v88c0 7.33301 1.5 12.666 4.5 15.999
s6.83301 6.33301 11.5 9l425 211c7.33301 3.33301 12.333 3.16602 15 -0.500977s4 -7.5 4 -11.5v-118c0 -8 -1.66699 -13.667 -5 -17s-7.33301 -6.33301 -12 -9l-237 -121v-5l238 -118v0z" />
    <glyph glyph-name="equal" unicode="=" horiz-adv-x="616" 
d="M527 488c10 0 16.333 -2 19 -6s4 -9.66699 4 -17v-88c0 -8.66699 -1.33301 -15 -4 -19s-9 -6 -19 -6h-436c-16 0 -24 8.33301 -24 25v87c0 16 8 24 24 24h436zM527 293c10 0 16.333 -2 19 -6s4 -9.66699 4 -17v-88c0 -8.66699 -1.33301 -15 -4 -19s-9 -6 -19 -6h-436
c-16 0 -24 8.33301 -24 25v87c0 16 8 24 24 24h436z" />
    <glyph glyph-name="greater" unicode="&#x3e;" horiz-adv-x="616" 
d="M335 325l-0.000976562 4.99805l-237 121c-4.66699 2.66699 -8.66699 5.66699 -12 9s-5 9 -5 17v118c0 4 1.33301 7.83301 4 11.5s7.66699 3.83398 15 0.500977l425 -211c4.66699 -2.66699 8.5 -5.66699 11.5 -9s4.5 -8.66602 4.5 -15.999v-88
c0 -8.66699 -1.83301 -14.667 -5.5 -18s-7.5 -6 -11.5 -8l-423 -208c-5.33301 -2.66699 -10.166 -3.16699 -14.499 -1.5s-6.5 5.5 -6.5 11.5v123c0 7.33301 1.5 12.833 4.5 16.5s7.16699 6.5 12.5 8.5z" />
    <glyph glyph-name="question" unicode="?" horiz-adv-x="475" 
d="M435 505c0 -18.667 -2.83203 -35.333 -8.49902 -50s-13 -27.5 -22 -38.5s-18.667 -20.833 -29 -29.5s-20.166 -16.334 -29.499 -23.001c-12.667 -9.33301 -23.334 -18.166 -32.001 -26.499s-15.834 -17 -21.501 -26s-9.83398 -18.667 -12.501 -29s-4 -22.5 -4 -36.5v-29
c0 -6.66699 -1.16699 -12.5 -3.5 -17.5s-7.5 -7.5 -15.5 -7.5h-127c-7.33301 0 -13 1.5 -17 4.5s-6.66699 9.16699 -8 18.5s-2 16.833 -2 22.5v19.5c0 26 2 48.167 6 66.5s10.333 34.666 19 48.999s19.5 27.833 32.5 40.5s28.167 26.334 45.5 41.001
c16.667 12.667 25 25.667 25 39c0 11.333 -4.83301 19.166 -14.5 23.499s-25.834 6.5 -48.501 6.5c-14 0 -29.167 -0.5 -45.5 -1.5s-31.5 -2.5 -45.5 -4.5c-15.333 -2 -24.666 -2 -27.999 0s-5.66602 8.33301 -6.99902 19l-6 72c-1.33301 12 -1 20 1 24
s8.66699 8.66699 20 14c13.333 6 27 10.667 41 14s27.5 5.83301 40.5 7.5s25 2.83398 36 3.50098s20.167 1 27.5 1c74.667 0 132.167 -14.167 172.5 -42.5s60.5 -69.833 60.5 -124.5zM280.001 75.001c0 -10.667 -1.16797 -21.001 -3.50098 -31.001s-6.83301 -19 -13.5 -27
s-16 -14.5 -28 -19.5s-27.667 -7.5 -47 -7.5c-20 0 -36.167 2.5 -48.5 7.5s-21.666 11.667 -27.999 20s-10.5 17.5 -12.5 27.5s-3 20 -3 30c0 12 1.33301 23.167 4 33.5s7.5 19.333 14.5 27s16.5 13.667 28.5 18s27 6.5 45 6.5c18.667 0 34 -2.16699 46 -6.5
s21.5 -10.166 28.5 -17.499s11.667 -16.333 14 -27s3.5 -22 3.5 -34z" />
    <glyph glyph-name="at" unicode="@" horiz-adv-x="947" 
d="M487 741c68.667 0 127.666 -9.83789 176.999 -29.5049s90 -46.167 122 -79.5s55.5 -72 70.5 -116s22.5 -90.667 22.5 -140c0 -39.333 -5.83301 -73.333 -17.5 -102s-27 -52.5 -46 -71.5s-40.833 -33.167 -65.5 -42.5s-50.334 -14 -77.001 -14c-28 0 -54 4.66699 -78 14
s-41.667 23 -53 41c-16 -11.333 -34.5 -20.666 -55.5 -27.999s-42.167 -11 -63.5 -11c-47.333 0 -81.166 10.167 -101.499 30.5s-30.5 52.833 -30.5 97.5c0 50.667 15.167 86.5 45.5 107.5s72.166 31.5 125.499 31.5h52v6c0 11.333 -5.16699 18.5 -15.5 21.5
s-22.833 4.5 -37.5 4.5c-4.66699 0 -11.334 -0.333008 -20.001 -1s-18 -1.5 -28 -2.5l-29.5 -3l-23.5 -2.5c-13.333 -1.33301 -22 -1.16602 -26 0.500977s-7 8.16699 -9 19.5l-7 41c-2 13.333 0.5 22.833 7.5 28.5s15.167 10.167 24.5 13.5c16.667 5.33301 36.5 10 59.5 14
s46.167 6 69.5 6c34.667 0 63 -3.33301 85 -10s39.167 -16.667 51.5 -30s20.666 -29.833 24.999 -49.5s6.5 -42.167 6.5 -67.5v-122c0 -2 0.166992 -4.66699 0.5 -8s1.66602 -6.66602 3.99902 -9.99902s5.83301 -6.33301 10.5 -9s11.334 -4 20.001 -4
c16.667 0 31.834 8.33301 45.501 25s20.5 43.667 20.5 81c0 34 -5.16699 66.333 -15.5 97s-26 57.334 -47 80.001s-47.333 40.667 -79 54s-69.167 20 -112.5 20c-48 0 -90.667 -6.83301 -128 -20.5s-68.666 -32.167 -93.999 -55.5s-44.5 -50.833 -57.5 -82.5
s-19.5 -65.5 -19.5 -101.5c0 -37.333 6 -71.833 18 -103.5s29.5 -59 52.5 -82s51.167 -41 84.5 -54s71.666 -19.5 114.999 -19.5c4 0 10.167 0.166992 18.5 0.5s17.833 1 28.5 2s22.167 2.33301 34.5 4s24.166 3.5 35.499 5.5c9.33301 2 16.666 3.16699 21.999 3.5
s9.5 -0.166992 12.5 -1.5s5.33301 -3.5 7 -6.5s3.16699 -7.5 4.5 -13.5l14 -52c3.33301 -12.667 2 -22 -4 -28s-12.667 -10.667 -20 -14c-11.333 -4.66699 -23.833 -8.66699 -37.5 -12s-27.667 -6 -42 -8s-28.166 -3.33301 -41.499 -4s-24.666 -1 -33.999 -1
c-69.333 0 -129.166 9.5 -179.499 28.5s-91.666 45.5 -123.999 79.5s-56.166 74.333 -71.499 121s-23 97.667 -23 153c0 54.667 10.5 105.334 31.5 152.001s50.167 87 87.5 121s81.833 60.5 133.5 79.5s108.167 28.5 169.5 28.5zM418.999 289.995
c0 -4.66699 1.50098 -9.5 4.50098 -14.5s8.83301 -7.5 17.5 -7.5c9.33301 0 19.666 1.83301 30.999 5.5s25 10.167 41 19.5l-1 40h-55c-25.333 0 -38 -14.333 -38 -43z" />
    <glyph glyph-name="A" unicode="A" horiz-adv-x="650" 
d="M204 33c-3.33301 -12.667 -8.33398 -21.3311 -15.001 -25.998s-15.667 -7 -27 -7h-138c-9.33301 0 -15.5 1.66699 -18.5 5s-2.5 11.666 1.5 24.999l186 601c3.33301 11.333 8 20 14 26s17.667 9 35 9h157c17.333 0 28.666 -3 33.999 -9s10 -15 14 -27l197 -602
c6 -18.667 1.66699 -28 -13 -28h-153c-13.333 0 -22.666 3.16699 -27.999 9.5s-9.66602 16.166 -12.999 29.499l-27 98h-178zM348.999 367.003l-25 104h-6l-47 -188h99z" />
    <glyph glyph-name="B" unicode="B" horiz-adv-x="662" 
d="M607 204c0 -33.333 -6.16895 -62.668 -18.502 -88.001s-28.666 -46.5 -48.999 -63.5s-43.666 -30 -69.999 -39s-53.833 -13.5 -82.5 -13.5h-298c-9.33301 0 -15.666 2.33301 -18.999 7s-5 10.334 -5 17.001v617c0 6.66699 1.66699 12.334 5 17.001s9.66602 7 18.999 7
l286 1c70.667 0 124.167 -16.833 160.5 -50.5s54.5 -80.834 54.5 -141.501c0 -6.66699 -0.833008 -15.167 -2.5 -25.5s-5 -21.333 -10 -33s-11.667 -22.834 -20 -33.501s-19.5 -19.667 -33.5 -27v-5c19.333 -8 34.5 -18.333 45.5 -31s19.333 -26 25 -40
s9.16699 -27.667 10.5 -41s2 -24.666 2 -33.999zM405.998 212.998c0 15.333 -4.33301 28.167 -13 38.5s-22.667 15.5 -42 15.5h-89v-106h89c20.667 0 35 4.83301 43 14.5s12 22.167 12 37.5zM389.998 460.999c0 12.667 -3.66699 23 -11 31s-19.666 12 -36.999 12h-80v-83h80
c17.333 0 29.666 3.66699 36.999 11s11 17 11 29z" />
    <glyph glyph-name="C" unicode="C" horiz-adv-x="619" 
d="M55 332c0 39.333 3.99707 79.3291 11.9971 119.996s23.167 77.334 45.5 110.001s53.5 59.334 93.5 80.001s91.667 31 155 31c36.667 0 71.334 -2.83301 104.001 -8.5s62 -14.167 88 -25.5c11.333 -5.33301 20.5 -11.5 27.5 -18.5s8.83301 -18.833 5.5 -35.5l-15 -71
c-2.66699 -12.667 -6.5 -20.167 -11.5 -22.5s-15.167 -2.83301 -30.5 -1.5c-30 2.66699 -57.5 4.83398 -82.5 6.50098s-46.167 2.5 -63.5 2.5c-23.333 0 -42.666 -4.16699 -57.999 -12.5s-27.5 -19.666 -36.5 -33.999s-15.333 -31.5 -19 -51.5s-5.5 -41.667 -5.5 -65
c0 -30.667 1.83301 -57 5.5 -79s10 -40 19 -54s21 -24.333 36 -31s34.167 -10 57.5 -10c12.667 0 24.5 0.166992 35.5 0.5s22 0.833008 33 1.5s23 1.5 36 2.5s28.167 2.5 45.5 4.5c15.333 1.33301 25.333 1 30 -1s8.66699 -9.66699 12 -23l17 -65
c4.66699 -16 3.33398 -28 -3.99902 -36s-16.666 -14.667 -27.999 -20c-26 -11.333 -56.167 -20.166 -90.5 -26.499s-69.833 -9.5 -106.5 -9.5c-42.667 0 -79.667 4.66699 -111 14s-58.5 22.166 -81.5 38.499s-41.833 35.333 -56.5 57s-26.334 45.167 -35.001 70.5
s-14.667 51.833 -18 79.5s-5 55.167 -5 82.5z" />
    <glyph glyph-name="D" unicode="D" horiz-adv-x="680" 
d="M89 0c-9.33301 0 -15.665 2.3291 -18.998 6.99609s-5 10.334 -5 17.001v617c0 6.66699 1.66699 12.334 5 17.001s9.66602 7 18.999 7h230c60 0 109.833 -9.16699 149.5 -27.5s71 -42.666 94 -72.999s39.167 -65.5 48.5 -105.5s14 -81.667 14 -125
s-4.5 -85.166 -13.5 -125.499s-25 -76 -48 -107s-54.333 -55.667 -94 -74s-89.834 -27.5 -150.501 -27.5h-230zM422.001 326.996c0 26 -1.66699 49.8311 -5 71.498s-9.5 40.334 -18.5 56.001s-21 27.834 -36 36.501s-34.5 13 -58.5 13h-44v-343h37
c44.667 0 76.667 14.5 96 43.5s29 69.833 29 122.5z" />
    <glyph glyph-name="E" unicode="E" horiz-adv-x="582" 
d="M65 641c0 6.66699 1.66699 12.3291 5 16.9961s9.66602 7 18.999 7h420c7.33301 0 13.166 -2.16699 17.499 -6.5s6.5 -10.166 6.5 -17.499v-115c0 -6 -1.66699 -11.167 -5 -15.5s-9.66602 -6.5 -18.999 -6.5h-248v-80h214c7.33301 0 13.166 -2.16699 17.499 -6.5
s6.5 -10.166 6.5 -17.499v-115c0 -6 -1.66699 -11.167 -5 -15.5s-9.66602 -6.5 -18.999 -6.5h-214v-102h252c7.33301 0 13.166 -2.16699 17.499 -6.5s6.5 -10.166 6.5 -17.499v-115c0 -6 -1.66699 -11.167 -5 -15.5s-9.66602 -6.5 -18.999 -6.5h-424
c-9.33301 0 -15.666 2.33301 -18.999 7s-5 10.334 -5 17.001v617z" />
    <glyph glyph-name="F" unicode="F" horiz-adv-x="546" 
d="M63 641c0 6.66699 1.66699 12.3301 5 16.9971s9.66602 7 18.999 7h412c7.33301 0 13.166 -2.16699 17.499 -6.5s6.5 -10.166 6.5 -17.499v-115c0 -6 -1.66699 -11.167 -5 -15.5s-9.66602 -6.5 -18.999 -6.5h-239v-80h201c7.33301 0 13.166 -2.16699 17.499 -6.5
s6.5 -10.166 6.5 -17.499v-115c0 -6 -1.66699 -11.167 -5 -15.5s-9.66602 -6.5 -18.999 -6.5h-201v-239c0 -4 -1.16699 -9 -3.5 -15s-8.83301 -9 -19.5 -9h-149c-9.33301 0 -15.666 2.33301 -18.999 7s-5 10.334 -5 17.001z" />
    <glyph glyph-name="G" unicode="G" horiz-adv-x="664" 
d="M264 336c0 -26 1.1709 -49.8311 3.50391 -71.498s7.5 -40.334 15.5 -56.001s19.167 -27.667 33.5 -36s33.5 -12.5 57.5 -12.5c9.33301 0 17.666 0.166992 24.999 0.5s15 1.16602 23 2.49902v81h-58c-10.667 0 -17.334 2.16699 -20.001 6.5s-4 9.5 -4 15.5v105
c0 7.33301 1.33301 13.166 4 17.499s9.33398 6.5 20.001 6.5h221c7.33301 0 13.166 -2.16699 17.499 -6.5s6.5 -10.166 6.5 -17.499v-46.5v-36.5v-34v-39.5c0 -15 -0.166992 -32.667 -0.5 -53s-0.5 -44.833 -0.5 -73.5c0 -12 -1.5 -23.667 -4.5 -35
s-12.167 -20.333 -27.5 -27c-17.333 -6.66699 -35.833 -12.334 -55.5 -17.001s-39.5 -8.33398 -59.5 -11.001s-39.5 -4.66699 -58.5 -6s-36.167 -2 -51.5 -2c-62 0 -112.333 9.83301 -151 29.5s-68.834 45.5 -90.501 77.5s-36.167 68.5 -43.5 109.5s-11 82.833 -11 125.5
c0 39.333 4 79.333 12 120s23.167 77.334 45.5 110.001s53.5 59.334 93.5 80.001s91.667 31 155 31c36.667 0 71.334 -2.83301 104.001 -8.5s62 -14.167 88 -25.5c11.333 -5.33301 20.5 -11.5 27.5 -18.5s8.83301 -18.833 5.5 -35.5l-16 -73
c-2.66699 -12.667 -6.5 -20 -11.5 -22s-14.833 -2 -29.5 0c-30 3.33301 -56.833 5.83301 -80.5 7.5s-44.167 2.5 -61.5 2.5c-24 0 -43.833 -4.16699 -59.5 -12.5s-28.334 -19.833 -38.001 -34.5s-16.334 -32 -20.001 -52s-5.5 -41.667 -5.5 -65z" />
    <glyph glyph-name="H" unicode="H" horiz-adv-x="671" 
d="M410 641c0 6.66699 1.66699 12.3301 5 16.9971s9.66602 7 18.999 7h149c10.667 0 17.167 -3 19.5 -9s3.5 -11 3.5 -15v-617c0 -4 -1.16699 -9 -3.5 -15s-8.83301 -9 -19.5 -9h-149c-9.33301 0 -15.666 2.33301 -18.999 7s-5 10.334 -5 17.001v237h-149v-237
c0 -4 -1.16699 -9 -3.5 -15s-8.83301 -9 -19.5 -9h-149c-9.33301 0 -15.666 2.33301 -18.999 7s-5 10.334 -5 17.001v617c0 6.66699 1.66699 12.334 5 17.001s9.66602 7 18.999 7h149c10.667 0 17.167 -3 19.5 -9s3.5 -11 3.5 -15v-218h149v218z" />
    <glyph glyph-name="I" unicode="I" horiz-adv-x="326" 
d="M65 641c0 6.66699 1.66699 12.332 5 16.999s9.66602 7 18.999 7h149c10.667 0 17.167 -3 19.5 -9s3.5 -11 3.5 -15v-617c0 -4 -1.16699 -9 -3.5 -15s-8.83301 -9 -19.5 -9h-149c-9.33301 0 -15.666 2.33301 -18.999 7s-5 10.334 -5 17.001v617z" />
    <glyph glyph-name="J" unicode="J" horiz-adv-x="498" 
d="M227 641c0 6.66699 1.66602 12.3311 4.99902 16.998s9.66602 7 18.999 7h149c10.667 0 17.167 -3 19.5 -9s3.5 -11 3.5 -15v-119.5v-85.5v-64v-55c0 -18 -0.166992 -37.333 -0.5 -58s-0.5 -45.334 -0.5 -74.001c0 -61.333 -19 -109 -57 -143s-96.333 -51 -175 -51
c-7.33301 0 -16.666 0.333008 -27.999 1s-23.5 1.83398 -36.5 3.50098s-26.167 3.66699 -39.5 6s-25.333 5.5 -36 9.5c-10.667 3.33301 -19.167 6.5 -25.5 9.5s-11 6.33301 -14 10s-4.66699 8.16699 -5 13.5s0.5 12 2.5 20l19 82c3.33301 12.667 6.5 19.834 9.5 21.501
s9.83301 1.83398 20.5 0.500977c18 -2.66699 34.833 -4.5 50.5 -5.5s30.834 -1.5 45.501 -1.5c16 0 29 1.66699 39 5s17.667 8 23 14s8.83301 13 10.5 21s2.5 16.667 2.5 26z" />
    <glyph glyph-name="K" unicode="K" horiz-adv-x="650" 
d="M256 457l68.002 90.9971l75 94c6.66699 7.33301 14.167 13 22.5 17s19.166 6 32.499 6h160c13.333 0 21.166 -3.16699 23.499 -9.5s-0.5 -14.166 -8.5 -23.499l-205 -247l215 -348c8.66699 -14 10.5 -23.667 5.5 -29s-11.5 -8 -19.5 -8h-159c-15.333 0 -26.833 3 -34.5 9
s-14.167 13.333 -19.5 22l-116 200l-43 -52v-155c0 -4 -1.16699 -9 -3.5 -15s-8.83301 -9 -19.5 -9h-149c-9.33301 0 -15.666 2.33301 -18.999 7s-5 10.334 -5 17.001v617c0 6.66699 1.66699 12.334 5 17.001s9.66602 7 18.999 7h149c10.667 0 17.167 -3 19.5 -9
s3.5 -11 3.5 -15v-184h3z" />
    <glyph glyph-name="L" unicode="L" horiz-adv-x="544" 
d="M261 161l255.001 -0.00292969c5.33301 0 9.66602 -1.33301 12.999 -4s5 -7 5 -13v-122c0 -6 -1.66699 -11.167 -5 -15.5s-9.66602 -6.5 -18.999 -6.5h-421c-9.33301 0 -15.666 2.33301 -18.999 7s-5 10.334 -5 17.001v617c0 6.66699 1.66699 12.334 5 17.001
s9.66602 7 18.999 7h148c9.33301 0 15.666 -2.16699 18.999 -6.5s5 -10.166 5 -17.499v-480z" />
    <glyph glyph-name="M" unicode="M" horiz-adv-x="799" 
d="M405 330l87 178.996l66 128c5.33301 9.33301 11.166 16.333 17.499 21s17.833 7 34.5 7h101c10.667 0 17.167 -3 19.5 -9s3.5 -11 3.5 -15v-617c0 -4 -1.16699 -9 -3.5 -15s-8.83301 -9 -19.5 -9h-143c-9.33301 0 -15.666 2.33301 -18.999 7s-5 10.334 -5 17.001v229
l-3 1l-35 -78l-25 -51c-5.33301 -9.33301 -11.5 -17.166 -18.5 -23.499s-18.167 -9.5 -33.5 -9.5h-59c-14 0 -24.5 2.83301 -31.5 8.5s-13.167 13.167 -18.5 22.5l-26 52l-37 81l-2 -1v-231c0 -4 -1.16699 -9 -3.5 -15s-8.83301 -9 -19.5 -9h-143
c-9.33301 0 -15.666 2.33301 -18.999 7s-5 10.334 -5 17.001v617c0 6.66699 1.66699 12.334 5 17.001s9.66602 7 18.999 7h105c17.333 0 29.333 -2 36 -6s12.667 -11 18 -21l65 -129l86 -179h6z" />
    <glyph glyph-name="N" unicode="N" horiz-adv-x="688" 
d="M348 169l-90 134h-3v-279c0 -4 -1.16699 -9 -3.5 -15s-8.83301 -9 -19.5 -9h-143c-9.33301 -0 -15.666 2.33301 -18.999 7s-5 10.334 -5 17.001v617c0 6.66699 1.66699 12.334 5 17.001s9.66602 7 18.999 7h102c15.333 0 25.833 -2 31.5 -6s11.167 -10 16.5 -18l109 -162
l81 -122l4 1v283c0 4 1.16699 9 3.5 15s8.83301 9 19.5 9h143c9.33301 0 15.666 -2.33301 18.999 -7s5 -10.334 5 -17.001v-617c0 -6.66699 -1.66699 -12.334 -5 -17.001s-9.66602 -7 -18.999 -7h-101c-13.333 0 -23.833 2.5 -31.5 7.5s-14.5 11.833 -20.5 20.5z" />
    <glyph glyph-name="O" unicode="O" horiz-adv-x="712" 
d="M657 341c0 -24.667 -1.16602 -50.5 -3.49902 -77.5s-7.33301 -53.333 -15 -79s-18.334 -50.334 -32.001 -74.001s-31.834 -44.334 -54.501 -62.001s-50.167 -31.667 -82.5 -42s-71.166 -15.5 -116.499 -15.5s-84.166 5.16699 -116.499 15.5s-59.5 24.5 -81.5 42.5
s-39.667 38.667 -53 62s-23.5 48 -30.5 74s-11.5 52.333 -13.5 79s-3 52.334 -3 77.001c0 19.333 1.16699 40.833 3.5 64.5s7.16602 47.834 14.499 72.501s17.666 48.667 30.999 72s31.166 44.166 53.499 62.499s49.333 33 81 44s69.834 16.5 114.501 16.5
c65.333 0 117.833 -10 157.5 -30s70.334 -45.833 92.001 -77.5s36.167 -67.167 43.5 -106.5s11 -78.666 11 -117.999zM454.001 330c0 32 -1.66504 59.165 -4.99805 81.498s-8.83301 40.5 -16.5 54.5s-17.834 24 -30.501 30s-28.334 9 -47.001 9
c-34 0 -57.833 -13.333 -71.5 -40s-20.5 -71.667 -20.5 -135c0 -61.333 6.66699 -105.166 20 -131.499s37.333 -39.5 72 -39.5c36 0 61.5 13.333 76.5 40s22.5 70.334 22.5 131.001z" />
    <glyph glyph-name="P" unicode="P" horiz-adv-x="590" 
d="M261 24c0 -4 -1.16797 -9.00098 -3.50098 -15.001s-8.83301 -9 -19.5 -9h-149c-9.33301 0 -15.666 2.33301 -18.999 7s-5 10.334 -5 17.001v617c0 6.66699 1.66699 12.334 5 17.001s9.66602 7 18.999 7h250c32 0 62.333 -4.33301 91 -13s53.834 -21.834 75.501 -39.501
s38.667 -39.834 51 -66.501s18.5 -58 18.5 -94c0 -23.333 -3.16699 -47.833 -9.5 -73.5s-18 -49.167 -35 -70.5s-41 -39.166 -72 -53.499s-70.833 -21.5 -119.5 -21.5h-78v-209zM372.999 446.999c0 19.333 -5.83301 33.668 -17.5 43.001s-27.167 14 -46.5 14h-48v-115h48
c7.33301 0 14.833 0.833008 22.5 2.5s14.5 4.66699 20.5 9s11 10.166 15 17.499s6 17 6 29z" />
    <glyph glyph-name="Q" unicode="Q" horiz-adv-x="715" 
d="M657 341c0 -22 -1.00098 -44.6689 -3.00098 -68.002s-5.66699 -46.5 -11 -69.5s-12.833 -45.167 -22.5 -66.5s-22.5 -41 -38.5 -59l89 -27c13.333 -4 20.833 -8.66699 22.5 -14s-0.166016 -14 -5.49902 -26l-43 -107c-8 -20.667 -24.333 -25.667 -49 -15l-231 103
c-2 0 -4 -0.166992 -6 -0.5s-4 -0.5 -6 -0.5c-45.333 0 -84.166 5.16699 -116.499 15.5s-59.5 24.5 -81.5 42.5s-39.667 38.667 -53 62s-23.5 48 -30.5 74s-11.5 52.333 -13.5 79s-3 52.334 -3 77.001c0 19.333 1.16699 40.833 3.5 64.5s7.16602 47.834 14.499 72.501
s17.666 48.667 30.999 72s31.166 44.166 53.499 62.499s49.333 33 81 44s69.834 16.5 114.501 16.5c65.333 0 117.833 -10 157.5 -30s70.334 -45.833 92.001 -77.5s36.167 -67.167 43.5 -106.5s11 -78.666 11 -117.999zM453.999 329.998
c0 32 -1.66504 59.165 -4.99805 81.498s-8.83301 40.5 -16.5 54.5s-17.834 24 -30.501 30s-28.334 9 -47.001 9c-34 0 -57.833 -13.333 -71.5 -40s-20.5 -71.667 -20.5 -135c0 -61.333 6.66699 -105.166 20 -131.499s37.333 -39.5 72 -39.5c36 0 61.5 13.333 76.5 40
s22.5 70.334 22.5 131.001z" />
    <glyph glyph-name="R" unicode="R" horiz-adv-x="634" 
d="M600 29c4.66699 -9.33301 5.49902 -16.502 2.49902 -21.502s-8.83301 -7.5 -17.5 -7.5h-153c-12 0 -21.667 1.83301 -29 5.5s-13.333 10.5 -18 20.5l-89 215h-35v-217c0 -4 -1.16699 -9 -3.5 -15s-8.83301 -9 -19.5 -9h-149c-9.33301 0 -15.666 2.33301 -18.999 7
s-5 10.334 -5 17.001v617c0 6.66699 1.66699 12.334 5 17.001s9.66602 7 18.999 7h265c28 0 55.667 -4 83 -12s51.833 -20.5 73.5 -37.5s39.334 -38.667 53.001 -65s20.5 -57.833 20.5 -94.5c0 -16 -1.66699 -32.333 -5 -49s-8.83301 -33 -16.5 -49s-18 -31 -31 -45
s-28.833 -26 -47.5 -36zM381.999 451.998c0 17.333 -5.33301 30.334 -16 39.001s-25 13 -43 13h-62v-107h60c6.66699 0 13.5 0.666992 20.5 2s13.5 4 19.5 8s11 9.66699 15 17s6 16.666 6 27.999z" />
    <glyph glyph-name="S" unicode="S" horiz-adv-x="607" 
d="M284 -9c-9.33301 0 -21.666 0.333008 -36.999 1s-32 2.16699 -50 4.5s-36.833 5.5 -56.5 9.5s-38.5 9.66699 -56.5 17c-10 4 -17.667 7.83301 -23 11.5s-9 7.5 -11 11.5s-3 8.33301 -3 13s0.666992 10 2 16l15 72c2 8 4 14.167 6 18.5s4.66699 7.16602 8 8.49902
s7.66602 1.83301 12.999 1.5s12.333 -1.16602 21 -2.49902c22.667 -3.33301 49.5 -6.5 80.5 -9.5s62.167 -4.5 93.5 -4.5c26.667 0 45.5 3.33301 56.5 10s16.5 17.667 16.5 33c0 14.667 -6 24.5 -18 29.5s-29.667 10.5 -53 16.5c-28.667 6.66699 -57.334 14.667 -86.001 24
s-54.667 21.666 -78 36.999s-42.333 35.166 -57 59.499s-22 55.5 -22 93.5c0 34 6.16699 64 18.5 90s29.5 48 51.5 66s48.667 31.5 80 40.5s66 13.5 104 13.5c9.33301 0 21.5 -0.333008 36.5 -1s31.5 -2 49.5 -4s36.5 -5 55.5 -9s37.5 -9.33301 55.5 -16
c10 -4 17.667 -7.83301 23 -11.5s9 -7.5 11 -11.5s2.83301 -8.33301 2.5 -13s-0.833008 -10 -1.5 -16l-17 -73c-2 -8.66699 -4.33301 -15 -7 -19s-6 -6.5 -10 -7.5s-9 -1 -15 0s-13.333 1.83301 -22 2.5l-32.5 4c-10.333 1.33301 -21.166 2.5 -32.499 3.5
s-23.333 1.66699 -36 2s-26.667 0.5 -42 0.5c-18.667 0 -34.167 -2.33301 -46.5 -7s-18.5 -14.667 -18.5 -30c0 -13.333 4.5 -22.5 13.5 -27.5s25.833 -10.5 50.5 -16.5c28 -6.66699 56.667 -14.167 86 -22.5s55.833 -20.166 79.5 -35.499s43 -35.5 58 -60.5
s22.5 -57.5 22.5 -97.5c0 -41.333 -8 -75.666 -24 -102.999s-37 -49.333 -63 -66s-55.667 -28.5 -89 -35.5s-67.333 -10.5 -102 -10.5z" />
    <glyph glyph-name="T" unicode="T" horiz-adv-x="539" 
d="M529 526c0 -6 -1.66797 -11.168 -5.00098 -15.501s-9.66602 -6.5 -18.999 -6.5h-138v-480c0 -4 -1.16699 -9 -3.5 -15s-8.83301 -9 -19.5 -9h-149c-9.33301 0 -15.666 2.33301 -18.999 7s-5 10.334 -5 17.001v480h-137c-10.667 0 -17.334 2.16699 -20.001 6.5
s-4 9.5 -4 15.5v115c0 7.33301 1.33301 13.166 4 17.499s9.33398 6.5 20.001 6.5h471c7.33301 0 13.166 -2.16699 17.499 -6.5s6.5 -10.166 6.5 -17.499v-115v0z" />
    <glyph glyph-name="U" unicode="U" horiz-adv-x="678" 
d="M338 158c53.333 0 80.002 32.9971 80.002 98.9971l-1 384c0 6.66699 1.66699 12.334 5 17.001s9.66602 7 18.999 7h148c10.667 0 17.167 -3 19.5 -9s3.5 -11 3.5 -15v-390c0 -19.333 -1.16699 -38.833 -3.5 -58.5s-7.83301 -40.167 -16.5 -61.5
c-10.667 -25.333 -25 -46.833 -43 -64.5s-38.333 -32.167 -61 -43.5s-46.834 -19.666 -72.501 -24.999s-51.5 -8 -77.5 -8c-48 0 -89.333 7 -124 21s-63 33 -85 57c-21.333 23.333 -37.166 50.5 -47.499 81.5s-15.5 64.833 -15.5 101.5v390
c0 6.66699 1.66699 12.334 5 17.001s9.66602 7 18.999 7h148c10.667 0 17.167 -3 19.5 -9s3.5 -11 3.5 -15v-384c0 -34 6.5 -59 19.5 -75s32.167 -24 57.5 -24z" />
    <glyph glyph-name="V" unicode="V" horiz-adv-x="673" 
d="M276 431l58.999 -206.997h6l56 209l53 194c3.33301 13.333 8.66602 23.166 15.999 29.499s17.666 9.5 30.999 9.5h147c12.667 0 18.834 -3.16699 18.501 -9.5s-1.5 -12.833 -3.5 -19.5l-201 -601c-3.33301 -10 -8.16602 -18.5 -14.499 -25.5s-19.166 -10.5 -38.499 -10.5
h-140c-17.333 0 -29.833 3 -37.5 9s-13.167 14.667 -16.5 26l-198 601c-3.33301 9.33301 -4 16.666 -2 21.999s9.33301 8 22 8h132c17.333 0 29.5 -2.33301 36.5 -7s12.167 -13.334 15.5 -26.001z" />
    <glyph glyph-name="W" unicode="W" horiz-adv-x="906" 
d="M453 209l-33.0059 -100.001l-26 -73c-3.33301 -10 -8.16602 -18.5 -14.499 -25.5s-19.166 -10.5 -38.499 -10.5h-110c-17.333 0 -29.833 3 -37.5 9s-13.167 14.667 -16.5 26l-164 601c-3.33301 9.33301 -3.66602 16.666 -0.999023 21.999s9.66699 8 21 8h142
c13.333 0 23.333 -2.33301 30 -7s11.667 -13.334 15 -26.001l42 -196l39 -178h6l32 114l31 106l-51 158c-2 6.66699 -2 13.167 0 19.5s7 9.5 15 9.5h130c13.333 0 23.666 -2.16699 30.999 -6.5s12.666 -13.166 15.999 -26.499l55 -224l35 -150h6l31 169l40 205
c2.66699 12.667 7.83398 21.334 15.501 26.001s18.834 7 33.501 7h135c11.333 0 18.333 -2.66699 21 -8s2.33398 -12.666 -0.999023 -21.999l-151 -601c-3.33301 -11.333 -8.83301 -20 -16.5 -26s-20.167 -9 -37.5 -9h-110c-19.333 0 -32.166 3.5 -38.499 10.5
s-11.166 15.5 -14.499 25.5l-23 72l-32 101h-6z" />
    <glyph glyph-name="X" unicode="X" horiz-adv-x="620" 
d="M414 339l177.999 -307c2 -3.33301 3.5 -6.83301 4.5 -10.5s1.16699 -7 0.5 -10s-2.5 -5.66699 -5.5 -8s-7.83301 -3.5 -14.5 -3.5h-156c-9.33301 0 -17.166 1.5 -23.499 4.5s-12.166 9.83301 -17.499 20.5l-31 68l-44 94l-44 -98l-27 -61
c-5.33301 -10.667 -11.333 -18 -18 -22s-15.667 -6 -27 -6h-157c-11.333 -0 -17.5 3.33301 -18.5 10s1.16699 14.667 6.5 24l177 305l-167 293c-5.33301 8.66699 -6.83301 16.334 -4.5 23.001s9.16602 10 20.499 10h154c12 0 20.167 -1.5 24.5 -4.5
s9.16602 -9.83301 14.499 -20.5l31 -68l36 -79l38 85l27 60c5.33301 10 10.333 17 15 21s12 6 22 6h160c8.66699 0 14.834 -1 18.501 -3s6 -4.5 7 -7.5s1 -6.33301 0 -10s-2.5 -6.83398 -4.5 -9.50098z" />
    <glyph glyph-name="Y" unicode="Y" horiz-adv-x="685" 
d="M234 220l-222.003 415.999c-4.66699 8 -6 15 -4 21s7.66699 9 17 9h147c13.333 0 23 -1.83301 29 -5.5s12 -11.5 18 -23.5l55 -111l61 -127h6l62 127l51 101c6.66699 12 12.834 21.5 18.501 28.5s15.167 10.5 28.5 10.5h152c9.33301 0 14.833 -2.66699 16.5 -8
s0.833984 -11 -2.49902 -17l-237 -421v-196c0 -4 -1.16699 -9 -3.5 -15s-8.83301 -9 -19.5 -9h-149c-9.33301 0 -15.666 2.33301 -18.999 7s-5 10.334 -5 17.001v196z" />
    <glyph glyph-name="Z" unicode="Z" horiz-adv-x="579" 
d="M260 161l249.999 -0.000976562c10.667 0 17.334 -2.16699 20.001 -6.5s4 -9.5 4 -15.5v-115c0 -7.33301 -1.33301 -13.166 -4 -17.499s-9.33398 -6.5 -20.001 -6.5h-441c-7.33301 0 -13.166 2.16699 -17.499 6.5s-6.5 10.166 -6.5 17.499v101
c0 6 0.833008 12.833 2.5 20.5s5.83398 15.834 12.501 24.501l253 334h-224c-10.667 0 -17.334 2.16699 -20.001 6.5s-4 9.5 -4 15.5v115c0 7.33301 1.33301 13.166 4 17.499s9.33398 6.5 20.001 6.5h420c7.33301 0 13.166 -2.16699 17.499 -6.5s6.5 -10.166 6.5 -17.499
l-1 -87c0 -13.333 -1.33301 -24.333 -4 -33s-7 -17 -13 -25z" />
    <glyph glyph-name="bracketleft" unicode="[" horiz-adv-x="313" 
d="M207 53l51 -0.00390625c7.33301 0 13.166 -2.16699 17.499 -6.5s6.5 -10.166 6.5 -17.499v-100c0 -6 -1.66699 -11.167 -5 -15.5s-9.66602 -6.5 -18.999 -6.5h-201c-9.33301 0 -15.666 2.33301 -18.999 7s-5 10.334 -5 17.001v740c0 6.66699 1.66699 12.334 5 17.001
s9.66602 7 18.999 7h200c7.33301 0 13.166 -2.16699 17.499 -6.5s6.5 -10.166 6.5 -17.499v-101c0 -6 -1.66699 -11.167 -5 -15.5s-9.66602 -6.5 -18.999 -6.5h-50v-495z" />
    <glyph glyph-name="backslash" unicode="\" horiz-adv-x="348" 
d="M8 665c-0.666992 8 0.500977 14.668 3.50098 20.001s8.5 8 16.5 8h121c7.33301 0 12.833 -1.83301 16.5 -5.5s6.16699 -7.83398 7.5 -12.501l85 -356l85 -356c3.33301 -16.667 -3.33398 -25 -20.001 -25h-123c-5.33301 0 -10.333 1.83301 -15 5.5
s-7.66699 8.16699 -9 13.5z" />
    <glyph glyph-name="bracketright" unicode="]" horiz-adv-x="313" 
d="M109 548l-50 0.00390625c-9.33301 0 -15.666 2.16699 -18.999 6.5s-5 9.5 -5 15.5v101c0 7.33301 2.16699 13.166 6.5 17.499s10.166 6.5 17.499 6.5h200c9.33301 0 15.666 -2.33301 18.999 -7s5 -10.334 5 -17.001v-740c0 -6.66699 -1.66699 -12.334 -5 -17.001
s-9.66602 -7 -18.999 -7h-201c-9.33301 0 -15.666 2.16699 -18.999 6.5s-5 9.5 -5 15.5v100c0 7.33301 2.16699 13.166 6.5 17.499s10.166 6.5 17.499 6.5h51v495z" />
    <glyph glyph-name="asciicircum" unicode="^" horiz-adv-x="616" 
d="M307 520l-187.001 -204.999c-7.33301 -6.66699 -13.333 -10.167 -18 -10.5s-10.667 2.5 -18 8.5l-46 36c-7.33301 6 -11 11 -11 15s3.33301 10.333 10 19l181 261c6 7.33301 11.667 12.666 17 15.999s15.333 5 30 5l100 -2c8 0 14.333 -0.333008 19 -1
s8.5 -1.83398 11.5 -3.50098s5.33301 -3.66699 7 -6s3.83398 -5.16602 6.50098 -8.49902l169 -261c6.66699 -8.66699 10 -15 10 -19s-3.66699 -9 -11 -15l-48 -36c-7.33301 -6 -13.333 -8.83301 -18 -8.5s-10.667 3.83301 -18 10.5z" />
    <glyph glyph-name="underscore" unicode="_" horiz-adv-x="500" 
d="M499 -31c10 0 16.333 -2 19 -6s4 -9.66699 4 -17v-68c0 -8.66699 -1.33301 -15 -4 -19s-9 -6 -19 -6h-497c-16 0 -24 8.33301 -24 25v67c0 16 8 24 24 24h497z" />
    <glyph glyph-name="grave" unicode="`" horiz-adv-x="554" 
d="M234 795c4 3.33301 9.16699 4.99902 15.5 4.99902s12.833 -4 19.5 -12l129 -167c6 -7.33301 8.16699 -13.166 6.5 -17.499s-4.83398 -8.16602 -9.50098 -11.499l-54 -48c-5.33301 -5.33301 -10.666 -7 -15.999 -5s-10.333 5.33301 -15 10l-157 141
c-13.333 13.333 -13 25.666 1 36.999z" />
    <glyph glyph-name="a" unicode="a" horiz-adv-x="600" 
d="M332 195h-64.998c-12.667 0 -22.667 -3 -30 -9s-11 -16.667 -11 -32c0 -10 2.16699 -17 6.5 -21s12.166 -6 23.499 -6s24.166 2.5 38.499 7.5s26.833 10.5 37.5 16.5v44zM354.002 63c-13.333 -14.667 -28.1689 -26.6719 -44.502 -36.0049s-32.666 -16.5 -48.999 -21.5
s-31.666 -8.5 -45.999 -10.5s-26.166 -3 -35.499 -3c-31.333 0 -56.333 4.5 -75 13.5s-33 20.833 -43 35.5s-16.667 31 -20 49s-5 35.667 -5 53c-0.666992 32 4 58.667 14 80s23.667 38.333 41 51s38 21.667 62 27s50 8 78 8h105v8c0 6.66699 -0.833008 12.5 -2.5 17.5
s-5 9.33301 -10 13s-12.5 6.33398 -22.5 8.00098s-23.333 2.5 -40 2.5c-6 0 -14.167 -0.333008 -24.5 -1s-21.5 -1.33398 -33.5 -2.00098s-24 -1.66699 -36 -3s-22.667 -2.33301 -32 -3c-8.66699 -1.33301 -15.667 -2.16602 -21 -2.49902s-9.66602 0.166992 -12.999 1.5
s-5.83301 3.66602 -7.5 6.99902s-3.16699 8 -4.5 14l-14 64c-2 10 -0.833008 18.5 3.5 25.5s16.166 14.167 35.499 21.5c12 4.66699 25.833 8.66699 41.5 12s31.5 6 47.5 8s31.667 3.5 47 4.5s28.666 1.5 39.999 1.5c50 0 90 -4.33301 120 -13s53.167 -21.167 69.5 -37.5
s27.166 -36.666 32.499 -60.999s8 -52.166 8 -83.499v-128c0 -21.333 2.5 -34.5 7.5 -39.5s15.167 -8.5 30.5 -10.5c9.33301 -1.33301 15.333 -3.16602 18 -5.49902s4 -7.16602 4 -14.499v-82c0 -8.66699 -3 -15 -9 -19s-14 -7.33301 -24 -10
c-12 -3.33301 -24 -5.5 -36 -6.5s-24.667 -1.5 -38 -1.5c-12.667 0 -25.167 0.833008 -37.5 2.5s-23.666 5 -33.999 10s-19.5 11.833 -27.5 20.5s-14 20.334 -18 35.001z" />
    <glyph glyph-name="b" unicode="b" horiz-adv-x="570" 
d="M231 495c30.667 7.33301 58.001 11 82.001 11c46.667 0 84.167 -6.33301 112.5 -19s50.333 -30.334 66 -53.001s26 -49.167 31 -79.5s7.5 -63.5 7.5 -99.5c0 -38.667 -3 -74.167 -9 -106.5s-17.833 -60.166 -35.5 -83.499s-42.167 -41.5 -73.5 -54.5
s-72.333 -19.5 -123 -19.5c-16.667 0 -34.667 0.666992 -54 2s-38.5 3.33301 -57.5 6s-37.333 6 -55 10s-33.167 9 -46.5 15s-22 13.167 -26 21.5s-6 19.166 -6 32.499v605c0 6.66699 1.66699 12.334 5 17.001s9.66602 7 18.999 7h141c10.667 0 17.167 -3 19.5 -9
s3.5 -11 3.5 -15zM337.001 247c0 20.667 -1.33203 37.668 -3.99902 51.001s-6.66699 23.5 -12 30.5s-11.833 11.833 -19.5 14.5s-16.5 4 -26.5 4c-6 0 -12 -0.333008 -18 -1s-14.667 -2.33398 -26 -5.00098v-186c8 -1.33301 15.167 -2.16602 21.5 -2.49902
s11.833 -0.5 16.5 -0.5c8.66699 0 17.167 1 25.5 3s15.666 6.33301 21.999 13s11.333 16.167 15 28.5s5.5 29.166 5.5 50.499z" />
    <glyph glyph-name="c" unicode="c" horiz-adv-x="502" 
d="M469 70c3.33301 -15.333 3.50195 -26.668 0.501953 -34.001s-14.167 -14.666 -33.5 -21.999c-10 -3.33301 -21.5 -6.5 -34.5 -9.5s-26.333 -5.5 -40 -7.5s-27.334 -3.5 -41.001 -4.5s-26.5 -1.5 -38.5 -1.5c-52.667 0 -95 7.5 -127 22.5s-56.5 34.667 -73.5 59
s-28.167 52 -33.5 83s-8 62.5 -8 94.5c0 30 3 60.167 9 90.5s17.667 57.666 35 81.999s41.833 44.333 73.5 60s73.167 23.5 124.5 23.5c30 0 58.667 -2 86 -6s51.666 -10.667 72.999 -20c10.667 -4.66699 18.334 -10.167 23.001 -16.5s5.66699 -15.833 3 -28.5l-14 -77
c-1.33301 -6.66699 -2.66602 -11.667 -3.99902 -15s-3.5 -5.5 -6.5 -6.5s-7 -1.33301 -12 -1s-11.833 0.833008 -20.5 1.5c-20 2 -37.333 3.5 -52 4.5s-29.334 1.5 -44.001 1.5c-28.667 0 -49.834 -7.66699 -63.501 -23s-20.5 -37.666 -20.5 -66.999
c0 -37.333 5.83301 -63.333 17.5 -78s32.5 -22 62.5 -22c13.333 0 30 0.666992 50 2s41 3.33301 63 6c12.667 1.33301 20.667 1.33301 24 0s6.33301 -8.33301 9 -21z" />
    <glyph glyph-name="d" unicode="d" horiz-adv-x="572" 
d="M527 24c0 -4 -1.16797 -9.00098 -3.50098 -15.001s-8.83301 -9 -19.5 -9h-142c-9.33301 0 -15.333 2.16699 -18 6.5s-4 9.83301 -4 16.5v20l-2 1c-25.333 -19.333 -48.666 -32.833 -69.999 -40.5s-41.333 -11.5 -60 -11.5c-35.333 0 -64 6.66699 -86 20
s-39 31.333 -51 54s-20.167 49 -24.5 79s-6.5 62 -6.5 96c0 38.667 2.33301 74.5 7 107.5s14.167 61.333 28.5 85s35 42.167 62 55.5s62.833 20 107.5 20c11.333 0 26.333 -1 45 -3s35.334 -4.66699 50.001 -8v185c0 6.66699 1.66699 12.334 5 17.001s9.66602 7 18.999 7
h140c10.667 0 17.167 -3 19.5 -9s3.5 -11 3.5 -15v-659zM229.999 249.999c0 -18 0.833984 -32.834 2.50098 -44.501s4.5 -20.667 8.5 -27s8.83301 -10.666 14.5 -12.999s12.5 -3.5 20.5 -3.5c11.333 0 22.5 2 33.5 6s21.167 8 30.5 12v163
c-13.333 3.33301 -23.333 5.16602 -30 5.49902s-13 0.5 -19 0.5c-10.667 0 -19.834 -1.16699 -27.501 -3.5s-14 -7.16602 -19 -14.499s-8.66699 -17.5 -11 -30.5s-3.5 -29.833 -3.5 -50.5z" />
    <glyph glyph-name="e" unicode="e" horiz-adv-x="553" 
d="M231 207c1.33301 -14 4.67188 -25.1699 10.0049 -33.5029s12.333 -14.666 21 -18.999s18.667 -7 30 -8s23.666 -1.5 36.999 -1.5s29.166 0.666992 47.499 2s38.5 3.66602 60.5 6.99902c16 2 25.833 1.83301 29.5 -0.5s6.83398 -10.833 9.50098 -25.5l10 -59
c3.33301 -15.333 3.5 -26.666 0.5 -33.999s-14.167 -14.666 -33.5 -21.999c-10 -3.33301 -21.833 -6.33301 -35.5 -9s-27.834 -5 -42.501 -7s-29.167 -3.5 -43.5 -4.5s-27.5 -1.5 -39.5 -1.5c-52.667 0 -95.334 6.83301 -128.001 20.5s-58.167 32 -76.5 55
s-30.833 49.833 -37.5 80.5s-10 62.667 -10 96c0 24 2.16699 51.167 6.5 81.5s14.666 59 30.999 86s40.5 49.667 72.5 68s75.667 27.5 131 27.5c50 0 90.5 -7 121.5 -21s55 -32.167 72 -54.5s28.5 -47.166 34.5 -74.499s9 -54.333 9 -81c0 -22.667 -4.33301 -39.667 -13 -51
s-24.334 -17 -47.001 -17h-227zM281.006 366.997c-12.667 0 -23.333 -4.66699 -32 -14s-13.667 -23.666 -15 -42.999h91c0 19.333 -4 33.666 -12 42.999s-18.667 14 -32 14z" />
    <glyph glyph-name="f" unicode="f" horiz-adv-x="460" 
d="M280 24c0 -4 -1.16895 -8.99902 -3.50195 -14.999s-8.83301 -9 -19.5 -9h-140c-9.33301 0 -15.666 2.33301 -18.999 7s-5 10.334 -5 17.001l1 328h-40c-16 0 -24 8.33301 -24 25v96c0 16 8 24 24 24h40v43c0 56 17 100.333 51 133s86.667 49 158 49
c11.333 0 23.666 -0.5 36.999 -1.5s26.833 -2.5 40.5 -4.5s27 -4.66699 40 -8s24.833 -7.33301 35.5 -12c14 -6 21.333 -12.833 22 -20.5s0.333984 -15.5 -0.999023 -23.5l-16 -81c-2 -9.33301 -5 -14.333 -9 -15s-13 -0.333984 -27 0.999023
c-19.333 2 -37.666 3.33301 -54.999 4s-28.666 1 -33.999 1c-20.667 0 -34.834 -4.83301 -42.501 -14.5s-11.5 -22.834 -11.5 -39.501v-11h102c10 0 16.333 -2 19 -6s4 -9.66699 4 -17v-97c0 -8.66699 -1.33301 -15 -4 -19s-9 -6 -19 -6h-104v-328z" />
    <glyph glyph-name="g" unicode="g" horiz-adv-x="570" 
d="M292 507c34 0 69.3301 -2.49902 105.997 -7.49902s68.334 -13.167 95.001 -24.5c13.333 -6 22 -13.167 26 -21.5s6 -19.166 6 -32.499v-395c0 -34 -2.16699 -65.833 -6.5 -95.5s-15.166 -55.667 -32.499 -78s-43 -39.833 -77 -52.5s-80.333 -19 -139 -19
c-29.333 0 -58 2.16699 -86 6.5s-51.667 10.166 -71 17.499s-31.166 14.666 -35.499 21.999s-5.5 16 -3.5 26l15 71c3.33301 13.333 7.16602 20.833 11.499 22.5s13.166 1.16699 26.499 -1.5c25.333 -4 49.5 -6.83301 72.5 -8.5s43.167 -2.5 60.5 -2.5
c16.667 0 30.167 1.33301 40.5 4s18.333 6.66699 24 12s9.5 12 11.5 20s3 17.333 3 28v17c-30.667 -7.33301 -58 -11 -82 -11c-44 0 -80 6.16699 -108 18.5s-50.167 29.5 -66.5 51.5s-27.5 47.833 -33.5 77.5s-9 61.834 -9 96.501c0 36 3.66699 69.833 11 101.5
s20.333 59.167 39 82.5s44.334 41.666 77.001 54.999s74.334 20 125.001 20zM232.997 257.001c0 -20 1.33301 -36.1689 4 -48.502s6.66699 -21.666 12 -27.999s11.833 -10.666 19.5 -12.999s16.5 -3.5 26.5 -3.5c6 0 12 0.333008 18 1s14.667 2.33398 26 5.00098v173
c-8 1.33301 -15.167 2.16602 -21.5 2.49902s-11.833 0.5 -16.5 0.5c-9.33301 0 -18 -0.833008 -26 -2.5s-15.167 -5.66699 -21.5 -12s-11.333 -15.333 -15 -27s-5.5 -27.5 -5.5 -47.5z" />
    <glyph glyph-name="h" unicode="h" horiz-adv-x="580" 
d="M538 24c0 -4 -1.16797 -9.00293 -3.50098 -15.0029s-8.83301 -9 -19.5 -9h-141c-9.33301 0 -15.666 2.33301 -18.999 7s-5 10.334 -5 17.001v254c0 26 -5 42.5 -15 49.5s-22 10.5 -36 10.5c-11.333 0 -22.833 -1.83301 -34.5 -5.5s-22.167 -7.16699 -31.5 -10.5v-298
c0 -4 -1.16699 -9 -3.5 -15s-8.83301 -9 -19.5 -9h-141c-9.33301 0 -15.666 2.33301 -18.999 7s-5 10.334 -5 17.001v659c0 6.66699 1.66699 12.334 5 17.001s9.66602 7 18.999 7h142c10.667 0 17.167 -3 19.5 -9s3.5 -11 3.5 -15v-213c22 12 44.833 21 68.5 27
s45.834 9 66.501 9c40 0 71.167 -6.5 93.5 -19.5s39.166 -29.5 50.499 -49.5s18.333 -41.833 21 -65.5s4 -46.5 4 -68.5v-279z" />
    <glyph glyph-name="i" unicode="i" horiz-adv-x="302" 
d="M247 627c0 -11.333 -1.16699 -22.166 -3.5 -32.499s-7 -19.833 -14 -28.5s-16.833 -15.5 -29.5 -20.5s-29 -7.5 -49 -7.5c-21.333 0 -38.166 2.66699 -50.499 8s-22 12.166 -29 20.499s-11.5 17.833 -13.5 28.5s-3 21.334 -3 32.001c0 12 1.5 23.333 4.5 34s8 20 15 28
s16.667 14.333 29 19s28.166 7 47.499 7c20 0 36.167 -2.16699 48.5 -6.5s22 -10.5 29 -18.5s11.833 -17.333 14.5 -28s4 -22.334 4 -35.001zM243 24c0 -4 -1.16699 -9.00195 -3.5 -15.002s-8.83301 -9 -19.5 -9h-141c-9.33301 0 -15.666 2.33301 -18.999 7
s-5 10.334 -5 17.001v449c0 6.66699 1.66699 12.334 5 17.001s9.66602 7 18.999 7h141c10.667 0 17.167 -3 19.5 -9s3.5 -11 3.5 -15v-449z" />
    <glyph glyph-name="j" unicode="j" horiz-adv-x="316" 
d="M258 44c0 -54.667 -7.66699 -99.333 -23 -134s-36.166 -61.5 -62.499 -80.5s-57.666 -31.667 -93.999 -38s-75.5 -8.83301 -117.5 -7.5c-4.66699 0 -10.334 1.5 -17.001 4.5s-10.667 9.83301 -12 20.5l-9 102c-1.33301 12 -1 19.167 1 21.5s8.66699 4.83301 20 7.5
c24 5.33301 44 10.166 60 14.499s29 9.83301 39 16.5s17 15.167 21 25.5s6 24.5 6 42.5v434c0 6.66699 1.66699 12.334 5 17.001s9.66602 7 18.999 7h141c10.667 0 17.167 -3 19.5 -9s3.5 -11 3.5 -15v-429zM261 627.001c0 -11.333 -1.16699 -22.166 -3.5 -32.499
s-7 -19.833 -14 -28.5s-16.833 -15.5 -29.5 -20.5s-29 -7.5 -49 -7.5c-21.333 0 -38.166 2.66699 -50.499 8s-22 12.166 -29 20.499s-11.5 17.833 -13.5 28.5s-3 21.334 -3 32.001c0 12 1.5 23.333 4.5 34s8 20 15 28s16.667 14.333 29 19s28.166 7 47.499 7
c20 0 36.167 -2.16699 48.5 -6.5s22 -10.5 29 -18.5s11.833 -17.333 14.5 -28s4 -22.334 4 -35.001z" />
    <glyph glyph-name="k" unicode="k" horiz-adv-x="569" 
d="M235 365l50 61.998l37 44c7.33301 8 14.5 14.333 21.5 19s19.167 7 36.5 7h144c14 0 21.833 -3 23.5 -9s-1.83301 -13.333 -10.5 -22l-146 -166l170 -268c6.66699 -10 8.16699 -17.833 4.5 -23.5s-11.5 -8.5 -23.5 -8.5h-136c-19.333 0 -33 2.66699 -41 8
s-14.333 12 -19 20l-79 132l-35 -42v-94c0 -4 -1.16699 -9 -3.5 -15s-8.83301 -9 -19.5 -9h-140c-9.33301 0 -15.666 2.33301 -18.999 7s-5 10.334 -5 17.001v659c0 6.66699 1.66699 12.334 5 17.001s9.66602 7 18.999 7h140c10.667 0 17.167 -3 19.5 -9s3.5 -11 3.5 -15
v-317z" />
    <glyph glyph-name="l" unicode="l" horiz-adv-x="329" 
d="M243 176c0 -12.667 3.16992 -20.334 9.50293 -23.001s16.166 -4.66699 29.499 -6c12 -1.33301 19 -2.83301 21 -4.5s3.66699 -6.83398 5 -15.501l5 -93c0.666992 -11.333 -5.33301 -19.666 -18 -24.999c-7.33301 -3.33301 -15.333 -5.83301 -24 -7.5
s-17.334 -3 -26.001 -4s-16.667 -1.66699 -24 -2s-13.333 -0.5 -18 -0.5c-48 0 -84.667 11 -110 33s-38 61 -38 117v538c0 6.66699 1.66699 12.334 5 17.001s9.66602 7 18.999 7h141c10.667 0 17.167 -3 19.5 -9s3.5 -11 3.5 -15v-507z" />
    <glyph glyph-name="m" unicode="m" horiz-adv-x="858" 
d="M233 454l1.99609 -1.00391c23.333 21.333 48 35.5 74 42.5s48.333 10.5 67 10.5c36.667 0 64.5 -6.5 83.5 -19.5s33.5 -28.833 43.5 -47.5c22 20 47.5 36.167 76.5 48.5s57.5 18.5 85.5 18.5c37.333 0 66.166 -6.5 86.499 -19.5s35.166 -29.5 44.499 -49.5
s14.833 -42 16.5 -66s2.5 -47 2.5 -69v-278c0 -4 -1.16699 -9 -3.5 -15s-8.83301 -9 -19.5 -9h-141c-9.33301 0 -15.666 2.33301 -18.999 7s-5 10.334 -5 17.001v246c0 26 -4.16699 42.5 -12.5 49.5s-19.166 10.5 -32.499 10.5c-7.33301 0 -16.166 -1.33301 -26.499 -4
s-20.833 -6.66699 -31.5 -12v-290c0 -4 -1.16699 -9 -3.5 -15s-8.83301 -9 -19.5 -9h-141c-9.33301 0 -15.666 2.33301 -18.999 7s-5 10.334 -5 17.001v246c0 26 -4.16699 42.5 -12.5 49.5s-19.166 10.5 -32.499 10.5c-7.33301 0 -16.166 -1.33301 -26.499 -4
s-20.833 -6.66699 -31.5 -12v-290c0 -4 -1.16699 -9 -3.5 -15s-8.83301 -9 -19.5 -9h-141c-9.33301 0 -15.666 2.33301 -18.999 7s-5 10.334 -5 17.001v449c0 6.66699 1.66699 12.334 5 17.001s9.66602 7 18.999 7h141c10.667 0 17.167 -3 19.5 -9s3.5 -11 3.5 -15v-19z" />
    <glyph glyph-name="n" unicode="n" horiz-adv-x="583" 
d="M233 454l1.99609 -1.00293c25.333 19.333 51.833 32.833 79.5 40.5s50.834 11.5 69.501 11.5c36.667 0 65.334 -6.5 86.001 -19.5s36 -29.5 46 -49.5s16.167 -41.833 18.5 -65.5s3.5 -46.5 3.5 -68.5v-278c0 -4 -1.16699 -9 -3.5 -15s-8.83301 -9 -19.5 -9h-141
c-9.33301 0 -15.666 2.33301 -18.999 7s-5 10.334 -5 17.001v246c0 26 -4.66699 42.5 -14 49.5s-21.666 10.5 -36.999 10.5c-11.333 0 -22.833 -1.83301 -34.5 -5.5s-22.167 -7.16699 -31.5 -10.5v-290c0 -4 -1.16699 -9 -3.5 -15s-8.83301 -9 -19.5 -9h-141
c-9.33301 0 -15.666 2.33301 -18.999 7s-5 10.334 -5 17.001v449c0 6.66699 1.66699 12.334 5 17.001s9.66602 7 18.999 7h141c10.667 0 17.167 -3 19.5 -9s3.5 -11 3.5 -15v-19z" />
    <glyph glyph-name="o" unicode="o" horiz-adv-x="571" 
d="M531 255c0 -26.667 -2.16895 -55.334 -6.50195 -86.001s-14.833 -59.167 -31.5 -85.5s-41.5 -48.166 -74.5 -65.499s-78.5 -26 -136.5 -26c-56.667 0 -101.167 8.66699 -133.5 26s-56.5 39.166 -72.5 65.499s-26 54.833 -30 85.5s-6 59.334 -6 86.001
c0 22 2.5 47.5 7.5 76.5s15.833 56.333 32.5 82s41 47.5 73 65.5s75 27 129 27s97.333 -7.66699 130 -23s57.834 -35.166 75.501 -59.499s29.334 -51.333 35.001 -81s8.5 -58.834 8.5 -87.501zM339.998 249c0 33.333 -3.33203 58 -9.99902 74s-22 24 -46 24
c-20.667 0 -34.834 -8.5 -42.501 -25.5s-11.5 -41.167 -11.5 -72.5c0 -35.333 3.5 -60.666 10.5 -75.999s20.833 -23 41.5 -23c23.333 0 38.833 8.16699 46.5 24.5s11.5 41.166 11.5 74.499z" />
    <glyph glyph-name="p" unicode="p" horiz-adv-x="573" 
d="M233 -181c0 -4 -1.16699 -9.00098 -3.5 -15.001s-8.83301 -9 -19.5 -9h-141c-9.33301 0 -15.666 2.33301 -18.999 7s-5 10.334 -5 17.001v654c0 6.66699 1.66699 12.334 5 17.001s9.66602 7 18.999 7h141c10.667 0 17.167 -3 19.5 -9s3.5 -11 3.5 -15v-19l2 -1
c25.333 19.333 48.5 32.833 69.5 40.5s40.833 11.5 59.5 11.5c36 0 65.167 -7 87.5 -21s39.5 -32.833 51.5 -56.5s20.167 -51 24.5 -82s6.5 -63.5 6.5 -97.5c0 -39.333 -2.83301 -74.833 -8.5 -106.5s-16.167 -59 -31.5 -82s-36.333 -40.667 -63 -53
s-61.334 -18.5 -104.001 -18.5c-11.333 0 -26.166 1.16699 -44.499 3.5s-34.833 5.16602 -49.5 8.49902v-181zM342 244.999c0 34 -3.83203 57 -11.499 69s-19.5 18 -35.5 18c-11.333 0 -22.333 -1.83301 -33 -5.5s-20.667 -7.5 -30 -11.5v-161
c11.333 -2.66699 20.666 -4.33398 27.999 -5.00098s14 -1 20 -1c10.667 0 20 1.16699 28 3.5s14.5 6.83301 19.5 13.5s8.66699 16.334 11 29.001s3.5 29.667 3.5 51z" />
    <glyph glyph-name="q" unicode="q" horiz-adv-x="570" 
d="M525 -181c0 -4 -1.16992 -9.00293 -3.50293 -15.0029s-8.83301 -9 -19.5 -9h-141c-9.33301 0 -15.666 2.33301 -18.999 7s-5 10.334 -5 17.001v183c-14.667 -4 -28.834 -6.83301 -42.501 -8.5s-26.167 -2.5 -37.5 -2.5c-44 0 -80 6.33301 -108 19
s-50.167 30.334 -66.5 53.001s-27.5 49.167 -33.5 79.5s-9 63.5 -9 99.5c0 37.333 3.66699 72.166 11 104.499s20.333 60.333 39 84s44.334 42.334 77.001 56.001s74.334 20.5 125.001 20.5c34 0 69.333 -2.5 106 -7.5s68.334 -13.167 95.001 -24.5
c13.333 -6 22 -13.167 26 -21.5s6 -19.166 6 -32.499v-602zM232.997 250.997c0 -21.333 1.33301 -38.498 4 -51.498s6.66699 -23 12 -30s11.833 -11.833 19.5 -14.5s16.5 -4 26.5 -4c6 0 12 0.333008 18 1s14.667 2.33398 26 5.00098v186
c-8 1.33301 -15.167 2.16602 -21.5 2.49902s-11.833 0.5 -16.5 0.5c-9.33301 0 -18 -1 -26 -3s-15.167 -6.33301 -21.5 -13s-11.333 -16.334 -15 -29.001s-5.5 -29.334 -5.5 -50.001z" />
    <glyph glyph-name="r" unicode="r" horiz-adv-x="449" 
d="M244 422l2 -2.00391c10 10.667 21.333 20.834 34 30.501s25.5 18 38.5 25s25.5 12.833 37.5 17.5s22.667 7.66699 32 9c14 2 23.833 1.83301 29.5 -0.5s9.5 -11.166 11.5 -26.499l15 -124c0.666992 -5.33301 1 -9.83301 1 -13.5s-1 -6.66699 -3 -9
s-5.5 -4.33301 -10.5 -6s-12.167 -3.5 -21.5 -5.5c-31.333 -6 -59.5 -12 -84.5 -18s-52.167 -14 -81.5 -24v-251c0 -4 -1.16699 -9 -3.5 -15s-8.83301 -9 -19.5 -9h-141c-9.33301 0 -15.666 2.33301 -18.999 7s-5 10.334 -5 17.001v449c0 6.66699 1.66699 12.334 5 17.001
s9.66602 7 18.999 7h141c10.667 0 17.167 -3 19.5 -9s3.5 -11 3.5 -15v-51z" />
    <glyph glyph-name="s" unicode="s" horiz-adv-x="512" 
d="M477 164c0 -32.667 -6.66504 -59.9971 -19.998 -81.9971s-31 -39.833 -53 -53.5s-47.167 -23.334 -75.5 -29.001s-57.833 -8.5 -88.5 -8.5c-12 0 -25 0.5 -39 1.5s-28.167 2.5 -42.5 4.5s-28.166 4.33301 -41.499 7s-25.333 5.66699 -36 9
c-22 7.33301 -35.833 14.833 -41.5 22.5s-6.5 20.167 -2.5 37.5l14 59c2.66699 11.333 6 18.166 10 20.499s12.667 2.16602 26 -0.500977c24.667 -4.66699 50.5 -8.16699 77.5 -10.5s49.167 -3.5 66.5 -3.5c20.667 0 35 1.66699 43 5s12 8.66602 12 15.999s-3 12.333 -9 15
s-15.667 4.66699 -29 6c-29.333 4 -56.5 8.66699 -81.5 14s-46.833 13.5 -65.5 24.5s-33.334 25.833 -44.001 44.5s-16 43.667 -16 75c0 28 5.66699 52.5 17 73.5s26.666 38.5 45.999 52.5s42.333 24.5 69 31.5s55.334 10.5 86.001 10.5c12 0 24.833 -0.5 38.5 -1.5
s27.5 -2.5 41.5 -4.5s27.5 -4.33301 40.5 -7s24.833 -5.66699 35.5 -9c17.333 -6 30.333 -11.833 39 -17.5s11 -16.834 7 -33.501l-15 -63c-2.66699 -11.333 -5.33398 -18 -8.00098 -20s-10.667 -2.33301 -24 -1l-39.5 4.5c-14.333 1.66699 -28.333 3 -42 4
s-26.334 2 -38.001 3s-20.5 1.5 -26.5 1.5c-20 0.666992 -31.667 -1 -35 -5s-5 -8 -5 -12c0 -6.66699 5.33301 -11 16 -13s20 -3.66699 28 -5c27.333 -3.33301 53.5 -7.66602 78.5 -12.999s46.833 -13.666 65.5 -24.999s33.5 -27 44.5 -47s16.5 -46 16.5 -78z" />
    <glyph glyph-name="t" unicode="t" horiz-adv-x="449" 
d="M437 55c1.33301 -10.667 -0.332031 -18.835 -4.99902 -24.502s-10.667 -9.83398 -18 -12.501c-14.667 -6 -30 -10.667 -46 -14s-31.5 -5.83301 -46.5 -7.5s-29 -2.83398 -42 -3.50098s-23.833 -1 -32.5 -1c-58.667 0 -100.167 13.833 -124.5 41.5
s-36.5 66.834 -36.5 117.501v201h-38c-16 0 -24 8.33301 -24 25v96c0 16 8 24 24 24h40v94c0 8.66699 2.16699 15 6.5 19s10.166 7 17.499 9l129 34c8.66699 2 15.667 1.33301 21 -2s8 -9.66602 8 -18.999v-135h98c10 0 16.333 -2 19 -6s4 -9.66699 4 -17v-97
c0 -8.66699 -1.33301 -15 -4 -19s-9 -6 -19 -6h-100v-118c0 -21.333 1.83301 -37.5 5.5 -48.5s10.334 -18.667 20.001 -23s22.667 -6.16602 39 -5.49902s37.5 2 63.5 4c10.667 0.666992 17.667 0.333984 21 -0.999023s5.66602 -7 6.99902 -17z" />
    <glyph glyph-name="u" unicode="u" horiz-adv-x="574" 
d="M341 43l-1.99805 1.00195c-25.333 -19.333 -51.666 -32.833 -78.999 -40.5s-50.333 -11.5 -69 -11.5c-36.667 0 -65 5.83301 -85 17.5s-34.833 27 -44.5 46s-15.334 40.333 -17.001 64s-2.5 47.834 -2.5 72.501v281c0 4 1.16699 9 3.5 15s8.83301 9 19.5 9h141
c9.33301 0 15.666 -2.33301 18.999 -7s5 -10.334 5 -17.001v-246c0 -26 4.66699 -42.5 14 -49.5s21.666 -10.5 36.999 -10.5c11.333 0 21.833 1.83301 31.5 5.5l28.5 10.5v290c0 4 1.16699 9 3.5 15s8.83301 9 19.5 9h141c9.33301 0 15.666 -2.33301 18.999 -7
s5 -10.334 5 -17.001v-449c0 -6.66699 -1.66699 -12.334 -5 -17.001s-9.66602 -7 -18.999 -7h-141c-10.667 0 -17.167 3 -19.5 9s-3.5 11 -3.5 15v19z" />
    <glyph glyph-name="v" unicode="v" horiz-adv-x="583" 
d="M295 203l41.0029 145.001l40 125c2.66699 7.33301 6.5 13.166 11.5 17.499s15.167 6.5 30.5 6.5h125c14 0 22 -2.33301 24 -7s1.33301 -12 -2 -22l-161 -428c-5.33301 -14 -11.833 -24.167 -19.5 -30.5s-19.834 -9.5 -36.501 -9.5h-114c-18 0 -30.5 3.16699 -37.5 9.5
s-13.167 16.5 -18.5 30.5l-159 427c-3.33301 10 -3.83301 17.5 -1.5 22.5s9.16602 7.5 20.499 7.5h135c10.667 0 19.167 -1 25.5 -3s11.166 -9.66699 14.499 -23l36 -129l40 -139h6z" />
    <glyph glyph-name="w" unicode="w" horiz-adv-x="792" 
d="M499 357l34.999 -127h6l33 153l19 86c2.66699 11.333 6 18.833 10 22.5s10.333 5.5 19 5.5h138c12.667 0 19.334 -2.83301 20.001 -8.5s0.333984 -11.167 -0.999023 -16.5l-128 -432c-4.66699 -14.667 -11 -25 -19 -31s-18.333 -9 -31 -9h-106
c-11.333 0 -20.333 3.16699 -27 9.5s-12.667 16.5 -18 30.5l-18 50l-23 66h-4l-25 -66l-10 -25.5l-10 -24.5c-5.33301 -13.333 -12 -23.333 -20 -30s-18.667 -10 -32 -10h-97c-14 0 -24.333 3 -31 9s-12.667 16.333 -18 31l-144 432c-2 6 -1.83301 11.667 0.5 17
s8.5 8 18.5 8h139c10 0 17.5 -1.33301 22.5 -4s9.16699 -9.66699 12.5 -21l26 -105l37 -151h6l27 82l11.5 34.5l11.5 33.5l-37 105c-3.33301 8 -3.33301 14.333 0 19s9 7 17 7h122c11.333 0 19.166 -1.33301 23.499 -4s8.5 -11 12.5 -25z" />
    <glyph glyph-name="x" unicode="x" horiz-adv-x="568" 
d="M407 253l150.001 -222.002c5.33301 -7.33301 7 -14.333 5 -21s-8.66699 -10 -20 -10h-155c-8.66699 0 -15.667 1.16699 -21 3.5s-10.666 7.5 -15.999 15.5l-66 121l-63 -119c-5.33301 -8 -11 -13.5 -17 -16.5s-14 -4.5 -24 -4.5h-155c-9.33301 0 -15.5 2.5 -18.5 7.5
s-0.833008 12.833 6.5 23.5l150 222l-139 214c-4.66699 6.66699 -6.33398 13.334 -5.00098 20.001s7.66602 10 18.999 10h153c11.333 0 18.833 -1.16699 22.5 -3.5s8.16699 -7.5 13.5 -15.5l58 -110l58 109c4.66699 7.33301 8.83398 12.5 12.501 15.5s10.167 4.5 19.5 4.5
h162c15.333 0 23.166 -3.16699 23.499 -9.5s-2.16699 -13.166 -7.5 -20.499z" />
    <glyph glyph-name="y" unicode="y" horiz-adv-x="548" 
d="M275 233l40.001 130l34 110c2.66699 7.33301 6.5 13.166 11.5 17.499s15.167 6.5 30.5 6.5h120c14 0 22 -2.5 24 -7.5s1 -12.5 -3 -22.5l-242 -644c-4.66699 -11.333 -9.66699 -18.666 -15 -21.999s-14.666 -5 -27.999 -5h-119c-11.333 0 -18.833 2 -22.5 6
s-2.83398 11.667 2.49902 23l73 194l-171 449c-8 19.333 -1.66699 29 19 29h132c10.667 0 19.167 -1 25.5 -3s11.166 -9.66699 14.499 -23l33 -112l35 -126h6z" />
    <glyph glyph-name="z" unicode="z" horiz-adv-x="488" 
d="M436 145c16 0 24.002 -8.33301 24.002 -25v-96c0 -16 -8 -24 -24 -24h-388c-10 0 -16.333 2 -19 6s-4 9.66699 -4 17v79c0 5.33301 0.666992 11.5 2 18.5s6.66602 15.5 15.999 25.5l184 205h-164c-16 0 -24 8.33301 -24 25v97c0 16 8 24 24 24h367c10 0 16.333 -2 19 -6
s4 -9.66699 4 -17v-80c0 -6 -0.833008 -12.5 -2.5 -19.5s-6.83398 -15.5 -15.501 -25.5l-183 -204h184z" />
    <glyph glyph-name="braceleft" unicode="{" horiz-adv-x="380" 
d="M260 67c0 -15.333 2.66895 -26.6709 8.00195 -34.0039s15.333 -11.666 30 -12.999l25 -2c6.66699 -0.666992 11.667 -2.33398 15 -5.00098s5 -8 5 -16v-81c0 -13.333 -6 -20.666 -18 -21.999c-18.667 -2.66699 -36.834 -4.16699 -54.501 -4.5s-33.5 -0.5 -47.5 -0.5
c-25.333 0 -46.5 3.83301 -63.5 11.5s-30.833 17.5 -41.5 29.5s-18.334 25.5 -23.001 40.5s-7 30.167 -7 45.5v155c0 21.333 -1.5 37.833 -4.5 49.5s-14.167 20.5 -33.5 26.5c-5.33301 1.33301 -9.83301 3.83301 -13.5 7.5s-5.5 8.5 -5.5 14.5v67c0 6 1.66699 10.333 5 13
s7.33301 4.66699 12 6c10 2.66699 17.833 6.33398 23.5 11.001s9.66699 10 12 16s3.66602 13.167 3.99902 21.5s0.5 18.166 0.5 29.499v140c0 16.667 3 32.667 9 48s14.833 29 26.5 41s26.334 21.667 44.001 29s38.167 11 61.5 11c14 0 28.167 -0.166992 42.5 -0.5
s32.166 -1.83301 53.499 -4.5c12 -1.33301 18 -8.66602 18 -21.999v-85c0 -13.333 -6.66699 -20 -20 -20l-26 -2c-14 -1.33301 -23.667 -6 -29 -14s-8 -19.667 -8 -35v-105c0 -8 -0.833008 -17.667 -2.5 -29s-5 -22.666 -10 -33.999s-12.167 -21.666 -21.5 -30.999
s-21.333 -16.333 -36 -21v-3c16.667 -5.33301 29.834 -12.166 39.501 -20.499s16.667 -17.5 21 -27.5s7 -20.333 8 -31s1.5 -21.334 1.5 -32.001v-118z" />
    <glyph glyph-name="bar" unicode="|" horiz-adv-x="325" 
d="M80 673c0 6.66699 1.66699 12.332 5 16.999s9.66602 7 18.999 7h118c10.667 0 17.167 -3 19.5 -9s3.5 -11 3.5 -15v-758c0 -4 -1.16699 -9 -3.5 -15s-8.83301 -9 -19.5 -9h-118c-9.33301 0 -15.666 2.33301 -18.999 7s-5 10.334 -5 17.001v758z" />
    <glyph glyph-name="braceright" unicode="}" horiz-adv-x="380" 
d="M112 185c0 10.667 0.504883 21.3389 1.50488 32.0059s3.66699 21 8 31s11.166 19.167 20.499 27.5s22.666 15.166 39.999 20.499v3c-15.333 4.66699 -27.5 11.667 -36.5 21s-16 19.666 -21 30.999s-8.33301 22.666 -10 33.999s-2.5 21 -2.5 29v105
c0 15.333 -2.66699 27 -8 35s-15 12.667 -29 14l-26 2c-13.333 0 -20 6.66699 -20 20v85c0 13.333 6 20.666 18 21.999c21.333 2.66699 39.166 4.16699 53.499 4.5s28.5 0.5 42.5 0.5c23.333 0 43.833 -3.66699 61.5 -11s32.334 -17 44.001 -29s20.5 -25.667 26.5 -41
s9 -31.333 9 -48v-140c0 -11.333 0.166992 -21.166 0.5 -29.499s1.66602 -15.5 3.99902 -21.5s6.33301 -11.333 12 -16s13.5 -8.33398 23.5 -11.001c4.66699 -1.33301 8.66699 -3.33301 12 -6s5 -7 5 -13v-67c0 -6 -1.83301 -10.833 -5.5 -14.5
s-8.16699 -6.16699 -13.5 -7.5c-19.333 -6 -30.5 -14.833 -33.5 -26.5s-4.5 -28.167 -4.5 -49.5v-155c0 -15.333 -2.33301 -30.5 -7 -45.5s-12.334 -28.5 -23.001 -40.5s-24.667 -21.833 -42 -29.5s-38.333 -11.5 -63 -11.5c-14 0 -29.833 0.166992 -47.5 0.5
s-35.834 1.83301 -54.501 4.5c-12 1.33301 -18 8.66602 -18 21.999v81c0 8 1.66699 13.333 5 16s8.33301 4.33398 15 5.00098l25 2c14.667 1.33301 24.667 5.66602 30 12.999s8 18.666 8 33.999v118z" />
    <glyph glyph-name="asciitilde" unicode="~" horiz-adv-x="616" 
d="M407 213c-12.667 0 -27.501 2.50195 -44.501 7.50195s-34.333 10.667 -52 17s-34.834 12 -51.501 17s-31 7.5 -43 7.5c-10.667 0 -21 -3 -31 -9s-21.333 -16.667 -34 -32c-5.33301 -6 -9.33301 -10 -12 -12s-9 -0.333008 -19 5l-51 27c-2 1.33301 -5.33301 4 -10 8
s-5.33398 9.66699 -2.00098 17c10 23.333 21.333 43 34 59s26 29 40 39s28.5 17.167 43.5 21.5s29.833 6.5 44.5 6.5c17.333 0 35.333 -2.33301 54 -7s37 -10 55 -16s35 -11.333 51 -16s30 -7 42 -7c9.33301 0 18 3.16699 26 9.5s16.333 15.833 25 28.5
c4.66699 6.66699 8.66699 10.5 12 11.5s9.33301 -1.16699 18 -6.5l52 -31c6.66699 -4 11.334 -7.5 14.001 -10.5s2.33398 -8.16699 -0.999023 -15.5c-10.667 -24.667 -22.167 -44.834 -34.5 -60.501s-25.166 -27.834 -38.499 -36.501s-27.333 -14.5 -42 -17.5
s-29.667 -4.5 -45 -4.5z" />
    <glyph glyph-name="exclamdown" unicode="&#xa1;" horiz-adv-x="324" 
d="M252 -146c0 -8.66699 -1.66797 -14.5 -5.00098 -17.5s-9 -4.5 -17 -4.5h-133c-8 0 -13.667 1.5 -17 4.5s-4.66602 8.83301 -3.99902 17.5l15 413c0 8 1.5 13.667 4.5 17s8.5 5 16.5 5h104c8 0 13.5 -1.83301 16.5 -5.5s4.83301 -9.16699 5.5 -16.5zM253.999 420
c0 -12 -1.16602 -23.334 -3.49902 -34.001s-7 -19.667 -14 -27s-16.5 -13.166 -28.5 -17.499s-27.333 -6.5 -46 -6.5c-18 0 -33 2.16699 -45 6.5s-21.5 10.333 -28.5 18s-11.833 16.667 -14.5 27s-4 21.5 -4 33.5c0 10 1 20 3 30s6.16699 19.167 12.5 27.5
s15.666 15 27.999 20s28.5 7.5 48.5 7.5c19.333 0 35 -2.5 47 -7.5s21.333 -11.5 28 -19.5s11.167 -17 13.5 -27s3.5 -20.333 3.5 -31z" />
    <glyph glyph-name="cent" unicode="&#xa2;" horiz-adv-x="616" 
d="M526 70c3.33301 -15.333 3.50195 -26.6719 0.501953 -34.0049s-14.167 -14.666 -33.5 -21.999c-13.333 -4.66699 -28.666 -8.66699 -45.999 -12s-34.666 -6 -51.999 -8v-117c0 -4 -1.16699 -9 -3.5 -15s-8.83301 -9 -19.5 -9h-81c-9.33301 0 -15.666 2.33301 -18.999 7
s-5 10.334 -5 17.001v120c-36.667 6.66699 -66.167 18.334 -88.5 35.001s-39.5 36.5 -51.5 59.5s-20 48.167 -24 75.5s-6 55 -6 83c0 26 2.16699 52.167 6.5 78.5s12.666 51 24.999 74s29.666 43 51.999 60s51.166 29.167 86.499 36.5v119
c0 6.66699 1.66699 12.334 5 17.001s9.66602 7 18.999 7h81c10.667 0 17.167 -3 19.5 -9s3.5 -11 3.5 -15v-115c39.333 -3.33301 73.666 -11 102.999 -23c10.667 -4.66699 18.334 -10.167 23.001 -16.5s5.66699 -15.833 3 -28.5l-14 -77
c-1.33301 -6.66699 -3.16602 -11.5 -5.49902 -14.5s-5.16602 -5.16699 -8.49902 -6.5s-7.5 -1.83301 -12.5 -1.5s-10.5 0.833008 -16.5 1.5c-20 2 -37.333 3.5 -52 4.5s-29.334 1.5 -44.001 1.5c-28.667 0 -49.834 -7.66699 -63.501 -23s-20.5 -37.666 -20.5 -66.999
c0 -37.333 5.83301 -63.333 17.5 -78s32.5 -22 62.5 -22c13.333 0 30 0.5 50 1.5s41 3.16699 63 6.5c11.333 1.33301 19.166 1 23.499 -1s7.5 -8.66699 9.5 -20z" />
    <glyph glyph-name="sterling" unicode="&#xa3;" horiz-adv-x="616" 
d="M315 275c-0.666992 -24.667 -2.83203 -47.834 -6.49902 -69.501s-10.167 -40.167 -19.5 -55.5h238c9.33301 0 15.333 -1.5 18 -4.5s4 -8.5 4 -16.5l1 -107c0 -8.66699 -1.33301 -14.5 -4 -17.5s-8.66699 -4.5 -18 -4.5h-447c-15.333 0 -23 7.66699 -23 23l-2 92
c0 6 1.83301 12.5 5.5 19.5s10.5 14.5 20.5 22.5c19.333 15.333 32.166 32.666 38.499 51.999s9.83301 41.333 10.5 66h-51c-8.66699 0 -14.834 1.33301 -18.501 4s-5.5 8.33398 -5.5 17.001v89c0 8 1.83301 13.333 5.5 16s9.83398 4 18.501 4h46
c-2 34.667 -1.83301 68 0.5 100s10.5 60.167 24.5 84.5s36 43.666 66 57.999s72 21.5 126 21.5c9.33301 0 21.833 -0.333008 37.5 -1s32.5 -2 50.5 -4s36.333 -4.83301 55 -8.5s35.667 -8.5 51 -14.5c11.333 -4.66699 17.833 -9.16699 19.5 -13.5
s1.83398 -10.166 0.500977 -17.499l-13 -88c-1.33301 -9.33301 -3.83301 -15.666 -7.5 -18.999s-9.16699 -4.66602 -16.5 -3.99902c-21.333 3.33301 -42.333 5.83301 -63 7.5s-41.334 2.5 -62.001 2.5c-20 0 -35.833 -2.83301 -47.5 -8.5s-20.334 -13.167 -26.001 -22.5
s-9.16699 -20.333 -10.5 -33s-1.66602 -26 -0.999023 -40h120c8.66699 0 14.667 -1.33301 18 -4s5 -8 5 -16v-89c0 -8.66699 -1.66699 -14.334 -5 -17.001s-9.33301 -4 -18 -4h-115z" />
    <glyph glyph-name="currency" unicode="&#xa4;" horiz-adv-x="554" 
d="M195 290c0 -27.333 7 -48.168 21 -62.501s33.667 -21.5 59 -21.5c28 0 49.333 7.83301 64 23.5s22 35.834 22 60.501c0 26 -7.33301 46.333 -22 61s-36 22 -64 22c-25.333 0 -45 -7.33301 -59 -22s-21 -35 -21 -61zM64 285.998c0 11.333 1.33496 25.668 4.00195 43.001
s8.66699 35.666 18 54.999l-49 50c-8.66699 9.33301 -13 16.166 -13 20.499s4.66699 10.5 14 18.5l47 44c11.333 10.667 19.333 15.667 24 15s11.667 -5.66699 21 -15l42 -43c28.667 13.333 62 20.666 100 21.999c21.333 0 40.666 -1.66699 57.999 -5
s33.666 -9.66602 48.999 -18.999l53 51c10.667 10 18 14.667 22 14s9.66699 -4.66699 17 -12l53 -52c7.33301 -7.33301 10.833 -13.166 10.5 -17.499s-4.5 -10.5 -12.5 -18.5l-56 -56c7.33301 -14.667 12.5 -30.334 15.5 -47.001s4.5 -31.334 4.5 -44.001
c0 -14 -1.66699 -30.5 -5 -49.5s-9.33301 -37.5 -18 -55.5l56 -56c7.33301 -7.33301 11.833 -13.5 13.5 -18.5s-1.83301 -11.833 -10.5 -20.5l-44 -45c-10.667 -11.333 -18.334 -17 -23.001 -17s-11 3.66699 -19 11l-61 58
c-15.333 -7.33301 -31.666 -13.166 -48.999 -17.499s-35.333 -6.16602 -54 -5.49902c-18 0 -34.333 1.66699 -49 5s-28.667 8 -42 14l-52 -47c-8.66699 -8 -15.5 -12.833 -20.5 -14.5s-11.5 1.5 -19.5 9.5l-51 54c-6 6 -9.16699 11 -9.5 15s4.16699 10.667 13.5 20l47 45
c-8 18.667 -14.167 38.5 -18.5 59.5s-6.5 38.167 -6.5 51.5z" />
    <glyph glyph-name="yen" unicode="&#xa5;" horiz-adv-x="616" 
d="M524 220c10 0 16.333 -1.50098 19 -4.50098s4 -8.16699 4 -15.5v-48c0 -8.66699 -1.33301 -14.5 -4 -17.5s-9 -4.5 -19 -4.5h-125v-106c0 -4 -1.16699 -9 -3.5 -15s-8.5 -9 -18.5 -9h-141c-9.33301 0 -15.5 2.33301 -18.5 7s-4.5 10.334 -4.5 17.001v106h-125
c-8.66699 0 -14.834 1.5 -18.501 4.5s-5.5 8.83301 -5.5 17.5v47c0 8 1.83301 13.5 5.5 16.5s9.83398 4.5 18.501 4.5h436zM88 253.999c-8.66699 0 -14.833 1.5 -18.5 4.5s-5.5 8.83301 -5.5 17.5v47c0 8 1.83301 13.5 5.5 16.5s9.83398 4.5 18.501 4.5h69l-132 291
c-4 8 -4.33301 15 -1 21s9.33301 9 18 9h135c13.333 0 22.666 -1.83301 27.999 -5.5s11 -11.5 17 -23.5l87 -238h6l80 228c6 12 11.667 21.5 17 28.5s14.666 10.5 27.999 10.5h141c7.33301 0 12.333 -3.33301 15 -10s2.33398 -13 -0.999023 -19l-138 -292h67
c10 0 16.333 -1.5 19 -4.5s4 -8.16699 4 -15.5v-48c0 -8.66699 -1.33301 -14.5 -4 -17.5s-9 -4.5 -19 -4.5h-436z" />
    <glyph glyph-name="brokenbar" unicode="&#xa6;" horiz-adv-x="325" 
d="M80 262c0 6.66699 1.66699 12.332 5 16.999s9.66602 7 18.999 7h118c10.667 0 17.167 -3 19.5 -9s3.5 -11 3.5 -15v-347c0 -4 -1.16699 -9 -3.5 -15s-8.83301 -9 -19.5 -9h-118c-9.33301 0 -15.666 2.33301 -18.999 7s-5 10.334 -5 17.001v347zM80 672.998
c0 6.66699 1.66699 12.332 5 16.999s9.66602 7 18.999 7h118c10.667 0 17.167 -3 19.5 -9s3.5 -11 3.5 -15v-296c0 -4 -1.16699 -9 -3.5 -15s-8.83301 -9 -19.5 -9h-118c-9.33301 0 -15.666 2.33301 -18.999 7s-5 10.334 -5 17.001v296z" />
    <glyph glyph-name="section" unicode="&#xa7;" horiz-adv-x="470" 
d="M441 275c0 -23.333 -4.66797 -46.668 -14.001 -70.001s-25.666 -46.666 -48.999 -69.999c18 -16 33 -34.667 45 -56s18 -47 18 -77c0 -31.333 -6.33301 -58.166 -19 -80.499s-29.167 -40.5 -49.5 -54.5s-42.833 -24.167 -67.5 -30.5s-49 -9.5 -73 -9.5
c-36 0 -69.167 3.16699 -99.5 9.5s-53.166 13.833 -68.499 22.5c-8 4.66699 -14.5 9.16699 -19.5 13.5s-5.5 12.166 -1.5 23.499l21 67c2.66699 8.66699 5.5 14.834 8.5 18.501s6.5 5.66699 10.5 6s9 -0.166992 15 -1.5s13.667 -2.66602 23 -3.99902
c13.333 -2 28.666 -4.16699 45.999 -6.5s32.666 -3.5 45.999 -3.5c18.667 0 33.834 2 45.501 6s17.5 11.333 17.5 22c0 6.66699 -2.83301 12.834 -8.5 18.501s-12.5 11 -20.5 16s-16.333 9.5 -25 13.5l-22 10l-57.5 27c-19.667 9.33301 -37.667 20.5 -54 33.5
s-29.666 28.5 -39.999 46.5s-15.5 40 -15.5 66c0 22.667 4.83301 46 14.5 70s25.5 47.333 47.5 70c-18 15.333 -33.167 33.833 -45.5 55.5s-18.5 47.5 -18.5 77.5c0 31.333 6.5 58.166 19.5 80.499s29.667 40.5 50 54.5s43 24.167 68 30.5s49.5 9.5 73.5 9.5
c36 0 69.167 -3.16699 99.5 -9.5s53.166 -13.833 68.499 -22.5c8 -4.66699 14.5 -9.16699 19.5 -13.5s5.5 -12.166 1.5 -23.499l-21 -67c-3.33301 -8.66699 -6.33301 -14.834 -9 -18.501s-6 -5.66699 -10 -6s-9 0.166992 -15 1.5s-13.667 2.66602 -23 3.99902
c-13.333 2 -28.666 4.16699 -45.999 6.5s-32.666 3.5 -45.999 3.5c-18.667 0 -33.834 -2 -45.501 -6s-17.5 -11.333 -17.5 -22c0 -6.66699 2.83301 -12.834 8.5 -18.501s12.5 -11 20.5 -16s16.333 -9.5 25 -13.5l22 -10l57.5 -27.5c19.667 -9 37.667 -20 54 -33
s29.666 -28.5 39.999 -46.5s15.5 -40 15.5 -66zM276.999 254.998c0 8 -5.99805 15.833 -17.998 23.5s-26.667 15.5 -44 23.5c-6.66699 -11.333 -11.334 -21.333 -14.001 -30s-4 -15.667 -4 -21c0 -8.66699 6 -16.667 18 -24s26.667 -15 44 -23
c9.33301 11.333 14.666 21.333 15.999 30s2 15.667 2 21z" />
    <glyph glyph-name="dieresis" unicode="&#xa8;" horiz-adv-x="554" 
d="M176 537c-20 0 -35.8311 2.33203 -47.498 6.99902s-20.5 10.834 -26.5 18.501s-9.83301 16.5 -11.5 26.5s-2.5 20.333 -2.5 31c0 11.333 1.16699 22 3.5 32s6.83301 18.5 13.5 25.5s15.667 12.5 27 16.5s26 6 44 6c18.667 0 33.667 -1.83301 45 -5.5s20.333 -9 27 -16
s11.167 -15.5 13.5 -25.5s3.5 -21 3.5 -33c0 -11.333 -1 -22 -3 -32s-6.33301 -18.833 -13 -26.5s-15.834 -13.667 -27.501 -18s-26.834 -6.5 -45.501 -6.5zM397.002 536.999c-19.333 0 -34.832 2.33203 -46.499 6.99902s-20.5 10.834 -26.5 18.501s-10 16.5 -12 26.5
s-3 20.333 -3 31c0 11.333 1.33301 22 4 32s7.16699 18.5 13.5 25.5s15.166 12.5 26.499 16.5s26 6 44 6c18.667 0 33.834 -1.83301 45.501 -5.5s20.667 -9 27 -16s10.666 -15.5 12.999 -25.5s3.5 -21 3.5 -33c0 -11.333 -1 -22 -3 -32s-6.16699 -18.833 -12.5 -26.5
s-15.333 -13.667 -27 -18s-27.167 -6.5 -46.5 -6.5z" />
    <glyph glyph-name="copyright" unicode="&#xa9;" horiz-adv-x="841" 
d="M420 -14c-49.333 0 -95.501 9.16699 -138.501 27.5s-80.5 43.166 -112.5 74.499s-57.333 68.333 -76 111s-28 88.334 -28 137.001s9.33301 94.334 28 137.001s44 79.667 76 111s69.5 56.166 112.5 74.499s89.167 27.5 138.5 27.5c50 0 96.667 -9.16699 140 -27.5
s81 -43.166 113 -74.499s57.167 -68.333 75.5 -111s27.5 -88.334 27.5 -137.001s-9.33301 -94.334 -28 -137.001s-44 -79.667 -76 -111s-69.667 -56.166 -113 -74.499s-89.666 -27.5 -138.999 -27.5zM419.999 590c-35.333 0 -68.5 -6.66699 -99.5 -20
s-58.167 -31.5 -81.5 -54.5s-41.666 -49.833 -54.999 -80.5s-20 -63.667 -20 -99s6.66699 -68.333 20 -99s31.666 -57.667 54.999 -81s50.5 -41.666 81.5 -54.999s64.167 -20 99.5 -20s68.666 6.66699 99.999 20s58.5 31.666 81.5 54.999s41.167 50.333 54.5 81
s20 63.667 20 99s-6.66699 68.333 -20 99s-31.5 57.5 -54.5 80.5s-50.167 41.167 -81.5 54.5s-64.666 20 -99.999 20zM241.999 333c0 23.333 2.33398 46.8291 7.00098 70.4961s13.5 45 26.5 64s31 34.5 54 46.5s53.167 18 90.5 18c21.333 0 41.333 -1.5 60 -4.5
s35.667 -8.16699 51 -15.5c7.33301 -3.33301 13 -6.83301 17 -10.5s5 -10.5 3 -20.5l-8 -42c-2 -7.33301 -5 -11.666 -9 -12.999s-9.33301 -1.33301 -16 0c-14 2 -29.167 3.33301 -45.5 4s-29.833 1 -40.5 1c-26.667 0 -44.834 -9.16699 -54.501 -27.5
s-14.5 -41.166 -14.5 -68.499c0 -36 4.66699 -61.833 14 -77.5s27.666 -23.5 54.999 -23.5h20.5c6.33301 0 12.833 0.333008 19.5 1s13.834 1.16699 21.501 1.5s16.5 1.16602 26.5 2.49902c6.66699 0.666992 11.667 0.333984 15 -0.999023s6.33301 -5.66602 9 -12.999
l10 -38c2.66699 -9.33301 2 -16.333 -2 -21s-9.66699 -8.66699 -17 -12c-15.333 -7.33301 -33 -12.666 -53 -15.999s-40.667 -5 -62 -5c-36.667 0 -66.667 5.83301 -90 17.5s-41.5 27 -54.5 46s-21.833 40.5 -26.5 64.5s-7 48 -7 72z" />
    <glyph glyph-name="ordfeminine" unicode="&#xaa;" horiz-adv-x="414" 
d="M239 274c-8.66699 -8.66699 -18.3301 -15.8369 -28.9971 -21.5039s-21.334 -10.167 -32.001 -13.5s-20.5 -5.66602 -29.5 -6.99902s-16.5 -2 -22.5 -2c-23.333 0 -41.833 3.16699 -55.5 9.5s-24.167 14.5 -31.5 24.5s-12.166 21.167 -14.499 33.5s-3.5 24.5 -3.5 36.5
c-0.666992 22 2.66602 39.667 9.99902 53s17.166 23.666 29.499 30.999s27.166 12.333 44.499 15s35.666 4 54.999 4h64v6c0 6 -3.5 11.333 -10.5 16s-22.833 7 -47.5 7c-8 0 -18.167 -0.333008 -30.5 -1s-25.166 -1.66699 -38.499 -3s-22.666 -2.16602 -27.999 -2.49902
s-9 4.83398 -11 15.501l-8 39c-1.33301 7.33301 -1 15 1 23s11.667 14.667 29 20c21.333 6.66699 42.833 11.334 64.5 14.001s40.167 4 55.5 4c35.333 0 63.666 -3 84.999 -9s37.833 -14.833 49.5 -26.5s19.5 -25.834 23.5 -42.501s6 -35.667 6 -57v-81
c0 -10 1.16699 -16.167 3.5 -18.5s7.16602 -4.16602 14.499 -5.49902c9.33301 -1.33301 15.333 -3.16602 18 -5.49902s4 -7.5 4 -15.5v-52c0 -8 -2.5 -13.667 -7.5 -17s-12.167 -6.33301 -21.5 -9c-7.33301 -2 -15.5 -3.33301 -24.5 -4s-18.167 -1 -27.5 -1
c-16 0 -31.667 2.66699 -47 8s-26.666 17 -33.999 35h-3zM221.004 362.997l-32 0.000976562c-16 0 -24 -7.33301 -24 -22c0 -3.33301 0.833008 -6.5 2.5 -9.5s5.16699 -4.5 10.5 -4.5c6 0 13 1.16699 21 3.5s15.333 5.16602 22 8.49902v24z" />
    <glyph glyph-name="guillemotleft" unicode="&#xab;" horiz-adv-x="616" 
d="M153 367c3.33301 4 7.83203 8.33301 13.499 13s12.167 7 19.5 7h146c7.33301 0 12 -1.83301 14 -5.5s1.33301 -7.16699 -2 -10.5l-134 -164l127 -161c2 -2.66699 3 -6.66699 3 -12s-3 -8 -9 -8h-147c-7.33301 0 -13.5 2.5 -18.5 7.5s-9.16699 9.5 -12.5 13.5l-111 140
c-7.33301 9.33301 -10.666 17 -9.99902 23s4 12.667 10 20zM388.999 367c3.33301 4 7.83203 8.33301 13.499 13s12.167 7 19.5 7h146c7.33301 0 12 -1.83301 14 -5.5s1.33301 -7.16699 -2 -10.5l-134 -164l127 -161c2 -2.66699 3 -6.66699 3 -12s-3 -8 -9 -8h-147
c-7.33301 0 -13.5 2.5 -18.5 7.5s-9.16699 9.5 -12.5 13.5l-111 140c-7.33301 9.33301 -10.666 17 -9.99902 23s4 12.667 10 20z" />
    <glyph glyph-name="logicalnot" unicode="&#xac;" horiz-adv-x="616" 
d="M527 398c10 0 16.333 -2 19 -6s4 -9.66699 4 -17v-264c0 -10 -2 -16.333 -6 -19s-9.66699 -4 -17 -4h-115c-8.66699 0 -15 1.33301 -19 4s-6 9 -6 19v152h-296c-16 0 -24 8.33301 -24 25v86c0 16 8 24 24 24h436z" />
    <glyph glyph-name="sfthyphen" unicode="&#xad;" horiz-adv-x="430" 
d="M384 391c10 0 16.333 -2 19 -6s4 -9.66699 4 -17v-98c0 -8.66699 -1.33301 -15 -4 -19s-9 -6 -19 -6h-331c-16 0 -24 8.33301 -24 25v97c0 16 8 24 24 24h331z" />
    <glyph glyph-name="registered" unicode="&#xae;" horiz-adv-x="545" 
d="M384 395c3.33301 -7.33301 0.333008 -11.002 -9 -11.002h-57c-9.33301 0 -15.666 3.66699 -18.999 11l-32 77h-8v-77c0 -1.33301 -0.166992 -3.5 -0.5 -6.5s-3.16602 -4.5 -8.49902 -4.5h-59c-5.33301 0 -8.33301 1.16699 -9 3.5s-1 4.83301 -1 7.5v226
c0 3.33301 0.5 6.16602 1.5 8.49902s4.16699 3.5 9.5 3.5h99c10 0 20.167 -1.5 30.5 -4.5s19.666 -7.66699 27.999 -14s15.166 -14.666 20.499 -24.999s8 -22.5 8 -36.5c0 -11.333 -2.5 -23.166 -7.5 -35.499s-14.167 -22.166 -27.5 -29.499zM298 551.998
c0 10.667 -6.33301 16 -19 16h-20v-33h20c4 0 8.16699 1 12.5 3s6.5 6.66699 6.5 14zM279 272.998c-32 0 -62.334 6 -91.001 18s-53.5 28.333 -74.5 49s-37.667 45.167 -50 73.5s-18.5 58.5 -18.5 90.5s6.16699 62 18.5 90s29 52.333 50 73s45.833 37 74.5 49s59 18 91 18
c32.667 0 63.334 -6 92.001 -18s53.5 -28.333 74.5 -49s37.5 -45 49.5 -73s18 -58 18 -90s-6.16699 -62.167 -18.5 -90.5s-29 -52.833 -50 -73.5s-45.667 -37 -74 -49s-58.833 -18 -91.5 -18zM278.999 670.998c-23.333 0 -45.166 -4.33301 -65.499 -13
s-38.166 -20.667 -53.499 -36s-27.5 -33.166 -36.5 -53.499s-13.5 -41.833 -13.5 -64.5c0 -23.333 4.5 -45.166 13.5 -65.499s21.167 -38.166 36.5 -53.499s33.166 -27.333 53.499 -36s42.166 -13 65.499 -13s45.166 4.33301 65.499 13s38.166 20.667 53.499 36
s27.333 33.166 36 53.499s13 42.166 13 65.499c0 22.667 -4.33301 44.167 -13 64.5s-20.667 38.166 -36 53.499s-33.166 27.333 -53.499 36s-42.166 13 -65.499 13z" />
    <glyph glyph-name="macron" unicode="&#xaf;" horiz-adv-x="554" 
d="M113 560c-16 0 -24 8.33301 -24 25v86c0 16 8 24 24 24h328c10 0 16.333 -2 19 -6s4 -9.66699 4 -17v-87c0 -8.66699 -1.33301 -15 -4 -19s-9 -6 -19 -6h-328z" />
    <glyph glyph-name="degree" unicode="&#xb0;" horiz-adv-x="413" 
d="M208 344c-28 0 -53.001 4.33301 -75.001 13s-40.667 20.5 -56 35.5s-27 32.5 -35 52.5s-12 41.667 -12 65c0 22 4.66699 43 14 63s22 37.5 38 52.5s34.833 27 56.5 36s44.834 13.5 69.501 13.5s47.667 -4.5 69 -13.5s39.833 -21 55.5 -36s28 -32.5 37 -52.5
s13.5 -41 13.5 -63c0 -23.333 -4.5 -45 -13.5 -65s-21.333 -37.5 -37 -52.5s-34.167 -26.833 -55.5 -35.5s-44.333 -13 -69 -13zM205.999 566c-16 0 -29.999 -5.66699 -41.999 -17s-18 -25 -18 -41s5.66699 -29.667 17 -41s25.666 -17 42.999 -17
c16 0 29.833 5.66699 41.5 17s17.5 25 17.5 41s-5.83301 29.667 -17.5 41s-25.5 17 -41.5 17z" />
    <glyph glyph-name="plusminus" unicode="&#xb1;" horiz-adv-x="616" 
d="M388 452h139c10 0 16.333 -2 19 -6s4 -9.66699 4 -17v-87c0 -8.66699 -1.33301 -15 -4 -19s-9 -6 -19 -6h-139v-132c0 -10 -2 -16.333 -6 -19s-9.66699 -4 -17 -4h-114c-8.66699 0 -15 1.33301 -19 4s-6 9 -6 19v132h-135c-16 0 -24 8.33301 -24 25v86c0 16 8 24 24 24
h135v119c0 16 8.33301 24 25 24h113c16 0 24 -8 24 -24v-119zM91 2c-16 0 -24 8.33301 -24 25v79c0 16 8 24 24 24h436c10 0 16.333 -2 19 -6s4 -9.66699 4 -17v-80c0 -8.66699 -1.33301 -15 -4 -19s-9 -6 -19 -6h-436z" />
    <glyph glyph-name="twosuperior" unicode="&#xb2;" horiz-adv-x="425" 
d="M251 447l121.998 -0.00195312c11.333 0 17 -5.66699 17 -17v-88c0 -4.66699 -1.16699 -8.66699 -3.5 -12s-6.83301 -5 -13.5 -5h-334c-7.33301 0 -12 1.5 -14 4.5s-3 7.16699 -3 12.5v62c0 5.33301 0.833008 11 2.5 17s6.16699 12.667 13.5 20l161 142
c10.667 9.33301 17.667 17.5 21 24.5s5 12.833 5 17.5c0 6 -2.5 10.667 -7.5 14s-14.5 5 -28.5 5c-19.333 0 -39.666 -0.833008 -60.999 -2.5s-39.333 -3.16699 -54 -4.5c-8 -0.666992 -14.333 -1.33398 -19 -2.00098s-8.33398 -0.5 -11.001 0.5s-4.66699 3 -6 6
s-2.66602 8.16699 -3.99902 15.5l-8 48c-0.666992 4 -1.16699 8.16699 -1.5 12.5s0.333984 8.33301 2.00098 12s5 7.33398 10 11.001s12.167 7.16699 21.5 10.5c10 4 21.333 7.16699 34 9.5s25.5 4.33301 38.5 6s25.167 2.83398 36.5 3.50098s20 1 26 1
c67.333 0 115.833 -12 145.5 -36s44.5 -57.667 44.5 -101c0 -29.333 -6.5 -54.166 -19.5 -74.499s-30.833 -40.833 -53.5 -61.5z" />
    <glyph glyph-name="threesuperior" unicode="&#xb3;" horiz-adv-x="425" 
d="M168 645l-116.997 -0.000976562c-12 0 -18 5.33301 -18 16v88c0 11.333 6 17 18 17h316c8 0 12.833 -1.5 14.5 -4.5s2.5 -7.16699 2.5 -12.5v-60c0 -6 -0.666992 -12.333 -2 -19s-6.66602 -13.667 -15.999 -21l-55 -39c26.667 -8 47.667 -21.5 63 -40.5
s23 -44.167 23 -75.5c0 -34 -5 -62.333 -15 -85s-24 -40.667 -42 -54s-39.833 -22.666 -65.5 -27.999s-53.834 -8 -84.501 -8c-6 0 -14.333 0.333008 -25 1s-22.334 1.83398 -35.001 3.50098s-25.334 3.66699 -38.001 6s-24 5.5 -34 9.5c-18 6 -29.333 12.667 -34 20
s-5.33398 16.666 -2.00098 27.999l12 50c1.33301 6 2.66602 10.5 3.99902 13.5s3.33301 5 6 6s6.16699 1.16699 10.5 0.5s10.5 -1.33398 18.5 -2.00098l57 -6c18.667 -2 34.667 -3 48 -3c19.333 0 34.833 1.66699 46.5 5s17.5 14 17.5 32c0 7.33301 -6.33301 12.333 -19 15
l-86 17c-13.333 2.66699 -22.166 6.33398 -26.499 11.001s-6.5 13.667 -6.5 27v28c0 6.66699 0.5 12.5 1.5 17.5s4.83301 9.5 11.5 13.5l52 31z" />
    <glyph glyph-name="acute" unicode="&#xb4;" horiz-adv-x="554" 
d="M431 745c7.33301 -4 11.666 -9.16699 12.999 -15.5s-1 -13.5 -7 -21.5l-131 -160c-4 -5.33301 -8.33301 -9.33301 -13 -12s-10.334 -2 -17.001 2l-63 36c-5.33301 3.33301 -9.16602 6.83301 -11.499 10.5s-1.16602 9.5 3.50098 17.5l103 185
c5.33301 9.33301 11 14.333 17 15s11.333 -0.333008 16 -3z" />
    <glyph glyph-name="mu" unicode="&#xb5;" horiz-adv-x="574" 
d="M230 227c0 -26 4.66797 -42.5 14.001 -49.5s21.666 -10.5 36.999 -10.5c11.333 0 21.833 1.83301 31.5 5.5l28.5 10.5v290c0 4 1.16699 9 3.5 15s8.83301 9 19.5 9h141c9.33301 0 15.666 -2.33301 18.999 -7s5 -10.334 5 -17.001v-449
c0 -6.66699 -1.66699 -12.334 -5 -17.001s-9.66602 -7 -18.999 -7h-141c-10.667 0 -17.167 3 -19.5 9s-3.5 11 -3.5 15v19l-2 1c-18 -13.333 -35.5 -23.333 -52.5 -30s-35.833 -10.667 -56.5 -12v-183c0 -4 -1.16699 -9 -3.5 -15s-8.83301 -9 -19.5 -9h-141
c-9.33301 0 -15.666 2.33301 -18.999 7s-5 10.334 -5 17.001v654c0 6.66699 1.66699 12.334 5 17.001s9.66602 7 18.999 7h141c10.667 0 17.167 -3 19.5 -9s3.5 -11 3.5 -15v-246z" />
    <glyph glyph-name="mu" unicode="&#x3bc;" horiz-adv-x="574" 
d="M230 227c0 -26 4.66797 -42.5 14.001 -49.5s21.666 -10.5 36.999 -10.5c11.333 0 21.833 1.83301 31.5 5.5l28.5 10.5v290c0 4 1.16699 9 3.5 15s8.83301 9 19.5 9h141c9.33301 0 15.666 -2.33301 18.999 -7s5 -10.334 5 -17.001v-449
c0 -6.66699 -1.66699 -12.334 -5 -17.001s-9.66602 -7 -18.999 -7h-141c-10.667 0 -17.167 3 -19.5 9s-3.5 11 -3.5 15v19l-2 1c-18 -13.333 -35.5 -23.333 -52.5 -30s-35.833 -10.667 -56.5 -12v-183c0 -4 -1.16699 -9 -3.5 -15s-8.83301 -9 -19.5 -9h-141
c-9.33301 0 -15.666 2.33301 -18.999 7s-5 10.334 -5 17.001v654c0 6.66699 1.66699 12.334 5 17.001s9.66602 7 18.999 7h141c10.667 0 17.167 -3 19.5 -9s3.5 -11 3.5 -15v-246z" />
    <glyph glyph-name="paragraph" unicode="&#xb6;" horiz-adv-x="609" 
d="M545 665c10.667 0 17.8379 -2.16406 21.5049 -6.49707s5.5 -10.833 5.5 -19.5v-96c0 -8 -1.83301 -14.333 -5.5 -19s-10.834 -7 -21.501 -7h-14v-603c0 -10.667 -2.16699 -17.834 -6.5 -21.501s-10.833 -5.5 -19.5 -5.5h-84c-8 0 -14.333 1.83301 -19 5.5
s-7 10.834 -7 21.501v604h-79v-604c0 -10.667 -2.33301 -17.834 -7 -21.501s-11.334 -5.5 -20.001 -5.5h-82c-9.33301 0 -16.333 1.83301 -21 5.5s-7 10.834 -7 21.501v358c-24.667 2 -46.5 8.16699 -65.5 18.5s-34.833 23.833 -47.5 40.5s-22.334 35.667 -29.001 57
s-10 43.666 -10 66.999c0 35.333 5.16699 66.166 15.5 92.499s24.666 48.166 42.999 65.499s39.666 30.333 63.999 39s50.5 13 78.5 13h317z" />
    <glyph glyph-name="periodcentered" unicode="&#xb7;" horiz-adv-x="252" 
d="M222 276c0 -11.333 -1.16699 -22.166 -3.5 -32.499s-7 -19.833 -14 -28.5s-16.833 -15.5 -29.5 -20.5s-29 -7.5 -49 -7.5c-21.333 0 -38.166 2.66699 -50.499 8s-22 12.166 -29 20.499s-11.5 17.833 -13.5 28.5s-3 21.334 -3 32.001c0 12 1.5 23.333 4.5 34s8 20 15 28
s16.667 14.333 29 19s28.166 7 47.499 7c20 0 36.167 -2.16699 48.5 -6.5s22 -10.5 29 -18.5s11.833 -17.333 14.5 -28s4 -22.334 4 -35.001z" />
    <glyph glyph-name="cedilla" unicode="&#xb8;" horiz-adv-x="425" 
d="M268 -134c0 7.33301 -1.66602 12.665 -4.99902 15.998s-8.16602 5.83301 -14.499 7.5s-14.5 2.66699 -24.5 3s-21.333 0.833008 -34 1.5c-16 2 -21 10.667 -15 26l31 89c0 0.666992 0.833008 2 2.5 4s4.16699 3 7.5 3h61c3.33301 0 5.16602 -1 5.49902 -3
s0.166016 -3.66699 -0.500977 -5l-22 -57c24 -1.33301 43.167 -4.66602 57.5 -9.99902s25.333 -12 33 -20s12.834 -17.167 15.501 -27.5s4 -20.5 4 -30.5c0 -15.333 -2.83301 -30 -8.5 -44s-14.834 -26.333 -27.501 -37s-28.667 -19.167 -48 -25.5s-42.333 -9.5 -69 -9.5
c-5.33301 0 -11.833 0.166992 -19.5 0.5s-16 1 -25 2s-17.667 2.33301 -26 4s-15.5 3.5 -21.5 5.5c-3.33301 1.33301 -6 3 -8 5s-2.33301 4.66699 -1 8l10 51c0.666992 4.66699 5 6.66699 13 6c10.667 -1.33301 22.167 -2.66602 34.5 -3.99902s23.166 -2 32.499 -2
c8 0 15.833 0.5 23.5 1.5s14.334 3 20.001 6s10.167 7.33301 13.5 13s5 13.167 5 22.5z" />
    <glyph glyph-name="onesuperior" unicode="&#xb9;" horiz-adv-x="425" 
d="M78 325c-6.66699 0 -11.334 1 -14.001 3s-4 6.66699 -4 14v88c0 10.667 6 16 18 16h65v186h-59c-8.66699 0 -14 1.5 -16 4.5s-3 7.16699 -3 12.5v51c0 8 1 13.833 3 17.5s7 7.16699 15 10.5l61 29c9.33301 4 16.333 6.5 21 7.5s12.334 1.5 23.001 1.5h86
c12.667 0 19 -5.66699 19 -17v-303h70c6 0 10.333 -1 13 -3s4 -6.33301 4 -13v-88c0 -5.33301 -1 -9.5 -3 -12.5s-6.66699 -4.5 -14 -4.5h-285z" />
    <glyph glyph-name="ordmasculine" unicode="&#xba;" horiz-adv-x="394" 
d="M370 405c0 -17.333 -1.50195 -36.333 -4.50195 -57s-10.333 -39.667 -22 -57s-29.167 -31.833 -52.5 -43.5s-55.333 -17.5 -96 -17.5c-40 0 -71.333 5.83301 -94 17.5s-39.667 26.167 -51 43.5s-18.5 36.333 -21.5 57s-4.5 39.667 -4.5 57
c0 14.667 1.83301 31.667 5.5 51s11.334 37.5 23.001 54.5s28.834 31.5 51.501 43.5s53 18 91 18s68.5 -5.16699 91.5 -15.5s40.667 -23.5 53 -39.5s20.5 -34 24.5 -54s6 -39.333 6 -58zM225.998 401c0 18.667 -1.83105 32.5 -5.49805 41.5s-11.834 13.5 -24.501 13.5
c-10.667 0 -18 -4.83301 -22 -14.5s-6 -23.167 -6 -40.5c0 -19.333 1.66699 -33.333 5 -42s10.666 -13 21.999 -13c12.667 0 21 4.5 25 13.5s6 22.833 6 41.5z" />
    <glyph glyph-name="guillemotright" unicode="&#xbb;" horiz-adv-x="616" 
d="M572 230c6 -7.33301 9.33203 -14 9.99902 -20s-2.66602 -13.667 -9.99902 -23l-111 -140c-3.33301 -4 -7.5 -8.5 -12.5 -13.5s-11.167 -7.5 -18.5 -7.5h-147c-6 0 -9 2.66699 -9 8s1 9.33301 3 12l127 161l-134 164c-3.33301 3.33301 -4 6.83301 -2 10.5
s6.66699 5.5 14 5.5h146c7.33301 0 13.833 -2.33301 19.5 -7s10.167 -9 13.5 -13zM335.999 230c6 -7.33301 9.33203 -14 9.99902 -20s-2.66602 -13.667 -9.99902 -23l-111 -140c-3.33301 -4 -7.5 -8.5 -12.5 -13.5s-11.167 -7.5 -18.5 -7.5h-147c-6 0 -9 2.66699 -9 8
s1 9.33301 3 12l127 161l-134 164c-3.33301 3.33301 -4 6.83301 -2 10.5s6.66699 5.5 14 5.5h146c7.33301 0 13.833 -2.33301 19.5 -7s10.167 -9 13.5 -13z" />
    <glyph glyph-name="onequarter" unicode="&#xbc;" horiz-adv-x="1020" 
d="M73 235c-6.66699 0 -11.334 1 -14.001 3s-4 6.66699 -4 14v88c0 10.667 6 16 18 16h65v186h-59c-8.66699 0 -14 1.5 -16 4.5s-3 7.16699 -3 12.5v51c0 8 1 13.833 3 17.5s7 7.16699 15 10.5l61 29c9.33301 4 16.333 6.5 21 7.5s12.334 1.5 23.001 1.5h86
c12.667 0 19 -5.66699 19 -17v-303h70c6 0 10.333 -1 13 -3s4 -6.33301 4 -13v-88c0 -5.33301 -1 -9.5 -3 -12.5s-6.66699 -4.5 -14 -4.5h-285zM433 -11c-3.33301 -8 -8.33398 -12 -15.001 -12h-114c-10 0 -13.333 5 -10 15l276 695c2 4.66699 4 8 6 10s5.33301 3 10 3h114
c8.66699 0 11.334 -5 8.00098 -15zM895.999 17c0 -5.33301 -0.833008 -9.49902 -2.5 -12.499s-6.5 -4.5 -14.5 -4.5h-115c-6.66699 0 -11.167 1 -13.5 3s-3.5 6.66699 -3.5 14v68h-187c-6 0 -10.5 1 -13.5 3s-4.5 6.66699 -4.5 14v67c0 4 0.666992 8.5 2 13.5
s4.33301 10.167 9 15.5l168 221c7.33301 9.33301 13.5 15.166 18.5 17.499s11.5 3.5 19.5 3.5h120c7.33301 0 12 -1.5 14 -4.5s3 -7.16699 3 -12.5v-221h38c6 0 10.333 -1 13 -3s4 -6.33301 4 -13v-84c0 -5.33301 -1 -9.5 -3 -12.5s-6.66699 -4.5 -14 -4.5h-38v-68z
M746.999 281.001l-64 -82h66v82h-2z" />
    <glyph glyph-name="onehalf" unicode="&#xbd;" horiz-adv-x="1020" 
d="M827 122l121.998 -0.00195312c11.333 0 17 -5.66699 17 -17v-88c0 -4.66699 -1.16699 -8.66699 -3.5 -12s-6.83301 -5 -13.5 -5h-334c-7.33301 0 -12 1.5 -14 4.5s-3 7.16699 -3 12.5v62c0 5.33301 0.833008 11 2.5 17s6.16699 12.667 13.5 20l161 142
c10.667 9.33301 17.667 17.5 21 24.5s5 12.833 5 17.5c0 6 -2.5 10.667 -7.5 14s-14.5 5 -28.5 5c-19.333 0 -39.666 -0.833008 -60.999 -2.5s-39.333 -3.16699 -54 -4.5c-8 -0.666992 -14.333 -1.33398 -19 -2.00098s-8.33398 -0.5 -11.001 0.5s-4.66699 3 -6 6
s-2.66602 8.16699 -3.99902 15.5l-8 48c-0.666992 4 -1.16699 8.16699 -1.5 12.5s0.333984 8.33301 2.00098 12s5 7.33398 10 11.001s12.167 7.16699 21.5 10.5c10 4 21.333 7.16699 34 9.5s25.5 4.33301 38.5 6s25.167 2.83398 36.5 3.50098s20 1 26 1
c67.333 0 115.833 -12 145.5 -36s44.5 -57.667 44.5 -101c0 -29.333 -6.5 -54.166 -19.5 -74.499s-30.833 -40.833 -53.5 -61.5zM416.998 -11.002c-3.33301 -8 -8.33398 -12 -15.001 -12h-114c-10 0 -13.333 5 -10 15l276 695c2 4.66699 4 8 6 10s5.33301 3 10 3h114
c8.66699 0 11.334 -5 8.00098 -15zM60.9971 234.998c-6.66699 0 -11.334 1 -14.001 3s-4 6.66699 -4 14v88c0 10.667 6 16 18 16h65v186h-59c-8.66699 0 -14 1.5 -16 4.5s-3 7.16699 -3 12.5v51c0 8 1 13.833 3 17.5s7 7.16699 15 10.5l61 29c9.33301 4 16.333 6.5 21 7.5
s12.334 1.5 23.001 1.5h86c12.667 0 19 -5.66699 19 -17v-303h70c6 0 10.333 -1 13 -3s4 -6.33301 4 -13v-88c0 -5.33301 -1 -9.5 -3 -12.5s-6.66699 -4.5 -14 -4.5h-285z" />
    <glyph glyph-name="threequarters" unicode="&#xbe;" horiz-adv-x="1020" 
d="M184 555l-116.997 -0.000976562c-12 0 -18 5.33301 -18 16v88c0 11.333 6 17 18 17h316c8 0 12.833 -1.5 14.5 -4.5s2.5 -7.16699 2.5 -12.5v-60c0 -6 -0.666992 -12.333 -2 -19s-6.66602 -13.667 -15.999 -21l-55 -39c26.667 -8 47.667 -21.5 63 -40.5
s23 -44.167 23 -75.5c0 -34 -5 -62.333 -15 -85s-24 -40.667 -42 -54s-39.833 -22.666 -65.5 -27.999s-53.834 -8 -84.501 -8c-6 0 -14.333 0.333008 -25 1s-22.334 1.83398 -35.001 3.50098s-25.334 3.66699 -38.001 6s-24 5.5 -34 9.5c-18 6 -29.333 12.667 -34 20
s-5.33398 16.666 -2.00098 27.999l12 50c1.33301 6 2.66602 10.5 3.99902 13.5s3.33301 5 6 6s6.16699 1.16699 10.5 0.5s10.5 -1.33398 18.5 -2.00098l57 -6c18.667 -2 34.667 -3 48 -3c19.333 0 34.833 1.66699 46.5 5s17.5 14 17.5 32c0 7.33301 -6.33301 12.333 -19 15
l-86 17c-13.333 2.66699 -22.166 6.33398 -26.499 11.001s-6.5 13.667 -6.5 27v28c0 6.66699 0.5 12.5 1.5 17.5s4.83301 9.5 11.5 13.5l52 31zM446.003 -11.001c-3.33301 -8 -8.33398 -12 -15.001 -12h-114c-10 0 -13.333 5 -10 15l276 695c2 4.66699 4 8 6 10
s5.33301 3 10 3h114c8.66699 0 11.334 -5 8.00098 -15zM917.002 16.999c0 -5.33301 -0.833008 -9.49902 -2.5 -12.499s-6.5 -4.5 -14.5 -4.5h-115c-6.66699 0 -11.167 1 -13.5 3s-3.5 6.66699 -3.5 14v68h-187c-6 0 -10.5 1 -13.5 3s-4.5 6.66699 -4.5 14v67
c0 4 0.666992 8.5 2 13.5s4.33301 10.167 9 15.5l168 221c7.33301 9.33301 13.5 15.166 18.5 17.499s11.5 3.5 19.5 3.5h120c7.33301 0 12 -1.5 14 -4.5s3 -7.16699 3 -12.5v-221h38c6 0 10.333 -1 13 -3s4 -6.33301 4 -13v-84c0 -5.33301 -1 -9.5 -3 -12.5
s-6.66699 -4.5 -14 -4.5h-38v-68zM768.002 281l-64 -82h66v82h-2z" />
    <glyph glyph-name="questiondown" unicode="&#xbf;" horiz-adv-x="475" 
d="M37 -11c0 18.667 2.83105 35.333 8.49805 50s13 27.5 22 38.5s18.667 20.833 29 29.5s20.166 16.334 29.499 23.001c12.667 9.33301 23.334 18.166 32.001 26.499s15.834 17 21.501 26s9.83398 18.667 12.501 29s4 22.5 4 36.5v29c0 6.66699 1.16699 12.5 3.5 17.5
s7.5 7.5 15.5 7.5h127c7.33301 0 13 -1.5 17 -4.5s6.66699 -9.16699 8 -18.5s2 -16.833 2 -22.5v-19.5c0 -26 -2.16699 -48.167 -6.5 -66.5s-10.666 -34.666 -18.999 -48.999s-19 -27.833 -32 -40.5s-28.167 -26.334 -45.5 -41.001c-16.667 -12.667 -25 -25.667 -25 -39
c0 -11.333 4.83301 -19.166 14.5 -23.499s25.834 -6.5 48.501 -6.5c14 0 29.167 0.5 45.5 1.5s31.5 2.5 45.5 4.5c15.333 2 24.666 2 27.999 0s5.66602 -8.33301 6.99902 -19l6 -72c1.33301 -12 1 -20 -1 -24s-8.66699 -8.66699 -20 -14c-13.333 -6 -27 -10.667 -41 -14
s-27.5 -5.83301 -40.5 -7.5s-25.167 -2.83398 -36.5 -3.50098s-20.333 -1 -27 -1c-74.667 0 -132.167 14.167 -172.5 42.5s-60.5 69.833 -60.5 124.5zM191.998 418.999c0 10.667 1.16797 21.001 3.50098 31.001s6.83301 19 13.5 27s16 14.5 28 19.5s27.667 7.5 47 7.5
c20 0 36.167 -2.5 48.5 -7.5s21.666 -11.667 27.999 -20s10.5 -17.5 12.5 -27.5s3 -20 3 -30c0 -12 -1.33301 -23.167 -4 -33.5s-7.5 -19.333 -14.5 -27s-16.5 -13.667 -28.5 -18s-27 -6.5 -45 -6.5c-19.333 0 -34.833 2.16699 -46.5 6.5s-21 10.166 -28 17.499
s-11.667 16.333 -14 27s-3.5 22 -3.5 34z" />
    <glyph glyph-name="Agrave" unicode="&#xc0;" horiz-adv-x="650" 
d="M204 33c-3.33301 -12.667 -8.33398 -21.3311 -15.001 -25.998s-15.667 -7 -27 -7h-138c-9.33301 0 -15.5 1.66699 -18.5 5s-2.5 11.666 1.5 24.999l186 601c3.33301 11.333 8 20 14 26s17.667 9 35 9h157c17.333 0 28.666 -3 33.999 -9s10 -15 14 -27l197 -602
c6 -18.667 1.66699 -28 -13 -28h-153c-13.333 0 -22.666 3.16699 -27.999 9.5s-9.66602 16.166 -12.999 29.499l-27 98h-178zM185.999 911.003c3.33301 4 7.99707 6.83398 13.9971 8.50098s13 -0.833008 21 -7.5l163 -135c7.33301 -6 10.333 -11.167 9 -15.5
s-3.66602 -8.83301 -6.99902 -13.5l-45 -57c-5.33301 -6 -10.666 -8.5 -15.999 -7.5s-10.666 3.16699 -15.999 6.5l-180 102c-8.66699 5.33301 -13.5 11.166 -14.5 17.499s1.16699 12.5 6.5 18.5zM348.996 367.004l-25 104h-6l-47 -188h99z" />
    <glyph glyph-name="Aacute" unicode="&#xc1;" horiz-adv-x="650" 
d="M204 33c-3.33301 -12.667 -8.33398 -21.3311 -15.001 -25.998s-15.667 -7 -27 -7h-138c-9.33301 0 -15.5 1.66699 -18.5 5s-2.5 11.666 1.5 24.999l186 601c3.33301 11.333 8 20 14 26s17.667 9 35 9h157c17.333 0 28.666 -3 33.999 -9s10 -15 14 -27l197 -602
c6 -18.667 1.66699 -28 -13 -28h-153c-13.333 0 -22.666 3.16699 -27.999 9.5s-9.66602 16.166 -12.999 29.499l-27 98h-178zM516.999 810.003c4.66699 -6.66699 6.16504 -13.168 4.49805 -19.501s-7.16699 -11.166 -16.5 -14.499l-192 -78
c-6 -2.66699 -11.667 -4.16699 -17 -4.5s-10.333 2.83398 -15 9.50098l-37 63c-3.33301 4.66699 -5.16602 9.16699 -5.49902 13.5s3.5 9.16602 11.5 14.499l179 113c9.33301 5.33301 16.833 6.83301 22.5 4.5s9.83398 -5.83301 12.501 -10.5zM348.997 367.002l-25 104h-6
l-47 -188h99z" />
    <glyph glyph-name="Acircumflex" unicode="&#xc2;" horiz-adv-x="650" 
d="M204 33c-3.33301 -12.667 -8.33398 -21.3311 -15.001 -25.998s-15.667 -7 -27 -7h-138c-9.33301 0 -15.5 1.66699 -18.5 5s-2.5 11.666 1.5 24.999l186 601c3.33301 11.333 8 20 14 26s17.667 9 35 9h157c17.333 0 28.666 -3 33.999 -9s10 -15 14 -27l197 -602
c6 -18.667 1.66699 -28 -13 -28h-153c-13.333 0 -22.666 3.16699 -27.999 9.5s-9.66602 16.166 -12.999 29.499l-27 98h-178zM173.999 690.003c-7.33301 -5.33301 -13.333 -8.66602 -18 -9.99902s-10 1.33398 -16 8.00098l-39 42c-6 6 -9.5 11 -10.5 15
s2.16699 9.66699 9.5 17l132 120l17 15c4.66699 4 14 6 28 6h72c14 0 23.167 -1.5 27.5 -4.5s9.83301 -7.5 16.5 -13.5l134 -122c7.33301 -7.33301 10.5 -13 9.5 -17s-4.5 -9 -10.5 -15l-40 -43c-6 -6.66699 -11.167 -9.33398 -15.5 -8.00098s-10.5 4.66602 -18.5 9.99902
l-142 89zM348.999 367.003l-25 104h-6l-47 -188h99z" />
    <glyph glyph-name="Atilde" unicode="&#xc3;" horiz-adv-x="650" 
d="M204 33c-3.33301 -12.667 -8.33398 -21.3311 -15.001 -25.998s-15.667 -7 -27 -7h-138c-9.33301 0 -15.5 1.66699 -18.5 5s-2.5 11.666 1.5 24.999l186 601c3.33301 11.333 8 20 14 26s17.667 9 35 9h157c17.333 0 28.666 -3 33.999 -9s10 -15 14 -27l197 -602
c6 -18.667 1.66699 -28 -13 -28h-153c-13.333 0 -22.666 3.16699 -27.999 9.5s-9.66602 16.166 -12.999 29.499l-27 98h-178zM402.999 702.003c-11.333 0 -24.332 2.33008 -38.999 6.99707s-29.5 10 -44.5 16s-29.667 11.333 -44 16s-26.833 7 -37.5 7
c-9.33301 0 -19.166 -2.33301 -29.499 -7s-21.166 -14.667 -32.499 -30c-4.66699 -6 -8.33398 -9.66699 -11.001 -11s-8.66699 0.333984 -18 5.00098l-46 22c-0.666992 0 -1.83398 0.666992 -3.50098 2s-3.16699 3 -4.5 5s-2.33301 4.5 -3 7.5s-0.333984 6.5 0.999023 10.5
c18.667 47.333 40.834 80.5 66.501 99.5s51.5 28.5 77.5 28.5c15.333 0 30.666 -2.5 45.999 -7.5s30.166 -10.333 44.499 -16l41 -16c13 -5 24.833 -7.5 35.5 -7.5c11.333 0 21.833 2.83301 31.5 8.5s18.834 15.5 27.501 29.5c4 6.66699 8.33301 9.66699 13 9
s10.667 -3 18 -7l45 -25c6 -3.33301 10.167 -6.66602 12.5 -9.99902s1.83301 -8.66602 -1.5 -15.999c-10.667 -24 -21.667 -43.833 -33 -59.5s-23 -28 -35 -37s-24.5 -15.167 -37.5 -18.5s-26.167 -5 -39.5 -5zM349 367l-25 104h-6l-47 -188h99z" />
    <glyph glyph-name="Adieresis" unicode="&#xc4;" horiz-adv-x="650" 
d="M204 33c-3.33301 -12.667 -8.33398 -21.3311 -15.001 -25.998s-15.667 -7 -27 -7h-138c-9.33301 0 -15.5 1.66699 -18.5 5s-2.5 11.666 1.5 24.999l186 601c3.33301 11.333 8 20 14 26s17.667 9 35 9h157c17.333 0 28.666 -3 33.999 -9s10 -15 14 -27l197 -602
c6 -18.667 1.66699 -28 -13 -28h-153c-13.333 0 -22.666 3.16699 -27.999 9.5s-9.66602 16.166 -12.999 29.499l-27 98h-178zM206.999 685.003c-20 0 -35.8311 2.33203 -47.498 6.99902s-20.5 10.834 -26.5 18.501s-9.83301 16.5 -11.5 26.5s-2.5 20.333 -2.5 31
c0 11.333 1.16699 22 3.5 32s6.83301 18.5 13.5 25.5s15.667 12.5 27 16.5s26 6 44 6c18.667 0 33.667 -1.83301 45 -5.5s20.333 -9 27 -16s11.167 -15.5 13.5 -25.5s3.5 -21 3.5 -33c0 -11.333 -1 -22 -3 -32s-6.33301 -18.833 -13 -26.5s-15.834 -13.667 -27.501 -18
s-26.834 -6.5 -45.501 -6.5zM428.001 685.002c-19.333 0 -34.832 2.33203 -46.499 6.99902s-20.5 10.834 -26.5 18.501s-10 16.5 -12 26.5s-3 20.333 -3 31c0 11.333 1.33301 22 4 32s7.16699 18.5 13.5 25.5s15.166 12.5 26.499 16.5s26 6 44 6
c18.667 0 33.834 -1.83301 45.501 -5.5s20.667 -9 27 -16s10.666 -15.5 12.999 -25.5s3.5 -21 3.5 -33c0 -11.333 -1 -22 -3 -32s-6.16699 -18.833 -12.5 -26.5s-15.333 -13.667 -27 -18s-27.167 -6.5 -46.5 -6.5zM349.002 367.001l-25 104h-6l-47 -188h99z" />
    <glyph glyph-name="Aring" unicode="&#xc5;" horiz-adv-x="650" 
d="M204 33c-3.33301 -12.667 -8.33398 -21.3311 -15.001 -25.998s-15.667 -7 -27 -7h-138c-9.33301 0 -15.5 1.66699 -18.5 5s-2.5 11.666 1.5 24.999l186 601c3.33301 11.333 8 20 14 26s17.667 9 35 9h157c17.333 0 28.666 -3 33.999 -9s10 -15 14 -27l197 -602
c6 -18.667 1.66699 -28 -13 -28h-153c-13.333 0 -22.666 3.16699 -27.999 9.5s-9.66602 16.166 -12.999 29.499l-27 98h-178zM322.999 671.003c-18 0 -35.5 3.33008 -52.5 9.99707s-32 15.834 -45 27.501s-23.333 25.667 -31 42s-11.5 34.5 -11.5 54.5
c0 19.333 3.83301 37.166 11.5 53.499s18 30.333 31 42s28 20.834 45 27.501s34.5 10 52.5 10c18.667 0 36.334 -3.66699 53.001 -11s31.167 -17.166 43.5 -29.499s22 -26.5 29 -42.5s10.5 -32.667 10.5 -50c0 -18 -3.5 -35.167 -10.5 -51.5s-16.667 -30.666 -29 -42.999
s-26.833 -22 -43.5 -29s-34.334 -10.5 -53.001 -10.5zM348.999 367l-25 104h-6l-47 -188h99zM322.999 850c-12 0 -22.333 -4.33301 -31 -13s-13 -19.334 -13 -32.001c0 -14 4.16699 -25.167 12.5 -33.5s18.833 -12.5 31.5 -12.5c11.333 0 21.333 4.33301 30 13
s13 19.667 13 33c0 12.667 -4.33301 23.334 -13 32.001s-18.667 13 -30 13z" />
    <glyph glyph-name="AE" unicode="&#xc6;" horiz-adv-x="953" 
d="M436 137l-178.002 -0.00390625l-53 -111c-5.33301 -9.33301 -11.5 -16 -18.5 -20s-16.167 -6 -27.5 -6h-139c-17.333 0 -20.666 10 -9.99902 30l301 606c6 11.333 12.167 19 18.5 23s18.833 6 37.5 6h513c7.33301 0 13.166 -2.16699 17.499 -6.5s6.5 -10.166 6.5 -17.499
v-115c0 -6 -1.66699 -11.167 -5 -15.5s-9.66602 -6.5 -18.999 -6.5h-247v-80h213c7.33301 0 13.166 -2.16699 17.499 -6.5s6.5 -10.166 6.5 -17.499v-115c0 -6 -1.66699 -11.167 -5 -15.5s-9.66602 -6.5 -18.999 -6.5h-213v-102h251c7.33301 0 13.166 -2.16699 17.499 -6.5
s6.5 -10.166 6.5 -17.499v-115c0 -6 -1.66699 -11.167 -5 -15.5s-9.66602 -6.5 -18.999 -6.5h-424c-9.33301 0 -15.666 2.33301 -18.999 7s-5 10.334 -5 17.001v113zM433.998 501.996l-102 -219h104v219h-2z" />
    <glyph glyph-name="Ccedilla" unicode="&#xc7;" horiz-adv-x="619" 
d="M55 332c0 39.333 3.99609 79.3271 11.9961 119.994s23.167 77.334 45.5 110.001s53.5 59.334 93.5 80.001s91.667 31 155 31c36.667 0 71.334 -2.83301 104.001 -8.5s62 -14.167 88 -25.5c11.333 -5.33301 20.5 -11.5 27.5 -18.5s8.83301 -18.833 5.5 -35.5l-15 -71
c-2.66699 -12.667 -6.5 -20.167 -11.5 -22.5s-15.167 -2.83301 -30.5 -1.5c-30 2.66699 -57.5 4.83398 -82.5 6.50098s-46.167 2.5 -63.5 2.5c-23.333 0 -42.666 -4.16699 -57.999 -12.5s-27.5 -19.666 -36.5 -33.999s-15.333 -31.5 -19 -51.5s-5.5 -41.667 -5.5 -65
c0 -30.667 1.83301 -57 5.5 -79s10 -40 19 -54s21 -24.333 36 -31s34.167 -10 57.5 -10c12.667 0 24.5 0.166992 35.5 0.5s22 0.833008 33 1.5s23 1.5 36 2.5s28.167 2.5 45.5 4.5c15.333 1.33301 25.333 1 30 -1s8.66699 -9.66699 12 -23l17 -65
c4.66699 -16 3.33398 -28 -3.99902 -36s-16.666 -14.667 -27.999 -20c-26 -11.333 -56.167 -20.166 -90.5 -26.499s-69.833 -9.5 -106.5 -9.5h-4l-15 -39c24 -1.33301 43.167 -4.66602 57.5 -9.99902s25.333 -12 33 -20s12.834 -17.167 15.501 -27.5s4 -20.5 4 -30.5
c0 -15.333 -2.83301 -30 -8.5 -44s-14.834 -26.333 -27.501 -37s-28.667 -19.167 -48 -25.5s-42.333 -9.5 -69 -9.5c-5.33301 0 -11.833 0.166992 -19.5 0.5s-16 1 -25 2s-17.667 2.33301 -26 4s-15.5 3.5 -21.5 5.5c-3.33301 1.33301 -6 3 -8 5s-2.33301 4.66699 -1 8
l10 51c0.666992 4.66699 5 6.66699 13 6c10.667 -1.33301 22.167 -2.66602 34.5 -3.99902s23.166 -2 32.499 -2c8 0 15.833 0.5 23.5 1.5s14.334 3 20.001 6s10.167 7.33301 13.5 13s5 13.167 5 22.5c0 7.33301 -1.66699 12.666 -5 15.999s-8.16602 5.83301 -14.499 7.5
s-14.5 2.66699 -24.5 3s-21.333 0.833008 -34 1.5c-16 2 -21 10.667 -15 26l26 77c-46.667 8 -84.834 23.167 -114.501 45.5s-53 48.833 -70 79.5s-28.667 64.167 -35 100.5s-9.5 72.833 -9.5 109.5z" />
    <glyph glyph-name="Egrave" unicode="&#xc8;" horiz-adv-x="582" 
d="M65 641c0 6.66699 1.66699 12.3291 5 16.9961s9.66602 7 18.999 7h420c7.33301 0 13.166 -2.16699 17.499 -6.5s6.5 -10.166 6.5 -17.499v-115c0 -6 -1.66699 -11.167 -5 -15.5s-9.66602 -6.5 -18.999 -6.5h-248v-80h214c7.33301 0 13.166 -2.16699 17.499 -6.5
s6.5 -10.166 6.5 -17.499v-115c0 -6 -1.66699 -11.167 -5 -15.5s-9.66602 -6.5 -18.999 -6.5h-214v-102h252c7.33301 0 13.166 -2.16699 17.499 -6.5s6.5 -10.166 6.5 -17.499v-115c0 -6 -1.66699 -11.167 -5 -15.5s-9.66602 -6.5 -18.999 -6.5h-424
c-9.33301 0 -15.666 2.33301 -18.999 7s-5 10.334 -5 17.001v617zM184 910.995c3.33301 4 7.99707 6.83398 13.9971 8.50098s13 -0.833008 21 -7.5l163 -135c7.33301 -6 10.333 -11.167 9 -15.5s-3.66602 -8.83301 -6.99902 -13.5l-45 -57
c-5.33301 -6 -10.666 -8.5 -15.999 -7.5s-10.666 3.16699 -15.999 6.5l-180 102c-8.66699 5.33301 -13.5 11.166 -14.5 17.499s1.16699 12.5 6.5 18.5z" />
    <glyph glyph-name="Eacute" unicode="&#xc9;" horiz-adv-x="582" 
d="M65 641c0 6.66699 1.66699 12.3291 5 16.9961s9.66602 7 18.999 7h420c7.33301 0 13.166 -2.16699 17.499 -6.5s6.5 -10.166 6.5 -17.499v-115c0 -6 -1.66699 -11.167 -5 -15.5s-9.66602 -6.5 -18.999 -6.5h-248v-80h214c7.33301 0 13.166 -2.16699 17.499 -6.5
s6.5 -10.166 6.5 -17.499v-115c0 -6 -1.66699 -11.167 -5 -15.5s-9.66602 -6.5 -18.999 -6.5h-214v-102h252c7.33301 0 13.166 -2.16699 17.499 -6.5s6.5 -10.166 6.5 -17.499v-115c0 -6 -1.66699 -11.167 -5 -15.5s-9.66602 -6.5 -18.999 -6.5h-424
c-9.33301 0 -15.666 2.33301 -18.999 7s-5 10.334 -5 17.001v617zM457 809.995c4.66699 -6.66699 6.16504 -13.168 4.49805 -19.501s-7.16699 -11.166 -16.5 -14.499l-192 -78c-6 -2.66699 -11.667 -4.16699 -17 -4.5s-10.333 2.83398 -15 9.50098l-37 63
c-3.33301 4.66699 -5.16602 9.16699 -5.49902 13.5s3.5 9.16602 11.5 14.499l179 113c9.33301 5.33301 16.833 6.83301 22.5 4.5s9.83398 -5.83301 12.501 -10.5z" />
    <glyph glyph-name="Ecircumflex" unicode="&#xca;" horiz-adv-x="582" 
d="M65 641c0 6.66699 1.66699 12.3291 5 16.9961s9.66602 7 18.999 7h420c7.33301 0 13.166 -2.16699 17.499 -6.5s6.5 -10.166 6.5 -17.499v-115c0 -6 -1.66699 -11.167 -5 -15.5s-9.66602 -6.5 -18.999 -6.5h-248v-80h214c7.33301 0 13.166 -2.16699 17.499 -6.5
s6.5 -10.166 6.5 -17.499v-115c0 -6 -1.66699 -11.167 -5 -15.5s-9.66602 -6.5 -18.999 -6.5h-214v-102h252c7.33301 0 13.166 -2.16699 17.499 -6.5s6.5 -10.166 6.5 -17.499v-115c0 -6 -1.66699 -11.167 -5 -15.5s-9.66602 -6.5 -18.999 -6.5h-424
c-9.33301 0 -15.666 2.33301 -18.999 7s-5 10.334 -5 17.001v617zM160 689.995c-7.33301 -5.33301 -13.333 -8.66602 -18 -9.99902s-10 1.33398 -16 8.00098l-39 42c-6 6 -9.5 11 -10.5 15s2.16699 9.66699 9.5 17l132 120l17 15c4.66699 4 14 6 28 6h72
c14 0 23.167 -1.5 27.5 -4.5s9.83301 -7.5 16.5 -13.5l134 -122c7.33301 -7.33301 10.5 -13 9.5 -17s-4.5 -9 -10.5 -15l-40 -43c-6 -6.66699 -11.167 -9.33398 -15.5 -8.00098s-10.5 4.66602 -18.5 9.99902l-142 89z" />
    <glyph glyph-name="Edieresis" unicode="&#xcb;" horiz-adv-x="582" 
d="M65 641c0 6.66699 1.66699 12.3291 5 16.9961s9.66602 7 18.999 7h420c7.33301 0 13.166 -2.16699 17.499 -6.5s6.5 -10.166 6.5 -17.499v-115c0 -6 -1.66699 -11.167 -5 -15.5s-9.66602 -6.5 -18.999 -6.5h-248v-80h214c7.33301 0 13.166 -2.16699 17.499 -6.5
s6.5 -10.166 6.5 -17.499v-115c0 -6 -1.66699 -11.167 -5 -15.5s-9.66602 -6.5 -18.999 -6.5h-214v-102h252c7.33301 0 13.166 -2.16699 17.499 -6.5s6.5 -10.166 6.5 -17.499v-115c0 -6 -1.66699 -11.167 -5 -15.5s-9.66602 -6.5 -18.999 -6.5h-424
c-9.33301 0 -15.666 2.33301 -18.999 7s-5 10.334 -5 17.001v617zM188 684.995c-20 0 -35.8311 2.33203 -47.498 6.99902s-20.5 10.834 -26.5 18.501s-9.83301 16.5 -11.5 26.5s-2.5 20.333 -2.5 31c0 11.333 1.16699 22 3.5 32s6.83301 18.5 13.5 25.5s15.667 12.5 27 16.5
s26 6 44 6c18.667 0 33.667 -1.83301 45 -5.5s20.333 -9 27 -16s11.167 -15.5 13.5 -25.5s3.5 -21 3.5 -33c0 -11.333 -1 -22 -3 -32s-6.33301 -18.833 -13 -26.5s-15.834 -13.667 -27.501 -18s-26.834 -6.5 -45.501 -6.5zM409.002 684.994
c-19.333 0 -34.832 2.33203 -46.499 6.99902s-20.5 10.834 -26.5 18.501s-10 16.5 -12 26.5s-3 20.333 -3 31c0 11.333 1.33301 22 4 32s7.16699 18.5 13.5 25.5s15.166 12.5 26.499 16.5s26 6 44 6c18.667 0 33.834 -1.83301 45.501 -5.5s20.667 -9 27 -16
s10.666 -15.5 12.999 -25.5s3.5 -21 3.5 -33c0 -11.333 -1 -22 -3 -32s-6.16699 -18.833 -12.5 -26.5s-15.333 -13.667 -27 -18s-27.167 -6.5 -46.5 -6.5z" />
    <glyph glyph-name="Igrave" unicode="&#xcc;" horiz-adv-x="326" 
d="M65 641c0 6.66699 1.66699 12.332 5 16.999s9.66602 7 18.999 7h149c10.667 0 17.167 -3 19.5 -9s3.5 -11 3.5 -15v-617c0 -4 -1.16699 -9 -3.5 -15s-8.83301 -9 -19.5 -9h-149c-9.33301 0 -15.666 2.33301 -18.999 7s-5 10.334 -5 17.001v617zM24 910.998
c3.33301 4 7.99707 6.83398 13.9971 8.50098s13 -0.833008 21 -7.5l163 -135c7.33301 -6 10.333 -11.167 9 -15.5s-3.66602 -8.83301 -6.99902 -13.5l-45 -57c-5.33301 -6 -10.666 -8.5 -15.999 -7.5s-10.666 3.16699 -15.999 6.5l-180 102
c-8.66699 5.33301 -13.5 11.166 -14.5 17.499s1.16699 12.5 6.5 18.5z" />
    <glyph glyph-name="Iacute" unicode="&#xcd;" horiz-adv-x="326" 
d="M65 641c0 6.66699 1.66699 12.332 5 16.999s9.66602 7 18.999 7h149c10.667 0 17.167 -3 19.5 -9s3.5 -11 3.5 -15v-617c0 -4 -1.16699 -9 -3.5 -15s-8.83301 -9 -19.5 -9h-149c-9.33301 0 -15.666 2.33301 -18.999 7s-5 10.334 -5 17.001v617zM361 809.998
c4.66699 -6.66699 6.16504 -13.168 4.49805 -19.501s-7.16699 -11.166 -16.5 -14.499l-192 -78c-6 -2.66699 -11.667 -4.16699 -17 -4.5s-10.333 2.83398 -15 9.50098l-37 63c-3.33301 4.66699 -5.16602 9.16699 -5.49902 13.5s3.5 9.16602 11.5 14.499l179 113
c9.33301 5.33301 16.833 6.83301 22.5 4.5s9.83398 -5.83301 12.501 -10.5z" />
    <glyph glyph-name="Icircumflex" unicode="&#xce;" horiz-adv-x="326" 
d="M65 641c0 6.66699 1.66699 12.332 5 16.999s9.66602 7 18.999 7h149c10.667 0 17.167 -3 19.5 -9s3.5 -11 3.5 -15v-617c0 -4 -1.16699 -9 -3.5 -15s-8.83301 -9 -19.5 -9h-149c-9.33301 0 -15.666 2.33301 -18.999 7s-5 10.334 -5 17.001v617zM30 689.998
c-7.33301 -5.33301 -13.333 -8.66602 -18 -9.99902s-10 1.33398 -16 8.00098l-39 42c-6 6 -9.5 11 -10.5 15s2.16699 9.66699 9.5 17l132 120l17 15c4.66699 4 14 6 28 6h72c14 0 23.167 -1.5 27.5 -4.5s9.83301 -7.5 16.5 -13.5l134 -122
c7.33301 -7.33301 10.5 -13 9.5 -17s-4.5 -9 -10.5 -15l-40 -43c-6 -6.66699 -11.167 -9.33398 -15.5 -8.00098s-10.5 4.66602 -18.5 9.99902l-142 89z" />
    <glyph glyph-name="Idieresis" unicode="&#xcf;" horiz-adv-x="326" 
d="M65 641c0 6.66699 1.66699 12.332 5 16.999s9.66602 7 18.999 7h149c10.667 0 17.167 -3 19.5 -9s3.5 -11 3.5 -15v-617c0 -4 -1.16699 -9 -3.5 -15s-8.83301 -9 -19.5 -9h-149c-9.33301 0 -15.666 2.33301 -18.999 7s-5 10.334 -5 17.001v617zM56 684.998
c-20 0 -35.8311 2.33203 -47.498 6.99902s-20.5 10.834 -26.5 18.501s-9.83301 16.5 -11.5 26.5s-2.5 20.333 -2.5 31c0 11.333 1.16699 22 3.5 32s6.83301 18.5 13.5 25.5s15.667 12.5 27 16.5s26 6 44 6c18.667 0 33.667 -1.83301 45 -5.5s20.333 -9 27 -16
s11.167 -15.5 13.5 -25.5s3.5 -21 3.5 -33c0 -11.333 -1 -22 -3 -32s-6.33301 -18.833 -13 -26.5s-15.834 -13.667 -27.501 -18s-26.834 -6.5 -45.501 -6.5zM277.002 684.997c-19.333 0 -34.832 2.33203 -46.499 6.99902s-20.5 10.834 -26.5 18.501s-10 16.5 -12 26.5
s-3 20.333 -3 31c0 11.333 1.33301 22 4 32s7.16699 18.5 13.5 25.5s15.166 12.5 26.499 16.5s26 6 44 6c18.667 0 33.834 -1.83301 45.501 -5.5s20.667 -9 27 -16s10.666 -15.5 12.999 -25.5s3.5 -21 3.5 -33c0 -11.333 -1 -22 -3 -32s-6.16699 -18.833 -12.5 -26.5
s-15.333 -13.667 -27 -18s-27.167 -6.5 -46.5 -6.5z" />
    <glyph glyph-name="Eth" unicode="&#xd0;" horiz-adv-x="680" 
d="M89 0c-9.33301 0 -15.665 2.3291 -18.998 6.99609s-5 10.334 -5 17.001v257h-53c-15.333 0 -23 6.66699 -23 20v72c0 13.333 7.66699 20 23 20h53v248c0 6.66699 1.66699 12.334 5 17.001s9.66602 7 18.999 7h230c60 0 109.833 -9.16699 149.5 -27.5
s71 -42.666 94 -72.999s39.167 -65.5 48.5 -105.5s14 -81.667 14 -125s-4.5 -85.166 -13.5 -125.499s-25 -76 -48 -107s-54.333 -55.667 -94 -74s-89.834 -27.5 -150.501 -27.5h-230zM260.001 280.996v-120.002h37c44.667 0 76.667 14.5 96 43.5s29 69.833 29 122.5
c0 26 -1.66699 49.833 -5 71.5s-9.5 40.334 -18.5 56.001s-21 27.834 -36 36.501s-34.5 13 -58.5 13h-44v-111h72c10 0 16.333 -1.66699 19 -5s4 -8 4 -14v-73c0 -7.33301 -1.33301 -12.5 -4 -15.5s-9 -4.5 -19 -4.5h-72z" />
    <glyph glyph-name="Ntilde" unicode="&#xd1;" horiz-adv-x="688" 
d="M348 169l-90 134h-3v-279c0 -4 -1.16699 -9 -3.5 -15s-8.83301 -9 -19.5 -9h-143c-9.33301 -0 -15.666 2.33301 -18.999 7s-5 10.334 -5 17.001v617c0 6.66699 1.66699 12.334 5 17.001s9.66602 7 18.999 7h102c15.333 0 25.833 -2 31.5 -6s11.167 -10 16.5 -18l109 -162
l81 -122l4 1v283c0 4 1.16699 9 3.5 15s8.83301 9 19.5 9h143c9.33301 0 15.666 -2.33301 18.999 -7s5 -10.334 5 -17.001v-617c0 -6.66699 -1.66699 -12.334 -5 -17.001s-9.66602 -7 -18.999 -7h-101c-13.333 0 -23.833 2.5 -31.5 7.5s-14.5 11.833 -20.5 20.5zM425 690
c-11.333 0 -24.332 2.33008 -38.999 6.99707s-29.5 10 -44.5 16s-29.667 11.333 -44 16s-26.833 7 -37.5 7c-9.33301 0 -19.166 -2.33301 -29.499 -7s-21.166 -14.667 -32.499 -30c-4.66699 -6 -8.33398 -9.66699 -11.001 -11s-8.66699 0.333984 -18 5.00098l-46 22
c-0.666992 0 -1.83398 0.666992 -3.50098 2s-3.16699 3 -4.5 5s-2.33301 4.5 -3 7.5s-0.333984 6.5 0.999023 10.5c18.667 47.333 40.834 80.5 66.501 99.5s51.5 28.5 77.5 28.5c15.333 0 30.666 -2.5 45.999 -7.5s30.166 -10.333 44.499 -16l41 -16
c13 -5 24.833 -7.5 35.5 -7.5c11.333 0 21.833 2.83301 31.5 8.5s18.834 15.5 27.501 29.5c4 6.66699 8.33301 9.66699 13 9s10.667 -3 18 -7l45 -25c6 -3.33301 10.167 -6.66602 12.5 -9.99902s1.83301 -8.66602 -1.5 -15.999c-10.667 -24 -21.667 -43.833 -33 -59.5
s-23 -28 -35 -37s-24.5 -15.167 -37.5 -18.5s-26.167 -5 -39.5 -5z" />
    <glyph glyph-name="Ograve" unicode="&#xd2;" horiz-adv-x="712" 
d="M657 341c0 -24.667 -1.16602 -50.5 -3.49902 -77.5s-7.33301 -53.333 -15 -79s-18.334 -50.334 -32.001 -74.001s-31.834 -44.334 -54.501 -62.001s-50.167 -31.667 -82.5 -42s-71.166 -15.5 -116.499 -15.5s-84.166 5.16699 -116.499 15.5s-59.5 24.5 -81.5 42.5
s-39.667 38.667 -53 62s-23.5 48 -30.5 74s-11.5 52.333 -13.5 79s-3 52.334 -3 77.001c0 19.333 1.16699 40.833 3.5 64.5s7.16602 47.834 14.499 72.501s17.666 48.667 30.999 72s31.166 44.166 53.499 62.499s49.333 33 81 44s69.834 16.5 114.501 16.5
c65.333 0 117.833 -10 157.5 -30s70.334 -45.833 92.001 -77.5s36.167 -67.167 43.5 -106.5s11 -78.666 11 -117.999zM454.001 330c0 32 -1.66504 59.165 -4.99805 81.498s-8.83301 40.5 -16.5 54.5s-17.834 24 -30.501 30s-28.334 9 -47.001 9
c-34 0 -57.833 -13.333 -71.5 -40s-20.5 -71.667 -20.5 -135c0 -61.333 6.66699 -105.166 20 -131.499s37.333 -39.5 72 -39.5c36 0 61.5 13.333 76.5 40s22.5 70.334 22.5 131.001zM266.003 910.998c3.33301 4 7.99707 6.83398 13.9971 8.50098s13 -0.833008 21 -7.5
l163 -135c7.33301 -6 10.333 -11.167 9 -15.5s-3.66602 -8.83301 -6.99902 -13.5l-45 -57c-5.33301 -6 -10.666 -8.5 -15.999 -7.5s-10.666 3.16699 -15.999 6.5l-180 102c-8.66699 5.33301 -13.5 11.166 -14.5 17.499s1.16699 12.5 6.5 18.5z" />
    <glyph glyph-name="Oacute" unicode="&#xd3;" horiz-adv-x="712" 
d="M657 341c0 -24.667 -1.16602 -50.5 -3.49902 -77.5s-7.33301 -53.333 -15 -79s-18.334 -50.334 -32.001 -74.001s-31.834 -44.334 -54.501 -62.001s-50.167 -31.667 -82.5 -42s-71.166 -15.5 -116.499 -15.5s-84.166 5.16699 -116.499 15.5s-59.5 24.5 -81.5 42.5
s-39.667 38.667 -53 62s-23.5 48 -30.5 74s-11.5 52.333 -13.5 79s-3 52.334 -3 77.001c0 19.333 1.16699 40.833 3.5 64.5s7.16602 47.834 14.499 72.501s17.666 48.667 30.999 72s31.166 44.166 53.499 62.499s49.333 33 81 44s69.834 16.5 114.501 16.5
c65.333 0 117.833 -10 157.5 -30s70.334 -45.833 92.001 -77.5s36.167 -67.167 43.5 -106.5s11 -78.666 11 -117.999zM454.001 330c0 32 -1.66504 59.165 -4.99805 81.498s-8.83301 40.5 -16.5 54.5s-17.834 24 -30.501 30s-28.334 9 -47.001 9
c-34 0 -57.833 -13.333 -71.5 -40s-20.5 -71.667 -20.5 -135c0 -61.333 6.66699 -105.166 20 -131.499s37.333 -39.5 72 -39.5c36 0 61.5 13.333 76.5 40s22.5 70.334 22.5 131.001zM562.003 809.998c4.66699 -6.66699 6.16504 -13.168 4.49805 -19.501
s-7.16699 -11.166 -16.5 -14.499l-192 -78c-6 -2.66699 -11.667 -4.16699 -17 -4.5s-10.333 2.83398 -15 9.50098l-37 63c-3.33301 4.66699 -5.16602 9.16699 -5.49902 13.5s3.5 9.16602 11.5 14.499l179 113c9.33301 5.33301 16.833 6.83301 22.5 4.5
s9.83398 -5.83301 12.501 -10.5z" />
    <glyph glyph-name="Ocircumflex" unicode="&#xd4;" horiz-adv-x="712" 
d="M657 341c0 -24.667 -1.16602 -50.5 -3.49902 -77.5s-7.33301 -53.333 -15 -79s-18.334 -50.334 -32.001 -74.001s-31.834 -44.334 -54.501 -62.001s-50.167 -31.667 -82.5 -42s-71.166 -15.5 -116.499 -15.5s-84.166 5.16699 -116.499 15.5s-59.5 24.5 -81.5 42.5
s-39.667 38.667 -53 62s-23.5 48 -30.5 74s-11.5 52.333 -13.5 79s-3 52.334 -3 77.001c0 19.333 1.16699 40.833 3.5 64.5s7.16602 47.834 14.499 72.501s17.666 48.667 30.999 72s31.166 44.166 53.499 62.499s49.333 33 81 44s69.834 16.5 114.501 16.5
c65.333 0 117.833 -10 157.5 -30s70.334 -45.833 92.001 -77.5s36.167 -67.167 43.5 -106.5s11 -78.666 11 -117.999zM454.001 330c0 32 -1.66504 59.165 -4.99805 81.498s-8.83301 40.5 -16.5 54.5s-17.834 24 -30.501 30s-28.334 9 -47.001 9
c-34 0 -57.833 -13.333 -71.5 -40s-20.5 -71.667 -20.5 -135c0 -61.333 6.66699 -105.166 20 -131.499s37.333 -39.5 72 -39.5c36 0 61.5 13.333 76.5 40s22.5 70.334 22.5 131.001zM224.003 689.998c-7.33301 -5.33301 -13.333 -8.66602 -18 -9.99902
s-10 1.33398 -16 8.00098l-39 42c-6 6 -9.5 11 -10.5 15s2.16699 9.66699 9.5 17l132 120l17 15c4.66699 4 14 6 28 6h72c14 0 23.167 -1.5 27.5 -4.5s9.83301 -7.5 16.5 -13.5l134 -122c7.33301 -7.33301 10.5 -13 9.5 -17s-4.5 -9 -10.5 -15l-40 -43
c-6 -6.66699 -11.167 -9.33398 -15.5 -8.00098s-10.5 4.66602 -18.5 9.99902l-142 89z" />
    <glyph glyph-name="Otilde" unicode="&#xd5;" horiz-adv-x="712" 
d="M657 341c0 -24.667 -1.16602 -50.5 -3.49902 -77.5s-7.33301 -53.333 -15 -79s-18.334 -50.334 -32.001 -74.001s-31.834 -44.334 -54.501 -62.001s-50.167 -31.667 -82.5 -42s-71.166 -15.5 -116.499 -15.5s-84.166 5.16699 -116.499 15.5s-59.5 24.5 -81.5 42.5
s-39.667 38.667 -53 62s-23.5 48 -30.5 74s-11.5 52.333 -13.5 79s-3 52.334 -3 77.001c0 19.333 1.16699 40.833 3.5 64.5s7.16602 47.834 14.499 72.501s17.666 48.667 30.999 72s31.166 44.166 53.499 62.499s49.333 33 81 44s69.834 16.5 114.501 16.5
c65.333 0 117.833 -10 157.5 -30s70.334 -45.833 92.001 -77.5s36.167 -67.167 43.5 -106.5s11 -78.666 11 -117.999zM454.001 330c0 32 -1.66504 59.165 -4.99805 81.498s-8.83301 40.5 -16.5 54.5s-17.834 24 -30.501 30s-28.334 9 -47.001 9
c-34 0 -57.833 -13.333 -71.5 -40s-20.5 -71.667 -20.5 -135c0 -61.333 6.66699 -105.166 20 -131.499s37.333 -39.5 72 -39.5c36 0 61.5 13.333 76.5 40s22.5 70.334 22.5 131.001zM445.003 690.998c-11.333 0 -24.332 2.33008 -38.999 6.99707s-29.5 10 -44.5 16
s-29.667 11.333 -44 16s-26.833 7 -37.5 7c-9.33301 0 -19.166 -2.33301 -29.499 -7s-21.166 -14.667 -32.499 -30c-4.66699 -6 -8.33398 -9.66699 -11.001 -11s-8.66699 0.333984 -18 5.00098l-46 22c-0.666992 0 -1.83398 0.666992 -3.50098 2s-3.16699 3 -4.5 5
s-2.33301 4.5 -3 7.5s-0.333984 6.5 0.999023 10.5c18.667 47.333 40.834 80.5 66.501 99.5s51.5 28.5 77.5 28.5c15.333 0 30.666 -2.5 45.999 -7.5s30.166 -10.333 44.499 -16l41 -16c13 -5 24.833 -7.5 35.5 -7.5c11.333 0 21.833 2.83301 31.5 8.5
s18.834 15.5 27.501 29.5c4 6.66699 8.33301 9.66699 13 9s10.667 -3 18 -7l45 -25c6 -3.33301 10.167 -6.66602 12.5 -9.99902s1.83301 -8.66602 -1.5 -15.999c-10.667 -24 -21.667 -43.833 -33 -59.5s-23 -28 -35 -37s-24.5 -15.167 -37.5 -18.5s-26.167 -5 -39.5 -5z" />
    <glyph glyph-name="Odieresis" unicode="&#xd6;" horiz-adv-x="712" 
d="M657 341c0 -24.667 -1.16602 -50.5 -3.49902 -77.5s-7.33301 -53.333 -15 -79s-18.334 -50.334 -32.001 -74.001s-31.834 -44.334 -54.501 -62.001s-50.167 -31.667 -82.5 -42s-71.166 -15.5 -116.499 -15.5s-84.166 5.16699 -116.499 15.5s-59.5 24.5 -81.5 42.5
s-39.667 38.667 -53 62s-23.5 48 -30.5 74s-11.5 52.333 -13.5 79s-3 52.334 -3 77.001c0 19.333 1.16699 40.833 3.5 64.5s7.16602 47.834 14.499 72.501s17.666 48.667 30.999 72s31.166 44.166 53.499 62.499s49.333 33 81 44s69.834 16.5 114.501 16.5
c65.333 0 117.833 -10 157.5 -30s70.334 -45.833 92.001 -77.5s36.167 -67.167 43.5 -106.5s11 -78.666 11 -117.999zM454.001 330c0 32 -1.66504 59.165 -4.99805 81.498s-8.83301 40.5 -16.5 54.5s-17.834 24 -30.501 30s-28.334 9 -47.001 9
c-34 0 -57.833 -13.333 -71.5 -40s-20.5 -71.667 -20.5 -135c0 -61.333 6.66699 -105.166 20 -131.499s37.333 -39.5 72 -39.5c36 0 61.5 13.333 76.5 40s22.5 70.334 22.5 131.001zM246.003 684.998c-20 0 -35.8311 2.33203 -47.498 6.99902s-20.5 10.834 -26.5 18.501
s-9.83301 16.5 -11.5 26.5s-2.5 20.333 -2.5 31c0 11.333 1.16699 22 3.5 32s6.83301 18.5 13.5 25.5s15.667 12.5 27 16.5s26 6 44 6c18.667 0 33.667 -1.83301 45 -5.5s20.333 -9 27 -16s11.167 -15.5 13.5 -25.5s3.5 -21 3.5 -33c0 -11.333 -1 -22 -3 -32
s-6.33301 -18.833 -13 -26.5s-15.834 -13.667 -27.501 -18s-26.834 -6.5 -45.501 -6.5zM467.005 684.997c-19.333 0 -34.832 2.33203 -46.499 6.99902s-20.5 10.834 -26.5 18.501s-10 16.5 -12 26.5s-3 20.333 -3 31c0 11.333 1.33301 22 4 32s7.16699 18.5 13.5 25.5
s15.166 12.5 26.499 16.5s26 6 44 6c18.667 0 33.834 -1.83301 45.501 -5.5s20.667 -9 27 -16s10.666 -15.5 12.999 -25.5s3.5 -21 3.5 -33c0 -11.333 -1 -22 -3 -32s-6.16699 -18.833 -12.5 -26.5s-15.333 -13.667 -27 -18s-27.167 -6.5 -46.5 -6.5z" />
    <glyph glyph-name="multiply" unicode="&#xd7;" horiz-adv-x="616" 
d="M312 428l102.997 104.001c11.333 11.333 23 11 35 -1l73 -73c11.333 -11.333 11.333 -22.666 0 -33.999l-104 -103l104 -103c11.333 -11.333 11 -23 -1 -35l-73 -73c-11.333 -11.333 -22.666 -11.333 -33.999 0l-103 104l-105 -105
c-7.33301 -7.33301 -13.166 -10.5 -17.499 -9.5s-9.16602 4.16699 -14.499 9.5l-74 73c-6 6 -9.5 11.333 -10.5 16s2.16699 10.667 9.5 18l105 105l-105 105c-7.33301 7.33301 -10.5 13.166 -9.5 17.499s4.16699 9.16602 9.5 14.499l73 74c6 6 11.333 9.5 16 10.5
s10.667 -2.16699 18 -9.5z" />
    <glyph glyph-name="Oslash" unicode="&#xd8;" horiz-adv-x="712" 
d="M657 341c0 -24.667 -1.16211 -50.4961 -3.49512 -77.4961s-7.33301 -53.333 -15 -79s-18.334 -50.334 -32.001 -74.001s-31.834 -44.334 -54.501 -62.001s-50.167 -31.667 -82.5 -42s-71.166 -15.5 -116.499 -15.5c-38 0 -71 3.5 -99 10.5s-52.667 16.833 -74 29.5
l-23 -30c-5.33301 -6.66699 -10 -10.667 -14 -12s-9.66699 0.666992 -17 6l-27 22c-6 5.33301 -8.83301 10 -8.5 14s3.16602 9.33301 8.49902 16l25 32c-15.333 18 -27.5 37.833 -36.5 59.5s-15.833 44 -20.5 67s-7.83398 46 -9.50098 69s-2.5 45.167 -2.5 66.5
c0 19.333 1.16699 40.833 3.5 64.5s7.16602 47.834 14.499 72.501s17.666 48.667 30.999 72s31.166 44.166 53.499 62.499s49.333 33 81 44s69.834 16.5 114.501 16.5c42 0 78.5 -4.33301 109.5 -13s57.5 -20.334 79.5 -35.001l19 24c6.66699 8 11.667 12.5 15 13.5
s8 -1.16699 14 -6.5l28 -22c6.66699 -5.33301 10 -9.83301 10 -13.5s-3 -9.5 -9 -17.5l-22 -29c24 -32.667 40 -69.334 48 -110.001s12 -81.667 12 -123zM263.005 330.004c0 -25.333 1 -47.333 3 -66l161 210c-15.333 20.667 -39.333 31 -72 31
c-34 0 -57.833 -13.333 -71.5 -40s-20.5 -71.667 -20.5 -135zM454.005 330.004c0 10 -0.166992 19.666 -0.5 28.999s-0.833008 18 -1.5 26l-157 -204c14 -14.667 34 -22 60 -22c36 0 61.5 13.333 76.5 40s22.5 70.334 22.5 131.001z" />
    <glyph glyph-name="Ugrave" unicode="&#xd9;" horiz-adv-x="678" 
d="M338 158c53.333 0 80.002 32.9971 80.002 98.9971l-1 384c0 6.66699 1.66699 12.334 5 17.001s9.66602 7 18.999 7h148c10.667 0 17.167 -3 19.5 -9s3.5 -11 3.5 -15v-390c0 -19.333 -1.16699 -38.833 -3.5 -58.5s-7.83301 -40.167 -16.5 -61.5
c-10.667 -25.333 -25 -46.833 -43 -64.5s-38.333 -32.167 -61 -43.5s-46.834 -19.666 -72.501 -24.999s-51.5 -8 -77.5 -8c-48 0 -89.333 7 -124 21s-63 33 -85 57c-21.333 23.333 -37.166 50.5 -47.499 81.5s-15.5 64.833 -15.5 101.5v390
c0 6.66699 1.66699 12.334 5 17.001s9.66602 7 18.999 7h148c10.667 0 17.167 -3 19.5 -9s3.5 -11 3.5 -15v-384c0 -34 6.5 -59 19.5 -75s32.167 -24 57.5 -24zM228.002 910.997c3.33301 4 7.99707 6.83398 13.9971 8.50098s13 -0.833008 21 -7.5l163 -135
c7.33301 -6 10.333 -11.167 9 -15.5s-3.66602 -8.83301 -6.99902 -13.5l-45 -57c-5.33301 -6 -10.666 -8.5 -15.999 -7.5s-10.666 3.16699 -15.999 6.5l-180 102c-8.66699 5.33301 -13.5 11.166 -14.5 17.499s1.16699 12.5 6.5 18.5z" />
    <glyph glyph-name="Uacute" unicode="&#xda;" horiz-adv-x="678" 
d="M338 158c53.333 0 80.002 32.9971 80.002 98.9971l-1 384c0 6.66699 1.66699 12.334 5 17.001s9.66602 7 18.999 7h148c10.667 0 17.167 -3 19.5 -9s3.5 -11 3.5 -15v-390c0 -19.333 -1.16699 -38.833 -3.5 -58.5s-7.83301 -40.167 -16.5 -61.5
c-10.667 -25.333 -25 -46.833 -43 -64.5s-38.333 -32.167 -61 -43.5s-46.834 -19.666 -72.501 -24.999s-51.5 -8 -77.5 -8c-48 0 -89.333 7 -124 21s-63 33 -85 57c-21.333 23.333 -37.166 50.5 -47.499 81.5s-15.5 64.833 -15.5 101.5v390
c0 6.66699 1.66699 12.334 5 17.001s9.66602 7 18.999 7h148c10.667 0 17.167 -3 19.5 -9s3.5 -11 3.5 -15v-384c0 -34 6.5 -59 19.5 -75s32.167 -24 57.5 -24zM549.002 809.997c4.66699 -6.66699 6.16504 -13.168 4.49805 -19.501s-7.16699 -11.166 -16.5 -14.499l-192 -78
c-6 -2.66699 -11.667 -4.16699 -17 -4.5s-10.333 2.83398 -15 9.50098l-37 63c-3.33301 4.66699 -5.16602 9.16699 -5.49902 13.5s3.5 9.16602 11.5 14.499l179 113c9.33301 5.33301 16.833 6.83301 22.5 4.5s9.83398 -5.83301 12.501 -10.5z" />
    <glyph glyph-name="Ucircumflex" unicode="&#xdb;" horiz-adv-x="678" 
d="M338 158c53.333 0 80.002 32.9971 80.002 98.9971l-1 384c0 6.66699 1.66699 12.334 5 17.001s9.66602 7 18.999 7h148c10.667 0 17.167 -3 19.5 -9s3.5 -11 3.5 -15v-390c0 -19.333 -1.16699 -38.833 -3.5 -58.5s-7.83301 -40.167 -16.5 -61.5
c-10.667 -25.333 -25 -46.833 -43 -64.5s-38.333 -32.167 -61 -43.5s-46.834 -19.666 -72.501 -24.999s-51.5 -8 -77.5 -8c-48 0 -89.333 7 -124 21s-63 33 -85 57c-21.333 23.333 -37.166 50.5 -47.499 81.5s-15.5 64.833 -15.5 101.5v390
c0 6.66699 1.66699 12.334 5 17.001s9.66602 7 18.999 7h148c10.667 0 17.167 -3 19.5 -9s3.5 -11 3.5 -15v-384c0 -34 6.5 -59 19.5 -75s32.167 -24 57.5 -24zM203.002 689.997c-7.33301 -5.33301 -13.333 -8.66602 -18 -9.99902s-10 1.33398 -16 8.00098l-39 42
c-6 6 -9.5 11 -10.5 15s2.16699 9.66699 9.5 17l132 120l17 15c4.66699 4 14 6 28 6h72c14 0 23.167 -1.5 27.5 -4.5s9.83301 -7.5 16.5 -13.5l134 -122c7.33301 -7.33301 10.5 -13 9.5 -17s-4.5 -9 -10.5 -15l-40 -43c-6 -6.66699 -11.167 -9.33398 -15.5 -8.00098
s-10.5 4.66602 -18.5 9.99902l-142 89z" />
    <glyph glyph-name="Udieresis" unicode="&#xdc;" horiz-adv-x="678" 
d="M338 158c53.333 0 80.002 32.9971 80.002 98.9971l-1 384c0 6.66699 1.66699 12.334 5 17.001s9.66602 7 18.999 7h148c10.667 0 17.167 -3 19.5 -9s3.5 -11 3.5 -15v-390c0 -19.333 -1.16699 -38.833 -3.5 -58.5s-7.83301 -40.167 -16.5 -61.5
c-10.667 -25.333 -25 -46.833 -43 -64.5s-38.333 -32.167 -61 -43.5s-46.834 -19.666 -72.501 -24.999s-51.5 -8 -77.5 -8c-48 0 -89.333 7 -124 21s-63 33 -85 57c-21.333 23.333 -37.166 50.5 -47.499 81.5s-15.5 64.833 -15.5 101.5v390
c0 6.66699 1.66699 12.334 5 17.001s9.66602 7 18.999 7h148c10.667 0 17.167 -3 19.5 -9s3.5 -11 3.5 -15v-384c0 -34 6.5 -59 19.5 -75s32.167 -24 57.5 -24zM226.002 684.997c-20 0 -35.8311 2.33203 -47.498 6.99902s-20.5 10.834 -26.5 18.501
s-9.83301 16.5 -11.5 26.5s-2.5 20.333 -2.5 31c0 11.333 1.16699 22 3.5 32s6.83301 18.5 13.5 25.5s15.667 12.5 27 16.5s26 6 44 6c18.667 0 33.667 -1.83301 45 -5.5s20.333 -9 27 -16s11.167 -15.5 13.5 -25.5s3.5 -21 3.5 -33c0 -11.333 -1 -22 -3 -32
s-6.33301 -18.833 -13 -26.5s-15.834 -13.667 -27.501 -18s-26.834 -6.5 -45.501 -6.5zM447.004 684.996c-19.333 0 -34.832 2.33203 -46.499 6.99902s-20.5 10.834 -26.5 18.501s-10 16.5 -12 26.5s-3 20.333 -3 31c0 11.333 1.33301 22 4 32s7.16699 18.5 13.5 25.5
s15.166 12.5 26.499 16.5s26 6 44 6c18.667 0 33.834 -1.83301 45.501 -5.5s20.667 -9 27 -16s10.666 -15.5 12.999 -25.5s3.5 -21 3.5 -33c0 -11.333 -1 -22 -3 -32s-6.16699 -18.833 -12.5 -26.5s-15.333 -13.667 -27 -18s-27.167 -6.5 -46.5 -6.5z" />
    <glyph glyph-name="Yacute" unicode="&#xdd;" horiz-adv-x="685" 
d="M234 220l-222.003 415.999c-4.66699 8 -6 15 -4 21s7.66699 9 17 9h147c13.333 0 23 -1.83301 29 -5.5s12 -11.5 18 -23.5l55 -111l61 -127h6l62 127l51 101c6.66699 12 12.834 21.5 18.501 28.5s15.167 10.5 28.5 10.5h152c9.33301 0 14.833 -2.66699 16.5 -8
s0.833984 -11 -2.49902 -17l-237 -421v-196c0 -4 -1.16699 -9 -3.5 -15s-8.83301 -9 -19.5 -9h-149c-9.33301 0 -15.666 2.33301 -18.999 7s-5 10.334 -5 17.001v196zM535.997 809.999c4.66699 -6.66699 6.16504 -13.168 4.49805 -19.501s-7.16699 -11.166 -16.5 -14.499
l-192 -78c-6 -2.66699 -11.667 -4.16699 -17 -4.5s-10.333 2.83398 -15 9.50098l-37 63c-3.33301 4.66699 -5.16602 9.16699 -5.49902 13.5s3.5 9.16602 11.5 14.499l179 113c9.33301 5.33301 16.833 6.83301 22.5 4.5s9.83398 -5.83301 12.501 -10.5z" />
    <glyph glyph-name="Thorn" unicode="&#xde;" horiz-adv-x="600" 
d="M261 24c0 -4 -1.16797 -9.00098 -3.50098 -15.001s-8.83301 -9 -19.5 -9h-149c-9.33301 0 -15.666 2.33301 -18.999 7s-5 10.334 -5 17.001v617c0 6.66699 1.66699 12.334 5 17.001s9.66602 7 18.999 7h149c10.667 0 17.167 -3 19.5 -9s3.5 -11 3.5 -15v-81h78
c32 0 62.333 -4.33301 91 -13s53.834 -21.834 75.501 -39.501s38.667 -39.834 51 -66.501s18.5 -58 18.5 -94c0 -23.333 -3.16699 -47.833 -9.5 -73.5s-18 -49.167 -35 -70.5s-41 -39.166 -72 -53.499s-70.833 -21.5 -119.5 -21.5h-78v-104zM372.999 341.999
c0 19.333 -5.83301 33.668 -17.5 43.001s-27.167 14 -46.5 14h-48v-115h48c7.33301 0 14.833 0.833008 22.5 2.5s14.5 4.66699 20.5 9s11 10.166 15 17.499s6 17 6 29z" />
    <glyph glyph-name="germandbls" unicode="&#xdf;" horiz-adv-x="574" 
d="M232 24c0 -4 -1.1709 -9.00488 -3.50391 -15.0049s-8.83301 -9 -19.5 -9h-141c-9.33301 0 -15.666 2.33301 -18.999 7s-5 10.334 -5 17.001v463c0 38.667 6.66699 72.5 20 101.5s30.833 52.833 52.5 71.5s46.167 32.667 73.5 42s55.333 14 84 14
c31.333 0 60.333 -4 87 -12s49.667 -19.833 69 -35.5s34.5 -35.167 45.5 -58.5s16.5 -50.666 16.5 -81.999c0 -6.66699 -0.666992 -15 -2 -25s-3.66602 -20.833 -6.99902 -32.5s-8.16602 -23.167 -14.499 -34.5s-14.5 -21.333 -24.5 -30c19.333 -8 35 -18.667 47 -32
s21.5 -28.166 28.5 -44.499s11.833 -33.666 14.5 -51.999s4 -36.833 4 -55.5c0 -88.667 -19.667 -152.167 -59 -190.5s-96.666 -53.166 -171.999 -44.499c-5.33301 0.666992 -12 3 -20 7s-11.667 12.667 -11 26l5 92c0.666992 8.66699 2 13.5 4 14.5s6.66699 3.16699 14 6.5
c16.667 6.66699 28.834 16.834 36.501 30.501s11.5 37.167 11.5 70.5c0 24 -4.16699 43.167 -12.5 57.5s-26.166 23.833 -53.499 28.5c-8.66699 1.33301 -14.167 3.33301 -16.5 6s-3.5 6.66699 -3.5 12v63c0 9.33301 1.66699 15.666 5 18.999s7.66602 6 12.999 8
c19.333 8.66699 31.166 19.5 35.499 32.5s6.5 28.167 6.5 45.5c0 13.333 -3 26 -9 38s-18.333 18 -37 18c-11.333 0 -21.333 -4.66699 -30 -14s-13 -24.333 -13 -45v-479z" />
    <glyph glyph-name="agrave" unicode="&#xe0;" horiz-adv-x="600" 
d="M332 195h-64.998c-12.667 0 -22.667 -3 -30 -9s-11 -16.667 -11 -32c0 -10 2.16699 -17 6.5 -21s12.166 -6 23.499 -6s24.166 2.5 38.499 7.5s26.833 10.5 37.5 16.5v44zM354.002 63c-13.333 -14.667 -28.1689 -26.6719 -44.502 -36.0049s-32.666 -16.5 -48.999 -21.5
s-31.666 -8.5 -45.999 -10.5s-26.166 -3 -35.499 -3c-31.333 0 -56.333 4.5 -75 13.5s-33 20.833 -43 35.5s-16.667 31 -20 49s-5 35.667 -5 53c-0.666992 32 4 58.667 14 80s23.667 38.333 41 51s38 21.667 62 27s50 8 78 8h105v8c0 6.66699 -0.833008 12.5 -2.5 17.5
s-5 9.33301 -10 13s-12.5 6.33398 -22.5 8.00098s-23.333 2.5 -40 2.5c-6 0 -14.167 -0.333008 -24.5 -1s-21.5 -1.33398 -33.5 -2.00098s-24 -1.66699 -36 -3s-22.667 -2.33301 -32 -3c-8.66699 -1.33301 -15.667 -2.16602 -21 -2.49902s-9.66602 0.166992 -12.999 1.5
s-5.83301 3.66602 -7.5 6.99902s-3.16699 8 -4.5 14l-14 64c-2 10 -0.833008 18.5 3.5 25.5s16.166 14.167 35.499 21.5c12 4.66699 25.833 8.66699 41.5 12s31.5 6 47.5 8s31.667 3.5 47 4.5s28.666 1.5 39.999 1.5c50 0 90 -4.33301 120 -13s53.167 -21.167 69.5 -37.5
s27.166 -36.666 32.499 -60.999s8 -52.166 8 -83.499v-128c0 -21.333 2.5 -34.5 7.5 -39.5s15.167 -8.5 30.5 -10.5c9.33301 -1.33301 15.333 -3.16602 18 -5.49902s4 -7.16602 4 -14.499v-82c0 -8.66699 -3 -15 -9 -19s-14 -7.33301 -24 -10
c-12 -3.33301 -24 -5.5 -36 -6.5s-24.667 -1.5 -38 -1.5c-12.667 0 -25.167 0.833008 -37.5 2.5s-23.666 5 -33.999 10s-19.5 11.833 -27.5 20.5s-14 20.334 -18 35.001zM234.999 794.995c4 3.33301 9.16699 4.99902 15.5 4.99902s12.833 -4 19.5 -12l129 -167
c6 -7.33301 8.16699 -13.166 6.5 -17.499s-4.83398 -8.16602 -9.50098 -11.499l-54 -48c-5.33301 -5.33301 -10.666 -7 -15.999 -5s-10.333 5.33301 -15 10l-157 141c-13.333 13.333 -13 25.666 1 36.999z" />
    <glyph glyph-name="aacute" unicode="&#xe1;" horiz-adv-x="600" 
d="M332 195h-64.998c-12.667 0 -22.667 -3 -30 -9s-11 -16.667 -11 -32c0 -10 2.16699 -17 6.5 -21s12.166 -6 23.499 -6s24.166 2.5 38.499 7.5s26.833 10.5 37.5 16.5v44zM354.002 63c-13.333 -14.667 -28.1689 -26.6719 -44.502 -36.0049s-32.666 -16.5 -48.999 -21.5
s-31.666 -8.5 -45.999 -10.5s-26.166 -3 -35.499 -3c-31.333 0 -56.333 4.5 -75 13.5s-33 20.833 -43 35.5s-16.667 31 -20 49s-5 35.667 -5 53c-0.666992 32 4 58.667 14 80s23.667 38.333 41 51s38 21.667 62 27s50 8 78 8h105v8c0 6.66699 -0.833008 12.5 -2.5 17.5
s-5 9.33301 -10 13s-12.5 6.33398 -22.5 8.00098s-23.333 2.5 -40 2.5c-6 0 -14.167 -0.333008 -24.5 -1s-21.5 -1.33398 -33.5 -2.00098s-24 -1.66699 -36 -3s-22.667 -2.33301 -32 -3c-8.66699 -1.33301 -15.667 -2.16602 -21 -2.49902s-9.66602 0.166992 -12.999 1.5
s-5.83301 3.66602 -7.5 6.99902s-3.16699 8 -4.5 14l-14 64c-2 10 -0.833008 18.5 3.5 25.5s16.166 14.167 35.499 21.5c12 4.66699 25.833 8.66699 41.5 12s31.5 6 47.5 8s31.667 3.5 47 4.5s28.666 1.5 39.999 1.5c50 0 90 -4.33301 120 -13s53.167 -21.167 69.5 -37.5
s27.166 -36.666 32.499 -60.999s8 -52.166 8 -83.499v-128c0 -21.333 2.5 -34.5 7.5 -39.5s15.167 -8.5 30.5 -10.5c9.33301 -1.33301 15.333 -3.16602 18 -5.49902s4 -7.16602 4 -14.499v-82c0 -8.66699 -3 -15 -9 -19s-14 -7.33301 -24 -10
c-12 -3.33301 -24 -5.5 -36 -6.5s-24.667 -1.5 -38 -1.5c-12.667 0 -25.167 0.833008 -37.5 2.5s-23.666 5 -33.999 10s-19.5 11.833 -27.5 20.5s-14 20.334 -18 35.001zM450.999 744.995c7.33301 -4 11.666 -9.16699 12.999 -15.5s-1 -13.5 -7 -21.5l-131 -160
c-4 -5.33301 -8.33301 -9.33301 -13 -12s-10.334 -2 -17.001 2l-63 36c-5.33301 3.33301 -9.16602 6.83301 -11.499 10.5s-1.16602 9.5 3.50098 17.5l103 185c5.33301 9.33301 11 14.333 17 15s11.333 -0.333008 16 -3z" />
    <glyph glyph-name="acircumflex" unicode="&#xe2;" horiz-adv-x="600" 
d="M332 195h-64.998c-12.667 0 -22.667 -3 -30 -9s-11 -16.667 -11 -32c0 -10 2.16699 -17 6.5 -21s12.166 -6 23.499 -6s24.166 2.5 38.499 7.5s26.833 10.5 37.5 16.5v44zM354.002 63c-13.333 -14.667 -28.1689 -26.6719 -44.502 -36.0049s-32.666 -16.5 -48.999 -21.5
s-31.666 -8.5 -45.999 -10.5s-26.166 -3 -35.499 -3c-31.333 0 -56.333 4.5 -75 13.5s-33 20.833 -43 35.5s-16.667 31 -20 49s-5 35.667 -5 53c-0.666992 32 4 58.667 14 80s23.667 38.333 41 51s38 21.667 62 27s50 8 78 8h105v8c0 6.66699 -0.833008 12.5 -2.5 17.5
s-5 9.33301 -10 13s-12.5 6.33398 -22.5 8.00098s-23.333 2.5 -40 2.5c-6 0 -14.167 -0.333008 -24.5 -1s-21.5 -1.33398 -33.5 -2.00098s-24 -1.66699 -36 -3s-22.667 -2.33301 -32 -3c-8.66699 -1.33301 -15.667 -2.16602 -21 -2.49902s-9.66602 0.166992 -12.999 1.5
s-5.83301 3.66602 -7.5 6.99902s-3.16699 8 -4.5 14l-14 64c-2 10 -0.833008 18.5 3.5 25.5s16.166 14.167 35.499 21.5c12 4.66699 25.833 8.66699 41.5 12s31.5 6 47.5 8s31.667 3.5 47 4.5s28.666 1.5 39.999 1.5c50 0 90 -4.33301 120 -13s53.167 -21.167 69.5 -37.5
s27.166 -36.666 32.499 -60.999s8 -52.166 8 -83.499v-128c0 -21.333 2.5 -34.5 7.5 -39.5s15.167 -8.5 30.5 -10.5c9.33301 -1.33301 15.333 -3.16602 18 -5.49902s4 -7.16602 4 -14.499v-82c0 -8.66699 -3 -15 -9 -19s-14 -7.33301 -24 -10
c-12 -3.33301 -24 -5.5 -36 -6.5s-24.667 -1.5 -38 -1.5c-12.667 0 -25.167 0.833008 -37.5 2.5s-23.666 5 -33.999 10s-19.5 11.833 -27.5 20.5s-14 20.334 -18 35.001zM145.999 524.995c-7.33301 -5.33301 -13.334 -8.66797 -18.001 -10.001s-10 1.33398 -16 8.00098
l-41 41c-6 6 -9.5 11 -10.5 15s2.16699 9.66699 9.5 17l134 140c6 6.66699 11.5 11.834 16.5 15.501s14.5 5.5 28.5 5.5h72c14 0 23.333 -1.33301 28 -4s10 -7.33398 16 -14.001l136 -144c7.33301 -7.33301 10.5 -13 9.5 -17s-4.5 -9 -10.5 -15l-42 -40
c-6.66699 -6 -12.167 -8.5 -16.5 -7.5s-10.166 4.16699 -17.499 9.5l-142 99z" />
    <glyph glyph-name="atilde" unicode="&#xe3;" horiz-adv-x="600" 
d="M332 195h-64.998c-12.667 0 -22.667 -3 -30 -9s-11 -16.667 -11 -32c0 -10 2.16699 -17 6.5 -21s12.166 -6 23.499 -6s24.166 2.5 38.499 7.5s26.833 10.5 37.5 16.5v44zM354.002 63c-13.333 -14.667 -28.1689 -26.6719 -44.502 -36.0049s-32.666 -16.5 -48.999 -21.5
s-31.666 -8.5 -45.999 -10.5s-26.166 -3 -35.499 -3c-31.333 0 -56.333 4.5 -75 13.5s-33 20.833 -43 35.5s-16.667 31 -20 49s-5 35.667 -5 53c-0.666992 32 4 58.667 14 80s23.667 38.333 41 51s38 21.667 62 27s50 8 78 8h105v8c0 6.66699 -0.833008 12.5 -2.5 17.5
s-5 9.33301 -10 13s-12.5 6.33398 -22.5 8.00098s-23.333 2.5 -40 2.5c-6 0 -14.167 -0.333008 -24.5 -1s-21.5 -1.33398 -33.5 -2.00098s-24 -1.66699 -36 -3s-22.667 -2.33301 -32 -3c-8.66699 -1.33301 -15.667 -2.16602 -21 -2.49902s-9.66602 0.166992 -12.999 1.5
s-5.83301 3.66602 -7.5 6.99902s-3.16699 8 -4.5 14l-14 64c-2 10 -0.833008 18.5 3.5 25.5s16.166 14.167 35.499 21.5c12 4.66699 25.833 8.66699 41.5 12s31.5 6 47.5 8s31.667 3.5 47 4.5s28.666 1.5 39.999 1.5c50 0 90 -4.33301 120 -13s53.167 -21.167 69.5 -37.5
s27.166 -36.666 32.499 -60.999s8 -52.166 8 -83.499v-128c0 -21.333 2.5 -34.5 7.5 -39.5s15.167 -8.5 30.5 -10.5c9.33301 -1.33301 15.333 -3.16602 18 -5.49902s4 -7.16602 4 -14.499v-82c0 -8.66699 -3 -15 -9 -19s-14 -7.33301 -24 -10
c-12 -3.33301 -24 -5.5 -36 -6.5s-24.667 -1.5 -38 -1.5c-12.667 0 -25.167 0.833008 -37.5 2.5s-23.666 5 -33.999 10s-19.5 11.833 -27.5 20.5s-14 20.334 -18 35.001zM387.999 540.995c-11.333 0 -24.332 2.33008 -38.999 6.99707s-29.5 10 -44.5 16
s-29.667 11.333 -44 16s-26.833 7 -37.5 7c-9.33301 0 -19.166 -2.33301 -29.499 -7s-21.166 -14.667 -32.499 -30c-4.66699 -6 -8.33398 -9.66699 -11.001 -11s-8.66699 0.333984 -18 5.00098l-46 22c-0.666992 0 -1.83398 0.666992 -3.50098 2s-3.16699 3 -4.5 5
s-2.33301 4.5 -3 7.5s-0.333984 6.5 0.999023 10.5c18.667 47.333 40.834 80.5 66.501 99.5s51.5 28.5 77.5 28.5c15.333 0 30.666 -2.5 45.999 -7.5s30.166 -10.333 44.499 -16l41 -16c13 -5 24.833 -7.5 35.5 -7.5c11.333 0 21.833 2.83301 31.5 8.5
s18.834 15.5 27.501 29.5c4 6.66699 8.33301 9.66699 13 9s10.667 -3 18 -7l45 -25c6 -3.33301 10.167 -6.66602 12.5 -9.99902s1.83301 -8.66602 -1.5 -15.999c-10.667 -24 -21.667 -43.833 -33 -59.5s-23 -28 -35 -37s-24.5 -15.167 -37.5 -18.5s-26.167 -5 -39.5 -5z" />
    <glyph glyph-name="adieresis" unicode="&#xe4;" horiz-adv-x="600" 
d="M332 195h-64.998c-12.667 0 -22.667 -3 -30 -9s-11 -16.667 -11 -32c0 -10 2.16699 -17 6.5 -21s12.166 -6 23.499 -6s24.166 2.5 38.499 7.5s26.833 10.5 37.5 16.5v44zM354.002 63c-13.333 -14.667 -28.1689 -26.6719 -44.502 -36.0049s-32.666 -16.5 -48.999 -21.5
s-31.666 -8.5 -45.999 -10.5s-26.166 -3 -35.499 -3c-31.333 0 -56.333 4.5 -75 13.5s-33 20.833 -43 35.5s-16.667 31 -20 49s-5 35.667 -5 53c-0.666992 32 4 58.667 14 80s23.667 38.333 41 51s38 21.667 62 27s50 8 78 8h105v8c0 6.66699 -0.833008 12.5 -2.5 17.5
s-5 9.33301 -10 13s-12.5 6.33398 -22.5 8.00098s-23.333 2.5 -40 2.5c-6 0 -14.167 -0.333008 -24.5 -1s-21.5 -1.33398 -33.5 -2.00098s-24 -1.66699 -36 -3s-22.667 -2.33301 -32 -3c-8.66699 -1.33301 -15.667 -2.16602 -21 -2.49902s-9.66602 0.166992 -12.999 1.5
s-5.83301 3.66602 -7.5 6.99902s-3.16699 8 -4.5 14l-14 64c-2 10 -0.833008 18.5 3.5 25.5s16.166 14.167 35.499 21.5c12 4.66699 25.833 8.66699 41.5 12s31.5 6 47.5 8s31.667 3.5 47 4.5s28.666 1.5 39.999 1.5c50 0 90 -4.33301 120 -13s53.167 -21.167 69.5 -37.5
s27.166 -36.666 32.499 -60.999s8 -52.166 8 -83.499v-128c0 -21.333 2.5 -34.5 7.5 -39.5s15.167 -8.5 30.5 -10.5c9.33301 -1.33301 15.333 -3.16602 18 -5.49902s4 -7.16602 4 -14.499v-82c0 -8.66699 -3 -15 -9 -19s-14 -7.33301 -24 -10
c-12 -3.33301 -24 -5.5 -36 -6.5s-24.667 -1.5 -38 -1.5c-12.667 0 -25.167 0.833008 -37.5 2.5s-23.666 5 -33.999 10s-19.5 11.833 -27.5 20.5s-14 20.334 -18 35.001zM185.999 536.995c-20 0 -35.8311 2.33203 -47.498 6.99902s-20.5 10.834 -26.5 18.501
s-9.83301 16.5 -11.5 26.5s-2.5 20.333 -2.5 31c0 11.333 1.16699 22 3.5 32s6.83301 18.5 13.5 25.5s15.667 12.5 27 16.5s26 6 44 6c18.667 0 33.667 -1.83301 45 -5.5s20.333 -9 27 -16s11.167 -15.5 13.5 -25.5s3.5 -21 3.5 -33c0 -11.333 -1 -22 -3 -32
s-6.33301 -18.833 -13 -26.5s-15.834 -13.667 -27.501 -18s-26.834 -6.5 -45.501 -6.5zM407.001 536.994c-19.333 0 -34.832 2.33203 -46.499 6.99902s-20.5 10.834 -26.5 18.501s-10 16.5 -12 26.5s-3 20.333 -3 31c0 11.333 1.33301 22 4 32s7.16699 18.5 13.5 25.5
s15.166 12.5 26.499 16.5s26 6 44 6c18.667 0 33.834 -1.83301 45.501 -5.5s20.667 -9 27 -16s10.666 -15.5 12.999 -25.5s3.5 -21 3.5 -33c0 -11.333 -1 -22 -3 -32s-6.16699 -18.833 -12.5 -26.5s-15.333 -13.667 -27 -18s-27.167 -6.5 -46.5 -6.5z" />
    <glyph glyph-name="aring" unicode="&#xe5;" horiz-adv-x="600" 
d="M332 195h-64.998c-12.667 0 -22.667 -3 -30 -9s-11 -16.667 -11 -32c0 -10 2.16699 -17 6.5 -21s12.166 -6 23.499 -6s24.166 2.5 38.499 7.5s26.833 10.5 37.5 16.5v44zM354.002 63c-13.333 -14.667 -28.1689 -26.6719 -44.502 -36.0049s-32.666 -16.5 -48.999 -21.5
s-31.666 -8.5 -45.999 -10.5s-26.166 -3 -35.499 -3c-31.333 0 -56.333 4.5 -75 13.5s-33 20.833 -43 35.5s-16.667 31 -20 49s-5 35.667 -5 53c-0.666992 32 4 58.667 14 80s23.667 38.333 41 51s38 21.667 62 27s50 8 78 8h105v8c0 6.66699 -0.833008 12.5 -2.5 17.5
s-5 9.33301 -10 13s-12.5 6.33398 -22.5 8.00098s-23.333 2.5 -40 2.5c-6 0 -14.167 -0.333008 -24.5 -1s-21.5 -1.33398 -33.5 -2.00098s-24 -1.66699 -36 -3s-22.667 -2.33301 -32 -3c-8.66699 -1.33301 -15.667 -2.16602 -21 -2.49902s-9.66602 0.166992 -12.999 1.5
s-5.83301 3.66602 -7.5 6.99902s-3.16699 8 -4.5 14l-14 64c-2 10 -0.833008 18.5 3.5 25.5s16.166 14.167 35.499 21.5c12 4.66699 25.833 8.66699 41.5 12s31.5 6 47.5 8s31.667 3.5 47 4.5s28.666 1.5 39.999 1.5c50 0 90 -4.33301 120 -13s53.167 -21.167 69.5 -37.5
s27.166 -36.666 32.499 -60.999s8 -52.166 8 -83.499v-128c0 -21.333 2.5 -34.5 7.5 -39.5s15.167 -8.5 30.5 -10.5c9.33301 -1.33301 15.333 -3.16602 18 -5.49902s4 -7.16602 4 -14.499v-82c0 -8.66699 -3 -15 -9 -19s-14 -7.33301 -24 -10
c-12 -3.33301 -24 -5.5 -36 -6.5s-24.667 -1.5 -38 -1.5c-12.667 0 -25.167 0.833008 -37.5 2.5s-23.666 5 -33.999 10s-19.5 11.833 -27.5 20.5s-14 20.334 -18 35.001zM304.999 533.995c-18 0 -35.5 3.33008 -52.5 9.99707s-32 15.834 -45 27.501s-23.333 25.667 -31 42
s-11.5 34.5 -11.5 54.5c0 19.333 3.83301 37.166 11.5 53.499s18 30.333 31 42s28 20.834 45 27.501s34.5 10 52.5 10c18.667 0 36.334 -3.66699 53.001 -11s31.167 -17.166 43.5 -29.499s22 -26.5 29 -42.5s10.5 -32.667 10.5 -50c0 -18 -3.5 -35.167 -10.5 -51.5
s-16.667 -30.666 -29 -42.999s-26.833 -22 -43.5 -29s-34.334 -10.5 -53.001 -10.5zM304.999 712.992c-12 0 -22.333 -4.33301 -31 -13s-13 -19.334 -13 -32.001c0 -14 4.16699 -25.167 12.5 -33.5s18.833 -12.5 31.5 -12.5c11.333 0 21.333 4.33301 30 13s13 19.667 13 33
c0 12.667 -4.33301 23.334 -13 32.001s-18.667 13 -30 13z" />
    <glyph glyph-name="ae" unicode="&#xe6;" horiz-adv-x="859" 
d="M533 202c1.33301 -14 4.6748 -25.001 10.0078 -33.001s12.333 -13.667 21 -17s18.667 -5.33301 30 -6s23.666 -1 36.999 -1s29.166 0.666992 47.499 2s38.5 3.66602 60.5 6.99902c15.333 2 25 1.66699 29 -1s7.33301 -11 10 -25l10 -59
c3.33301 -15.333 3.5 -26.666 0.5 -33.999s-14.167 -14.666 -33.5 -21.999c-10 -3.33301 -21.833 -6.33301 -35.5 -9s-27.834 -5 -42.501 -7s-29.167 -3.5 -43.5 -4.5s-27.5 -1.5 -39.5 -1.5c-50 0 -90.833 6 -122.5 18s-56.834 28.667 -75.501 50
c-30.667 -25.333 -62.834 -42.833 -96.501 -52.5s-67.834 -14.5 -102.501 -14.5s-62.167 4.5 -82.5 13.5s-35.666 20.833 -45.999 35.5s-17 31 -20 49s-4.5 35.667 -4.5 53c-0.666992 32 4 58.667 14 80s23.667 38.333 41 51s38 21.667 62 27s50 8 78 8h105v8
c0 6.66699 -0.833008 12.5 -2.5 17.5s-5 9.33301 -10 13s-12.5 6.33398 -22.5 8.00098s-23.333 2.5 -40 2.5c-6 0 -14.167 -0.333008 -24.5 -1s-21.5 -1.33398 -33.5 -2.00098s-24 -1.66699 -36 -3s-22.667 -2.33301 -32 -3
c-8.66699 -1.33301 -15.667 -2.16602 -21 -2.49902s-9.66602 0.166992 -12.999 1.5s-5.83301 3.66602 -7.5 6.99902s-3.16699 8 -4.5 14l-14 64c-2 10 -0.833008 18.5 3.5 25.5s16.166 14.167 35.499 21.5c12 4.66699 25.833 8.66699 41.5 12s31.5 6 47.5 8
s31.667 3.5 47 4.5s28.666 1.5 39.999 1.5c36 0 66.5 -3 91.5 -9s46.5 -17 64.5 -33c16 13.333 34.667 23.666 56 30.999s45.666 11 72.999 11c50 0 90.5 -7 121.5 -21s55 -32.167 72 -54.5s28.5 -47.166 34.5 -74.499s9 -54.333 9 -81c0 -22.667 -4.33301 -40.5 -13 -53.5
s-24.334 -19.5 -47.001 -19.5h-227zM351.009 148.999c-2 8.66699 -3.49902 17.332 -4.49902 25.999s-2.16699 17.667 -3.5 27h-57c-20.667 0 -34.5 -4.16699 -41.5 -12.5s-10.5 -20.166 -10.5 -35.499c0 -10 2.16699 -17 6.5 -21s12.166 -6 23.499 -6
c10.667 0 25 2.33301 43 7s32.667 9.66699 44 15zM584.01 362.997c-12.667 0 -23.168 -5.16699 -31.501 -15.5s-13.166 -23.5 -14.499 -39.5h87c0 13.333 -3.5 25.833 -10.5 37.5s-17.167 17.5 -30.5 17.5z" />
    <glyph glyph-name="ccedilla" unicode="&#xe7;" horiz-adv-x="502" 
d="M283 -134c0 7.33301 -1.66699 12.6621 -5 15.9951s-8.16602 5.83301 -14.499 7.5s-14.5 2.66699 -24.5 3s-21.333 0.833008 -34 1.5c-16 2 -21 10.667 -15 26l26 76c-38 6 -68.5 17.333 -91.5 34s-40.833 36.5 -53.5 59.5s-21 48.333 -25 76s-6 55.834 -6 84.501
c0 30 3 60.167 9 90.5s17.667 57.666 35 81.999s41.833 44.333 73.5 60s73.167 23.5 124.5 23.5c30 0 58.667 -2 86 -6s51.666 -10.667 72.999 -20c10.667 -4.66699 18.334 -10.167 23.001 -16.5s5.66699 -15.833 3 -28.5l-14 -77
c-1.33301 -6.66699 -2.66602 -11.667 -3.99902 -15s-3.5 -5.5 -6.5 -6.5s-7 -1.33301 -12 -1s-11.833 0.833008 -20.5 1.5c-20 2 -37.333 3.5 -52 4.5s-29.334 1.5 -44.001 1.5c-28.667 0 -49.834 -7.66699 -63.501 -23s-20.5 -37.666 -20.5 -66.999
c0 -37.333 5.83301 -63.333 17.5 -78s32.5 -22 62.5 -22c13.333 0 30 0.666992 50 2s41 3.33301 63 6c12.667 1.33301 20.667 1.33301 24 0s6.33301 -8.33301 9 -21l13 -70c3.33301 -15.333 3.5 -26.666 0.5 -33.999s-14.167 -14.666 -33.5 -21.999
c-10 -3.33301 -21 -6.33301 -33 -9s-24.5 -5 -37.5 -7s-26 -3.66699 -39 -5s-25.167 -2 -36.5 -2l-15 -40c24 -1.33301 43.167 -4.66602 57.5 -9.99902s25.333 -12 33 -20s12.834 -17.167 15.501 -27.5s4 -20.5 4 -30.5c0 -15.333 -2.83301 -30 -8.5 -44
s-14.834 -26.333 -27.501 -37s-28.667 -19.167 -48 -25.5s-42.333 -9.5 -69 -9.5c-5.33301 0 -11.833 0.166992 -19.5 0.5s-16 1 -25 2s-17.667 2.33301 -26 4s-15.5 3.5 -21.5 5.5c-3.33301 1.33301 -6 3 -8 5s-2.33301 4.66699 -1 8l10 51
c0.666992 4.66699 5 6.66699 13 6c10.667 -1.33301 22.167 -2.66602 34.5 -3.99902s23.166 -2 32.499 -2c8 0 15.833 0.5 23.5 1.5s14.334 3 20.001 6s10.167 7.33301 13.5 13s5 13.167 5 22.5z" />
    <glyph glyph-name="egrave" unicode="&#xe8;" horiz-adv-x="553" 
d="M231 207c1.33301 -14 4.67188 -25.1699 10.0049 -33.5029s12.333 -14.666 21 -18.999s18.667 -7 30 -8s23.666 -1.5 36.999 -1.5s29.166 0.666992 47.499 2s38.5 3.66602 60.5 6.99902c16 2 25.833 1.83301 29.5 -0.5s6.83398 -10.833 9.50098 -25.5l10 -59
c3.33301 -15.333 3.5 -26.666 0.5 -33.999s-14.167 -14.666 -33.5 -21.999c-10 -3.33301 -21.833 -6.33301 -35.5 -9s-27.834 -5 -42.501 -7s-29.167 -3.5 -43.5 -4.5s-27.5 -1.5 -39.5 -1.5c-52.667 0 -95.334 6.83301 -128.001 20.5s-58.167 32 -76.5 55
s-30.833 49.833 -37.5 80.5s-10 62.667 -10 96c0 24 2.16699 51.167 6.5 81.5s14.666 59 30.999 86s40.5 49.667 72.5 68s75.667 27.5 131 27.5c50 0 90.5 -7 121.5 -21s55 -32.167 72 -54.5s28.5 -47.166 34.5 -74.499s9 -54.333 9 -81c0 -22.667 -4.33301 -39.667 -13 -51
s-24.334 -17 -47.001 -17h-227zM281.006 366.997c-12.667 0 -23.333 -4.66699 -32 -14s-13.667 -23.666 -15 -42.999h91c0 19.333 -4 33.666 -12 42.999s-18.667 14 -32 14zM216.007 794.997c4 3.33301 9.16699 4.99902 15.5 4.99902s12.833 -4 19.5 -12l129 -167
c6 -7.33301 8.16699 -13.166 6.5 -17.499s-4.83398 -8.16602 -9.50098 -11.499l-54 -48c-5.33301 -5.33301 -10.666 -7 -15.999 -5s-10.333 5.33301 -15 10l-157 141c-13.333 13.333 -13 25.666 1 36.999z" />
    <glyph glyph-name="eacute" unicode="&#xe9;" horiz-adv-x="553" 
d="M231 207c1.33301 -14 4.67188 -25.1699 10.0049 -33.5029s12.333 -14.666 21 -18.999s18.667 -7 30 -8s23.666 -1.5 36.999 -1.5s29.166 0.666992 47.499 2s38.5 3.66602 60.5 6.99902c16 2 25.833 1.83301 29.5 -0.5s6.83398 -10.833 9.50098 -25.5l10 -59
c3.33301 -15.333 3.5 -26.666 0.5 -33.999s-14.167 -14.666 -33.5 -21.999c-10 -3.33301 -21.833 -6.33301 -35.5 -9s-27.834 -5 -42.501 -7s-29.167 -3.5 -43.5 -4.5s-27.5 -1.5 -39.5 -1.5c-52.667 0 -95.334 6.83301 -128.001 20.5s-58.167 32 -76.5 55
s-30.833 49.833 -37.5 80.5s-10 62.667 -10 96c0 24 2.16699 51.167 6.5 81.5s14.666 59 30.999 86s40.5 49.667 72.5 68s75.667 27.5 131 27.5c50 0 90.5 -7 121.5 -21s55 -32.167 72 -54.5s28.5 -47.166 34.5 -74.499s9 -54.333 9 -81c0 -22.667 -4.33301 -39.667 -13 -51
s-24.334 -17 -47.001 -17h-227zM281.006 366.997c-12.667 0 -23.333 -4.66699 -32 -14s-13.667 -23.666 -15 -42.999h91c0 19.333 -4 33.666 -12 42.999s-18.667 14 -32 14zM436.007 744.997c7.33301 -4 11.666 -9.16699 12.999 -15.5s-1 -13.5 -7 -21.5l-131 -160
c-4 -5.33301 -8.33301 -9.33301 -13 -12s-10.334 -2 -17.001 2l-63 36c-5.33301 3.33301 -9.16602 6.83301 -11.499 10.5s-1.16602 9.5 3.50098 17.5l103 185c5.33301 9.33301 11 14.333 17 15s11.333 -0.333008 16 -3z" />
    <glyph glyph-name="ecircumflex" unicode="&#xea;" horiz-adv-x="553" 
d="M231 207c1.33301 -14 4.67188 -25.1699 10.0049 -33.5029s12.333 -14.666 21 -18.999s18.667 -7 30 -8s23.666 -1.5 36.999 -1.5s29.166 0.666992 47.499 2s38.5 3.66602 60.5 6.99902c16 2 25.833 1.83301 29.5 -0.5s6.83398 -10.833 9.50098 -25.5l10 -59
c3.33301 -15.333 3.5 -26.666 0.5 -33.999s-14.167 -14.666 -33.5 -21.999c-10 -3.33301 -21.833 -6.33301 -35.5 -9s-27.834 -5 -42.501 -7s-29.167 -3.5 -43.5 -4.5s-27.5 -1.5 -39.5 -1.5c-52.667 0 -95.334 6.83301 -128.001 20.5s-58.167 32 -76.5 55
s-30.833 49.833 -37.5 80.5s-10 62.667 -10 96c0 24 2.16699 51.167 6.5 81.5s14.666 59 30.999 86s40.5 49.667 72.5 68s75.667 27.5 131 27.5c50 0 90.5 -7 121.5 -21s55 -32.167 72 -54.5s28.5 -47.166 34.5 -74.499s9 -54.333 9 -81c0 -22.667 -4.33301 -39.667 -13 -51
s-24.334 -17 -47.001 -17h-227zM281.006 366.997c-12.667 0 -23.333 -4.66699 -32 -14s-13.667 -23.666 -15 -42.999h91c0 19.333 -4 33.666 -12 42.999s-18.667 14 -32 14zM143.007 524.997c-7.33301 -5.33301 -13.334 -8.66797 -18.001 -10.001s-10 1.33398 -16 8.00098
l-41 41c-6 6 -9.5 11 -10.5 15s2.16699 9.66699 9.5 17l134 140c6 6.66699 11.5 11.834 16.5 15.501s14.5 5.5 28.5 5.5h72c14 0 23.333 -1.33301 28 -4s10 -7.33398 16 -14.001l136 -144c7.33301 -7.33301 10.5 -13 9.5 -17s-4.5 -9 -10.5 -15l-42 -40
c-6.66699 -6 -12.167 -8.5 -16.5 -7.5s-10.166 4.16699 -17.499 9.5l-142 99z" />
    <glyph glyph-name="edieresis" unicode="&#xeb;" horiz-adv-x="553" 
d="M231 207c1.33301 -14 4.67188 -25.1699 10.0049 -33.5029s12.333 -14.666 21 -18.999s18.667 -7 30 -8s23.666 -1.5 36.999 -1.5s29.166 0.666992 47.499 2s38.5 3.66602 60.5 6.99902c16 2 25.833 1.83301 29.5 -0.5s6.83398 -10.833 9.50098 -25.5l10 -59
c3.33301 -15.333 3.5 -26.666 0.5 -33.999s-14.167 -14.666 -33.5 -21.999c-10 -3.33301 -21.833 -6.33301 -35.5 -9s-27.834 -5 -42.501 -7s-29.167 -3.5 -43.5 -4.5s-27.5 -1.5 -39.5 -1.5c-52.667 0 -95.334 6.83301 -128.001 20.5s-58.167 32 -76.5 55
s-30.833 49.833 -37.5 80.5s-10 62.667 -10 96c0 24 2.16699 51.167 6.5 81.5s14.666 59 30.999 86s40.5 49.667 72.5 68s75.667 27.5 131 27.5c50 0 90.5 -7 121.5 -21s55 -32.167 72 -54.5s28.5 -47.166 34.5 -74.499s9 -54.333 9 -81c0 -22.667 -4.33301 -39.667 -13 -51
s-24.334 -17 -47.001 -17h-227zM281.006 366.997c-12.667 0 -23.333 -4.66699 -32 -14s-13.667 -23.666 -15 -42.999h91c0 19.333 -4 33.666 -12 42.999s-18.667 14 -32 14zM172.007 536.997c-20 0 -35.8311 2.33203 -47.498 6.99902s-20.5 10.834 -26.5 18.501
s-9.83301 16.5 -11.5 26.5s-2.5 20.333 -2.5 31c0 11.333 1.16699 22 3.5 32s6.83301 18.5 13.5 25.5s15.667 12.5 27 16.5s26 6 44 6c18.667 0 33.667 -1.83301 45 -5.5s20.333 -9 27 -16s11.167 -15.5 13.5 -25.5s3.5 -21 3.5 -33c0 -11.333 -1 -22 -3 -32
s-6.33301 -18.833 -13 -26.5s-15.834 -13.667 -27.501 -18s-26.834 -6.5 -45.501 -6.5zM393.009 536.996c-19.333 0 -34.832 2.33203 -46.499 6.99902s-20.5 10.834 -26.5 18.501s-10 16.5 -12 26.5s-3 20.333 -3 31c0 11.333 1.33301 22 4 32s7.16699 18.5 13.5 25.5
s15.166 12.5 26.499 16.5s26 6 44 6c18.667 0 33.834 -1.83301 45.501 -5.5s20.667 -9 27 -16s10.666 -15.5 12.999 -25.5s3.5 -21 3.5 -33c0 -11.333 -1 -22 -3 -32s-6.16699 -18.833 -12.5 -26.5s-15.333 -13.667 -27 -18s-27.167 -6.5 -46.5 -6.5z" />
    <glyph glyph-name="igrave" unicode="&#xec;" horiz-adv-x="288" 
d="M238 24c0 -4 -1.16699 -9.00195 -3.5 -15.002s-8.83301 -9 -19.5 -9h-141c-9.33301 0 -15.666 2.33301 -18.999 7s-5 10.334 -5 17.001v449c0 6.66699 1.66699 12.334 5 17.001s9.66602 7 18.999 7h141c10.667 0 17.167 -3 19.5 -9s3.5 -11 3.5 -15v-449zM57 794.998
c4 3.33301 9.16699 4.99902 15.5 4.99902s12.833 -4 19.5 -12l129 -167c6 -7.33301 8.16699 -13.166 6.5 -17.499s-4.83398 -8.16602 -9.50098 -11.499l-54 -48c-5.33301 -5.33301 -10.666 -7 -15.999 -5s-10.333 5.33301 -15 10l-157 141
c-13.333 13.333 -13 25.666 1 36.999z" />
    <glyph glyph-name="iacute" unicode="&#xed;" horiz-adv-x="323" 
d="M238 24c0 -4 -1.16699 -9.00195 -3.5 -15.002s-8.83301 -9 -19.5 -9h-141c-9.33301 0 -15.666 2.33301 -18.999 7s-5 10.334 -5 17.001v449c0 6.66699 1.66699 12.334 5 17.001s9.66602 7 18.999 7h141c10.667 0 17.167 -3 19.5 -9s3.5 -11 3.5 -15v-449zM325 744.998
c7.33301 -4 11.666 -9.16699 12.999 -15.5s-1 -13.5 -7 -21.5l-131 -160c-4 -5.33301 -8.33301 -9.33301 -13 -12s-10.334 -2 -17.001 2l-63 36c-5.33301 3.33301 -9.16602 6.83301 -11.499 10.5s-1.16602 9.5 3.50098 17.5l103 185c5.33301 9.33301 11 14.333 17 15
s11.333 -0.333008 16 -3z" />
    <glyph glyph-name="icircumflex" unicode="&#xee;" horiz-adv-x="431" 
d="M306 24c0 -4 -1.16699 -9.00195 -3.5 -15.002s-8.83301 -9 -19.5 -9h-141c-9.33301 0 -15.666 2.33301 -18.999 7s-5 10.334 -5 17.001v449c0 6.66699 1.66699 12.334 5 17.001s9.66602 7 18.999 7h141c10.667 0 17.167 -3 19.5 -9s3.5 -11 3.5 -15v-449zM76 524.998
c-7.33301 -5.33301 -13.334 -8.66797 -18.001 -10.001s-10 1.33398 -16 8.00098l-41 41c-6 6 -9.5 11 -10.5 15s2.16699 9.66699 9.5 17l134 140c6 6.66699 11.5 11.834 16.5 15.501s14.5 5.5 28.5 5.5h72c14 0 23.333 -1.33301 28 -4s10 -7.33398 16 -14.001l136 -144
c7.33301 -7.33301 10.5 -13 9.5 -17s-4.5 -9 -10.5 -15l-42 -40c-6.66699 -6 -12.167 -8.5 -16.5 -7.5s-10.166 4.16699 -17.499 9.5l-142 99z" />
    <glyph glyph-name="idieresis" unicode="&#xef;" horiz-adv-x="378" 
d="M283 24c0 -4 -1.16699 -9.00195 -3.5 -15.002s-8.83301 -9 -19.5 -9h-141c-9.33301 0 -15.666 2.33301 -18.999 7s-5 10.334 -5 17.001v449c0 6.66699 1.66699 12.334 5 17.001s9.66602 7 18.999 7h141c10.667 0 17.167 -3 19.5 -9s3.5 -11 3.5 -15v-449zM78 536.998
c-20 0 -35.8311 2.33203 -47.498 6.99902s-20.5 10.834 -26.5 18.501s-9.83301 16.5 -11.5 26.5s-2.5 20.333 -2.5 31c0 11.333 1.16699 22 3.5 32s6.83301 18.5 13.5 25.5s15.667 12.5 27 16.5s26 6 44 6c18.667 0 33.667 -1.83301 45 -5.5s20.333 -9 27 -16
s11.167 -15.5 13.5 -25.5s3.5 -21 3.5 -33c0 -11.333 -1 -22 -3 -32s-6.33301 -18.833 -13 -26.5s-15.834 -13.667 -27.501 -18s-26.834 -6.5 -45.501 -6.5zM299.002 536.997c-19.333 0 -34.832 2.33203 -46.499 6.99902s-20.5 10.834 -26.5 18.501s-10 16.5 -12 26.5
s-3 20.333 -3 31c0 11.333 1.33301 22 4 32s7.16699 18.5 13.5 25.5s15.166 12.5 26.499 16.5s26 6 44 6c18.667 0 33.834 -1.83301 45.501 -5.5s20.667 -9 27 -16s10.666 -15.5 12.999 -25.5s3.5 -21 3.5 -33c0 -11.333 -1 -22 -3 -32s-6.16699 -18.833 -12.5 -26.5
s-15.333 -13.667 -27 -18s-27.167 -6.5 -46.5 -6.5z" />
    <glyph glyph-name="eth" unicode="&#xf0;" horiz-adv-x="565" 
d="M453 646c12.667 -13.333 23.6719 -30.166 33.0049 -50.499s17.166 -43 23.499 -68s11.166 -51.667 14.499 -80s5 -57.166 5 -86.499c0 -46 -2.16699 -91.167 -6.5 -135.5s-15 -84 -32 -119s-42.5 -63.167 -76.5 -84.5s-80.667 -32 -140 -32
c-52.667 0 -94.334 8 -125.001 24s-53.834 36 -69.501 60s-25.667 50 -30 78s-6.5 54 -6.5 78c0.666992 13.333 2.16699 28.166 4.5 44.499s6.66602 33.166 12.999 50.499s15 34.166 26 50.499s25.333 31 43 44s38.834 23.333 63.501 31s53.667 11.5 87 11.5
c11.333 0 24.833 -1 40.5 -3s28.5 -6.33301 38.5 -13c0 5.33301 -0.5 12 -1.5 20s-2.16699 16.167 -3.5 24.5s-3.16602 16.5 -5.49902 24.5s-4.83301 14.333 -7.5 19l-36 -35c-5.33301 -5.33301 -9.83301 -8.33301 -13.5 -9s-8.16699 1.66602 -13.5 6.99902l-28 28
c-4.66699 4 -6.5 7.5 -5.5 10.5s2.83301 6.16699 5.5 9.5l34 34c-16 5.33301 -33.667 8 -53 8c-12 0 -23 -0.166992 -33 -0.5s-20.667 -1.16602 -32 -2.49902c-6 -0.666992 -10.5 -0.5 -13.5 0.5s-5.16699 4.5 -6.5 10.5l-11 84c-1.33301 8 -0.5 14.167 2.5 18.5
s8.16699 7.83301 15.5 10.5c10 4 20.833 7.33301 32.5 10s23.834 4.66699 36.501 6s25.167 2 37.5 2s23.5 -0.333008 33.5 -1c42 -3.33301 76.667 -13.666 104 -30.999l46 46c5.33301 6 9.66602 9.16699 12.999 9.5s7.66602 -2.16699 12.999 -7.5l28 -26
c6.66699 -5.33301 9.66699 -9.33301 9 -12s-3.33398 -6.66699 -8.00098 -12zM330.005 227c0.666992 26 -2.5 45.501 -9.5 58.501s-20.167 19.5 -39.5 19.5c-33.333 0 -50.666 -26.667 -51.999 -80c-0.666992 -28.667 3 -48.334 11 -59.001s20 -16 36 -16
c19.333 0 33.166 7.5 41.499 22.5s12.5 33.167 12.5 54.5z" />
    <glyph glyph-name="ntilde" unicode="&#xf1;" horiz-adv-x="580" 
d="M243 454l1.99609 -1.00293c25.333 19.333 51.833 32.833 79.5 40.5s50.834 11.5 69.501 11.5c36.667 0 65.334 -6.5 86.001 -19.5s36 -29.5 46 -49.5s16.167 -41.833 18.5 -65.5s3.5 -46.5 3.5 -68.5v-278c0 -4 -1.16699 -9 -3.5 -15s-8.83301 -9 -19.5 -9h-141
c-9.33301 0 -15.666 2.33301 -18.999 7s-5 10.334 -5 17.001v246c0 26 -4.66699 42.5 -14 49.5s-21.666 10.5 -36.999 10.5c-11.333 0 -22.833 -1.83301 -34.5 -5.5s-22.167 -7.16699 -31.5 -10.5v-290c0 -4 -1.16699 -9 -3.5 -15s-8.83301 -9 -19.5 -9h-141
c-9.33301 0 -15.666 2.33301 -18.999 7s-5 10.334 -5 17.001v449c0 6.66699 1.66699 12.334 5 17.001s9.66602 7 18.999 7h141c10.667 0 17.167 -3 19.5 -9s3.5 -11 3.5 -15v-19zM367.996 540.997c-11.333 0 -24.332 2.33008 -38.999 6.99707s-29.5 10 -44.5 16
s-29.667 11.333 -44 16s-26.833 7 -37.5 7c-9.33301 0 -19.166 -2.33301 -29.499 -7s-21.166 -14.667 -32.499 -30c-4.66699 -6 -8.33398 -9.66699 -11.001 -11s-8.66699 0.333984 -18 5.00098l-46 22c-0.666992 0 -1.83398 0.666992 -3.50098 2s-3.16699 3 -4.5 5
s-2.33301 4.5 -3 7.5s-0.333984 6.5 0.999023 10.5c18.667 47.333 40.834 80.5 66.501 99.5s51.5 28.5 77.5 28.5c15.333 0 30.666 -2.5 45.999 -7.5s30.166 -10.333 44.499 -16l41 -16c13 -5 24.833 -7.5 35.5 -7.5c11.333 0 21.833 2.83301 31.5 8.5
s18.834 15.5 27.501 29.5c4 6.66699 8.33301 9.66699 13 9s10.667 -3 18 -7l45 -25c6 -3.33301 10.167 -6.66602 12.5 -9.99902s1.83301 -8.66602 -1.5 -15.999c-10.667 -24 -21.667 -43.833 -33 -59.5s-23 -28 -35 -37s-24.5 -15.167 -37.5 -18.5s-26.167 -5 -39.5 -5z" />
    <glyph glyph-name="ograve" unicode="&#xf2;" horiz-adv-x="571" 
d="M531 255c0 -26.667 -2.16895 -55.334 -6.50195 -86.001s-14.833 -59.167 -31.5 -85.5s-41.5 -48.166 -74.5 -65.499s-78.5 -26 -136.5 -26c-56.667 0 -101.167 8.66699 -133.5 26s-56.5 39.166 -72.5 65.499s-26 54.833 -30 85.5s-6 59.334 -6 86.001
c0 22 2.5 47.5 7.5 76.5s15.833 56.333 32.5 82s41 47.5 73 65.5s75 27 129 27s97.333 -7.66699 130 -23s57.834 -35.166 75.501 -59.499s29.334 -51.333 35.001 -81s8.5 -58.834 8.5 -87.501zM339.998 249c0 33.333 -3.33203 58 -9.99902 74s-22 24 -46 24
c-20.667 0 -34.834 -8.5 -42.501 -25.5s-11.5 -41.167 -11.5 -72.5c0 -35.333 3.5 -60.666 10.5 -75.999s20.833 -23 41.5 -23c23.333 0 38.833 8.16699 46.5 24.5s11.5 41.166 11.5 74.499zM208.999 795c4 3.33301 9.16699 4.99902 15.5 4.99902s12.833 -4 19.5 -12
l129 -167c6 -7.33301 8.16699 -13.166 6.5 -17.499s-4.83398 -8.16602 -9.50098 -11.499l-54 -48c-5.33301 -5.33301 -10.666 -7 -15.999 -5s-10.333 5.33301 -15 10l-157 141c-13.333 13.333 -13 25.666 1 36.999z" />
    <glyph glyph-name="oacute" unicode="&#xf3;" horiz-adv-x="571" 
d="M531 255c0 -26.667 -2.16895 -55.334 -6.50195 -86.001s-14.833 -59.167 -31.5 -85.5s-41.5 -48.166 -74.5 -65.499s-78.5 -26 -136.5 -26c-56.667 0 -101.167 8.66699 -133.5 26s-56.5 39.166 -72.5 65.499s-26 54.833 -30 85.5s-6 59.334 -6 86.001
c0 22 2.5 47.5 7.5 76.5s15.833 56.333 32.5 82s41 47.5 73 65.5s75 27 129 27s97.333 -7.66699 130 -23s57.834 -35.166 75.501 -59.499s29.334 -51.333 35.001 -81s8.5 -58.834 8.5 -87.501zM339.998 249c0 33.333 -3.33203 58 -9.99902 74s-22 24 -46 24
c-20.667 0 -34.834 -8.5 -42.501 -25.5s-11.5 -41.167 -11.5 -72.5c0 -35.333 3.5 -60.666 10.5 -75.999s20.833 -23 41.5 -23c23.333 0 38.833 8.16699 46.5 24.5s11.5 41.166 11.5 74.499zM447.999 745c7.33301 -4 11.666 -9.16699 12.999 -15.5s-1 -13.5 -7 -21.5
l-131 -160c-4 -5.33301 -8.33301 -9.33301 -13 -12s-10.334 -2 -17.001 2l-63 36c-5.33301 3.33301 -9.16602 6.83301 -11.499 10.5s-1.16602 9.5 3.50098 17.5l103 185c5.33301 9.33301 11 14.333 17 15s11.333 -0.333008 16 -3z" />
    <glyph glyph-name="ocircumflex" unicode="&#xf4;" horiz-adv-x="571" 
d="M531 255c0 -26.667 -2.16895 -55.334 -6.50195 -86.001s-14.833 -59.167 -31.5 -85.5s-41.5 -48.166 -74.5 -65.499s-78.5 -26 -136.5 -26c-56.667 0 -101.167 8.66699 -133.5 26s-56.5 39.166 -72.5 65.499s-26 54.833 -30 85.5s-6 59.334 -6 86.001
c0 22 2.5 47.5 7.5 76.5s15.833 56.333 32.5 82s41 47.5 73 65.5s75 27 129 27s97.333 -7.66699 130 -23s57.834 -35.166 75.501 -59.499s29.334 -51.333 35.001 -81s8.5 -58.834 8.5 -87.501zM339.998 249c0 33.333 -3.33203 58 -9.99902 74s-22 24 -46 24
c-20.667 0 -34.834 -8.5 -42.501 -25.5s-11.5 -41.167 -11.5 -72.5c0 -35.333 3.5 -60.666 10.5 -75.999s20.833 -23 41.5 -23c23.333 0 38.833 8.16699 46.5 24.5s11.5 41.166 11.5 74.499zM147.999 525c-7.33301 -5.33301 -13.334 -8.66797 -18.001 -10.001
s-10 1.33398 -16 8.00098l-41 41c-6 6 -9.5 11 -10.5 15s2.16699 9.66699 9.5 17l134 140c6 6.66699 11.5 11.834 16.5 15.501s14.5 5.5 28.5 5.5h72c14 0 23.333 -1.33301 28 -4s10 -7.33398 16 -14.001l136 -144c7.33301 -7.33301 10.5 -13 9.5 -17s-4.5 -9 -10.5 -15
l-42 -40c-6.66699 -6 -12.167 -8.5 -16.5 -7.5s-10.166 4.16699 -17.499 9.5l-142 99z" />
    <glyph glyph-name="otilde" unicode="&#xf5;" horiz-adv-x="571" 
d="M531 255c0 -26.667 -2.16895 -55.334 -6.50195 -86.001s-14.833 -59.167 -31.5 -85.5s-41.5 -48.166 -74.5 -65.499s-78.5 -26 -136.5 -26c-56.667 0 -101.167 8.66699 -133.5 26s-56.5 39.166 -72.5 65.499s-26 54.833 -30 85.5s-6 59.334 -6 86.001
c0 22 2.5 47.5 7.5 76.5s15.833 56.333 32.5 82s41 47.5 73 65.5s75 27 129 27s97.333 -7.66699 130 -23s57.834 -35.166 75.501 -59.499s29.334 -51.333 35.001 -81s8.5 -58.834 8.5 -87.501zM339.998 249c0 33.333 -3.33203 58 -9.99902 74s-22 24 -46 24
c-20.667 0 -34.834 -8.5 -42.501 -25.5s-11.5 -41.167 -11.5 -72.5c0 -35.333 3.5 -60.666 10.5 -75.999s20.833 -23 41.5 -23c23.333 0 38.833 8.16699 46.5 24.5s11.5 41.166 11.5 74.499zM368.999 541c-11.333 0 -24.332 2.33008 -38.999 6.99707s-29.5 10 -44.5 16
s-29.667 11.333 -44 16s-26.833 7 -37.5 7c-9.33301 0 -19.166 -2.33301 -29.499 -7s-21.166 -14.667 -32.499 -30c-4.66699 -6 -8.33398 -9.66699 -11.001 -11s-8.66699 0.333984 -18 5.00098l-46 22c-0.666992 0 -1.83398 0.666992 -3.50098 2s-3.16699 3 -4.5 5
s-2.33301 4.5 -3 7.5s-0.333984 6.5 0.999023 10.5c18.667 47.333 40.834 80.5 66.501 99.5s51.5 28.5 77.5 28.5c15.333 0 30.666 -2.5 45.999 -7.5s30.166 -10.333 44.499 -16l41 -16c13 -5 24.833 -7.5 35.5 -7.5c11.333 0 21.833 2.83301 31.5 8.5
s18.834 15.5 27.501 29.5c4 6.66699 8.33301 9.66699 13 9s10.667 -3 18 -7l45 -25c6 -3.33301 10.167 -6.66602 12.5 -9.99902s1.83301 -8.66602 -1.5 -15.999c-10.667 -24 -21.667 -43.833 -33 -59.5s-23 -28 -35 -37s-24.5 -15.167 -37.5 -18.5s-26.167 -5 -39.5 -5z" />
    <glyph glyph-name="odieresis" unicode="&#xf6;" horiz-adv-x="571" 
d="M531 255c0 -26.667 -2.16895 -55.334 -6.50195 -86.001s-14.833 -59.167 -31.5 -85.5s-41.5 -48.166 -74.5 -65.499s-78.5 -26 -136.5 -26c-56.667 0 -101.167 8.66699 -133.5 26s-56.5 39.166 -72.5 65.499s-26 54.833 -30 85.5s-6 59.334 -6 86.001
c0 22 2.5 47.5 7.5 76.5s15.833 56.333 32.5 82s41 47.5 73 65.5s75 27 129 27s97.333 -7.66699 130 -23s57.834 -35.166 75.501 -59.499s29.334 -51.333 35.001 -81s8.5 -58.834 8.5 -87.501zM339.998 249c0 33.333 -3.33203 58 -9.99902 74s-22 24 -46 24
c-20.667 0 -34.834 -8.5 -42.501 -25.5s-11.5 -41.167 -11.5 -72.5c0 -35.333 3.5 -60.666 10.5 -75.999s20.833 -23 41.5 -23c23.333 0 38.833 8.16699 46.5 24.5s11.5 41.166 11.5 74.499zM177.999 537c-20 0 -35.8311 2.33203 -47.498 6.99902s-20.5 10.834 -26.5 18.501
s-9.83301 16.5 -11.5 26.5s-2.5 20.333 -2.5 31c0 11.333 1.16699 22 3.5 32s6.83301 18.5 13.5 25.5s15.667 12.5 27 16.5s26 6 44 6c18.667 0 33.667 -1.83301 45 -5.5s20.333 -9 27 -16s11.167 -15.5 13.5 -25.5s3.5 -21 3.5 -33c0 -11.333 -1 -22 -3 -32
s-6.33301 -18.833 -13 -26.5s-15.834 -13.667 -27.501 -18s-26.834 -6.5 -45.501 -6.5zM399.001 536.999c-19.333 0 -34.832 2.33203 -46.499 6.99902s-20.5 10.834 -26.5 18.501s-10 16.5 -12 26.5s-3 20.333 -3 31c0 11.333 1.33301 22 4 32s7.16699 18.5 13.5 25.5
s15.166 12.5 26.499 16.5s26 6 44 6c18.667 0 33.834 -1.83301 45.501 -5.5s20.667 -9 27 -16s10.666 -15.5 12.999 -25.5s3.5 -21 3.5 -33c0 -11.333 -1 -22 -3 -32s-6.16699 -18.833 -12.5 -26.5s-15.333 -13.667 -27 -18s-27.167 -6.5 -46.5 -6.5z" />
    <glyph glyph-name="divide" unicode="&#xf7;" horiz-adv-x="616" 
d="M91 256c-16 0 -24 8.33301 -24 25v86c0 16 8 24 24 24h436c10 0 16.333 -2 19 -6s4 -9.66699 4 -17v-87c0 -8.66699 -1.33301 -15 -4 -19s-9 -6 -19 -6h-436zM306 423c-21.333 0 -38.167 2.50195 -50.5 7.50195s-21.666 11.5 -27.999 19.5s-10.5 17.333 -12.5 28
s-3 21.667 -3 33c0 12 1.33301 23.333 4 34s7.5 19.667 14.5 27s16.5 13.166 28.5 17.499s27.667 6.5 47 6.5s35.166 -2 47.499 -6s22 -9.66699 29 -17s11.667 -16.333 14 -27s3.5 -22.334 3.5 -35.001c0 -12 -1.16699 -23.333 -3.5 -34s-6.83301 -20 -13.5 -28
s-16.167 -14.333 -28.5 -19s-28.5 -7 -48.5 -7zM305.999 45.002c-21.333 0 -38.167 2.50195 -50.5 7.50195s-21.666 11.5 -27.999 19.5s-10.5 17.333 -12.5 28s-3 21.667 -3 33c0 12 1.33301 23.333 4 34s7.5 19.667 14.5 27s16.5 13.166 28.5 17.499s27.667 6.5 47 6.5
s35.166 -2 47.499 -6s22 -9.66699 29 -17s11.667 -16.333 14 -27s3.5 -22.334 3.5 -35.001c0 -12 -1.16699 -23.333 -3.5 -34s-6.83301 -20 -13.5 -28s-16.167 -14.333 -28.5 -19s-28.5 -7 -48.5 -7z" />
    <glyph glyph-name="oslash" unicode="&#xf8;" horiz-adv-x="571" 
d="M531 255c0 -26.667 -2.16699 -55.333 -6.5 -86s-14.833 -59.167 -31.5 -85.5s-41.5 -48.166 -74.5 -65.499s-78.5 -26 -136.5 -26c-32.667 0 -61 3 -85 9s-44.667 14.333 -62 25l-28 -33c-5.33301 -6.66699 -10 -10.667 -14 -12s-9.66699 0.666992 -17 6l-17 14
c-6 5.33301 -8.83301 10 -8.5 14s3.16602 9.33301 8.49902 16l30 35c-22 28 -35.667 59 -41 93s-8 66 -8 96c0 22 2.5 47.5 7.5 76.5s15.833 56.333 32.5 82s41 47.5 73 65.5s75 27 129 27c33.333 0 62.333 -3 87 -9s46 -14.333 64 -25l41 48c6.66699 8 11.667 12.5 15 13.5
s8 -1.16699 14 -6.5l18 -14c6.66699 -5.33301 10 -9.83301 10 -13.5s-3 -9.5 -9 -17.5l-42 -50c20.667 -24.667 34.334 -52.834 41.001 -84.501s10 -62.5 10 -92.5zM340 267.001l-91 -106.999c7.33301 -6.66699 18.333 -10 33 -10c23.333 0 38.833 8.16699 46.5 24.5
s11.5 41.166 11.5 74.499v18zM230 232.002l89.002 105c-8.66699 6.66699 -20.334 10 -35.001 10c-20.667 0 -34.834 -8.5 -42.501 -25.5s-11.5 -41.167 -11.5 -72.5v-17z" />
    <glyph glyph-name="ugrave" unicode="&#xf9;" horiz-adv-x="574" 
d="M341 43l-1.99805 1.00195c-25.333 -19.333 -51.666 -32.833 -78.999 -40.5s-50.333 -11.5 -69 -11.5c-36.667 0 -65 5.83301 -85 17.5s-34.833 27 -44.5 46s-15.334 40.333 -17.001 64s-2.5 47.834 -2.5 72.501v281c0 4 1.16699 9 3.5 15s8.83301 9 19.5 9h141
c9.33301 0 15.666 -2.33301 18.999 -7s5 -10.334 5 -17.001v-246c0 -26 4.66699 -42.5 14 -49.5s21.666 -10.5 36.999 -10.5c11.333 0 21.833 1.83301 31.5 5.5l28.5 10.5v290c0 4 1.16699 9 3.5 15s8.83301 9 19.5 9h141c9.33301 0 15.666 -2.33301 18.999 -7
s5 -10.334 5 -17.001v-449c0 -6.66699 -1.66699 -12.334 -5 -17.001s-9.66602 -7 -18.999 -7h-141c-10.667 0 -17.167 3 -19.5 9s-3.5 11 -3.5 15v19zM198.002 795.002c4 3.33301 9.16699 4.99902 15.5 4.99902s12.833 -4 19.5 -12l129 -167
c6 -7.33301 8.16699 -13.166 6.5 -17.499s-4.83398 -8.16602 -9.50098 -11.499l-54 -48c-5.33301 -5.33301 -10.666 -7 -15.999 -5s-10.333 5.33301 -15 10l-157 141c-13.333 13.333 -13 25.666 1 36.999z" />
    <glyph glyph-name="uacute" unicode="&#xfa;" horiz-adv-x="574" 
d="M341 43l-1.99805 1.00195c-25.333 -19.333 -51.666 -32.833 -78.999 -40.5s-50.333 -11.5 -69 -11.5c-36.667 0 -65 5.83301 -85 17.5s-34.833 27 -44.5 46s-15.334 40.333 -17.001 64s-2.5 47.834 -2.5 72.501v281c0 4 1.16699 9 3.5 15s8.83301 9 19.5 9h141
c9.33301 0 15.666 -2.33301 18.999 -7s5 -10.334 5 -17.001v-246c0 -26 4.66699 -42.5 14 -49.5s21.666 -10.5 36.999 -10.5c11.333 0 21.833 1.83301 31.5 5.5l28.5 10.5v290c0 4 1.16699 9 3.5 15s8.83301 9 19.5 9h141c9.33301 0 15.666 -2.33301 18.999 -7
s5 -10.334 5 -17.001v-449c0 -6.66699 -1.66699 -12.334 -5 -17.001s-9.66602 -7 -18.999 -7h-141c-10.667 0 -17.167 3 -19.5 9s-3.5 11 -3.5 15v19zM433.002 745.002c7.33301 -4 11.666 -9.16699 12.999 -15.5s-1 -13.5 -7 -21.5l-131 -160
c-4 -5.33301 -8.33301 -9.33301 -13 -12s-10.334 -2 -17.001 2l-63 36c-5.33301 3.33301 -9.16602 6.83301 -11.499 10.5s-1.16602 9.5 3.50098 17.5l103 185c5.33301 9.33301 11 14.333 17 15s11.333 -0.333008 16 -3z" />
    <glyph glyph-name="ucircumflex" unicode="&#xfb;" horiz-adv-x="574" 
d="M341 43l-1.99805 1.00195c-25.333 -19.333 -51.666 -32.833 -78.999 -40.5s-50.333 -11.5 -69 -11.5c-36.667 0 -65 5.83301 -85 17.5s-34.833 27 -44.5 46s-15.334 40.333 -17.001 64s-2.5 47.834 -2.5 72.501v281c0 4 1.16699 9 3.5 15s8.83301 9 19.5 9h141
c9.33301 0 15.666 -2.33301 18.999 -7s5 -10.334 5 -17.001v-246c0 -26 4.66699 -42.5 14 -49.5s21.666 -10.5 36.999 -10.5c11.333 0 21.833 1.83301 31.5 5.5l28.5 10.5v290c0 4 1.16699 9 3.5 15s8.83301 9 19.5 9h141c9.33301 0 15.666 -2.33301 18.999 -7
s5 -10.334 5 -17.001v-449c0 -6.66699 -1.66699 -12.334 -5 -17.001s-9.66602 -7 -18.999 -7h-141c-10.667 0 -17.167 3 -19.5 9s-3.5 11 -3.5 15v19zM146.002 525.002c-7.33301 -5.33301 -13.334 -8.66797 -18.001 -10.001s-10 1.33398 -16 8.00098l-41 41
c-6 6 -9.5 11 -10.5 15s2.16699 9.66699 9.5 17l134 140c6 6.66699 11.5 11.834 16.5 15.501s14.5 5.5 28.5 5.5h72c14 0 23.333 -1.33301 28 -4s10 -7.33398 16 -14.001l136 -144c7.33301 -7.33301 10.5 -13 9.5 -17s-4.5 -9 -10.5 -15l-42 -40
c-6.66699 -6 -12.167 -8.5 -16.5 -7.5s-10.166 4.16699 -17.499 9.5l-142 99z" />
    <glyph glyph-name="udieresis" unicode="&#xfc;" horiz-adv-x="574" 
d="M341 43l-1.99805 1.00195c-25.333 -19.333 -51.666 -32.833 -78.999 -40.5s-50.333 -11.5 -69 -11.5c-36.667 0 -65 5.83301 -85 17.5s-34.833 27 -44.5 46s-15.334 40.333 -17.001 64s-2.5 47.834 -2.5 72.501v281c0 4 1.16699 9 3.5 15s8.83301 9 19.5 9h141
c9.33301 0 15.666 -2.33301 18.999 -7s5 -10.334 5 -17.001v-246c0 -26 4.66699 -42.5 14 -49.5s21.666 -10.5 36.999 -10.5c11.333 0 21.833 1.83301 31.5 5.5l28.5 10.5v290c0 4 1.16699 9 3.5 15s8.83301 9 19.5 9h141c9.33301 0 15.666 -2.33301 18.999 -7
s5 -10.334 5 -17.001v-449c0 -6.66699 -1.66699 -12.334 -5 -17.001s-9.66602 -7 -18.999 -7h-141c-10.667 0 -17.167 3 -19.5 9s-3.5 11 -3.5 15v19zM179.002 537.002c-20 0 -35.8311 2.33203 -47.498 6.99902s-20.5 10.834 -26.5 18.501s-9.83301 16.5 -11.5 26.5
s-2.5 20.333 -2.5 31c0 11.333 1.16699 22 3.5 32s6.83301 18.5 13.5 25.5s15.667 12.5 27 16.5s26 6 44 6c18.667 0 33.667 -1.83301 45 -5.5s20.333 -9 27 -16s11.167 -15.5 13.5 -25.5s3.5 -21 3.5 -33c0 -11.333 -1 -22 -3 -32s-6.33301 -18.833 -13 -26.5
s-15.834 -13.667 -27.501 -18s-26.834 -6.5 -45.501 -6.5zM400.004 537.001c-19.333 0 -34.832 2.33203 -46.499 6.99902s-20.5 10.834 -26.5 18.501s-10 16.5 -12 26.5s-3 20.333 -3 31c0 11.333 1.33301 22 4 32s7.16699 18.5 13.5 25.5s15.166 12.5 26.499 16.5
s26 6 44 6c18.667 0 33.834 -1.83301 45.501 -5.5s20.667 -9 27 -16s10.666 -15.5 12.999 -25.5s3.5 -21 3.5 -33c0 -11.333 -1 -22 -3 -32s-6.16699 -18.833 -12.5 -26.5s-15.333 -13.667 -27 -18s-27.167 -6.5 -46.5 -6.5z" />
    <glyph glyph-name="yacute" unicode="&#xfd;" horiz-adv-x="548" 
d="M275 233l40.001 130l34 110c2.66699 7.33301 6.5 13.166 11.5 17.499s15.167 6.5 30.5 6.5h120c14 0 22 -2.5 24 -7.5s1 -12.5 -3 -22.5l-242 -644c-4.66699 -11.333 -9.66699 -18.666 -15 -21.999s-14.666 -5 -27.999 -5h-119c-11.333 0 -18.833 2 -22.5 6
s-2.83398 11.667 2.49902 23l73 194l-171 449c-8 19.333 -1.66699 29 19 29h132c10.667 0 19.167 -1 25.5 -3s11.166 -9.66699 14.499 -23l33 -112l35 -126h6zM433.001 745c7.33301 -4 11.666 -9.16699 12.999 -15.5s-1 -13.5 -7 -21.5l-131 -160
c-4 -5.33301 -8.33301 -9.33301 -13 -12s-10.334 -2 -17.001 2l-63 36c-5.33301 3.33301 -9.16602 6.83301 -11.499 10.5s-1.16602 9.5 3.50098 17.5l103 185c5.33301 9.33301 11 14.333 17 15s11.333 -0.333008 16 -3z" />
    <glyph glyph-name="thorn" unicode="&#xfe;" horiz-adv-x="573" 
d="M233 -181c0 -4 -1.16699 -9.00098 -3.5 -15.001s-8.83301 -9 -19.5 -9h-141c-9.33301 0 -15.666 2.33301 -18.999 7s-5 10.334 -5 17.001v822c0 6.66699 1.66699 12.334 5 17.001s9.66602 7 18.999 7h141c10.667 0 17.167 -3 19.5 -9s3.5 -11 3.5 -15v-187l2 -1
c25.333 19.333 48.5 32.833 69.5 40.5s40.833 11.5 59.5 11.5c36 0 65.167 -7 87.5 -21s39.5 -32.833 51.5 -56.5s20.167 -51 24.5 -82s6.5 -63.5 6.5 -97.5c0 -39.333 -2.83301 -74.833 -8.5 -106.5s-16.167 -59 -31.5 -82s-36.333 -40.667 -63 -53
s-61.334 -18.5 -104.001 -18.5c-11.333 0 -26.166 1.16699 -44.499 3.5s-34.833 5.16602 -49.5 8.49902v-181zM342 244.999c0 34 -3.83203 57 -11.499 69s-19.5 18 -35.5 18c-11.333 0 -22.333 -1.83301 -33 -5.5s-20.667 -7.5 -30 -11.5v-161
c11.333 -2.66699 20.666 -4.33398 27.999 -5.00098s14 -1 20 -1c10.667 0 20 1.16699 28 3.5s14.5 6.83301 19.5 13.5s8.66699 16.334 11 29.001s3.5 29.667 3.5 51z" />
    <glyph glyph-name="ydieresis" unicode="&#xff;" horiz-adv-x="548" 
d="M275 233l40.001 130l34 110c2.66699 7.33301 6.5 13.166 11.5 17.499s15.167 6.5 30.5 6.5h120c14 0 22 -2.5 24 -7.5s1 -12.5 -3 -22.5l-242 -644c-4.66699 -11.333 -9.66699 -18.666 -15 -21.999s-14.666 -5 -27.999 -5h-119c-11.333 0 -18.833 2 -22.5 6
s-2.83398 11.667 2.49902 23l73 194l-171 449c-8 19.333 -1.66699 29 19 29h132c10.667 0 19.167 -1 25.5 -3s11.166 -9.66699 14.499 -23l33 -112l35 -126h6zM162.001 537c-20 0 -35.8311 2.33203 -47.498 6.99902s-20.5 10.834 -26.5 18.501s-9.83301 16.5 -11.5 26.5
s-2.5 20.333 -2.5 31c0 11.333 1.16699 22 3.5 32s6.83301 18.5 13.5 25.5s15.667 12.5 27 16.5s26 6 44 6c18.667 0 33.667 -1.83301 45 -5.5s20.333 -9 27 -16s11.167 -15.5 13.5 -25.5s3.5 -21 3.5 -33c0 -11.333 -1 -22 -3 -32s-6.33301 -18.833 -13 -26.5
s-15.834 -13.667 -27.501 -18s-26.834 -6.5 -45.501 -6.5zM383.003 536.999c-19.333 0 -34.832 2.33203 -46.499 6.99902s-20.5 10.834 -26.5 18.501s-10 16.5 -12 26.5s-3 20.333 -3 31c0 11.333 1.33301 22 4 32s7.16699 18.5 13.5 25.5s15.166 12.5 26.499 16.5
s26 6 44 6c18.667 0 33.834 -1.83301 45.501 -5.5s20.667 -9 27 -16s10.666 -15.5 12.999 -25.5s3.5 -21 3.5 -33c0 -11.333 -1 -22 -3 -32s-6.16699 -18.833 -12.5 -26.5s-15.333 -13.667 -27 -18s-27.167 -6.5 -46.5 -6.5z" />
    <glyph glyph-name="Amacron" unicode="&#x100;" horiz-adv-x="650" 
d="M204 33c-3.33301 -12.667 -8.33398 -21.3311 -15.001 -25.998s-15.667 -7 -27 -7h-138c-9.33301 0 -15.5 1.66699 -18.5 5s-2.5 11.666 1.5 24.999l186 601c3.33301 11.333 8 20 14 26s17.667 9 35 9h157c17.333 0 28.666 -3 33.999 -9s10 -15 14 -27l197 -602
c6 -18.667 1.66699 -28 -13 -28h-153c-13.333 0 -22.666 3.16699 -27.999 9.5s-9.66602 16.166 -12.999 29.499l-27 98h-178zM156.999 701.003c-16 0 -24 8.33301 -24 25v86c0 16 8 24 24 24h328c10 0 16.333 -2 19 -6s4 -9.66699 4 -17v-87c0 -8.66699 -1.33301 -15 -4 -19
s-9 -6 -19 -6h-328zM348.999 367.003l-25 104h-6l-47 -188h99z" />
    <glyph glyph-name="amacron" unicode="&#x101;" horiz-adv-x="600" 
d="M332 195h-64.998c-12.667 0 -22.667 -3 -30 -9s-11 -16.667 -11 -32c0 -10 2.16699 -17 6.5 -21s12.166 -6 23.499 -6s24.166 2.5 38.499 7.5s26.833 10.5 37.5 16.5v44zM354.002 63c-13.333 -14.667 -28.1689 -26.6719 -44.502 -36.0049s-32.666 -16.5 -48.999 -21.5
s-31.666 -8.5 -45.999 -10.5s-26.166 -3 -35.499 -3c-31.333 0 -56.333 4.5 -75 13.5s-33 20.833 -43 35.5s-16.667 31 -20 49s-5 35.667 -5 53c-0.666992 32 4 58.667 14 80s23.667 38.333 41 51s38 21.667 62 27s50 8 78 8h105v8c0 6.66699 -0.833008 12.5 -2.5 17.5
s-5 9.33301 -10 13s-12.5 6.33398 -22.5 8.00098s-23.333 2.5 -40 2.5c-6 0 -14.167 -0.333008 -24.5 -1s-21.5 -1.33398 -33.5 -2.00098s-24 -1.66699 -36 -3s-22.667 -2.33301 -32 -3c-8.66699 -1.33301 -15.667 -2.16602 -21 -2.49902s-9.66602 0.166992 -12.999 1.5
s-5.83301 3.66602 -7.5 6.99902s-3.16699 8 -4.5 14l-14 64c-2 10 -0.833008 18.5 3.5 25.5s16.166 14.167 35.499 21.5c12 4.66699 25.833 8.66699 41.5 12s31.5 6 47.5 8s31.667 3.5 47 4.5s28.666 1.5 39.999 1.5c50 0 90 -4.33301 120 -13s53.167 -21.167 69.5 -37.5
s27.166 -36.666 32.499 -60.999s8 -52.166 8 -83.499v-128c0 -21.333 2.5 -34.5 7.5 -39.5s15.167 -8.5 30.5 -10.5c9.33301 -1.33301 15.333 -3.16602 18 -5.49902s4 -7.16602 4 -14.499v-82c0 -8.66699 -3 -15 -9 -19s-14 -7.33301 -24 -10
c-12 -3.33301 -24 -5.5 -36 -6.5s-24.667 -1.5 -38 -1.5c-12.667 0 -25.167 0.833008 -37.5 2.5s-23.666 5 -33.999 10s-19.5 11.833 -27.5 20.5s-14 20.334 -18 35.001zM124.999 559.995c-16 0 -24 8.33301 -24 25v86c0 16 8 24 24 24h328c10 0 16.333 -2 19 -6
s4 -9.66699 4 -17v-87c0 -8.66699 -1.33301 -15 -4 -19s-9 -6 -19 -6h-328z" />
    <glyph glyph-name="Abreve" unicode="&#x102;" horiz-adv-x="650" 
d="M204 33c-3.33301 -12.667 -8.33398 -21.3311 -15.001 -25.998s-15.667 -7 -27 -7h-138c-9.33301 0 -15.5 1.66699 -18.5 5s-2.5 11.666 1.5 24.999l186 601c3.33301 11.333 8 20 14 26s17.667 9 35 9h157c17.333 0 28.666 -3 33.999 -9s10 -15 14 -27l197 -602
c6 -18.667 1.66699 -28 -13 -28h-153c-13.333 0 -22.666 3.16699 -27.999 9.5s-9.66602 16.166 -12.999 29.499l-27 98h-178zM311.999 689.003c-21.333 0 -42.499 2.16602 -63.499 6.49902s-41 11.166 -60 20.499s-36.5 21.333 -52.5 36s-29 32 -39 52
c-5.33301 11.333 -8.83301 20.833 -10.5 28.5s2.16602 15.167 11.499 22.5l43 34c11.333 8 19.5 10.5 24.5 7.5s11.5 -9.16699 19.5 -18.5c18 -21.333 36.833 -37.166 56.5 -47.499s42.167 -15.5 67.5 -15.5c21.333 0 42.666 3.83301 63.999 11.5
s41.666 24.834 60.999 51.501c7.33301 10 13.833 15.833 19.5 17.5s13.834 -0.833008 24.501 -7.5l42 -25c11.333 -7.33301 16.166 -15 14.499 -23s-6.16699 -18.667 -13.5 -32c-23.333 -40.667 -52.666 -70.667 -87.999 -90s-75.666 -29 -120.999 -29zM349 367.002l-25 104
h-6l-47 -188h99z" />
    <glyph glyph-name="abreve" unicode="&#x103;" horiz-adv-x="600" 
d="M332 195h-64.998c-12.667 0 -22.667 -3 -30 -9s-11 -16.667 -11 -32c0 -10 2.16699 -17 6.5 -21s12.166 -6 23.499 -6s24.166 2.5 38.499 7.5s26.833 10.5 37.5 16.5v44zM354.002 63c-13.333 -14.667 -28.1689 -26.6719 -44.502 -36.0049s-32.666 -16.5 -48.999 -21.5
s-31.666 -8.5 -45.999 -10.5s-26.166 -3 -35.499 -3c-31.333 0 -56.333 4.5 -75 13.5s-33 20.833 -43 35.5s-16.667 31 -20 49s-5 35.667 -5 53c-0.666992 32 4 58.667 14 80s23.667 38.333 41 51s38 21.667 62 27s50 8 78 8h105v8c0 6.66699 -0.833008 12.5 -2.5 17.5
s-5 9.33301 -10 13s-12.5 6.33398 -22.5 8.00098s-23.333 2.5 -40 2.5c-6 0 -14.167 -0.333008 -24.5 -1s-21.5 -1.33398 -33.5 -2.00098s-24 -1.66699 -36 -3s-22.667 -2.33301 -32 -3c-8.66699 -1.33301 -15.667 -2.16602 -21 -2.49902s-9.66602 0.166992 -12.999 1.5
s-5.83301 3.66602 -7.5 6.99902s-3.16699 8 -4.5 14l-14 64c-2 10 -0.833008 18.5 3.5 25.5s16.166 14.167 35.499 21.5c12 4.66699 25.833 8.66699 41.5 12s31.5 6 47.5 8s31.667 3.5 47 4.5s28.666 1.5 39.999 1.5c50 0 90 -4.33301 120 -13s53.167 -21.167 69.5 -37.5
s27.166 -36.666 32.499 -60.999s8 -52.166 8 -83.499v-128c0 -21.333 2.5 -34.5 7.5 -39.5s15.167 -8.5 30.5 -10.5c9.33301 -1.33301 15.333 -3.16602 18 -5.49902s4 -7.16602 4 -14.499v-82c0 -8.66699 -3 -15 -9 -19s-14 -7.33301 -24 -10
c-12 -3.33301 -24 -5.5 -36 -6.5s-24.667 -1.5 -38 -1.5c-12.667 0 -25.167 0.833008 -37.5 2.5s-23.666 5 -33.999 10s-19.5 11.833 -27.5 20.5s-14 20.334 -18 35.001zM287.999 530.995c-21.333 0 -42.666 2.83301 -63.999 8.5s-41.666 14 -60.999 25
s-36.833 24.667 -52.5 41s-28.167 35.166 -37.5 56.499c-5.33301 11.333 -8.83301 20.833 -10.5 28.5s2.16602 15.167 11.499 22.5l43 34c11.333 8 19.5 10.5 24.5 7.5s11.5 -9.16699 19.5 -18.5c22.667 -26.667 43 -45.667 61 -57s39.667 -17 65 -17
c21.333 0 41.833 5 61.5 15s40.167 29.667 61.5 59c7.33301 10 13.833 15.833 19.5 17.5s13.834 -0.833008 24.501 -7.5l42 -25c11.333 -7.33301 16.166 -15 14.499 -23s-6.16699 -18.667 -13.5 -32c-22.667 -43.333 -51.834 -76.666 -87.501 -99.999
s-76.167 -35 -121.5 -35z" />
    <glyph glyph-name="Aogonek" unicode="&#x104;" horiz-adv-x="650" 
d="M570 -72c0 -21.333 13.333 -31.998 40 -31.998c9.33301 0 18.166 0.5 26.499 1.5s17.5 3.16699 27.5 6.5c8 2.66699 13.333 3.33398 16 2.00098s4.66699 -4.66602 6 -9.99902l14 -44c2.66699 -8 2.5 -13.833 -0.5 -17.5s-7.16699 -6.83398 -12.5 -9.50098
c-13.333 -6.66699 -29.333 -12.167 -48 -16.5s-38.667 -6.5 -60 -6.5c-41.333 0 -72.5 10.5 -93.5 31.5s-31.5 48.5 -31.5 82.5c0 12.667 2 26 6 40s11 28.667 21 44h-3c-13.333 0 -22.666 3.16699 -27.999 9.5s-9.66602 16.166 -12.999 29.499l-27 98h-178l-28 -104
c-3.33301 -12.667 -8.33301 -21.334 -15 -26.001s-15.667 -7 -27 -7h-138c-9.33301 0 -15.5 1.66699 -18.5 5s-2.5 11.666 1.5 24.999l186 601c3.33301 11.333 8 20 14 26s17.667 9 35 9h157c17.333 0 28.666 -3 33.999 -9s10 -15 14 -27l197 -602
c6 -18.667 1.66699 -28 -13 -28h-42c-8 -15.333 -13.167 -28.833 -15.5 -40.5s-3.5 -22.167 -3.5 -31.5zM349 367.002l-25 104h-6l-47 -188h99z" />
    <glyph glyph-name="aogonek" unicode="&#x105;" horiz-adv-x="600" 
d="M464 -72c0 -21.333 13.332 -32.0068 39.999 -32.0068c9.33301 0 18.166 0.5 26.499 1.5s17.5 3.16699 27.5 6.5c8 2.66699 13.333 3.33398 16 2.00098s4.66699 -4.66602 6 -9.99902l14 -44c2.66699 -8 2.5 -13.833 -0.5 -17.5s-7.16699 -6.83398 -12.5 -9.50098
c-13.333 -6.66699 -29.333 -12.167 -48 -16.5s-38.667 -6.5 -60 -6.5c-41.333 0 -72.5 10.5 -93.5 31.5s-31.5 48.5 -31.5 82.5c0 14.667 2.66699 30.334 8 47.001s15 34 29 52c-13.333 10.667 -23 26.334 -29 47.001l-2 1c-13.333 -14.667 -28.166 -26.667 -44.499 -36
s-32.666 -16.5 -48.999 -21.5s-31.666 -8.5 -45.999 -10.5s-26.166 -3 -35.499 -3c-31.333 0 -56.333 4.5 -75 13.5s-33 20.833 -43 35.5s-16.667 31 -20 49s-5 35.667 -5 53c-0.666992 32 4 58.667 14 80s23.667 38.333 41 51s38 21.667 62 27s50 8 78 8h105v8
c0 6.66699 -0.833008 12.5 -2.5 17.5s-5 9.33301 -10 13s-12.5 6.33398 -22.5 8.00098s-23.333 2.5 -40 2.5c-6 0 -14.167 -0.333008 -24.5 -1s-21.5 -1.33398 -33.5 -2.00098s-24 -1.66699 -36 -3s-22.667 -2.33301 -32 -3
c-8.66699 -1.33301 -15.667 -2.16602 -21 -2.49902s-9.66602 0.166992 -12.999 1.5s-5.83301 3.66602 -7.5 6.99902s-3.16699 8 -4.5 14l-14 64c-2 10 -0.833008 18.5 3.5 25.5s16.166 14.167 35.499 21.5c12 4.66699 25.833 8.66699 41.5 12s31.5 6 47.5 8
s31.667 3.5 47 4.5s28.666 1.5 39.999 1.5c50 0 90 -4.33301 120 -13s53.167 -21.167 69.5 -37.5s27.166 -36.666 32.499 -60.999s8 -52.166 8 -83.499v-128c0 -21.333 2.5 -34.5 7.5 -39.5s15.167 -8.5 30.5 -10.5c9.33301 -1.33301 15.333 -3.16602 18 -5.49902
s4 -7.16602 4 -14.499v-82c0 -8.66699 -3 -15 -9 -19s-14 -7.33301 -24 -10c-11.333 -2.66699 -22.5 -4.5 -33.5 -5.5s-22.167 -1.83301 -33.5 -2.5c-6.66699 -13.333 -11 -25.5 -13 -36.5s-3 -20.833 -3 -29.5zM331.999 194.993h-64.998c-12.667 0 -22.667 -3 -30 -9
s-11 -16.667 -11 -32c0 -10 2.16699 -17 6.5 -21s12.166 -6 23.499 -6s24.166 2.5 38.499 7.5s26.833 10.5 37.5 16.5v44z" />
    <glyph glyph-name="Cacute" unicode="&#x106;" horiz-adv-x="619" 
d="M55 332c0 39.333 3.99707 79.3291 11.9971 119.996s23.167 77.334 45.5 110.001s53.5 59.334 93.5 80.001s91.667 31 155 31c36.667 0 71.334 -2.83301 104.001 -8.5s62 -14.167 88 -25.5c11.333 -5.33301 20.5 -11.5 27.5 -18.5s8.83301 -18.833 5.5 -35.5l-15 -71
c-2.66699 -12.667 -6.5 -20.167 -11.5 -22.5s-15.167 -2.83301 -30.5 -1.5c-30 2.66699 -57.5 4.83398 -82.5 6.50098s-46.167 2.5 -63.5 2.5c-23.333 0 -42.666 -4.16699 -57.999 -12.5s-27.5 -19.666 -36.5 -33.999s-15.333 -31.5 -19 -51.5s-5.5 -41.667 -5.5 -65
c0 -30.667 1.83301 -57 5.5 -79s10 -40 19 -54s21 -24.333 36 -31s34.167 -10 57.5 -10c12.667 0 24.5 0.166992 35.5 0.5s22 0.833008 33 1.5s23 1.5 36 2.5s28.167 2.5 45.5 4.5c15.333 1.33301 25.333 1 30 -1s8.66699 -9.66699 12 -23l17 -65
c4.66699 -16 3.33398 -28 -3.99902 -36s-16.666 -14.667 -27.999 -20c-26 -11.333 -56.167 -20.166 -90.5 -26.499s-69.833 -9.5 -106.5 -9.5c-42.667 0 -79.667 4.66699 -111 14s-58.5 22.166 -81.5 38.499s-41.833 35.333 -56.5 57s-26.334 45.167 -35.001 70.5
s-14.667 51.833 -18 79.5s-5 55.167 -5 82.5zM548.997 809.996c4.66699 -6.66699 6.16504 -13.168 4.49805 -19.501s-7.16699 -11.166 -16.5 -14.499l-192 -78c-6 -2.66699 -11.667 -4.16699 -17 -4.5s-10.333 2.83398 -15 9.50098l-37 63
c-3.33301 4.66699 -5.16602 9.16699 -5.49902 13.5s3.5 9.16602 11.5 14.499l179 113c9.33301 5.33301 16.833 6.83301 22.5 4.5s9.83398 -5.83301 12.501 -10.5z" />
    <glyph glyph-name="cacute" unicode="&#x107;" horiz-adv-x="502" 
d="M469 70c3.33301 -15.333 3.50195 -26.668 0.501953 -34.001s-14.167 -14.666 -33.5 -21.999c-10 -3.33301 -21.5 -6.5 -34.5 -9.5s-26.333 -5.5 -40 -7.5s-27.334 -3.5 -41.001 -4.5s-26.5 -1.5 -38.5 -1.5c-52.667 0 -95 7.5 -127 22.5s-56.5 34.667 -73.5 59
s-28.167 52 -33.5 83s-8 62.5 -8 94.5c0 30 3 60.167 9 90.5s17.667 57.666 35 81.999s41.833 44.333 73.5 60s73.167 23.5 124.5 23.5c30 0 58.667 -2 86 -6s51.666 -10.667 72.999 -20c10.667 -4.66699 18.334 -10.167 23.001 -16.5s5.66699 -15.833 3 -28.5l-14 -77
c-1.33301 -6.66699 -2.66602 -11.667 -3.99902 -15s-3.5 -5.5 -6.5 -6.5s-7 -1.33301 -12 -1s-11.833 0.833008 -20.5 1.5c-20 2 -37.333 3.5 -52 4.5s-29.334 1.5 -44.001 1.5c-28.667 0 -49.834 -7.66699 -63.501 -23s-20.5 -37.666 -20.5 -66.999
c0 -37.333 5.83301 -63.333 17.5 -78s32.5 -22 62.5 -22c13.333 0 30 0.666992 50 2s41 3.33301 63 6c12.667 1.33301 20.667 1.33301 24 0s6.33301 -8.33301 9 -21zM394.002 744.998c7.33301 -4 11.666 -9.16699 12.999 -15.5s-1 -13.5 -7 -21.5l-131 -160
c-4 -5.33301 -8.33301 -9.33301 -13 -12s-10.334 -2 -17.001 2l-63 36c-5.33301 3.33301 -9.16602 6.83301 -11.499 10.5s-1.16602 9.5 3.50098 17.5l103 185c5.33301 9.33301 11 14.333 17 15s11.333 -0.333008 16 -3z" />
    </font>
</defs>
</svg>
